%TF.GenerationSoftware,KiCad,Pcbnew,9.0.7*%
%TF.CreationDate,2026-05-17T16:49:26-04:00*%
%TF.ProjectId,Turing Machine,54757269-6e67-4204-9d61-6368696e652e,rev?*%
%TF.SameCoordinates,Original*%
%TF.FileFunction,Copper,L4,Inr*%
%TF.FilePolarity,Positive*%
%FSLAX46Y46*%
G04 Gerber Fmt 4.6, Leading zero omitted, Abs format (unit mm)*
G04 Created by KiCad (PCBNEW 9.0.7) date 2026-05-17 16:49:26*
%MOMM*%
%LPD*%
G01*
G04 APERTURE LIST*
G04 Aperture macros list*
%AMRoundRect*
0 Rectangle with rounded corners*
0 $1 Rounding radius*
0 $2 $3 $4 $5 $6 $7 $8 $9 X,Y pos of 4 corners*
0 Add a 4 corners polygon primitive as box body*
4,1,4,$2,$3,$4,$5,$6,$7,$8,$9,$2,$3,0*
0 Add four circle primitives for the rounded corners*
1,1,$1+$1,$2,$3*
1,1,$1+$1,$4,$5*
1,1,$1+$1,$6,$7*
1,1,$1+$1,$8,$9*
0 Add four rect primitives between the rounded corners*
20,1,$1+$1,$2,$3,$4,$5,0*
20,1,$1+$1,$4,$5,$6,$7,0*
20,1,$1+$1,$6,$7,$8,$9,0*
20,1,$1+$1,$8,$9,$2,$3,0*%
G04 Aperture macros list end*
%TA.AperFunction,ComponentPad*%
%ADD10RoundRect,0.249999X-0.850001X-0.850001X0.850001X-0.850001X0.850001X0.850001X-0.850001X0.850001X0*%
%TD*%
%TA.AperFunction,ComponentPad*%
%ADD11C,2.200000*%
%TD*%
%TA.AperFunction,ComponentPad*%
%ADD12R,1.700000X1.700000*%
%TD*%
%TA.AperFunction,ComponentPad*%
%ADD13C,1.700000*%
%TD*%
%TA.AperFunction,ComponentPad*%
%ADD14C,0.700000*%
%TD*%
%TA.AperFunction,ComponentPad*%
%ADD15O,2.400000X0.900000*%
%TD*%
%TA.AperFunction,ComponentPad*%
%ADD16O,1.700000X0.900000*%
%TD*%
%TA.AperFunction,ViaPad*%
%ADD17C,0.600000*%
%TD*%
%TA.AperFunction,Conductor*%
%ADD18C,0.200000*%
%TD*%
%TA.AperFunction,Conductor*%
%ADD19C,1.500000*%
%TD*%
G04 APERTURE END LIST*
D10*
%TO.N,VCC*%
%TO.C,D1*%
X262840000Y-97000000D03*
D11*
%TO.N,Net-(D1-A)*%
X273000000Y-97000000D03*
%TD*%
D12*
%TO.N,S1D*%
%TO.C,J32*%
X100500000Y-162500000D03*
D13*
%TO.N,TABLE17*%
X100500000Y-159960000D03*
%TD*%
D12*
%TO.N,tNew*%
%TO.C,J107*%
X69000000Y-149637500D03*
D13*
%TO.N,TABLE16*%
X69000000Y-147097500D03*
%TD*%
D12*
%TO.N,S2D*%
%TO.C,J39*%
X61000000Y-162862500D03*
D13*
%TO.N,TABLE14*%
X61000000Y-160322500D03*
%TD*%
D12*
%TO.N,S2D*%
%TO.C,J184*%
X88500000Y-129460000D03*
D13*
%TO.N,TABLE31*%
X88500000Y-132000000D03*
%TD*%
D12*
%TO.N,S3D*%
%TO.C,J21*%
X30500000Y-189040000D03*
D13*
%TO.N,TABLE3*%
X30500000Y-186500000D03*
%TD*%
D12*
%TO.N,S2D*%
%TO.C,J72*%
X21000000Y-107745000D03*
D13*
%TO.N,TABLE9*%
X21000000Y-110285000D03*
%TD*%
D12*
%TO.N,S4D*%
%TO.C,J152*%
X29000000Y-118745000D03*
D13*
%TO.N,TABLE21*%
X29000000Y-121285000D03*
%TD*%
D12*
%TO.N,R{slash}L*%
%TO.C,J173*%
X37000000Y-129480000D03*
D13*
%TO.N,TABLE22*%
X37000000Y-132020000D03*
%TD*%
D12*
%TO.N,tNew*%
%TO.C,J110*%
X84500000Y-174500000D03*
D13*
%TO.N,TABLE19*%
X84500000Y-171960000D03*
%TD*%
D12*
%TO.N,S2D*%
%TO.C,J2*%
X125500000Y-149725000D03*
D13*
%TO.N,TABLE0*%
X125500000Y-147185000D03*
%TD*%
D12*
%TO.N,S1D*%
%TO.C,J121*%
X17000000Y-97020000D03*
D13*
%TO.N,TABLE20*%
X17000000Y-99560000D03*
%TD*%
D12*
%TO.N,R{slash}L*%
%TO.C,J120*%
X80500000Y-174500000D03*
D13*
%TO.N,TABLE19*%
X80500000Y-171960000D03*
%TD*%
D12*
%TO.N,tNew*%
%TO.C,J104*%
X143000000Y-169275000D03*
D13*
%TO.N,TABLE13*%
X143000000Y-166735000D03*
%TD*%
D12*
%TO.N,S3D*%
%TO.C,J75*%
X30000000Y-162010000D03*
D13*
%TO.N,TABLE6*%
X30000000Y-159470000D03*
%TD*%
D12*
%TO.N,S3D*%
%TO.C,J76*%
X151000000Y-159550000D03*
D13*
%TO.N,TABLE7*%
X151000000Y-157010000D03*
%TD*%
D12*
%TO.N,S1D*%
%TO.C,J34*%
X100680000Y-174490000D03*
D13*
%TO.N,TABLE19*%
X100680000Y-171950000D03*
%TD*%
D12*
%TO.N,S2D*%
%TO.C,J35*%
X155000000Y-150050000D03*
D13*
%TO.N,TABLE10*%
X155000000Y-147510000D03*
%TD*%
D12*
%TO.N,R{slash}L*%
%TO.C,J119*%
X48500000Y-175362500D03*
D13*
%TO.N,TABLE18*%
X48500000Y-172822500D03*
%TD*%
D12*
%TO.N,S4D*%
%TO.C,J82*%
X147000000Y-159550000D03*
D13*
%TO.N,TABLE7*%
X147000000Y-157010000D03*
%TD*%
D12*
%TO.N,tNew*%
%TO.C,J87*%
X22000000Y-162010000D03*
D13*
%TO.N,TABLE6*%
X22000000Y-159470000D03*
%TD*%
D12*
%TO.N,S1D*%
%TO.C,J28*%
X159000000Y-169275000D03*
D13*
%TO.N,TABLE13*%
X159000000Y-166735000D03*
%TD*%
D12*
%TO.N,S4D*%
%TO.C,J156*%
X59514571Y-108239571D03*
D13*
%TO.N,TABLE25*%
X59514571Y-110779571D03*
%TD*%
D12*
%TO.N,S4D*%
%TO.C,J60*%
X26500000Y-174580000D03*
D13*
%TO.N,TABLE15*%
X26500000Y-172040000D03*
%TD*%
D12*
%TO.N,S3D*%
%TO.C,J142*%
X25000000Y-118745000D03*
D13*
%TO.N,TABLE21*%
X25000000Y-121285000D03*
%TD*%
D12*
%TO.N,tNew*%
%TO.C,J163*%
X33000000Y-129480000D03*
D13*
%TO.N,TABLE22*%
X33000000Y-132020000D03*
%TD*%
D12*
%TO.N,S2D*%
%TO.C,J69*%
X34000000Y-162010000D03*
D13*
%TO.N,TABLE6*%
X34000000Y-159470000D03*
%TD*%
D12*
%TO.N,S1D*%
%TO.C,J29*%
X53000000Y-162872500D03*
D13*
%TO.N,TABLE14*%
X53000000Y-160332500D03*
%TD*%
D12*
%TO.N,R{slash}L*%
%TO.C,J174*%
X68014571Y-118239571D03*
D13*
%TO.N,TABLE23*%
X68014571Y-120779571D03*
%TD*%
D12*
%TO.N,S4D*%
%TO.C,J158*%
X59514571Y-98239571D03*
D13*
%TO.N,TABLE27*%
X59514571Y-100779571D03*
%TD*%
D12*
%TO.N,S2D*%
%TO.C,J131*%
X21000000Y-97020000D03*
D13*
%TO.N,TABLE20*%
X21000000Y-99560000D03*
%TD*%
D12*
%TO.N,S2D*%
%TO.C,J183*%
X88500000Y-118960000D03*
D13*
%TO.N,TABLE30*%
X88500000Y-121500000D03*
%TD*%
D12*
%TO.N,S1D*%
%TO.C,J130*%
X84500000Y-108000000D03*
D13*
%TO.N,TABLE29*%
X84500000Y-110540000D03*
%TD*%
D12*
%TO.N,tNew*%
%TO.C,J108*%
X84500000Y-162500000D03*
D13*
%TO.N,TABLE17*%
X84500000Y-159960000D03*
%TD*%
D12*
%TO.N,R{slash}L*%
%TO.C,J175*%
X109500000Y-159500000D03*
D13*
%TO.N,TABLE24*%
X109500000Y-156960000D03*
%TD*%
D12*
%TO.N,R{slash}L*%
%TO.C,J114*%
X139000000Y-169275000D03*
D13*
%TO.N,TABLE13*%
X139000000Y-166735000D03*
%TD*%
D12*
%TO.N,S1D*%
%TO.C,J30*%
X38500000Y-174540000D03*
D13*
%TO.N,TABLE15*%
X38500000Y-172000000D03*
%TD*%
D12*
%TO.N,tNew*%
%TO.C,J106*%
X22500000Y-174540000D03*
D13*
%TO.N,TABLE15*%
X22500000Y-172000000D03*
%TD*%
D12*
%TO.N,S2D*%
%TO.C,J70*%
X155000000Y-159550000D03*
D13*
%TO.N,TABLE7*%
X155000000Y-157010000D03*
%TD*%
D12*
%TO.N,tNew*%
%TO.C,J103*%
X113500000Y-182000000D03*
D13*
%TO.N,TABLE12*%
X113500000Y-179460000D03*
%TD*%
D12*
%TO.N,S4D*%
%TO.C,J58*%
X147000000Y-169275000D03*
D13*
%TO.N,TABLE13*%
X147000000Y-166735000D03*
%TD*%
D12*
%TO.N,S1D*%
%TO.C,J33*%
X52500000Y-175362500D03*
D13*
%TO.N,TABLE18*%
X52500000Y-172822500D03*
%TD*%
D12*
%TO.N,S1D*%
%TO.C,J127*%
X84500000Y-97460000D03*
D13*
%TO.N,TABLE26*%
X84500000Y-100000000D03*
%TD*%
D12*
%TO.N,S4D*%
%TO.C,J10*%
X88500000Y-189775000D03*
D13*
%TO.N,TABLE1*%
X88500000Y-187235000D03*
%TD*%
D12*
%TO.N,S3D*%
%TO.C,J47*%
X121500000Y-182000000D03*
D13*
%TO.N,TABLE12*%
X121500000Y-179460000D03*
%TD*%
D12*
%TO.N,S3D*%
%TO.C,J145*%
X121500000Y-159500000D03*
D13*
%TO.N,TABLE24*%
X121500000Y-156960000D03*
%TD*%
D12*
%TO.N,S2D*%
%TO.C,J41*%
X61000000Y-149862500D03*
D13*
%TO.N,TABLE16*%
X61000000Y-147322500D03*
%TD*%
D12*
%TO.N,R{slash}L*%
%TO.C,J111*%
X139000000Y-150050000D03*
D13*
%TO.N,TABLE10*%
X139000000Y-147510000D03*
%TD*%
D12*
%TO.N,S1D*%
%TO.C,J182*%
X84500000Y-129460000D03*
D13*
%TO.N,TABLE31*%
X84500000Y-132000000D03*
%TD*%
D12*
%TO.N,S1D*%
%TO.C,J62*%
X100500000Y-149775000D03*
D13*
%TO.N,TABLE5*%
X100500000Y-147235000D03*
%TD*%
D12*
%TO.N,tNew*%
%TO.C,J166*%
X63514571Y-108239571D03*
D13*
%TO.N,TABLE25*%
X63514571Y-110779571D03*
%TD*%
D12*
%TO.N,S4D*%
%TO.C,J81*%
X26000000Y-162010000D03*
D13*
%TO.N,TABLE6*%
X26000000Y-159470000D03*
%TD*%
D12*
%TO.N,R{slash}L*%
%TO.C,J172*%
X37000000Y-118745000D03*
D13*
%TO.N,TABLE21*%
X37000000Y-121285000D03*
%TD*%
D12*
%TO.N,S2D*%
%TO.C,J140*%
X88500000Y-108000000D03*
D13*
%TO.N,TABLE29*%
X88500000Y-110540000D03*
%TD*%
D12*
%TO.N,S4D*%
%TO.C,J59*%
X57040000Y-162872500D03*
D13*
%TO.N,TABLE14*%
X57040000Y-160332500D03*
%TD*%
D12*
%TO.N,S3D*%
%TO.C,J147*%
X92500000Y-97460000D03*
D13*
%TO.N,TABLE26*%
X92500000Y-100000000D03*
%TD*%
D12*
%TO.N,R{slash}L*%
%TO.C,J117*%
X49000000Y-149862500D03*
D13*
%TO.N,TABLE16*%
X49000000Y-147322500D03*
%TD*%
D12*
%TO.N,S2D*%
%TO.C,J38*%
X155000000Y-169275000D03*
D13*
%TO.N,TABLE13*%
X155000000Y-166735000D03*
%TD*%
D12*
%TO.N,S4D*%
%TO.C,J151*%
X29000000Y-97020000D03*
D13*
%TO.N,TABLE20*%
X29000000Y-99560000D03*
%TD*%
D12*
%TO.N,S1D*%
%TO.C,J126*%
X47514571Y-108239571D03*
D13*
%TO.N,TABLE25*%
X47514571Y-110779571D03*
%TD*%
D12*
%TO.N,S1D*%
%TO.C,J122*%
X17000000Y-118745000D03*
D13*
%TO.N,TABLE21*%
X17000000Y-121285000D03*
%TD*%
D12*
%TO.N,tNew*%
%TO.C,J89*%
X143000000Y-180550000D03*
D13*
%TO.N,TABLE8*%
X143000000Y-178010000D03*
%TD*%
D12*
%TO.N,S1D*%
%TO.C,J64*%
X159000000Y-159550000D03*
D13*
%TO.N,TABLE7*%
X159000000Y-157010000D03*
%TD*%
D12*
%TO.N,S4D*%
%TO.C,J97*%
X57000000Y-149839496D03*
D13*
%TO.N,TABLE16*%
X57000000Y-147299496D03*
%TD*%
D12*
%TO.N,S3D*%
%TO.C,J143*%
X25000000Y-129480000D03*
D13*
%TO.N,TABLE22*%
X25000000Y-132020000D03*
%TD*%
D12*
%TO.N,R{slash}L*%
%TO.C,J176*%
X67514571Y-108239571D03*
D13*
%TO.N,TABLE25*%
X67514571Y-110779571D03*
%TD*%
D12*
%TO.N,S1D*%
%TO.C,J25*%
X159000000Y-150050000D03*
D13*
%TO.N,TABLE10*%
X159000000Y-147510000D03*
%TD*%
D12*
%TO.N,S2D*%
%TO.C,J138*%
X51514571Y-98239571D03*
D13*
%TO.N,TABLE27*%
X51514571Y-100779571D03*
%TD*%
D12*
%TO.N,S2D*%
%TO.C,J40*%
X34500000Y-174540000D03*
D13*
%TO.N,TABLE15*%
X34500000Y-172000000D03*
%TD*%
D12*
%TO.N,R{slash}L*%
%TO.C,J24*%
X18500000Y-189040000D03*
D13*
%TO.N,TABLE3*%
X18500000Y-186500000D03*
%TD*%
D12*
%TO.N,S3D*%
%TO.C,J149*%
X55985429Y-130054571D03*
D13*
%TO.N,TABLE28*%
X55985429Y-132594571D03*
%TD*%
D12*
%TO.N,S2D*%
%TO.C,J133*%
X21000000Y-129480000D03*
D13*
%TO.N,TABLE22*%
X21000000Y-132020000D03*
%TD*%
D12*
%TO.N,S3D*%
%TO.C,J46*%
X121500000Y-170000000D03*
D13*
%TO.N,TABLE11*%
X121500000Y-167460000D03*
%TD*%
D12*
%TO.N,R{slash}L*%
%TO.C,J116*%
X18500000Y-174540000D03*
D13*
%TO.N,TABLE15*%
X18500000Y-172000000D03*
%TD*%
D12*
%TO.N,tNew*%
%TO.C,J23*%
X22500000Y-189040000D03*
D13*
%TO.N,TABLE3*%
X22500000Y-186500000D03*
%TD*%
D12*
%TO.N,S1D*%
%TO.C,J124*%
X48014571Y-118239571D03*
D13*
%TO.N,TABLE23*%
X48014571Y-120779571D03*
%TD*%
D12*
%TO.N,R{slash}L*%
%TO.C,J18*%
X48730000Y-190137500D03*
D13*
%TO.N,TABLE2*%
X48730000Y-187597500D03*
%TD*%
D12*
%TO.N,S4D*%
%TO.C,J79*%
X25500000Y-149275000D03*
D13*
%TO.N,TABLE4*%
X25500000Y-146735000D03*
%TD*%
D12*
%TO.N,tNew*%
%TO.C,J5*%
X113500000Y-149725000D03*
D13*
%TO.N,TABLE0*%
X113500000Y-147185000D03*
%TD*%
D12*
%TO.N,tNew*%
%TO.C,J102*%
X113500000Y-170000000D03*
D13*
%TO.N,TABLE11*%
X113500000Y-167460000D03*
%TD*%
D12*
%TO.N,S3D*%
%TO.C,J53*%
X64500000Y-175137500D03*
D13*
%TO.N,TABLE18*%
X64500000Y-172597500D03*
%TD*%
D12*
%TO.N,tNew*%
%TO.C,J17*%
X70000000Y-190137500D03*
D13*
%TO.N,TABLE2*%
X70000000Y-187597500D03*
%TD*%
D12*
%TO.N,S4D*%
%TO.C,J157*%
X96500000Y-97460000D03*
D13*
%TO.N,TABLE26*%
X96500000Y-100000000D03*
%TD*%
D12*
%TO.N,R{slash}L*%
%TO.C,J177*%
X104500000Y-97460000D03*
D13*
%TO.N,TABLE26*%
X104500000Y-100000000D03*
%TD*%
D12*
%TO.N,R{slash}L*%
%TO.C,J112*%
X109500000Y-170000000D03*
D13*
%TO.N,TABLE11*%
X109500000Y-167460000D03*
%TD*%
D12*
%TO.N,S1D*%
%TO.C,J27*%
X129500000Y-182000000D03*
D13*
%TO.N,TABLE12*%
X129500000Y-179460000D03*
%TD*%
D12*
%TO.N,tNew*%
%TO.C,J109*%
X68468906Y-175349897D03*
D13*
%TO.N,TABLE18*%
X68468906Y-172809897D03*
%TD*%
D12*
%TO.N,S1D*%
%TO.C,J181*%
X84500000Y-118960000D03*
D13*
%TO.N,TABLE30*%
X84500000Y-121500000D03*
%TD*%
D12*
%TO.N,S4D*%
%TO.C,J154*%
X60014571Y-118239571D03*
D13*
%TO.N,TABLE23*%
X60014571Y-120779571D03*
%TD*%
D12*
%TO.N,S1D*%
%TO.C,J31*%
X52860000Y-149839496D03*
D13*
%TO.N,TABLE16*%
X52860000Y-147299496D03*
%TD*%
D12*
%TO.N,tNew*%
%TO.C,J85*%
X21500000Y-149275000D03*
D13*
%TO.N,TABLE4*%
X21500000Y-146735000D03*
%TD*%
D12*
%TO.N,R{slash}L*%
%TO.C,J12*%
X80410000Y-189775000D03*
D13*
%TO.N,TABLE1*%
X80410000Y-187235000D03*
%TD*%
D12*
%TO.N,S3D*%
%TO.C,J144*%
X56014571Y-118239571D03*
D13*
%TO.N,TABLE23*%
X56014571Y-120779571D03*
%TD*%
D12*
%TO.N,S4D*%
%TO.C,J80*%
X88500000Y-149775000D03*
D13*
%TO.N,TABLE5*%
X88500000Y-147235000D03*
%TD*%
D12*
%TO.N,R{slash}L*%
%TO.C,J191*%
X104500000Y-119000000D03*
D13*
%TO.N,TABLE30*%
X104500000Y-121540000D03*
%TD*%
D12*
%TO.N,S1D*%
%TO.C,J129*%
X48014571Y-130054571D03*
D13*
%TO.N,TABLE28*%
X48014571Y-132594571D03*
%TD*%
D12*
%TO.N,R{slash}L*%
%TO.C,J96*%
X37000000Y-107755000D03*
D13*
%TO.N,TABLE9*%
X37000000Y-110295000D03*
%TD*%
D12*
%TO.N,S4D*%
%TO.C,J98*%
X88500000Y-162500000D03*
D13*
%TO.N,TABLE17*%
X88500000Y-159960000D03*
%TD*%
D12*
%TO.N,R{slash}L*%
%TO.C,J171*%
X37000000Y-97020000D03*
D13*
%TO.N,TABLE20*%
X37000000Y-99560000D03*
%TD*%
D12*
%TO.N,S3D*%
%TO.C,J3*%
X121500000Y-149725000D03*
D13*
%TO.N,TABLE0*%
X121500000Y-147185000D03*
%TD*%
D12*
%TO.N,S1D*%
%TO.C,J1*%
X129500000Y-149725000D03*
D13*
%TO.N,TABLE0*%
X129500000Y-147185000D03*
%TD*%
D12*
%TO.N,S2D*%
%TO.C,J42*%
X96500000Y-162500000D03*
D13*
%TO.N,TABLE17*%
X96500000Y-159960000D03*
%TD*%
D12*
%TO.N,S3D*%
%TO.C,J49*%
X65000000Y-162872500D03*
D13*
%TO.N,TABLE14*%
X65000000Y-160332500D03*
%TD*%
D12*
%TO.N,tNew*%
%TO.C,J11*%
X84500000Y-189775000D03*
D13*
%TO.N,TABLE1*%
X84500000Y-187235000D03*
%TD*%
D12*
%TO.N,R{slash}L*%
%TO.C,J113*%
X109500000Y-182000000D03*
D13*
%TO.N,TABLE12*%
X109500000Y-179460000D03*
%TD*%
D12*
%TO.N,S2D*%
%TO.C,J136*%
X51514571Y-108239571D03*
D13*
%TO.N,TABLE25*%
X51514571Y-110779571D03*
%TD*%
D12*
%TO.N,tNew*%
%TO.C,J167*%
X100500000Y-97460000D03*
D13*
%TO.N,TABLE26*%
X100500000Y-100000000D03*
%TD*%
D12*
%TO.N,R{slash}L*%
%TO.C,J93*%
X18000000Y-162010000D03*
D13*
%TO.N,TABLE6*%
X18000000Y-159470000D03*
%TD*%
D12*
%TO.N,S4D*%
%TO.C,J56*%
X117500000Y-170000000D03*
D13*
%TO.N,TABLE11*%
X117500000Y-167460000D03*
%TD*%
D12*
%TO.N,S2D*%
%TO.C,J14*%
X62000000Y-190137500D03*
D13*
%TO.N,TABLE2*%
X62000000Y-187597500D03*
%TD*%
D12*
%TO.N,S4D*%
%TO.C,J100*%
X88500000Y-174500000D03*
D13*
%TO.N,TABLE19*%
X88500000Y-171960000D03*
%TD*%
D12*
%TO.N,S1D*%
%TO.C,J65*%
X159000000Y-180550000D03*
D13*
%TO.N,TABLE8*%
X159000000Y-178010000D03*
%TD*%
D12*
%TO.N,S4D*%
%TO.C,J16*%
X57910000Y-190137500D03*
D13*
%TO.N,TABLE2*%
X57910000Y-187597500D03*
%TD*%
D12*
%TO.N,S1D*%
%TO.C,J61*%
X37500000Y-149275000D03*
D13*
%TO.N,TABLE4*%
X37500000Y-146735000D03*
%TD*%
D12*
%TO.N,S2D*%
%TO.C,J8*%
X96500000Y-189775000D03*
D13*
%TO.N,TABLE1*%
X96500000Y-187235000D03*
%TD*%
D12*
%TO.N,R{slash}L*%
%TO.C,J192*%
X104500000Y-129460000D03*
D13*
%TO.N,TABLE31*%
X104500000Y-132000000D03*
%TD*%
D12*
%TO.N,S1D*%
%TO.C,J125*%
X129500000Y-159500000D03*
D13*
%TO.N,TABLE24*%
X129500000Y-156960000D03*
%TD*%
D12*
%TO.N,R{slash}L*%
%TO.C,J118*%
X80500000Y-162500000D03*
D13*
%TO.N,TABLE17*%
X80500000Y-159960000D03*
%TD*%
D12*
%TO.N,S1D*%
%TO.C,J66*%
X17000000Y-107745000D03*
D13*
%TO.N,TABLE9*%
X17000000Y-110285000D03*
%TD*%
D12*
%TO.N,tNew*%
%TO.C,J168*%
X63514571Y-98199571D03*
D13*
%TO.N,TABLE27*%
X63514571Y-100739571D03*
%TD*%
D12*
%TO.N,tNew*%
%TO.C,J165*%
X113500000Y-159500000D03*
D13*
%TO.N,TABLE24*%
X113500000Y-156960000D03*
%TD*%
D12*
%TO.N,S3D*%
%TO.C,J51*%
X65000000Y-149839496D03*
D13*
%TO.N,TABLE16*%
X65000000Y-147299496D03*
%TD*%
D12*
%TO.N,S4D*%
%TO.C,J153*%
X29000000Y-129480000D03*
D13*
%TO.N,TABLE22*%
X29000000Y-132020000D03*
%TD*%
D12*
%TO.N,S3D*%
%TO.C,J45*%
X151000000Y-150050000D03*
D13*
%TO.N,TABLE10*%
X151000000Y-147510000D03*
%TD*%
D12*
%TO.N,S1D*%
%TO.C,J63*%
X38000000Y-162010000D03*
D13*
%TO.N,TABLE6*%
X38000000Y-159470000D03*
%TD*%
D12*
%TO.N,tNew*%
%TO.C,J189*%
X100500000Y-119000000D03*
D13*
%TO.N,TABLE30*%
X100500000Y-121540000D03*
%TD*%
D12*
%TO.N,R{slash}L*%
%TO.C,J94*%
X139000000Y-159550000D03*
D13*
%TO.N,TABLE7*%
X139000000Y-157010000D03*
%TD*%
D12*
%TO.N,S3D*%
%TO.C,J74*%
X92500000Y-149775000D03*
D13*
%TO.N,TABLE5*%
X92500000Y-147235000D03*
%TD*%
D12*
%TO.N,S4D*%
%TO.C,J55*%
X147000000Y-150050000D03*
D13*
%TO.N,TABLE10*%
X147000000Y-147510000D03*
%TD*%
D12*
%TO.N,S4D*%
%TO.C,J159*%
X59898005Y-130054571D03*
D13*
%TO.N,TABLE28*%
X59898005Y-132594571D03*
%TD*%
D12*
%TO.N,S3D*%
%TO.C,J150*%
X92500000Y-108000000D03*
D13*
%TO.N,TABLE29*%
X92500000Y-110540000D03*
%TD*%
D12*
%TO.N,tNew*%
%TO.C,J190*%
X100500000Y-129460000D03*
D13*
%TO.N,TABLE31*%
X100500000Y-132000000D03*
%TD*%
D12*
%TO.N,tNew*%
%TO.C,J169*%
X63926288Y-130054571D03*
D13*
%TO.N,TABLE28*%
X63926288Y-132594571D03*
%TD*%
D12*
%TO.N,S4D*%
%TO.C,J84*%
X29000000Y-107745000D03*
D13*
%TO.N,TABLE9*%
X29000000Y-110285000D03*
%TD*%
D12*
%TO.N,R{slash}L*%
%TO.C,J91*%
X17500000Y-149275000D03*
D13*
%TO.N,TABLE4*%
X17500000Y-146735000D03*
%TD*%
D12*
%TO.N,R{slash}L*%
%TO.C,J92*%
X80500000Y-149775000D03*
D13*
%TO.N,TABLE5*%
X80500000Y-147235000D03*
%TD*%
D12*
%TO.N,S4D*%
%TO.C,J160*%
X96500000Y-108000000D03*
D13*
%TO.N,TABLE29*%
X96500000Y-110540000D03*
%TD*%
D12*
%TO.N,S2D*%
%TO.C,J137*%
X88500000Y-97460000D03*
D13*
%TO.N,TABLE26*%
X88500000Y-100000000D03*
%TD*%
D12*
%TO.N,tNew*%
%TO.C,J105*%
X69000000Y-162862500D03*
D13*
%TO.N,TABLE14*%
X69000000Y-160322500D03*
%TD*%
D12*
%TO.N,tNew*%
%TO.C,J161*%
X33000000Y-97020000D03*
D13*
%TO.N,TABLE20*%
X33000000Y-99560000D03*
%TD*%
D12*
%TO.N,S2D*%
%TO.C,J20*%
X34500000Y-189040000D03*
D13*
%TO.N,TABLE3*%
X34500000Y-186500000D03*
%TD*%
D12*
%TO.N,S1D*%
%TO.C,J13*%
X53000000Y-190137500D03*
D13*
%TO.N,TABLE2*%
X53000000Y-187597500D03*
%TD*%
D12*
%TO.N,S3D*%
%TO.C,J50*%
X30500000Y-174580000D03*
D13*
%TO.N,TABLE15*%
X30500000Y-172040000D03*
%TD*%
D12*
%TO.N,S2D*%
%TO.C,J67*%
X33500000Y-149275000D03*
D13*
%TO.N,TABLE4*%
X33500000Y-146735000D03*
%TD*%
D12*
%TO.N,S3D*%
%TO.C,J185*%
X92500000Y-118960000D03*
D13*
%TO.N,TABLE30*%
X92500000Y-121500000D03*
%TD*%
D12*
%TO.N,R{slash}L*%
%TO.C,J178*%
X67514571Y-98239571D03*
D13*
%TO.N,TABLE27*%
X67514571Y-100779571D03*
%TD*%
D12*
%TO.N,S4D*%
%TO.C,J57*%
X117500000Y-182000000D03*
D13*
%TO.N,TABLE12*%
X117500000Y-179460000D03*
%TD*%
D12*
%TO.N,S3D*%
%TO.C,J141*%
X25000000Y-97020000D03*
D13*
%TO.N,TABLE20*%
X25000000Y-99560000D03*
%TD*%
D12*
%TO.N,S1D*%
%TO.C,J123*%
X17000000Y-129480000D03*
D13*
%TO.N,TABLE22*%
X17000000Y-132020000D03*
%TD*%
D12*
%TO.N,R{slash}L*%
%TO.C,J115*%
X49040000Y-162872500D03*
D13*
%TO.N,TABLE14*%
X49040000Y-160332500D03*
%TD*%
D12*
%TO.N,S3D*%
%TO.C,J146*%
X55514571Y-108239571D03*
D13*
%TO.N,TABLE25*%
X55514571Y-110779571D03*
%TD*%
D12*
%TO.N,R{slash}L*%
%TO.C,J179*%
X67911895Y-130054571D03*
D13*
%TO.N,TABLE28*%
X67911895Y-132594571D03*
%TD*%
D12*
%TO.N,S3D*%
%TO.C,J9*%
X92500000Y-189775000D03*
D13*
%TO.N,TABLE1*%
X92500000Y-187235000D03*
%TD*%
D12*
%TO.N,S2D*%
%TO.C,J36*%
X125500000Y-170000000D03*
D13*
%TO.N,TABLE11*%
X125500000Y-167460000D03*
%TD*%
D12*
%TO.N,S2D*%
%TO.C,J132*%
X21000000Y-118745000D03*
D13*
%TO.N,TABLE21*%
X21000000Y-121285000D03*
%TD*%
D12*
%TO.N,tNew*%
%TO.C,J88*%
X143000000Y-159550000D03*
D13*
%TO.N,TABLE7*%
X143000000Y-157010000D03*
%TD*%
D12*
%TO.N,R{slash}L*%
%TO.C,J6*%
X109320000Y-149725000D03*
D13*
%TO.N,TABLE0*%
X109320000Y-147185000D03*
%TD*%
D12*
%TO.N,S2D*%
%TO.C,J37*%
X125500000Y-182000000D03*
D13*
%TO.N,TABLE12*%
X125500000Y-179460000D03*
%TD*%
D12*
%TO.N,S4D*%
%TO.C,J4*%
X117500000Y-149725000D03*
D13*
%TO.N,TABLE0*%
X117500000Y-147185000D03*
%TD*%
D12*
%TO.N,S1D*%
%TO.C,J26*%
X129500000Y-170000000D03*
D13*
%TO.N,TABLE11*%
X129500000Y-167460000D03*
%TD*%
D12*
%TO.N,S3D*%
%TO.C,J15*%
X66000000Y-190137500D03*
D13*
%TO.N,TABLE2*%
X66000000Y-187597500D03*
%TD*%
D12*
%TO.N,S2D*%
%TO.C,J43*%
X60500000Y-175362500D03*
D13*
%TO.N,TABLE18*%
X60500000Y-172822500D03*
%TD*%
D12*
%TO.N,S2D*%
%TO.C,J134*%
X52014571Y-118239571D03*
D13*
%TO.N,TABLE23*%
X52014571Y-120779571D03*
%TD*%
D12*
%TO.N,tNew*%
%TO.C,J164*%
X64014571Y-118239571D03*
D13*
%TO.N,TABLE23*%
X64014571Y-120779571D03*
%TD*%
D12*
%TO.N,S2D*%
%TO.C,J139*%
X51985429Y-130054571D03*
D13*
%TO.N,TABLE28*%
X51985429Y-132594571D03*
%TD*%
D12*
%TO.N,S3D*%
%TO.C,J77*%
X151000000Y-180550000D03*
D13*
%TO.N,TABLE8*%
X151000000Y-178010000D03*
%TD*%
D12*
%TO.N,tNew*%
%TO.C,J162*%
X33000000Y-118745000D03*
D13*
%TO.N,TABLE21*%
X33000000Y-121285000D03*
%TD*%
D12*
%TO.N,tNew*%
%TO.C,J101*%
X143000000Y-150050000D03*
D13*
%TO.N,TABLE10*%
X143000000Y-147510000D03*
%TD*%
D12*
%TO.N,S2D*%
%TO.C,J68*%
X96500000Y-149775000D03*
D13*
%TO.N,TABLE5*%
X96500000Y-147235000D03*
%TD*%
D12*
%TO.N,S3D*%
%TO.C,J54*%
X92500000Y-174500000D03*
D13*
%TO.N,TABLE19*%
X92500000Y-171960000D03*
%TD*%
D12*
%TO.N,S2D*%
%TO.C,J71*%
X155000000Y-180550000D03*
D13*
%TO.N,TABLE8*%
X155000000Y-178010000D03*
%TD*%
D12*
%TO.N,S4D*%
%TO.C,J155*%
X117500000Y-159500000D03*
D13*
%TO.N,TABLE24*%
X117500000Y-156960000D03*
%TD*%
D12*
%TO.N,S2D*%
%TO.C,J135*%
X125500000Y-159500000D03*
D13*
%TO.N,TABLE24*%
X125500000Y-156960000D03*
%TD*%
D12*
%TO.N,tNew*%
%TO.C,J86*%
X84500000Y-149775000D03*
D13*
%TO.N,TABLE5*%
X84500000Y-147235000D03*
%TD*%
D12*
%TO.N,S4D*%
%TO.C,J99*%
X56500000Y-175362500D03*
D13*
%TO.N,TABLE18*%
X56500000Y-172822500D03*
%TD*%
D12*
%TO.N,S4D*%
%TO.C,J22*%
X26500000Y-189040000D03*
D13*
%TO.N,TABLE3*%
X26500000Y-186500000D03*
%TD*%
D12*
%TO.N,R{slash}L*%
%TO.C,J95*%
X139000000Y-180550000D03*
D13*
%TO.N,TABLE8*%
X139000000Y-178010000D03*
%TD*%
D12*
%TO.N,tNew*%
%TO.C,J170*%
X100500000Y-108000000D03*
D13*
%TO.N,TABLE29*%
X100500000Y-110540000D03*
%TD*%
D12*
%TO.N,S2D*%
%TO.C,J44*%
X96500000Y-174500000D03*
D13*
%TO.N,TABLE19*%
X96500000Y-171960000D03*
%TD*%
D12*
%TO.N,S3D*%
%TO.C,J73*%
X29500000Y-149275000D03*
D13*
%TO.N,TABLE4*%
X29500000Y-146735000D03*
%TD*%
D12*
%TO.N,S3D*%
%TO.C,J78*%
X25000000Y-107745000D03*
D13*
%TO.N,TABLE9*%
X25000000Y-110285000D03*
%TD*%
D12*
%TO.N,S3D*%
%TO.C,J48*%
X151000000Y-169275000D03*
D13*
%TO.N,TABLE13*%
X151000000Y-166735000D03*
%TD*%
D12*
%TO.N,S1D*%
%TO.C,J128*%
X47514571Y-98239571D03*
D13*
%TO.N,TABLE27*%
X47514571Y-100779571D03*
%TD*%
D12*
%TO.N,R{slash}L*%
%TO.C,J180*%
X104451937Y-107999397D03*
D13*
%TO.N,TABLE29*%
X104451937Y-110539397D03*
%TD*%
D12*
%TO.N,S4D*%
%TO.C,J188*%
X96500000Y-129460000D03*
D13*
%TO.N,TABLE31*%
X96500000Y-132000000D03*
%TD*%
D12*
%TO.N,S3D*%
%TO.C,J148*%
X55604571Y-98239571D03*
D13*
%TO.N,TABLE27*%
X55604571Y-100779571D03*
%TD*%
D12*
%TO.N,S1D*%
%TO.C,J7*%
X100500000Y-189775000D03*
D13*
%TO.N,TABLE1*%
X100500000Y-187235000D03*
%TD*%
D12*
%TO.N,S3D*%
%TO.C,J52*%
X92550000Y-162500000D03*
D13*
%TO.N,TABLE17*%
X92550000Y-159960000D03*
%TD*%
D12*
%TO.N,S3D*%
%TO.C,J186*%
X92500000Y-129460000D03*
D13*
%TO.N,TABLE31*%
X92500000Y-132000000D03*
%TD*%
D12*
%TO.N,S4D*%
%TO.C,J83*%
X147000000Y-180550000D03*
D13*
%TO.N,TABLE8*%
X147000000Y-178010000D03*
%TD*%
D12*
%TO.N,tNew*%
%TO.C,J90*%
X33000000Y-107745000D03*
D13*
%TO.N,TABLE9*%
X33000000Y-110285000D03*
%TD*%
D12*
%TO.N,S1D*%
%TO.C,J19*%
X38500000Y-189040000D03*
D13*
%TO.N,TABLE3*%
X38500000Y-186500000D03*
%TD*%
D12*
%TO.N,S4D*%
%TO.C,J187*%
X96500000Y-119000000D03*
D13*
%TO.N,TABLE30*%
X96500000Y-121540000D03*
%TD*%
D14*
%TO.N,GND*%
%TO.C,J193*%
X275640000Y-110650000D03*
%TO.N,Net-(F1-Pad2)*%
X275640000Y-109800000D03*
%TO.N,Net-(J193-CC1)*%
X275640000Y-108950000D03*
%TO.N,unconnected-(J193-D+-PadA6)*%
X275640000Y-108100000D03*
%TO.N,unconnected-(J193-D--PadA7)*%
X275640000Y-107250000D03*
%TO.N,N/C*%
X275640000Y-106400000D03*
%TO.N,Net-(F1-Pad2)*%
X275640000Y-105550000D03*
%TO.N,GND*%
X275640000Y-104700000D03*
X276990000Y-104700000D03*
%TO.N,Net-(F1-Pad2)*%
X276990000Y-105550000D03*
%TO.N,Net-(J193-CC2)*%
X276990000Y-106400000D03*
%TO.N,unconnected-(J193-D+-PadB6)*%
X276990000Y-107250000D03*
%TO.N,unconnected-(J193-D--PadB7)*%
X276990000Y-108100000D03*
%TO.N,N/C*%
X276990000Y-108950000D03*
%TO.N,Net-(F1-Pad2)*%
X276990000Y-109800000D03*
%TO.N,GND*%
X276990000Y-110650000D03*
D15*
X276620000Y-112000000D03*
D16*
X280000000Y-112000000D03*
D15*
X276620000Y-103350000D03*
D16*
X280000000Y-103350000D03*
%TD*%
D17*
%TO.N,Net-(J193-CC2)*%
X279000000Y-109000000D03*
X272775000Y-110225000D03*
%TO.N,GND*%
X273000000Y-103000000D03*
%TO.N,TABLE6*%
X162000000Y-108000000D03*
%TO.N,TABLE5*%
X111000000Y-190000000D03*
X105000000Y-192000000D03*
X121000000Y-139000000D03*
X123000000Y-132000000D03*
X136000000Y-119000000D03*
X138000000Y-117000000D03*
X160000000Y-101000000D03*
%TO.N,TABLE4*%
X69000000Y-136000000D03*
X105000000Y-136000000D03*
X111000000Y-133000000D03*
X76000000Y-136000000D03*
X142000000Y-119000000D03*
X47000000Y-136000000D03*
X131000000Y-125000000D03*
%TO.N,VCC*%
X260000000Y-95000000D03*
%TO.N,TABLE11*%
X164000000Y-175000000D03*
X164000000Y-138000000D03*
%TO.N,GND*%
X199000000Y-137900000D03*
%TO.N,Y7*%
X187000000Y-129900000D03*
X197000000Y-121880000D03*
%TO.N,TABLE16*%
X84000000Y-137000000D03*
X112000000Y-137000000D03*
X126000000Y-136000000D03*
X145000000Y-135000000D03*
X148000000Y-134000000D03*
X176933265Y-113000000D03*
%TO.N,VCC*%
X202000000Y-134000000D03*
%TO.N,TABLE17*%
X105750000Y-160000000D03*
X113000000Y-137000000D03*
X173000000Y-114000000D03*
%TO.N,VCC*%
X225000000Y-116000000D03*
X225000000Y-114150000D03*
X222000000Y-109100000D03*
X216000000Y-111000000D03*
X198000000Y-106000000D03*
%TO.N,TABLE18*%
X173000000Y-115000000D03*
%TO.N,TABLE19*%
X105000000Y-186000000D03*
X174000000Y-163000000D03*
X173000000Y-116000000D03*
X171000000Y-163000000D03*
%TO.N,VCC*%
X246000000Y-126000000D03*
%TO.N,tNew*%
X210000000Y-138000000D03*
X223000000Y-129000000D03*
%TO.N,VCC*%
X224000000Y-127000000D03*
%TO.N,Y2*%
X219725000Y-126000000D03*
X188900000Y-126100000D03*
%TO.N,VCC*%
X192050000Y-129500000D03*
%TO.N,GND*%
X198000000Y-124100000D03*
%TO.N,TABLE20*%
X136000000Y-84000000D03*
X142000000Y-87000000D03*
X174000000Y-117459000D03*
%TO.N,TABLE21*%
X142000000Y-85000000D03*
X145000000Y-87000000D03*
X175000000Y-118000000D03*
%TO.N,VCC*%
X244000000Y-118000000D03*
%TO.N,GND*%
X248000000Y-114000000D03*
%TO.N,VCC*%
X246000000Y-97000000D03*
X216000000Y-84000000D03*
X230000000Y-82000000D03*
X220000000Y-97000000D03*
%TO.N,TABLE22*%
X176000000Y-118000000D03*
%TO.N,TABLE8*%
X156000000Y-138000000D03*
%TO.N,TABLE9*%
X157000000Y-126000000D03*
%TO.N,TABLE10*%
X155000000Y-138750000D03*
%TO.N,TABLE12*%
X124000000Y-139000000D03*
X153000000Y-115000000D03*
%TO.N,S4D*%
X184000000Y-118000000D03*
X244000000Y-111000000D03*
%TO.N,S3D*%
X248000000Y-108000000D03*
%TO.N,S2D*%
X196475000Y-109690000D03*
X250000000Y-105000000D03*
%TO.N,S1D*%
X251000000Y-103000000D03*
%TO.N,TABLE13*%
X145000000Y-139000000D03*
X153000000Y-114000000D03*
%TO.N,TABLE14*%
X78000000Y-138000000D03*
X83000000Y-138000000D03*
X153000000Y-112000000D03*
%TO.N,MUXZ*%
X159500000Y-120890000D03*
X166000000Y-110000000D03*
%TO.N,VCC*%
X180000000Y-116000000D03*
X173000000Y-110000000D03*
%TO.N,TABLE3*%
X166000000Y-102000000D03*
X143000000Y-133000000D03*
X148000000Y-109000000D03*
%TO.N,VCC*%
X236000000Y-155000000D03*
%TO.N,Net-(U22-Pad4)*%
X197000000Y-133000000D03*
X228619485Y-115468015D03*
%TO.N,VCC*%
X195000000Y-133000000D03*
X186000000Y-131900000D03*
X181000000Y-134000000D03*
%TO.N,GND*%
X166000000Y-124000000D03*
%TO.N,TABLE28*%
X80000000Y-93000000D03*
X84000000Y-92000000D03*
%TO.N,VCC*%
X138000000Y-100000000D03*
X131000000Y-105000000D03*
%TO.N,TABLE2*%
X143000000Y-134000000D03*
X149000000Y-109000000D03*
X167000000Y-103000000D03*
%TO.N,TABLE1*%
X150000000Y-109000000D03*
X148000000Y-138000000D03*
X168000000Y-104000000D03*
%TO.N,TABLE0*%
X151000000Y-138000000D03*
X151000000Y-109000000D03*
X169000000Y-104900000D03*
%TO.N,VCC*%
X155000000Y-95000000D03*
%TO.N,TABLE7*%
X152000000Y-138000000D03*
%TO.N,VCC*%
X162000000Y-117000000D03*
X155000000Y-124000000D03*
X157000000Y-133000000D03*
X210000000Y-152000000D03*
X223000000Y-147000000D03*
X229026765Y-145973235D03*
X228000000Y-149000000D03*
X260000000Y-140000000D03*
X249000000Y-137000000D03*
X249000000Y-144000000D03*
X248000000Y-144000000D03*
%TO.N,GND*%
X251100000Y-137000000D03*
%TO.N,VCC*%
X260000000Y-131000000D03*
%TO.N,GND*%
X255000000Y-126000000D03*
%TO.N,VCC*%
X252000000Y-131000000D03*
%TO.N,GND*%
X259000000Y-126000000D03*
%TO.N,VCC*%
X256000000Y-131000000D03*
X262000000Y-140000000D03*
X274000000Y-131000000D03*
X269000000Y-138000000D03*
%TO.N,S1D*%
X191525000Y-108420000D03*
X180000000Y-146000000D03*
X194000000Y-86000000D03*
X194000000Y-89000000D03*
%TO.N,TABLE24*%
X140000000Y-137000000D03*
%TO.N,Net-(U30-Pad4)*%
X244637500Y-95450000D03*
X187000000Y-122000000D03*
%TO.N,GND*%
X185024265Y-137900000D03*
X189000000Y-137000000D03*
X192000000Y-136000000D03*
X195966450Y-137400000D03*
X200000000Y-130000000D03*
X206000000Y-134000000D03*
X202000000Y-132000000D03*
X222000000Y-112950000D03*
X230000000Y-112000000D03*
X220000000Y-118000000D03*
X210000000Y-132000000D03*
X220000000Y-129000000D03*
X223000000Y-141000000D03*
X206000000Y-147000000D03*
X213000000Y-160000000D03*
X221000000Y-156000000D03*
X247000000Y-140000000D03*
X246000000Y-150000000D03*
X254000000Y-142000000D03*
X258000000Y-137000000D03*
X264000000Y-140900000D03*
X270000000Y-134000000D03*
X259650000Y-111000000D03*
X259650000Y-108000000D03*
X251000000Y-95000000D03*
X246000000Y-93000000D03*
X224000000Y-85000000D03*
X209000000Y-90000000D03*
X218000000Y-89000000D03*
X259650000Y-103000000D03*
X259650000Y-105000000D03*
%TO.N,Net-(U38-Pad4)*%
X192000000Y-134000000D03*
X245000000Y-118000000D03*
%TO.N,Net-(U4-QA)*%
X197000000Y-129500000D03*
%TO.N,Net-(U4-QC)*%
X207000000Y-106000000D03*
%TO.N,Net-(U4-QB)*%
X208000000Y-106000000D03*
%TO.N,Net-(U4-QA)*%
X209000000Y-106000000D03*
%TO.N,T2Q*%
X218400000Y-115100000D03*
X214000000Y-91000000D03*
%TO.N,T1Q*%
X213000000Y-91000000D03*
X203000000Y-115000000D03*
X207000000Y-115000000D03*
%TO.N,S3Q*%
X166000000Y-116190000D03*
X153000000Y-98000000D03*
%TO.N,MUXZ*%
X154000000Y-92000000D03*
X154000000Y-95000000D03*
%TO.N,NS3Q*%
X159600000Y-115810000D03*
X128000000Y-106000000D03*
%TO.N,NS4Q*%
X164500000Y-121500000D03*
X127000000Y-107000000D03*
%TO.N,TABLE23*%
X166000000Y-118730000D03*
X157000000Y-109000000D03*
X78000000Y-96000000D03*
%TO.N,TABLE27*%
X137500000Y-106460000D03*
%TO.N,TABLE26*%
X137500000Y-105190000D03*
%TO.N,S1D*%
X43000000Y-145000000D03*
%TO.N,S2D*%
X64500000Y-195500000D03*
%TO.N,S3D*%
X75500000Y-145000000D03*
X189000000Y-117000000D03*
%TO.N,S4D*%
X41500000Y-126000000D03*
X72000000Y-126000000D03*
X177275735Y-137875735D03*
X109000000Y-125500000D03*
X105201000Y-154000000D03*
X134201000Y-153000000D03*
X75000000Y-154500000D03*
X44000000Y-154000000D03*
X14000000Y-140500000D03*
%TO.N,tNew*%
X194500000Y-141000000D03*
%TO.N,TABLE15*%
X160900000Y-112565687D03*
%TO.N,TABLE29*%
X110000000Y-108500000D03*
%TO.N,TABLE30*%
X111000000Y-112000000D03*
%TO.N,TABLE31*%
X112000000Y-109000000D03*
%TO.N,T4Q*%
X228500000Y-97000000D03*
X223000000Y-92500000D03*
%TO.N,T3Q*%
X225400000Y-93500000D03*
X231000000Y-93500000D03*
%TO.N,T6Q*%
X220500000Y-105000000D03*
X245000000Y-144500000D03*
%TO.N,T5Q*%
X221500000Y-105000000D03*
X265500000Y-137500000D03*
X237725000Y-148060000D03*
X246000000Y-137000000D03*
%TO.N,T6D*%
X242500000Y-117500000D03*
X242675000Y-145400000D03*
%TO.N,Net-(U4-QA)*%
X193500000Y-130500000D03*
X171500000Y-131000000D03*
%TO.N,Net-(U4-QB)*%
X176500000Y-132500000D03*
X199000000Y-128500000D03*
%TO.N,CLK2*%
X214500000Y-114190000D03*
X227500000Y-102000000D03*
X206600000Y-112500000D03*
X204000000Y-112500000D03*
%TO.N,Net-(U4-DOWN)*%
X206050000Y-154095000D03*
X170500000Y-130000000D03*
%TO.N,Net-(U4-UP)*%
X169500000Y-129000000D03*
X206050000Y-150285000D03*
%TO.N,Y4*%
X260000000Y-133500000D03*
X261500000Y-132500000D03*
X190500000Y-124000000D03*
X263500000Y-133500000D03*
%TO.N,Net-(U4-QC)*%
X178000000Y-127000000D03*
X199000000Y-127000000D03*
%TO.N,Y3*%
X186000000Y-125500000D03*
X192050000Y-124420000D03*
%TO.N,Y6*%
X251500000Y-117000000D03*
X192000000Y-119500000D03*
%TO.N,Y5*%
X196000000Y-139500000D03*
X190100000Y-136275000D03*
X229000000Y-139500000D03*
X231500000Y-139500000D03*
X189500000Y-124000000D03*
%TO.N,T7Q*%
X219000000Y-105000000D03*
X241900000Y-132230000D03*
%TO.N,T8Q*%
X247000000Y-133500000D03*
X243500000Y-119500000D03*
X248900000Y-128000000D03*
X243500000Y-121049000D03*
%TO.N,T7D*%
X238500000Y-129000000D03*
X238500000Y-131500000D03*
%TO.N,S4Q*%
X161500000Y-112000000D03*
X161500000Y-110000000D03*
X164000000Y-110500000D03*
%TO.N,S1Q*%
X189270000Y-112230000D03*
X164000000Y-113000000D03*
%TO.N,NS3Q*%
X162500000Y-110000000D03*
X162500000Y-112000000D03*
%TO.N,NS4Q*%
X177533265Y-116533265D03*
X180500000Y-107000000D03*
%TO.N,Net-(U17-Pad4)*%
X218000000Y-109500000D03*
X204000000Y-127500000D03*
X218000000Y-107500000D03*
X206000000Y-117000000D03*
%TO.N,Net-(U18-Pad2)*%
X217000000Y-106900000D03*
X205000000Y-117000000D03*
X217000000Y-109500000D03*
X213000000Y-122500000D03*
%TO.N,Net-(U21-Pad4)*%
X211400000Y-124000000D03*
X217500000Y-119900000D03*
%TO.N,Net-(U25-Pad4)*%
X227000000Y-123900000D03*
X227000000Y-105000000D03*
%TO.N,Net-(U26-Pad4)*%
X222000000Y-127900000D03*
X228000000Y-105000000D03*
%TO.N,Net-(U29-Pad4)*%
X210500000Y-120500000D03*
X239000000Y-113500000D03*
X237500000Y-115000000D03*
X235500000Y-118500000D03*
X213500000Y-120500000D03*
%TO.N,Net-(U39-Pad4)*%
X250500000Y-123500000D03*
X249000000Y-148000000D03*
%TO.N,Net-(U41-Pad4)*%
X271500000Y-129500000D03*
X252500000Y-136050000D03*
%TO.N,Net-(U42-Pad4)*%
X248000000Y-137975000D03*
X272000000Y-132500000D03*
%TO.N,Net-(U45-Pad4)*%
X241500000Y-125000000D03*
X218600000Y-129900000D03*
X251500000Y-125000000D03*
X210275000Y-128500000D03*
%TO.N,Net-(U46-Pad4)*%
X214500000Y-121500000D03*
X210500000Y-121500000D03*
%TO.N,TABLE25*%
X133000000Y-96000000D03*
%TO.N,TABLE28*%
X79500000Y-95199000D03*
%TD*%
D18*
%TO.N,TABLE5*%
X136000000Y-119000000D02*
X123000000Y-132000000D01*
X154000000Y-101000000D02*
X147000000Y-108000000D01*
X160000000Y-101000000D02*
X154000000Y-101000000D01*
X147000000Y-108000000D02*
X138000000Y-117000000D01*
%TO.N,TABLE17*%
X123000000Y-137000000D02*
X113000000Y-137000000D01*
X173000000Y-114000000D02*
X177000000Y-118000000D01*
X177000000Y-120000000D02*
X169000000Y-128000000D01*
X154000000Y-128000000D02*
X132000000Y-128000000D01*
X169000000Y-128000000D02*
X154000000Y-128000000D01*
X177000000Y-118000000D02*
X177000000Y-120000000D01*
X132000000Y-128000000D02*
X123000000Y-137000000D01*
%TO.N,tNew*%
X214000000Y-138000000D02*
X210000000Y-138000000D01*
X223000000Y-129000000D02*
X214000000Y-138000000D01*
%TO.N,Net-(U4-QA)*%
X209000000Y-106000000D02*
X209000000Y-111000000D01*
X209000000Y-111000000D02*
X208000000Y-112000000D01*
X208000000Y-112000000D02*
X208000000Y-124000000D01*
X208000000Y-124000000D02*
X206000000Y-126000000D01*
X206000000Y-126000000D02*
X203000000Y-126000000D01*
X199000000Y-129101000D02*
X198601000Y-129500000D01*
X203000000Y-126000000D02*
X199899000Y-129101000D01*
X199899000Y-129101000D02*
X199000000Y-129101000D01*
X198601000Y-129500000D02*
X197000000Y-129500000D01*
%TO.N,Net-(U4-QB)*%
X208000000Y-106000000D02*
X208000000Y-109000000D01*
X208000000Y-109000000D02*
X205000000Y-112000000D01*
X205000000Y-112000000D02*
X205000000Y-115000000D01*
X205000000Y-115000000D02*
X204000000Y-116000000D01*
X204000000Y-116000000D02*
X204000000Y-118000000D01*
X204000000Y-118000000D02*
X200000000Y-122000000D01*
X200000000Y-122000000D02*
X200000000Y-127500000D01*
X200000000Y-127500000D02*
X199000000Y-128500000D01*
%TO.N,Net-(U4-QC)*%
X207000000Y-106000000D02*
X199000000Y-114000000D01*
X199000000Y-114000000D02*
X199000000Y-127000000D01*
%TO.N,NS4Q*%
X127000000Y-107000000D02*
X127000000Y-108000000D01*
X127000000Y-108000000D02*
X142000000Y-123000000D01*
X163000000Y-123000000D02*
X164500000Y-121500000D01*
X142000000Y-123000000D02*
X163000000Y-123000000D01*
D19*
%TO.N,S4D*%
X105000000Y-140500000D02*
X105000000Y-153799000D01*
X177500000Y-140000000D02*
X177500000Y-138500000D01*
X72500000Y-126500000D02*
X72000000Y-126000000D01*
X74249000Y-141251000D02*
X74249000Y-153749000D01*
X109000000Y-140500000D02*
X109000000Y-125500000D01*
X41500000Y-140500000D02*
X44500000Y-140500000D01*
X149000000Y-140000000D02*
X177500000Y-140000000D01*
X44500000Y-140500000D02*
X44500000Y-153500000D01*
X74249000Y-153749000D02*
X75000000Y-154500000D01*
X41500000Y-126000000D02*
X41500000Y-140500000D01*
X177500000Y-138100000D02*
X177275735Y-137875735D01*
X105000000Y-140500000D02*
X109000000Y-140500000D01*
X75000000Y-140500000D02*
X105000000Y-140500000D01*
X72500000Y-140500000D02*
X75000000Y-140500000D01*
X105000000Y-153799000D02*
X105201000Y-154000000D01*
X75000000Y-140500000D02*
X74249000Y-141251000D01*
X177500000Y-140000000D02*
X177500000Y-138100000D01*
X134500000Y-140500000D02*
X148500000Y-140500000D01*
X72500000Y-140500000D02*
X72500000Y-126500000D01*
X148500000Y-140500000D02*
X149000000Y-140000000D01*
X134500000Y-140500000D02*
X134500000Y-152701000D01*
X14000000Y-140500000D02*
X41500000Y-140500000D01*
X134500000Y-152701000D02*
X134201000Y-153000000D01*
X44500000Y-153500000D02*
X44000000Y-154000000D01*
X109000000Y-140500000D02*
X134500000Y-140500000D01*
X44500000Y-140500000D02*
X72500000Y-140500000D01*
D18*
%TO.N,Net-(U4-QA)*%
X182500000Y-130500000D02*
X179500000Y-133500000D01*
X176000000Y-133500000D02*
X174000000Y-133500000D01*
X193500000Y-130500000D02*
X182500000Y-130500000D01*
X179500000Y-133500000D02*
X176000000Y-133500000D01*
X174000000Y-133500000D02*
X171500000Y-131000000D01*
%TO.N,Net-(U4-QB)*%
X176500000Y-132500000D02*
X180500000Y-128500000D01*
X180500000Y-128500000D02*
X199000000Y-128500000D01*
%TO.N,Net-(U4-DOWN)*%
X173000000Y-135500000D02*
X170500000Y-133000000D01*
X188500000Y-143000000D02*
X181000000Y-135500000D01*
X209000000Y-143000000D02*
X188500000Y-143000000D01*
X206050000Y-154095000D02*
X208405000Y-154095000D01*
X170500000Y-133000000D02*
X170500000Y-130000000D01*
X181000000Y-135500000D02*
X173000000Y-135500000D01*
X209000000Y-153500000D02*
X209000000Y-143000000D01*
X208405000Y-154095000D02*
X209000000Y-153500000D01*
%TO.N,Net-(U4-UP)*%
X188500000Y-145500000D02*
X203000000Y-145500000D01*
X169500000Y-129000000D02*
X169500000Y-133500000D01*
X204500000Y-150000000D02*
X205765000Y-150000000D01*
X172000000Y-136000000D02*
X179000000Y-136000000D01*
X204000000Y-149500000D02*
X204500000Y-150000000D01*
X203000000Y-145500000D02*
X204000000Y-146500000D01*
X205765000Y-150000000D02*
X206050000Y-150285000D01*
X179000000Y-136000000D02*
X188500000Y-145500000D01*
X204000000Y-146500000D02*
X204000000Y-149500000D01*
X169500000Y-133500000D02*
X172000000Y-136000000D01*
%TO.N,Net-(U4-QC)*%
X178000000Y-127000000D02*
X181000000Y-127000000D01*
X181000000Y-127000000D02*
X181500000Y-127500000D01*
X198500000Y-127500000D02*
X199000000Y-127000000D01*
X181500000Y-127500000D02*
X198500000Y-127500000D01*
%TD*%
M02*
