M48
; DRILL file {KiCad 9.0.7} date 2026-06-23T20:31:42-0400
; FORMAT={-:-/ absolute / metric / decimal}
; #@! TF.CreationDate,2026-06-23T20:31:42-04:00
; #@! TF.GenerationSoftware,Kicad,Pcbnew,9.0.7
; #@! TF.FileFunction,Plated,1,4,PTH
FMAT,2
METRIC
; #@! TA.AperFunction,Plated,PTH,ViaDrill
T1C0.300
; #@! TA.AperFunction,Plated,PTH,ComponentDrill
T2C0.400
; #@! TA.AperFunction,Plated,PTH,ComponentDrill
T3C0.600
; #@! TA.AperFunction,Plated,PTH,ComponentDrill
T4C1.000
; #@! TA.AperFunction,Plated,PTH,ComponentDrill
T5C1.100
%
G90
G05
T1
X23.0Y-137.0
X25.0Y-98.39
X27.0Y-136.0
X29.0Y-97.39
X32.0Y-135.0
X33.0Y-96.39
X36.0Y-134.0
X37.0Y-95.39
X41.0Y-94.39
X41.0Y-133.0
X42.0Y-108.0
X45.0Y-138.0
X46.0Y-99.39
X50.0Y-98.39
X52.0Y-137.0
X54.0Y-97.39
X56.0Y-136.0
X58.0Y-96.39
X61.0Y-135.0
X62.0Y-95.39
X63.0Y-24.0
X65.0Y-134.0
X66.0Y-94.39
X67.0Y-108.0
X70.0Y-133.0
X71.0Y-74.0
X75.0Y-98.39
X77.0Y-77.0
X78.0Y-138.0
X79.0Y-97.39
X80.0Y-137.0
X81.95Y-68.38
X81.95Y-69.65
X81.95Y-70.92
X81.95Y-73.46
X81.95Y-74.73
X83.0Y-96.39
X84.0Y-70.0
X84.0Y-75.0
X84.0Y-136.0
X85.0Y-58.0
X86.0Y-24.0
X86.0Y-28.0
X87.0Y-75.0
X87.0Y-95.39
X88.0Y-87.0
X89.0Y-135.0
X90.0Y-58.0
X90.0Y-64.0
X90.0Y-74.0
X90.0Y-87.0
X91.0Y-73.0
X91.0Y-94.39
X91.94Y-108.94
X92.0Y-87.0
X92.0Y-110.0
X92.95Y-56.27
X93.0Y-67.38
X93.0Y-68.65
X93.0Y-68.65
X93.0Y-72.46
X93.0Y-73.73
X93.0Y-101.0
X93.0Y-134.0
X95.0Y-48.0
X97.0Y-22.0
X97.0Y-28.0
X97.0Y-77.0
X97.95Y-68.65
X97.95Y-69.92
X97.95Y-71.19
X97.95Y-72.46
X98.0Y-133.0
X99.0Y-79.0
X99.085Y-66.656
X100.0Y-66.0
X100.0Y-73.0
X100.0Y-98.39
X101.0Y-56.0
X102.0Y-55.0
X104.0Y-97.39
X105.0Y-43.0
X105.6Y-138.0
X106.0Y-69.0
X107.0Y-23.0
X107.0Y-28.0
X107.8Y-136.8
X108.0Y-70.0
X108.0Y-96.39
X109.725Y-32.1
X110.0Y-35.0
X110.0Y-71.0
X111.0Y-56.0
X111.8Y-135.8
X112.0Y-35.0
X112.0Y-95.39
X113.0Y-31.0
X113.0Y-71.0
X114.0Y-36.0
X115.0Y-35.0
X115.0Y-54.0
X115.0Y-73.0
X116.0Y-64.0
X116.0Y-70.86
X116.0Y-94.39
X116.8Y-134.8
X116.95Y-47.46
X117.0Y-42.0
X117.0Y-56.0
X117.0Y-87.0
X117.0Y-107.0
X118.0Y-64.0
X118.0Y-103.0
X118.009Y-52.029
X119.0Y-33.0
X119.0Y-45.0
X119.0Y-54.0
X119.0Y-56.0
X119.0Y-65.0
X119.0Y-78.0
X120.0Y-56.0
X120.8Y-133.8
X121.0Y-35.0
X121.0Y-54.0
X121.05Y-68.92
X121.05Y-72.73
X122.0Y-56.0
X122.0Y-64.0
X123.0Y-33.9
X123.0Y-43.0
X123.0Y-54.0
X123.0Y-64.0
X123.0Y-81.0
X124.0Y-31.0
X124.0Y-43.0
X124.0Y-45.0
X124.0Y-52.0
X124.0Y-82.0
X125.0Y-56.0
X125.0Y-78.0
X125.0Y-83.0
X125.0Y-98.39
X125.8Y-132.8
X126.0Y-18.0
X126.0Y-34.0
X126.0Y-48.0
X126.0Y-50.0
X126.0Y-53.0
X126.0Y-54.0
X126.0Y-72.73
X126.6Y-51.162
X127.725Y-38.05
X128.0Y-67.0
X128.05Y-49.46
X129.0Y-68.0
X129.0Y-79.0
X129.0Y-97.39
X130.0Y-55.0
X130.0Y-70.0
X130.0Y-71.0
X131.0Y-31.0
X131.0Y-38.0
X131.0Y-43.0
X131.0Y-72.0
X132.0Y-34.0
X132.0Y-44.0
X132.0Y-45.0
X132.0Y-58.0
X132.8Y-137.8
X133.0Y-48.19
X133.0Y-49.46
X133.0Y-96.39
X134.0Y-40.0
X134.0Y-59.0
X134.05Y-72.73
X134.05Y-74.0
X134.8Y-136.8
X134.999Y-52.0
X135.0Y-33.0
X135.0Y-47.0
X135.0Y-60.0
X135.998Y-48.997
X136.0Y-46.0
X136.0Y-61.0
X137.0Y-31.0
X137.0Y-36.0
X137.0Y-55.0
X137.0Y-95.39
X138.0Y-42.0
X138.0Y-62.0
X138.8Y-135.8
X138.95Y-30.05
X139.0Y-26.0
X139.0Y-35.0
X139.0Y-65.0
X139.0Y-67.65
X139.0Y-70.19
X139.0Y-71.46
X139.0Y-72.73
X139.0Y-77.0
X139.05Y-53.27
X140.0Y-44.0
X141.0Y-44.0
X141.0Y-74.0
X141.0Y-94.39
X142.0Y-35.0
X142.0Y-39.0
X142.0Y-48.0
X142.0Y-93.0
X142.0Y-106.0
X143.0Y-59.0
X143.0Y-74.0
X143.0Y-83.0
X143.0Y-102.0
X143.8Y-134.8
X144.0Y-32.0
X144.6Y-68.0
X145.0Y-33.0
X145.0Y-67.0
X147.6Y-57.0
X147.8Y-133.8
X148.0Y-19.0
X149.0Y-34.0
X149.137Y-38.95
X150.0Y-20.0
X150.0Y-29.0
X150.0Y-69.4
X150.0Y-98.39
X151.0Y-32.0
X151.0Y-58.0
X151.0Y-72.0
X152.0Y-34.0
X152.0Y-52.0
X152.8Y-132.8
X154.0Y-58.0
X154.0Y-97.39
X155.137Y-38.95
X156.0Y-32.0
X156.0Y-58.0
X157.0Y-42.0
X157.0Y-52.0
X158.0Y-34.0
X158.0Y-96.39
X158.0Y-138.0
X159.0Y-52.0
X159.0Y-55.0
X160.0Y-41.0
X160.0Y-59.0
X160.0Y-137.0
X161.0Y-27.0
X161.0Y-45.0
X162.0Y-29.0
X162.0Y-32.0
X162.0Y-33.0
X162.0Y-41.0
X162.0Y-45.0
X162.0Y-46.0
X162.0Y-95.39
X163.0Y-34.0
X163.0Y-40.0
X164.0Y-54.0
X164.0Y-136.0
X165.95Y-64.19
X166.0Y-94.39
X166.137Y-33.0
X166.137Y-38.95
X167.0Y-31.0
X167.0Y-48.0
X167.0Y-60.0
X167.0Y-61.0
X167.0Y-83.0
X167.0Y-93.0
X167.0Y-107.0
X167.262Y-53.825
X168.0Y-32.0
X168.0Y-56.0
X168.0Y-69.0
X168.0Y-102.0
X169.0Y-56.0
X169.0Y-135.0
X169.0Y-135.0
X170.0Y-34.0
X170.0Y-36.0
X170.0Y-47.0
X170.0Y-51.0
X170.0Y-53.0
X170.0Y-54.0
X170.0Y-57.0
X170.0Y-64.0
X170.0Y-66.0
X170.0Y-69.0
X171.0Y-41.0
X171.0Y-45.0
X171.725Y-42.1
X172.0Y-17.0
X172.0Y-33.0
X172.0Y-38.9
X172.0Y-41.0
X172.0Y-45.0
X172.0Y-58.07
X172.0Y-59.0
X172.0Y-61.0
X172.0Y-64.0
X172.0Y-70.0
X173.0Y-32.0
X173.0Y-65.0
X173.0Y-134.0
X174.0Y-34.0
X174.0Y-44.0
X174.201Y-58.025
X174.201Y-59.0
X174.201Y-60.0
X175.0Y-47.0
X175.0Y-48.6
X175.0Y-69.0
X175.0Y-71.0
X175.0Y-82.0
X175.0Y-98.39
X176.0Y-43.0
X176.0Y-63.951
X177.137Y-38.95
X178.0Y-32.0
X178.0Y-46.0
X178.0Y-133.0
X179.0Y-31.0
X179.0Y-42.0
X179.0Y-51.0
X179.0Y-61.0
X179.0Y-97.39
X179.0Y-140.0
X180.0Y-49.0
X181.0Y-43.0
X181.0Y-47.0
X181.0Y-49.0
X182.0Y-43.0
X182.0Y-52.0
X182.0Y-71.0
X182.0Y-138.0
X183.0Y-59.0
X184.0Y-74.0
X184.0Y-96.39
X185.0Y-70.0
X185.0Y-71.0
X185.0Y-137.0
X186.0Y-51.0
X187.0Y-39.0
X187.0Y-50.0
X188.0Y-95.39
X188.55Y-63.46
X188.55Y-67.27
X189.0Y-37.0
X189.0Y-72.0
X189.0Y-136.0
X189.725Y-52.725
X190.0Y-60.0
X190.0Y-75.0
X191.0Y-36.0
X191.0Y-46.0
X192.0Y-94.39
X192.05Y-66.0
X193.0Y-52.0
X193.0Y-85.0
X193.0Y-93.0
X193.0Y-106.0
X194.0Y-49.0
X194.0Y-103.0
X194.0Y-135.0
X195.0Y-72.0
X196.0Y-58.0
X197.0Y-67.27
X197.862Y-56.0
X198.0Y-82.0
X198.0Y-134.0
X200.0Y-65.0
X201.0Y-56.0
X201.0Y-98.39
X202.0Y-64.0
X202.0Y-69.0
X203.0Y-65.0
X203.0Y-133.0
X203.0Y-141.0
X205.0Y-97.39
X205.275Y-67.9
X206.0Y-62.0
X206.0Y-65.0
X206.0Y-69.0
X207.0Y-138.0
X209.0Y-96.39
X210.0Y-137.0
X213.0Y-95.39
X214.0Y-136.0
X217.0Y-94.39
X218.0Y-93.0
X218.0Y-107.0
X219.0Y-135.0
X223.0Y-134.0
X226.0Y-98.39
X227.0Y-85.0
X228.0Y-133.0
X229.0Y-143.0
X230.0Y-97.39
X232.0Y-138.0
X234.0Y-96.39
X235.0Y-137.0
X238.0Y-95.39
X239.0Y-136.0
X242.0Y-94.39
X243.0Y-93.0
X243.0Y-105.0
X244.0Y-135.0
X248.0Y-134.0
X251.0Y-98.39
X253.0Y-133.0
X255.0Y-97.39
X258.0Y-138.0
X259.0Y-96.39
X260.0Y-137.0
X263.0Y-95.39
X264.0Y-136.0
X267.0Y-94.39
X269.0Y-92.0
X269.0Y-93.0
X269.0Y-106.0
X269.0Y-135.0
X271.0Y-92.0
X271.0Y-102.0
X272.0Y-92.0
X272.0Y-102.0
X273.0Y-92.0
X273.0Y-102.0
X273.0Y-134.0
X274.0Y-102.0
X275.0Y-99.0
X275.0Y-100.0
X276.0Y-98.0
X277.0Y-97.0
X278.0Y-86.0
X278.0Y-87.0
X278.0Y-96.0
X278.0Y-133.0
X281.0Y-95.0
X282.0Y-96.0
X283.0Y-98.0
X284.0Y-99.0
X285.0Y-99.0
X286.0Y-87.0
X287.0Y-86.0
T2
X163.35Y-10.64
X163.35Y-11.99
X164.2Y-10.64
X164.2Y-11.99
X165.05Y-10.64
X165.05Y-11.99
X165.9Y-10.64
X165.9Y-11.99
X166.75Y-10.64
X166.75Y-11.99
X167.6Y-10.64
X167.6Y-11.99
X168.45Y-10.64
X168.45Y-11.99
X169.3Y-10.64
X169.3Y-11.99
T4
X18.2Y-145.0
X18.2Y-147.54
X20.0Y-84.85
X20.0Y-87.39
X20.0Y-106.39
X20.0Y-108.93
X20.0Y-123.46
X20.0Y-126.0
X22.8Y-145.0
X22.8Y-147.54
X24.0Y-84.85
X24.0Y-87.39
X24.0Y-106.39
X24.0Y-108.93
X24.0Y-123.46
X24.0Y-126.0
X27.4Y-145.0
X27.4Y-147.54
X27.991Y-106.363
X27.991Y-108.903
X28.0Y-84.85
X28.0Y-87.39
X28.0Y-123.46
X28.0Y-126.0
X31.991Y-106.363
X31.991Y-108.903
X32.0Y-84.85
X32.0Y-87.39
X32.0Y-123.46
X32.0Y-126.0
X32.0Y-145.0
X32.0Y-147.54
X35.991Y-106.363
X35.991Y-108.903
X36.0Y-84.85
X36.0Y-87.39
X36.0Y-123.46
X36.0Y-126.0
X36.6Y-145.0
X36.6Y-147.54
X39.91Y-106.293
X39.91Y-108.833
X40.0Y-84.85
X40.0Y-87.39
X40.0Y-123.46
X40.0Y-126.0
X41.2Y-145.0
X41.2Y-147.54
X45.0Y-84.85
X45.0Y-87.39
X45.0Y-106.39
X45.0Y-108.93
X45.0Y-123.46
X45.0Y-126.0
X47.4Y-144.46
X47.4Y-147.0
X48.916Y-106.401
X48.916Y-108.941
X49.0Y-84.85
X49.0Y-87.39
X49.0Y-123.46
X49.0Y-126.0
X52.0Y-144.46
X52.0Y-147.0
X52.914Y-106.401
X52.914Y-108.941
X53.0Y-84.85
X53.0Y-87.39
X53.0Y-123.46
X53.0Y-126.0
X56.6Y-144.46
X56.6Y-147.0
X56.826Y-106.443
X56.826Y-108.983
X57.0Y-84.85
X57.0Y-87.39
X57.0Y-123.46
X57.0Y-126.0
X60.696Y-106.358
X60.696Y-108.898
X61.0Y-84.85
X61.0Y-87.39
X61.0Y-123.46
X61.0Y-126.0
X61.2Y-144.46
X61.2Y-147.0
X64.651Y-106.358
X64.651Y-108.898
X65.0Y-84.85
X65.0Y-87.39
X65.0Y-123.46
X65.0Y-126.0
X65.8Y-144.46
X65.8Y-147.0
X70.0Y-106.4
X70.0Y-108.94
X70.4Y-144.46
X70.4Y-147.0
X74.0Y-106.39
X74.0Y-108.93
X75.6Y-144.46
X75.6Y-147.0
X77.0Y-123.46
X77.0Y-126.0
X78.0Y-106.39
X78.0Y-108.93
X80.2Y-144.46
X80.2Y-147.0
X81.0Y-123.46
X81.0Y-126.0
X82.0Y-106.39
X82.0Y-108.93
X84.8Y-144.46
X84.8Y-147.0
X85.0Y-123.46
X85.0Y-126.0
X86.0Y-106.39
X86.0Y-108.93
X89.0Y-123.499
X89.0Y-126.039
X89.4Y-144.46
X89.4Y-147.0
X90.0Y-106.39
X90.0Y-108.93
X93.0Y-123.46
X93.0Y-126.0
X94.0Y-144.46
X94.0Y-147.0
X95.0Y-106.39
X95.0Y-108.93
X97.0Y-123.46
X97.0Y-126.0
X98.6Y-144.46
X98.6Y-147.0
X99.0Y-106.39
X99.0Y-108.93
X103.0Y-106.39
X103.0Y-108.93
X103.0Y-144.46
X103.0Y-147.0
X105.0Y-123.46
X105.0Y-126.0
X107.0Y-106.39
X107.0Y-108.93
X107.6Y-144.46
X107.6Y-147.0
X109.0Y-123.46
X109.0Y-126.0
X111.0Y-106.39
X111.0Y-108.93
X112.2Y-144.46
X112.2Y-147.0
X113.0Y-123.46
X113.0Y-126.0
X115.0Y-106.39
X115.0Y-108.93
X116.8Y-144.46
X116.8Y-147.0
X116.841Y-123.467
X116.841Y-126.007
X120.0Y-106.39
X120.0Y-108.93
X120.725Y-123.511
X120.725Y-126.051
X121.4Y-144.46
X121.4Y-147.0
X124.0Y-106.39
X124.0Y-108.93
X124.61Y-123.424
X124.61Y-125.964
X126.0Y-144.46
X126.0Y-147.0
X128.0Y-106.39
X128.0Y-108.93
X131.0Y-144.46
X131.0Y-147.0
X132.0Y-106.31
X132.0Y-108.85
X132.0Y-123.46
X132.0Y-126.0
X135.0Y-144.46
X135.0Y-147.0
X136.0Y-123.46
X136.0Y-126.0
X136.2Y-106.39
X136.2Y-108.93
X139.0Y-144.46
X139.0Y-147.0
X140.0Y-106.31
X140.0Y-108.85
X140.0Y-123.46
X140.0Y-126.0
X143.0Y-144.46
X143.0Y-147.0
X144.0Y-123.46
X144.0Y-126.0
X144.949Y-106.356
X144.949Y-108.896
X147.0Y-144.46
X147.0Y-147.0
X148.0Y-123.46
X148.0Y-126.0
X148.949Y-106.356
X148.949Y-108.896
X151.0Y-144.46
X151.0Y-147.0
X151.949Y-123.429
X151.949Y-125.969
X152.949Y-106.356
X152.949Y-108.896
X156.0Y-144.46
X156.0Y-147.0
X156.949Y-106.356
X156.949Y-108.896
X157.0Y-123.46
X157.0Y-126.0
X160.0Y-144.46
X160.0Y-147.0
X161.0Y-106.39
X161.0Y-108.93
X161.0Y-123.46
X161.0Y-126.0
X164.0Y-144.46
X164.0Y-147.0
X165.0Y-106.39
X165.0Y-108.93
X165.0Y-123.46
X165.0Y-126.0
X168.0Y-144.46
X168.0Y-147.0
X169.0Y-123.46
X169.0Y-126.0
X170.128Y-106.318
X170.128Y-108.858
X172.0Y-144.46
X172.0Y-147.0
X173.0Y-123.46
X173.0Y-126.0
X174.24Y-106.318
X174.24Y-108.858
X176.0Y-144.46
X176.0Y-147.0
X177.0Y-123.46
X177.0Y-126.0
X178.42Y-106.318
X178.42Y-108.858
X181.0Y-144.46
X181.0Y-147.0
X181.366Y-123.759
X181.366Y-126.299
X182.733Y-106.318
X182.733Y-108.858
X185.0Y-144.46
X185.0Y-147.0
X185.366Y-123.759
X185.366Y-126.299
X186.835Y-106.189
X186.835Y-108.729
X189.0Y-144.46
X189.0Y-147.0
X189.366Y-123.759
X189.366Y-126.299
X191.0Y-106.189
X191.0Y-108.729
X193.0Y-144.46
X193.0Y-147.0
X193.243Y-123.729
X193.243Y-126.269
X195.975Y-106.289
X195.975Y-108.829
X197.0Y-144.46
X197.0Y-147.0
X197.083Y-123.69
X197.083Y-126.23
X199.975Y-106.289
X199.975Y-108.829
X201.0Y-123.46
X201.0Y-126.0
X201.0Y-144.46
X201.0Y-147.0
X203.975Y-106.289
X203.975Y-108.829
X205.6Y-144.46
X205.6Y-147.0
X206.078Y-123.402
X206.078Y-125.942
X207.975Y-106.289
X207.975Y-108.829
X210.0Y-144.46
X210.0Y-147.0
X210.078Y-123.402
X210.078Y-125.942
X211.975Y-106.289
X211.975Y-108.829
X214.0Y-144.46
X214.0Y-147.0
X214.078Y-123.402
X214.078Y-125.942
X215.975Y-106.289
X215.975Y-108.829
X218.0Y-144.46
X218.0Y-147.0
X218.078Y-123.402
X218.078Y-125.942
X221.0Y-106.55
X221.0Y-109.09
X222.0Y-144.46
X222.0Y-147.0
X222.078Y-123.402
X222.078Y-125.942
X225.0Y-106.55
X225.0Y-109.09
X226.0Y-123.46
X226.0Y-126.0
X226.0Y-144.46
X226.0Y-147.0
X228.946Y-106.472
X228.946Y-109.012
X231.0Y-144.46
X231.0Y-147.0
X231.025Y-123.466
X231.025Y-126.006
X232.944Y-106.444
X232.944Y-108.984
X235.0Y-144.46
X235.0Y-147.0
X235.025Y-123.466
X235.025Y-126.006
X236.944Y-106.444
X236.944Y-108.984
X239.0Y-144.46
X239.0Y-147.0
X239.025Y-123.466
X239.025Y-126.006
X240.944Y-106.444
X240.944Y-108.984
X243.0Y-144.46
X243.0Y-147.0
X243.025Y-123.466
X243.025Y-126.006
X245.937Y-106.444
X245.937Y-108.984
X246.949Y-123.513
X246.949Y-126.053
X247.0Y-144.46
X247.0Y-147.0
X249.937Y-106.444
X249.937Y-108.984
X251.0Y-123.46
X251.0Y-126.0
X251.0Y-144.46
X251.0Y-147.0
X253.937Y-106.444
X253.937Y-108.984
X256.0Y-144.46
X256.0Y-147.0
X256.276Y-123.419
X256.276Y-125.959
X257.937Y-106.444
X257.937Y-108.984
X260.0Y-144.46
X260.0Y-147.0
X260.206Y-123.419
X260.206Y-125.959
X261.823Y-106.46
X261.823Y-109.0
X264.0Y-144.46
X264.0Y-147.0
X264.136Y-123.419
X264.136Y-125.959
X265.937Y-106.444
X265.937Y-108.984
X268.0Y-144.46
X268.0Y-147.0
X268.112Y-123.46
X268.112Y-126.0
X272.0Y-144.46
X272.0Y-147.0
X272.112Y-123.46
X272.112Y-126.0
X276.0Y-123.475
X276.0Y-126.015
X276.0Y-144.46
X276.0Y-147.0
T5
X127.84Y-19.0
X138.0Y-19.0
T3
G00X162.0Y-10.87
M15
G01X162.0Y-12.37
M16
G05
G00X162.0Y-14.6
M15
G01X162.0Y-15.4
M16
G05
G00X170.65Y-10.87
M15
G01X170.65Y-12.37
M16
G05
G00X170.65Y-14.6
M15
G01X170.65Y-15.4
M16
G05
M30
