%TF.GenerationSoftware,KiCad,Pcbnew,9.0.7*%
%TF.CreationDate,2026-06-23T20:31:21-04:00*%
%TF.ProjectId,Turing Machine,54757269-6e67-4204-9d61-6368696e652e,rev?*%
%TF.SameCoordinates,Original*%
%TF.FileFunction,Soldermask,Bot*%
%TF.FilePolarity,Negative*%
%FSLAX46Y46*%
G04 Gerber Fmt 4.6, Leading zero omitted, Abs format (unit mm)*
G04 Created by KiCad (PCBNEW 9.0.7) date 2026-06-23 20:31:21*
%MOMM*%
%LPD*%
G01*
G04 APERTURE LIST*
G04 Aperture macros list*
%AMRoundRect*
0 Rectangle with rounded corners*
0 $1 Rounding radius*
0 $2 $3 $4 $5 $6 $7 $8 $9 X,Y pos of 4 corners*
0 Add a 4 corners polygon primitive as box body*
4,1,4,$2,$3,$4,$5,$6,$7,$8,$9,$2,$3,0*
0 Add four circle primitives for the rounded corners*
1,1,$1+$1,$2,$3*
1,1,$1+$1,$4,$5*
1,1,$1+$1,$6,$7*
1,1,$1+$1,$8,$9*
0 Add four rect primitives between the rounded corners*
20,1,$1+$1,$2,$3,$4,$5,0*
20,1,$1+$1,$4,$5,$6,$7,0*
20,1,$1+$1,$6,$7,$8,$9,0*
20,1,$1+$1,$8,$9,$2,$3,0*%
G04 Aperture macros list end*
%ADD10C,1.700000*%
%ADD11R,1.700000X1.700000*%
%ADD12C,0.700000*%
%ADD13O,0.900000X2.400000*%
%ADD14O,0.900000X1.700000*%
%ADD15RoundRect,0.249999X-0.850001X-0.850001X0.850001X-0.850001X0.850001X0.850001X-0.850001X0.850001X0*%
%ADD16C,2.200000*%
G04 APERTURE END LIST*
D10*
%TO.C,J78*%
X264000000Y-147000000D03*
D11*
X264000000Y-144460000D03*
%TD*%
D10*
%TO.C,J89*%
X247000000Y-147000000D03*
D11*
X247000000Y-144460000D03*
%TD*%
D10*
%TO.C,J83*%
X243000000Y-147000000D03*
D11*
X243000000Y-144460000D03*
%TD*%
D10*
%TO.C,J70*%
X210000000Y-147000000D03*
D11*
X210000000Y-144460000D03*
%TD*%
D10*
%TO.C,J8*%
X22800000Y-147540000D03*
D11*
X22800000Y-145000000D03*
%TD*%
D10*
%TO.C,J6*%
X70400000Y-147000000D03*
D11*
X70400000Y-144460000D03*
%TD*%
D10*
%TO.C,J68*%
X185000000Y-147000000D03*
D11*
X185000000Y-144460000D03*
%TD*%
D10*
%TO.C,J62*%
X181000000Y-147000000D03*
D11*
X181000000Y-144460000D03*
%TD*%
D10*
%TO.C,J19*%
X103000000Y-147000000D03*
D11*
X103000000Y-144460000D03*
%TD*%
D12*
%TO.C,J193*%
X163350000Y-10640000D03*
X164200000Y-10640000D03*
X165050000Y-10640000D03*
X165900000Y-10640000D03*
X166750000Y-10640000D03*
X167600000Y-10640000D03*
X168450000Y-10640000D03*
X169300000Y-10640000D03*
X169300000Y-11990000D03*
X168450000Y-11990000D03*
X167600000Y-11990000D03*
X166750000Y-11990000D03*
X165900000Y-11990000D03*
X165050000Y-11990000D03*
X164200000Y-11990000D03*
X163350000Y-11990000D03*
D13*
X162000000Y-11620000D03*
D14*
X162000000Y-15000000D03*
D13*
X170650000Y-11620000D03*
D14*
X170650000Y-15000000D03*
%TD*%
D11*
%TO.C,J192*%
X65000000Y-87390143D03*
D10*
X65000000Y-84850143D03*
%TD*%
D11*
%TO.C,J191*%
X40000000Y-87390143D03*
D10*
X40000000Y-84850143D03*
%TD*%
D11*
%TO.C,J190*%
X61000000Y-87390143D03*
D10*
X61000000Y-84850143D03*
%TD*%
D11*
%TO.C,J189*%
X36000000Y-87390143D03*
D10*
X36000000Y-84850143D03*
%TD*%
D11*
%TO.C,J188*%
X57000000Y-87390143D03*
D10*
X57000000Y-84850143D03*
%TD*%
D11*
%TO.C,J187*%
X32000000Y-87390143D03*
D10*
X32000000Y-84850143D03*
%TD*%
D11*
%TO.C,J186*%
X53000000Y-87390143D03*
D10*
X53000000Y-84850143D03*
%TD*%
D11*
%TO.C,J185*%
X28000000Y-87390143D03*
D10*
X28000000Y-84850143D03*
%TD*%
D11*
%TO.C,J184*%
X49000000Y-87390143D03*
D10*
X49000000Y-84850143D03*
%TD*%
D11*
%TO.C,J183*%
X24000000Y-87390143D03*
D10*
X24000000Y-84850143D03*
%TD*%
D11*
%TO.C,J182*%
X45000000Y-87390143D03*
D10*
X45000000Y-84850143D03*
%TD*%
D11*
%TO.C,J181*%
X20000000Y-87390143D03*
D10*
X20000000Y-84850143D03*
%TD*%
D11*
%TO.C,J180*%
X265937440Y-106443867D03*
D10*
X265937440Y-108983867D03*
%TD*%
D11*
%TO.C,J179*%
X240943696Y-106443867D03*
D10*
X240943696Y-108983867D03*
%TD*%
D11*
%TO.C,J178*%
X215974858Y-106289331D03*
D10*
X215974858Y-108829331D03*
%TD*%
D11*
%TO.C,J177*%
X191000000Y-106189167D03*
D10*
X191000000Y-108729167D03*
%TD*%
D11*
%TO.C,J176*%
X165000000Y-106390143D03*
D10*
X165000000Y-108930143D03*
%TD*%
D11*
%TO.C,J175*%
X140000000Y-106310143D03*
D10*
X140000000Y-108850143D03*
%TD*%
D11*
%TO.C,J174*%
X115000000Y-106390143D03*
D10*
X115000000Y-108930143D03*
%TD*%
D11*
%TO.C,J173*%
X90000000Y-106390143D03*
D10*
X90000000Y-108930143D03*
%TD*%
D11*
%TO.C,J172*%
X64651166Y-106358004D03*
D10*
X64651166Y-108898004D03*
%TD*%
D11*
%TO.C,J171*%
X39909784Y-106293347D03*
D10*
X39909784Y-108833347D03*
%TD*%
D11*
%TO.C,J170*%
X261822925Y-106460000D03*
D10*
X261822925Y-109000000D03*
%TD*%
D11*
%TO.C,J169*%
X236943696Y-106443867D03*
D10*
X236943696Y-108983867D03*
%TD*%
D11*
%TO.C,J168*%
X211974858Y-106289331D03*
D10*
X211974858Y-108829331D03*
%TD*%
D11*
%TO.C,J167*%
X186834846Y-106189167D03*
D10*
X186834846Y-108729167D03*
%TD*%
D11*
%TO.C,J166*%
X161000000Y-106390143D03*
D10*
X161000000Y-108930143D03*
%TD*%
D11*
%TO.C,J165*%
X136200000Y-106390143D03*
D10*
X136200000Y-108930143D03*
%TD*%
D11*
%TO.C,J164*%
X111000000Y-106390143D03*
D10*
X111000000Y-108930143D03*
%TD*%
D11*
%TO.C,J163*%
X86000000Y-106390143D03*
D10*
X86000000Y-108930143D03*
%TD*%
D11*
%TO.C,J162*%
X60696155Y-106358004D03*
D10*
X60696155Y-108898004D03*
%TD*%
D11*
%TO.C,J161*%
X35991367Y-106363319D03*
D10*
X35991367Y-108903319D03*
%TD*%
D11*
%TO.C,J160*%
X257937440Y-106443867D03*
D10*
X257937440Y-108983867D03*
%TD*%
D11*
%TO.C,J159*%
X232943696Y-106443867D03*
D10*
X232943696Y-108983867D03*
%TD*%
D11*
%TO.C,J158*%
X207974858Y-106289331D03*
D10*
X207974858Y-108829331D03*
%TD*%
D11*
%TO.C,J157*%
X182732543Y-106318221D03*
D10*
X182732543Y-108858221D03*
%TD*%
D11*
%TO.C,J156*%
X156948552Y-106356413D03*
D10*
X156948552Y-108896413D03*
%TD*%
D11*
%TO.C,J155*%
X132000000Y-106310143D03*
D10*
X132000000Y-108850143D03*
%TD*%
D11*
%TO.C,J154*%
X107000000Y-106390143D03*
D10*
X107000000Y-108930143D03*
%TD*%
D11*
%TO.C,J153*%
X82000000Y-106390143D03*
D10*
X82000000Y-108930143D03*
%TD*%
D11*
%TO.C,J152*%
X56826198Y-106443058D03*
D10*
X56826198Y-108983058D03*
%TD*%
D11*
%TO.C,J151*%
X31991367Y-106363319D03*
D10*
X31991367Y-108903319D03*
%TD*%
D11*
%TO.C,J150*%
X253937440Y-106443867D03*
D10*
X253937440Y-108983867D03*
%TD*%
D11*
%TO.C,J149*%
X228945513Y-106472043D03*
D10*
X228945513Y-109012043D03*
%TD*%
D11*
%TO.C,J148*%
X203974858Y-106289331D03*
D10*
X203974858Y-108829331D03*
%TD*%
D11*
%TO.C,J147*%
X178419538Y-106318221D03*
D10*
X178419538Y-108858221D03*
%TD*%
D11*
%TO.C,J146*%
X152948552Y-106356413D03*
D10*
X152948552Y-108896413D03*
%TD*%
D11*
%TO.C,J145*%
X128000000Y-106390143D03*
D10*
X128000000Y-108930143D03*
%TD*%
D11*
%TO.C,J144*%
X103000000Y-106390143D03*
D10*
X103000000Y-108930143D03*
%TD*%
D11*
%TO.C,J143*%
X78000000Y-106390143D03*
D10*
X78000000Y-108930143D03*
%TD*%
D11*
%TO.C,J142*%
X52913714Y-106400531D03*
D10*
X52913714Y-108940531D03*
%TD*%
D11*
%TO.C,J141*%
X27991367Y-106363319D03*
D10*
X27991367Y-108903319D03*
%TD*%
D11*
%TO.C,J140*%
X249937440Y-106443867D03*
D10*
X249937440Y-108983867D03*
%TD*%
D11*
%TO.C,J139*%
X225000000Y-106550143D03*
D10*
X225000000Y-109090143D03*
%TD*%
D11*
%TO.C,J138*%
X199974858Y-106289331D03*
D10*
X199974858Y-108829331D03*
%TD*%
D11*
%TO.C,J137*%
X174240269Y-106318221D03*
D10*
X174240269Y-108858221D03*
%TD*%
D11*
%TO.C,J136*%
X148948552Y-106356413D03*
D10*
X148948552Y-108896413D03*
%TD*%
D11*
%TO.C,J135*%
X124000000Y-106390143D03*
D10*
X124000000Y-108930143D03*
%TD*%
D11*
%TO.C,J134*%
X99000000Y-106390143D03*
D10*
X99000000Y-108930143D03*
%TD*%
D11*
%TO.C,J133*%
X74000000Y-106390143D03*
D10*
X74000000Y-108930143D03*
%TD*%
D11*
%TO.C,J132*%
X48916177Y-106400531D03*
D10*
X48916177Y-108940531D03*
%TD*%
D11*
%TO.C,J131*%
X24000000Y-106390143D03*
D10*
X24000000Y-108930143D03*
%TD*%
D11*
%TO.C,J130*%
X245937440Y-106443867D03*
D10*
X245937440Y-108983867D03*
%TD*%
D11*
%TO.C,J129*%
X221000000Y-106550143D03*
D10*
X221000000Y-109090143D03*
%TD*%
D11*
%TO.C,J128*%
X195974858Y-106289331D03*
D10*
X195974858Y-108829331D03*
%TD*%
D11*
%TO.C,J127*%
X170127868Y-106318221D03*
D10*
X170127868Y-108858221D03*
%TD*%
D11*
%TO.C,J126*%
X144948552Y-106356413D03*
D10*
X144948552Y-108896413D03*
%TD*%
D11*
%TO.C,J125*%
X120000000Y-106390143D03*
D10*
X120000000Y-108930143D03*
%TD*%
D11*
%TO.C,J124*%
X95000000Y-106390143D03*
D10*
X95000000Y-108930143D03*
%TD*%
D11*
%TO.C,J123*%
X70000000Y-106400143D03*
D10*
X70000000Y-108940143D03*
%TD*%
D11*
%TO.C,J122*%
X45000000Y-106390143D03*
D10*
X45000000Y-108930143D03*
%TD*%
D11*
%TO.C,J121*%
X20000000Y-106390143D03*
D10*
X20000000Y-108930143D03*
%TD*%
D11*
%TO.C,J120*%
X276000000Y-126015317D03*
D10*
X276000000Y-123475317D03*
%TD*%
D11*
%TO.C,J119*%
X251000000Y-126000000D03*
D10*
X251000000Y-123460000D03*
%TD*%
D11*
%TO.C,J118*%
X226000000Y-126000000D03*
D10*
X226000000Y-123460000D03*
%TD*%
D11*
%TO.C,J117*%
X201000000Y-126000000D03*
D10*
X201000000Y-123460000D03*
%TD*%
D11*
%TO.C,J116*%
X177000000Y-126000000D03*
D10*
X177000000Y-123460000D03*
%TD*%
D11*
%TO.C,J115*%
X151949439Y-125969462D03*
D10*
X151949439Y-123429462D03*
%TD*%
D11*
%TO.C,J114*%
X124609658Y-125964233D03*
D10*
X124609658Y-123424233D03*
%TD*%
D11*
%TO.C,J113*%
X97000000Y-126000000D03*
D10*
X97000000Y-123460000D03*
%TD*%
D11*
%TO.C,J112*%
X65000000Y-126000000D03*
D10*
X65000000Y-123460000D03*
%TD*%
D11*
%TO.C,J111*%
X40000000Y-126000000D03*
D10*
X40000000Y-123460000D03*
%TD*%
D11*
%TO.C,J110*%
X272112219Y-126000000D03*
D10*
X272112219Y-123460000D03*
%TD*%
D11*
%TO.C,J109*%
X246949477Y-126052973D03*
D10*
X246949477Y-123512973D03*
%TD*%
D11*
%TO.C,J108*%
X222077614Y-125941526D03*
D10*
X222077614Y-123401526D03*
%TD*%
D11*
%TO.C,J107*%
X197083075Y-126230407D03*
D10*
X197083075Y-123690407D03*
%TD*%
D11*
%TO.C,J106*%
X173000000Y-126000000D03*
D10*
X173000000Y-123460000D03*
%TD*%
D11*
%TO.C,J105*%
X148000000Y-126000000D03*
D10*
X148000000Y-123460000D03*
%TD*%
D11*
%TO.C,J104*%
X120725385Y-126050550D03*
D10*
X120725385Y-123510550D03*
%TD*%
D11*
%TO.C,J103*%
X93000000Y-126000000D03*
D10*
X93000000Y-123460000D03*
%TD*%
D11*
%TO.C,J102*%
X61000000Y-126000000D03*
D10*
X61000000Y-123460000D03*
%TD*%
D11*
%TO.C,J101*%
X36000000Y-126000000D03*
D10*
X36000000Y-123460000D03*
%TD*%
D11*
%TO.C,J100*%
X268112219Y-126000000D03*
D10*
X268112219Y-123460000D03*
%TD*%
D11*
%TO.C,J99*%
X243024542Y-126006257D03*
D10*
X243024542Y-123466257D03*
%TD*%
D11*
%TO.C,J98*%
X218077614Y-125941526D03*
D10*
X218077614Y-123401526D03*
%TD*%
D11*
%TO.C,J97*%
X193242952Y-126268809D03*
D10*
X193242952Y-123728809D03*
%TD*%
D11*
%TO.C,J96*%
X276000000Y-144460000D03*
D10*
X276000000Y-147000000D03*
%TD*%
D11*
%TO.C,J95*%
X251000000Y-144460000D03*
D10*
X251000000Y-147000000D03*
%TD*%
D11*
%TO.C,J94*%
X226000000Y-144460000D03*
D10*
X226000000Y-147000000D03*
%TD*%
D11*
%TO.C,J93*%
X176000000Y-144460000D03*
D10*
X176000000Y-147000000D03*
%TD*%
D11*
%TO.C,J92*%
X201000000Y-144460000D03*
D10*
X201000000Y-147000000D03*
%TD*%
D11*
%TO.C,J91*%
X151000000Y-144460000D03*
D10*
X151000000Y-147000000D03*
%TD*%
D11*
%TO.C,J90*%
X272000000Y-144460000D03*
D10*
X272000000Y-147000000D03*
%TD*%
D11*
%TO.C,J88*%
X222000000Y-144460000D03*
D10*
X222000000Y-147000000D03*
%TD*%
D11*
%TO.C,J87*%
X172000000Y-144460000D03*
D10*
X172000000Y-147000000D03*
%TD*%
D11*
%TO.C,J86*%
X197000000Y-144460000D03*
D10*
X197000000Y-147000000D03*
%TD*%
D11*
%TO.C,J85*%
X147000000Y-144460000D03*
D10*
X147000000Y-147000000D03*
%TD*%
D11*
%TO.C,J84*%
X268000000Y-144460000D03*
D10*
X268000000Y-147000000D03*
%TD*%
D11*
%TO.C,J82*%
X218000000Y-144460000D03*
D10*
X218000000Y-147000000D03*
%TD*%
D11*
%TO.C,J81*%
X168000000Y-144460000D03*
D10*
X168000000Y-147000000D03*
%TD*%
D11*
%TO.C,J80*%
X193000000Y-144460000D03*
D10*
X193000000Y-147000000D03*
%TD*%
D11*
%TO.C,J79*%
X143000000Y-144460000D03*
D10*
X143000000Y-147000000D03*
%TD*%
D11*
%TO.C,J77*%
X239000000Y-144460000D03*
D10*
X239000000Y-147000000D03*
%TD*%
D11*
%TO.C,J76*%
X214000000Y-144460000D03*
D10*
X214000000Y-147000000D03*
%TD*%
D11*
%TO.C,J75*%
X164000000Y-144460000D03*
D10*
X164000000Y-147000000D03*
%TD*%
D11*
%TO.C,J74*%
X189000000Y-144460000D03*
D10*
X189000000Y-147000000D03*
%TD*%
D11*
%TO.C,J73*%
X139000000Y-144460000D03*
D10*
X139000000Y-147000000D03*
%TD*%
D11*
%TO.C,J72*%
X260000000Y-144460000D03*
D10*
X260000000Y-147000000D03*
%TD*%
D11*
%TO.C,J71*%
X235000000Y-144460000D03*
D10*
X235000000Y-147000000D03*
%TD*%
D11*
%TO.C,J69*%
X160000000Y-144460000D03*
D10*
X160000000Y-147000000D03*
%TD*%
D11*
%TO.C,J67*%
X135000000Y-144460000D03*
D10*
X135000000Y-147000000D03*
%TD*%
D11*
%TO.C,J66*%
X256000000Y-144460000D03*
D10*
X256000000Y-147000000D03*
%TD*%
D11*
%TO.C,J65*%
X231000000Y-144460000D03*
D10*
X231000000Y-147000000D03*
%TD*%
D11*
%TO.C,J64*%
X205600000Y-144460000D03*
D10*
X205600000Y-147000000D03*
%TD*%
D11*
%TO.C,J63*%
X156000000Y-144460000D03*
D10*
X156000000Y-147000000D03*
%TD*%
D11*
%TO.C,J61*%
X131000000Y-144460000D03*
D10*
X131000000Y-147000000D03*
%TD*%
D11*
%TO.C,J60*%
X169000000Y-126000000D03*
D10*
X169000000Y-123460000D03*
%TD*%
D11*
%TO.C,J59*%
X144000000Y-126000000D03*
D10*
X144000000Y-123460000D03*
%TD*%
D11*
%TO.C,J58*%
X116841113Y-126007391D03*
D10*
X116841113Y-123467391D03*
%TD*%
D11*
%TO.C,J57*%
X89000000Y-126038931D03*
D10*
X89000000Y-123498931D03*
%TD*%
D11*
%TO.C,J56*%
X57000000Y-126000000D03*
D10*
X57000000Y-123460000D03*
%TD*%
D11*
%TO.C,J55*%
X32000000Y-126000000D03*
D10*
X32000000Y-123460000D03*
%TD*%
D11*
%TO.C,J54*%
X264136133Y-125959131D03*
D10*
X264136133Y-123419131D03*
%TD*%
D11*
%TO.C,J53*%
X239024542Y-126006257D03*
D10*
X239024542Y-123466257D03*
%TD*%
D11*
%TO.C,J52*%
X214077614Y-125941526D03*
D10*
X214077614Y-123401526D03*
%TD*%
D11*
%TO.C,J51*%
X189365997Y-126298555D03*
D10*
X189365997Y-123758555D03*
%TD*%
D11*
%TO.C,J50*%
X165000000Y-126000000D03*
D10*
X165000000Y-123460000D03*
%TD*%
D11*
%TO.C,J49*%
X140000000Y-126000000D03*
D10*
X140000000Y-123460000D03*
%TD*%
D11*
%TO.C,J48*%
X113000000Y-126000000D03*
D10*
X113000000Y-123460000D03*
%TD*%
D11*
%TO.C,J47*%
X85000000Y-126000000D03*
D10*
X85000000Y-123460000D03*
%TD*%
D11*
%TO.C,J45*%
X28000000Y-126000000D03*
D10*
X28000000Y-123460000D03*
%TD*%
D11*
%TO.C,J44*%
X260205917Y-125959131D03*
D10*
X260205917Y-123419131D03*
%TD*%
D11*
%TO.C,J43*%
X235024542Y-126006257D03*
D10*
X235024542Y-123466257D03*
%TD*%
D11*
%TO.C,J42*%
X210077614Y-125941526D03*
D10*
X210077614Y-123401526D03*
%TD*%
D11*
%TO.C,J41*%
X185365997Y-126298555D03*
D10*
X185365997Y-123758555D03*
%TD*%
D11*
%TO.C,J40*%
X161000000Y-126000000D03*
D10*
X161000000Y-123460000D03*
%TD*%
D11*
%TO.C,J39*%
X136000000Y-126000000D03*
D10*
X136000000Y-123460000D03*
%TD*%
D11*
%TO.C,J37*%
X81000000Y-126000000D03*
D10*
X81000000Y-123460000D03*
%TD*%
D11*
%TO.C,J36*%
X49000000Y-126000000D03*
D10*
X49000000Y-123460000D03*
%TD*%
D11*
%TO.C,J35*%
X24000000Y-126000000D03*
D10*
X24000000Y-123460000D03*
%TD*%
D11*
%TO.C,J34*%
X256275702Y-125959131D03*
D10*
X256275702Y-123419131D03*
%TD*%
D11*
%TO.C,J33*%
X231024542Y-126006257D03*
D10*
X231024542Y-123466257D03*
%TD*%
D11*
%TO.C,J32*%
X206077614Y-125941526D03*
D10*
X206077614Y-123401526D03*
%TD*%
D11*
%TO.C,J31*%
X181365997Y-126298555D03*
D10*
X181365997Y-123758555D03*
%TD*%
D11*
%TO.C,J30*%
X157000000Y-126000000D03*
D10*
X157000000Y-123460000D03*
%TD*%
D11*
%TO.C,J29*%
X132000000Y-126000000D03*
D10*
X132000000Y-123460000D03*
%TD*%
D11*
%TO.C,J28*%
X105000000Y-126000000D03*
D10*
X105000000Y-123460000D03*
%TD*%
D11*
%TO.C,J27*%
X77000000Y-126000000D03*
D10*
X77000000Y-123460000D03*
%TD*%
D11*
%TO.C,J26*%
X45000000Y-126000000D03*
D10*
X45000000Y-123460000D03*
%TD*%
D11*
%TO.C,J25*%
X20000000Y-126000000D03*
D10*
X20000000Y-123460000D03*
%TD*%
D11*
%TO.C,J24*%
X126000000Y-144460000D03*
D10*
X126000000Y-147000000D03*
%TD*%
D11*
%TO.C,J23*%
X121400000Y-144460000D03*
D10*
X121400000Y-147000000D03*
%TD*%
D11*
%TO.C,J22*%
X116800000Y-144460000D03*
D10*
X116800000Y-147000000D03*
%TD*%
D11*
%TO.C,J21*%
X112200000Y-144460000D03*
D10*
X112200000Y-147000000D03*
%TD*%
D11*
%TO.C,J20*%
X107600000Y-144460000D03*
D10*
X107600000Y-147000000D03*
%TD*%
D11*
%TO.C,J18*%
X98600000Y-144460000D03*
D10*
X98600000Y-147000000D03*
%TD*%
D11*
%TO.C,J17*%
X94000000Y-144460000D03*
D10*
X94000000Y-147000000D03*
%TD*%
D11*
%TO.C,J16*%
X89400000Y-144460000D03*
D10*
X89400000Y-147000000D03*
%TD*%
D11*
%TO.C,J15*%
X84800000Y-144460000D03*
D10*
X84800000Y-147000000D03*
%TD*%
D11*
%TO.C,J14*%
X80200000Y-144460000D03*
D10*
X80200000Y-147000000D03*
%TD*%
D11*
%TO.C,J13*%
X75600000Y-144460000D03*
D10*
X75600000Y-147000000D03*
%TD*%
D11*
%TO.C,J12*%
X41200000Y-145000000D03*
D10*
X41200000Y-147540000D03*
%TD*%
D11*
%TO.C,J11*%
X36600000Y-145000000D03*
D10*
X36600000Y-147540000D03*
%TD*%
D11*
%TO.C,J10*%
X32000000Y-145000000D03*
D10*
X32000000Y-147540000D03*
%TD*%
D11*
%TO.C,J9*%
X27400000Y-145000000D03*
D10*
X27400000Y-147540000D03*
%TD*%
D11*
%TO.C,J7*%
X18200000Y-145000000D03*
D10*
X18200000Y-147540000D03*
%TD*%
D11*
%TO.C,J5*%
X65800000Y-144460000D03*
D10*
X65800000Y-147000000D03*
%TD*%
D11*
%TO.C,J4*%
X61200000Y-144460000D03*
D10*
X61200000Y-147000000D03*
%TD*%
D11*
%TO.C,J3*%
X56600000Y-144460000D03*
D10*
X56600000Y-147000000D03*
%TD*%
D11*
%TO.C,J2*%
X52000000Y-144460000D03*
D10*
X52000000Y-147000000D03*
%TD*%
D11*
%TO.C,J1*%
X47400000Y-144460000D03*
D10*
X47400000Y-147000000D03*
%TD*%
D15*
%TO.C,D1*%
X127840000Y-19000000D03*
D16*
X138000000Y-19000000D03*
%TD*%
D11*
%TO.C,J46*%
X53000000Y-126000000D03*
D10*
X53000000Y-123460000D03*
%TD*%
D11*
%TO.C,J38*%
X109000000Y-126000000D03*
D10*
X109000000Y-123460000D03*
%TD*%
M02*
