M48
; DRILL file {KiCad 9.0.7} date 2026-05-16T15:29:06-0400
; FORMAT={-:-/ absolute / metric / decimal}
; #@! TF.CreationDate,2026-05-16T15:29:06-04:00
; #@! TF.GenerationSoftware,Kicad,Pcbnew,9.0.7
; #@! TF.FileFunction,Plated,1,6,PTH
FMAT,2
METRIC
; #@! TA.AperFunction,Plated,PTH,ViaDrill
T1C0.300
; #@! TA.AperFunction,Plated,PTH,ComponentDrill
T2C0.400
; #@! TA.AperFunction,Plated,PTH,ComponentDrill
T3C0.600
; #@! TA.AperFunction,Plated,PTH,ComponentDrill
T4C1.000
; #@! TA.AperFunction,Plated,PTH,ComponentDrill
T5C1.100
%
G90
G05
T1
X14.0Y-140.5
X41.5Y-126.0
X43.0Y-145.0
X44.0Y-154.0
X47.0Y-136.0
X64.5Y-195.5
X69.0Y-136.0
X72.0Y-126.0
X75.0Y-154.5
X75.5Y-145.0
X76.0Y-136.0
X78.0Y-96.0
X78.0Y-138.0
X79.5Y-95.199
X80.0Y-93.0
X83.0Y-138.0
X84.0Y-92.0
X84.0Y-137.0
X105.0Y-136.0
X105.0Y-186.0
X105.0Y-192.0
X105.201Y-154.0
X105.75Y-160.0
X109.0Y-125.5
X110.0Y-108.5
X111.0Y-112.0
X111.0Y-133.0
X111.0Y-190.0
X112.0Y-109.0
X112.0Y-137.0
X113.0Y-137.0
X121.0Y-139.0
X123.0Y-132.0
X124.0Y-139.0
X126.0Y-136.0
X127.0Y-107.0
X128.0Y-106.0
X131.0Y-105.0
X131.0Y-125.0
X133.0Y-96.0
X134.201Y-153.0
X136.0Y-84.0
X136.0Y-119.0
X137.5Y-105.19
X137.5Y-106.46
X138.0Y-100.0
X138.0Y-117.0
X140.0Y-137.0
X142.0Y-85.0
X142.0Y-87.0
X142.0Y-119.0
X143.0Y-133.0
X143.0Y-134.0
X145.0Y-87.0
X145.0Y-135.0
X145.0Y-139.0
X148.0Y-109.0
X148.0Y-134.0
X148.0Y-138.0
X149.0Y-109.0
X150.0Y-109.0
X151.0Y-109.0
X151.0Y-138.0
X152.0Y-138.0
X153.0Y-98.0
X153.0Y-112.0
X153.0Y-114.0
X153.0Y-115.0
X154.0Y-92.0
X154.0Y-95.0
X155.0Y-95.0
X155.0Y-124.0
X155.0Y-138.75
X156.0Y-138.0
X157.0Y-109.0
X157.0Y-126.0
X157.0Y-133.0
X159.5Y-120.89
X159.6Y-115.81
X160.0Y-101.0
X160.9Y-112.566
X161.5Y-110.0
X161.5Y-112.0
X162.0Y-108.0
X162.0Y-117.0
X162.5Y-110.0
X162.5Y-112.0
X164.0Y-110.5
X164.0Y-113.0
X164.0Y-138.0
X164.0Y-175.0
X164.5Y-121.5
X166.0Y-102.0
X166.0Y-110.0
X166.0Y-116.19
X166.0Y-118.73
X166.0Y-124.0
X167.0Y-103.0
X168.0Y-104.0
X169.0Y-104.9
X169.5Y-129.0
X170.5Y-130.0
X171.0Y-163.0
X171.5Y-131.0
X173.0Y-110.0
X173.0Y-114.0
X173.0Y-115.0
X173.0Y-116.0
X174.0Y-117.459
X174.0Y-163.0
X175.0Y-118.0
X176.0Y-118.0
X176.5Y-132.5
X176.933Y-113.0
X177.276Y-137.876
X177.533Y-116.533
X178.0Y-127.0
X180.0Y-116.0
X180.0Y-146.0
X180.5Y-107.0
X181.0Y-134.0
X184.0Y-118.0
X185.024Y-137.9
X186.0Y-125.5
X186.0Y-131.9
X187.0Y-122.0
X187.0Y-129.9
X188.9Y-126.1
X189.0Y-117.0
X189.0Y-137.0
X189.27Y-112.23
X189.5Y-124.0
X190.1Y-136.275
X190.5Y-124.0
X191.525Y-108.42
X192.0Y-119.5
X192.0Y-134.0
X192.0Y-136.0
X192.05Y-124.42
X192.05Y-129.5
X193.5Y-130.5
X194.0Y-86.0
X194.0Y-89.0
X194.5Y-141.0
X195.0Y-133.0
X195.966Y-137.4
X196.0Y-139.5
X196.475Y-109.69
X197.0Y-121.88
X197.0Y-129.5
X197.0Y-133.0
X198.0Y-106.0
X198.0Y-124.1
X199.0Y-127.0
X199.0Y-128.5
X199.0Y-137.9
X200.0Y-130.0
X202.0Y-132.0
X202.0Y-134.0
X203.0Y-115.0
X204.0Y-112.5
X204.0Y-127.5
X205.0Y-117.0
X206.0Y-117.0
X206.0Y-134.0
X206.0Y-147.0
X206.05Y-150.285
X206.05Y-154.095
X206.6Y-112.5
X207.0Y-106.0
X207.0Y-115.0
X208.0Y-106.0
X209.0Y-90.0
X209.0Y-106.0
X210.0Y-132.0
X210.0Y-138.0
X210.0Y-152.0
X210.275Y-128.5
X210.5Y-120.5
X210.5Y-121.5
X211.4Y-124.0
X213.0Y-91.0
X213.0Y-122.5
X213.0Y-160.0
X213.5Y-120.5
X214.0Y-91.0
X214.5Y-114.19
X214.5Y-121.5
X216.0Y-84.0
X216.0Y-111.0
X217.0Y-106.9
X217.0Y-109.5
X217.5Y-119.9
X218.0Y-89.0
X218.0Y-107.5
X218.0Y-109.5
X218.4Y-115.1
X218.6Y-129.9
X219.0Y-105.0
X219.725Y-126.0
X220.0Y-97.0
X220.0Y-118.0
X220.0Y-129.0
X220.5Y-105.0
X221.0Y-156.0
X221.5Y-105.0
X222.0Y-109.1
X222.0Y-112.95
X222.0Y-127.9
X223.0Y-92.5
X223.0Y-129.0
X223.0Y-141.0
X223.0Y-147.0
X224.0Y-85.0
X224.0Y-127.0
X225.0Y-114.15
X225.0Y-116.0
X225.4Y-93.5
X227.0Y-105.0
X227.0Y-123.9
X227.5Y-102.0
X228.0Y-105.0
X228.0Y-149.0
X228.5Y-97.0
X228.619Y-115.468
X229.0Y-139.5
X229.027Y-145.973
X230.0Y-82.0
X230.0Y-112.0
X231.0Y-93.5
X231.5Y-139.5
X235.5Y-118.5
X236.0Y-155.0
X237.5Y-115.0
X237.725Y-148.06
X238.5Y-129.0
X238.5Y-131.5
X239.0Y-113.5
X241.5Y-125.0
X241.9Y-132.23
X242.5Y-117.5
X242.675Y-145.4
X243.5Y-119.5
X243.5Y-121.049
X244.0Y-111.0
X244.0Y-118.0
X244.637Y-95.45
X245.0Y-118.0
X245.0Y-144.5
X246.0Y-93.0
X246.0Y-97.0
X246.0Y-126.0
X246.0Y-137.0
X246.0Y-150.0
X247.0Y-133.5
X247.0Y-140.0
X248.0Y-108.0
X248.0Y-114.0
X248.0Y-137.975
X248.0Y-144.0
X248.9Y-128.0
X249.0Y-137.0
X249.0Y-144.0
X249.0Y-148.0
X250.0Y-105.0
X250.5Y-123.5
X251.0Y-95.0
X251.0Y-103.0
X251.1Y-137.0
X251.5Y-117.0
X251.5Y-125.0
X252.0Y-131.0
X252.5Y-136.05
X254.0Y-142.0
X255.0Y-126.0
X256.0Y-131.0
X258.0Y-137.0
X259.0Y-126.0
X259.65Y-103.0
X259.65Y-105.0
X259.65Y-108.0
X259.65Y-111.0
X260.0Y-95.0
X260.0Y-131.0
X260.0Y-133.5
X260.0Y-140.0
X261.5Y-132.5
X262.0Y-140.0
X263.5Y-133.5
X264.0Y-140.9
X265.5Y-137.5
X269.0Y-138.0
X270.0Y-134.0
X271.5Y-129.5
X272.0Y-132.5
X272.775Y-110.225
X273.0Y-103.0
X274.0Y-131.0
X279.0Y-109.0
T2
X275.64Y-104.7
X275.64Y-105.55
X275.64Y-106.4
X275.64Y-107.25
X275.64Y-108.1
X275.64Y-108.95
X275.64Y-109.8
X275.64Y-110.65
X276.99Y-104.7
X276.99Y-105.55
X276.99Y-106.4
X276.99Y-107.25
X276.99Y-108.1
X276.99Y-108.95
X276.99Y-109.8
X276.99Y-110.65
T4
X17.0Y-97.02
X17.0Y-99.56
X17.0Y-107.745
X17.0Y-110.285
X17.0Y-118.745
X17.0Y-121.285
X17.0Y-129.48
X17.0Y-132.02
X17.5Y-146.735
X17.5Y-149.275
X18.0Y-159.47
X18.0Y-162.01
X18.5Y-172.0
X18.5Y-174.54
X18.5Y-186.5
X18.5Y-189.04
X21.0Y-97.02
X21.0Y-99.56
X21.0Y-107.745
X21.0Y-110.285
X21.0Y-118.745
X21.0Y-121.285
X21.0Y-129.48
X21.0Y-132.02
X21.5Y-146.735
X21.5Y-149.275
X22.0Y-159.47
X22.0Y-162.01
X22.5Y-172.0
X22.5Y-174.54
X22.5Y-186.5
X22.5Y-189.04
X25.0Y-97.02
X25.0Y-99.56
X25.0Y-107.745
X25.0Y-110.285
X25.0Y-118.745
X25.0Y-121.285
X25.0Y-129.48
X25.0Y-132.02
X25.5Y-146.735
X25.5Y-149.275
X26.0Y-159.47
X26.0Y-162.01
X26.5Y-172.04
X26.5Y-174.58
X26.5Y-186.5
X26.5Y-189.04
X29.0Y-97.02
X29.0Y-99.56
X29.0Y-107.745
X29.0Y-110.285
X29.0Y-118.745
X29.0Y-121.285
X29.0Y-129.48
X29.0Y-132.02
X29.5Y-146.735
X29.5Y-149.275
X30.0Y-159.47
X30.0Y-162.01
X30.5Y-172.04
X30.5Y-174.58
X30.5Y-186.5
X30.5Y-189.04
X33.0Y-97.02
X33.0Y-99.56
X33.0Y-107.745
X33.0Y-110.285
X33.0Y-118.745
X33.0Y-121.285
X33.0Y-129.48
X33.0Y-132.02
X33.5Y-146.735
X33.5Y-149.275
X34.0Y-159.47
X34.0Y-162.01
X34.5Y-172.0
X34.5Y-174.54
X34.5Y-186.5
X34.5Y-189.04
X37.0Y-97.02
X37.0Y-99.56
X37.0Y-107.755
X37.0Y-110.295
X37.0Y-118.745
X37.0Y-121.285
X37.0Y-129.48
X37.0Y-132.02
X37.5Y-146.735
X37.5Y-149.275
X38.0Y-159.47
X38.0Y-162.01
X38.5Y-172.0
X38.5Y-174.54
X38.5Y-186.5
X38.5Y-189.04
X47.515Y-98.24
X47.515Y-100.78
X47.515Y-108.24
X47.515Y-110.78
X48.015Y-118.24
X48.015Y-120.78
X48.015Y-130.055
X48.015Y-132.595
X48.5Y-172.822
X48.5Y-175.362
X48.73Y-187.597
X48.73Y-190.137
X49.0Y-147.322
X49.0Y-149.862
X49.04Y-160.332
X49.04Y-162.873
X51.515Y-98.24
X51.515Y-100.78
X51.515Y-108.24
X51.515Y-110.78
X51.985Y-130.055
X51.985Y-132.595
X52.015Y-118.24
X52.015Y-120.78
X52.5Y-172.822
X52.5Y-175.362
X52.86Y-147.299
X52.86Y-149.839
X53.0Y-160.332
X53.0Y-162.873
X53.0Y-187.597
X53.0Y-190.137
X55.515Y-108.24
X55.515Y-110.78
X55.605Y-98.24
X55.605Y-100.78
X55.985Y-130.055
X55.985Y-132.595
X56.015Y-118.24
X56.015Y-120.78
X56.5Y-172.822
X56.5Y-175.362
X57.0Y-147.299
X57.0Y-149.839
X57.04Y-160.332
X57.04Y-162.873
X57.91Y-187.597
X57.91Y-190.137
X59.515Y-98.24
X59.515Y-100.78
X59.515Y-108.24
X59.515Y-110.78
X59.898Y-130.055
X59.898Y-132.595
X60.015Y-118.24
X60.015Y-120.78
X60.5Y-172.822
X60.5Y-175.362
X61.0Y-147.322
X61.0Y-149.862
X61.0Y-160.322
X61.0Y-162.862
X62.0Y-187.597
X62.0Y-190.137
X63.515Y-98.2
X63.515Y-100.74
X63.515Y-108.24
X63.515Y-110.78
X63.926Y-130.055
X63.926Y-132.595
X64.015Y-118.24
X64.015Y-120.78
X64.5Y-172.597
X64.5Y-175.137
X65.0Y-147.299
X65.0Y-149.839
X65.0Y-160.332
X65.0Y-162.873
X66.0Y-187.597
X66.0Y-190.137
X67.515Y-98.24
X67.515Y-100.78
X67.515Y-108.24
X67.515Y-110.78
X67.912Y-130.055
X67.912Y-132.595
X68.015Y-118.24
X68.015Y-120.78
X68.469Y-172.81
X68.469Y-175.35
X69.0Y-147.097
X69.0Y-149.637
X69.0Y-160.322
X69.0Y-162.862
X70.0Y-187.597
X70.0Y-190.137
X80.41Y-187.235
X80.41Y-189.775
X80.5Y-147.235
X80.5Y-149.775
X80.5Y-159.96
X80.5Y-162.5
X80.5Y-171.96
X80.5Y-174.5
X84.5Y-97.46
X84.5Y-100.0
X84.5Y-108.0
X84.5Y-110.54
X84.5Y-118.96
X84.5Y-121.5
X84.5Y-129.46
X84.5Y-132.0
X84.5Y-147.235
X84.5Y-149.775
X84.5Y-159.96
X84.5Y-162.5
X84.5Y-171.96
X84.5Y-174.5
X84.5Y-187.235
X84.5Y-189.775
X88.5Y-97.46
X88.5Y-100.0
X88.5Y-108.0
X88.5Y-110.54
X88.5Y-118.96
X88.5Y-121.5
X88.5Y-129.46
X88.5Y-132.0
X88.5Y-147.235
X88.5Y-149.775
X88.5Y-159.96
X88.5Y-162.5
X88.5Y-171.96
X88.5Y-174.5
X88.5Y-187.235
X88.5Y-189.775
X92.5Y-97.46
X92.5Y-100.0
X92.5Y-108.0
X92.5Y-110.54
X92.5Y-118.96
X92.5Y-121.5
X92.5Y-129.46
X92.5Y-132.0
X92.5Y-147.235
X92.5Y-149.775
X92.5Y-171.96
X92.5Y-174.5
X92.5Y-187.235
X92.5Y-189.775
X92.55Y-159.96
X92.55Y-162.5
X96.5Y-97.46
X96.5Y-100.0
X96.5Y-108.0
X96.5Y-110.54
X96.5Y-119.0
X96.5Y-121.54
X96.5Y-129.46
X96.5Y-132.0
X96.5Y-147.235
X96.5Y-149.775
X96.5Y-159.96
X96.5Y-162.5
X96.5Y-171.96
X96.5Y-174.5
X96.5Y-187.235
X96.5Y-189.775
X100.5Y-97.46
X100.5Y-100.0
X100.5Y-108.0
X100.5Y-110.54
X100.5Y-119.0
X100.5Y-121.54
X100.5Y-129.46
X100.5Y-132.0
X100.5Y-147.235
X100.5Y-149.775
X100.5Y-159.96
X100.5Y-162.5
X100.5Y-187.235
X100.5Y-189.775
X100.68Y-171.95
X100.68Y-174.49
X104.452Y-107.999
X104.452Y-110.539
X104.5Y-97.46
X104.5Y-100.0
X104.5Y-119.0
X104.5Y-121.54
X104.5Y-129.46
X104.5Y-132.0
X109.32Y-147.185
X109.32Y-149.725
X109.5Y-156.96
X109.5Y-159.5
X109.5Y-167.46
X109.5Y-170.0
X109.5Y-179.46
X109.5Y-182.0
X113.5Y-147.185
X113.5Y-149.725
X113.5Y-156.96
X113.5Y-159.5
X113.5Y-167.46
X113.5Y-170.0
X113.5Y-179.46
X113.5Y-182.0
X117.5Y-147.185
X117.5Y-149.725
X117.5Y-156.96
X117.5Y-159.5
X117.5Y-167.46
X117.5Y-170.0
X117.5Y-179.46
X117.5Y-182.0
X121.5Y-147.185
X121.5Y-149.725
X121.5Y-156.96
X121.5Y-159.5
X121.5Y-167.46
X121.5Y-170.0
X121.5Y-179.46
X121.5Y-182.0
X125.5Y-147.185
X125.5Y-149.725
X125.5Y-156.96
X125.5Y-159.5
X125.5Y-167.46
X125.5Y-170.0
X125.5Y-179.46
X125.5Y-182.0
X129.5Y-147.185
X129.5Y-149.725
X129.5Y-156.96
X129.5Y-159.5
X129.5Y-167.46
X129.5Y-170.0
X129.5Y-179.46
X129.5Y-182.0
X139.0Y-147.51
X139.0Y-150.05
X139.0Y-157.01
X139.0Y-159.55
X139.0Y-166.735
X139.0Y-169.275
X139.0Y-178.01
X139.0Y-180.55
X143.0Y-147.51
X143.0Y-150.05
X143.0Y-157.01
X143.0Y-159.55
X143.0Y-166.735
X143.0Y-169.275
X143.0Y-178.01
X143.0Y-180.55
X147.0Y-147.51
X147.0Y-150.05
X147.0Y-157.01
X147.0Y-159.55
X147.0Y-166.735
X147.0Y-169.275
X147.0Y-178.01
X147.0Y-180.55
X151.0Y-147.51
X151.0Y-150.05
X151.0Y-157.01
X151.0Y-159.55
X151.0Y-166.735
X151.0Y-169.275
X151.0Y-178.01
X151.0Y-180.55
X155.0Y-147.51
X155.0Y-150.05
X155.0Y-157.01
X155.0Y-159.55
X155.0Y-166.735
X155.0Y-169.275
X155.0Y-178.01
X155.0Y-180.55
X159.0Y-147.51
X159.0Y-150.05
X159.0Y-157.01
X159.0Y-159.55
X159.0Y-166.735
X159.0Y-169.275
X159.0Y-178.01
X159.0Y-180.55
T5
X262.84Y-97.0
X273.0Y-97.0
T3
G00X275.87Y-103.35
M15
G01X277.37Y-103.35
M16
G05
G00X275.87Y-112.0
M15
G01X277.37Y-112.0
M16
G05
G00X279.6Y-103.35
M15
G01X280.4Y-103.35
M16
G05
G00X279.6Y-112.0
M15
G01X280.4Y-112.0
M16
G05
M30
