%TF.GenerationSoftware,KiCad,Pcbnew,9.0.7*%
%TF.CreationDate,2026-06-23T20:31:14-04:00*%
%TF.ProjectId,Turing Machine,54757269-6e67-4204-9d61-6368696e652e,rev?*%
%TF.SameCoordinates,Original*%
%TF.FileFunction,Paste,Top*%
%TF.FilePolarity,Positive*%
%FSLAX46Y46*%
G04 Gerber Fmt 4.6, Leading zero omitted, Abs format (unit mm)*
G04 Created by KiCad (PCBNEW 9.0.7) date 2026-06-23 20:31:14*
%MOMM*%
%LPD*%
G01*
G04 APERTURE LIST*
G04 Aperture macros list*
%AMRoundRect*
0 Rectangle with rounded corners*
0 $1 Rounding radius*
0 $2 $3 $4 $5 $6 $7 $8 $9 X,Y pos of 4 corners*
0 Add a 4 corners polygon primitive as box body*
4,1,4,$2,$3,$4,$5,$6,$7,$8,$9,$2,$3,0*
0 Add four circle primitives for the rounded corners*
1,1,$1+$1,$2,$3*
1,1,$1+$1,$4,$5*
1,1,$1+$1,$6,$7*
1,1,$1+$1,$8,$9*
0 Add four rect primitives between the rounded corners*
20,1,$1+$1,$2,$3,$4,$5,0*
20,1,$1+$1,$4,$5,$6,$7,0*
20,1,$1+$1,$6,$7,$8,$9,0*
20,1,$1+$1,$8,$9,$2,$3,0*%
G04 Aperture macros list end*
%ADD10RoundRect,0.200000X0.200000X0.275000X-0.200000X0.275000X-0.200000X-0.275000X0.200000X-0.275000X0*%
%ADD11RoundRect,0.150000X-0.512500X-0.150000X0.512500X-0.150000X0.512500X0.150000X-0.512500X0.150000X0*%
%ADD12RoundRect,0.150000X-0.825000X-0.150000X0.825000X-0.150000X0.825000X0.150000X-0.825000X0.150000X0*%
%ADD13RoundRect,0.250000X-0.250000X-0.550000X0.250000X-0.550000X0.250000X0.550000X-0.250000X0.550000X0*%
%ADD14RoundRect,0.200000X0.275000X-0.200000X0.275000X0.200000X-0.275000X0.200000X-0.275000X-0.200000X0*%
%ADD15RoundRect,0.200000X-0.275000X0.200000X-0.275000X-0.200000X0.275000X-0.200000X0.275000X0.200000X0*%
%ADD16RoundRect,0.250000X-0.312500X-1.450000X0.312500X-1.450000X0.312500X1.450000X-0.312500X1.450000X0*%
%ADD17RoundRect,0.150000X0.825000X0.150000X-0.825000X0.150000X-0.825000X-0.150000X0.825000X-0.150000X0*%
G04 APERTURE END LIST*
D10*
%TO.C,R10*%
X152175000Y-20000000D03*
X153825000Y-20000000D03*
%TD*%
%TO.C,R9*%
X149175000Y-19000000D03*
X150825000Y-19000000D03*
%TD*%
D11*
%TO.C,U29*%
X158862500Y-37050000D03*
X158862500Y-38000000D03*
X158862500Y-38950000D03*
X161137500Y-38950000D03*
X161137500Y-37050000D03*
%TD*%
D12*
%TO.C,U49*%
X161050000Y-49380000D03*
X161050000Y-50650000D03*
X161050000Y-51920000D03*
X161050000Y-53190000D03*
X161050000Y-54460000D03*
X161050000Y-55730000D03*
X161050000Y-57000000D03*
X161050000Y-58270000D03*
X166000000Y-58270000D03*
X166000000Y-57000000D03*
X166000000Y-55730000D03*
X166000000Y-54460000D03*
X166000000Y-53190000D03*
X166000000Y-51920000D03*
X166000000Y-50650000D03*
X166000000Y-49380000D03*
%TD*%
D11*
%TO.C,U48*%
X132725000Y-31100000D03*
X132725000Y-32050000D03*
X132725000Y-33000000D03*
X135000000Y-33000000D03*
X135000000Y-31100000D03*
%TD*%
%TO.C,U47*%
X126725000Y-31100000D03*
X126725000Y-32050000D03*
X126725000Y-33000000D03*
X129000000Y-33000000D03*
X129000000Y-31100000D03*
%TD*%
%TO.C,U46*%
X133725000Y-37100000D03*
X133725000Y-38050000D03*
X133725000Y-39000000D03*
X136000000Y-39000000D03*
X136000000Y-37100000D03*
%TD*%
%TO.C,U45*%
X127725000Y-37100000D03*
X127725000Y-38050000D03*
X127725000Y-39000000D03*
X130000000Y-39000000D03*
X130000000Y-37100000D03*
%TD*%
%TO.C,U44*%
X114725000Y-32100000D03*
X114725000Y-33050000D03*
X114725000Y-34000000D03*
X117000000Y-34000000D03*
X117000000Y-32100000D03*
%TD*%
%TO.C,U43*%
X111862500Y-53050000D03*
X111862500Y-54000000D03*
X111862500Y-54950000D03*
X114137500Y-54950000D03*
X114137500Y-53050000D03*
%TD*%
%TO.C,U42*%
X174725000Y-31000000D03*
X174725000Y-31950000D03*
X174725000Y-32900000D03*
X177000000Y-32900000D03*
X177000000Y-31000000D03*
%TD*%
%TO.C,U41*%
X174862500Y-37050000D03*
X174862500Y-38000000D03*
X174862500Y-38950000D03*
X177137500Y-38950000D03*
X177137500Y-37050000D03*
%TD*%
%TO.C,U40*%
X175862500Y-62050000D03*
X175862500Y-63000000D03*
X175862500Y-63950000D03*
X178137500Y-63950000D03*
X178137500Y-62050000D03*
%TD*%
%TO.C,U39*%
X171725000Y-42100000D03*
X171725000Y-43050000D03*
X171725000Y-44000000D03*
X174000000Y-44000000D03*
X174000000Y-42100000D03*
%TD*%
%TO.C,U38*%
X169725000Y-31100000D03*
X169725000Y-32050000D03*
X169725000Y-33000000D03*
X172000000Y-33000000D03*
X172000000Y-31100000D03*
%TD*%
%TO.C,U37*%
X169725000Y-37000000D03*
X169725000Y-37950000D03*
X169725000Y-38900000D03*
X172000000Y-38900000D03*
X172000000Y-37000000D03*
%TD*%
%TO.C,U36*%
X169725000Y-62100000D03*
X169725000Y-63050000D03*
X169725000Y-64000000D03*
X172000000Y-64000000D03*
X172000000Y-62100000D03*
%TD*%
%TO.C,U35*%
X169725000Y-67100000D03*
X169725000Y-68050000D03*
X169725000Y-69000000D03*
X172000000Y-69000000D03*
X172000000Y-67100000D03*
%TD*%
%TO.C,U34*%
X163862500Y-31100000D03*
X163862500Y-32050000D03*
X163862500Y-33000000D03*
X166137500Y-33000000D03*
X166137500Y-31100000D03*
%TD*%
%TO.C,U33*%
X163862500Y-37050000D03*
X163862500Y-38000000D03*
X163862500Y-38950000D03*
X166137500Y-38950000D03*
X166137500Y-37050000D03*
%TD*%
%TO.C,U32*%
X203000000Y-66000000D03*
X203000000Y-66950000D03*
X203000000Y-67900000D03*
X205275000Y-67900000D03*
X205275000Y-66000000D03*
%TD*%
%TO.C,U31*%
X203000000Y-61375000D03*
X203000000Y-62325000D03*
X203000000Y-63275000D03*
X205275000Y-63275000D03*
X205275000Y-61375000D03*
%TD*%
%TO.C,U28*%
X197862500Y-55050000D03*
X197862500Y-56000000D03*
X197862500Y-56950000D03*
X200137500Y-56950000D03*
X200137500Y-55050000D03*
%TD*%
%TO.C,U27*%
X182862500Y-40050000D03*
X182862500Y-41000000D03*
X182862500Y-41950000D03*
X185137500Y-41950000D03*
X185137500Y-40050000D03*
%TD*%
%TO.C,U26*%
X152725000Y-31000000D03*
X152725000Y-31950000D03*
X152725000Y-32900000D03*
X155000000Y-32900000D03*
X155000000Y-31000000D03*
%TD*%
%TO.C,U25*%
X152862500Y-37050000D03*
X152862500Y-38000000D03*
X152862500Y-38950000D03*
X155137500Y-38950000D03*
X155137500Y-37050000D03*
%TD*%
%TO.C,U24*%
X109725000Y-32100000D03*
X109725000Y-33050000D03*
X109725000Y-34000000D03*
X112000000Y-34000000D03*
X112000000Y-32100000D03*
%TD*%
%TO.C,U23*%
X120725000Y-32000000D03*
X120725000Y-32950000D03*
X120725000Y-33900000D03*
X123000000Y-33900000D03*
X123000000Y-32000000D03*
%TD*%
%TO.C,U22*%
X146725000Y-31050000D03*
X146725000Y-32000000D03*
X146725000Y-32950000D03*
X149000000Y-32950000D03*
X149000000Y-31050000D03*
%TD*%
%TO.C,U21*%
X146862500Y-37050000D03*
X146862500Y-38000000D03*
X146862500Y-38950000D03*
X149137500Y-38950000D03*
X149137500Y-37050000D03*
%TD*%
%TO.C,U20*%
X186000000Y-72100000D03*
X186000000Y-73050000D03*
X186000000Y-74000000D03*
X188275000Y-74000000D03*
X188275000Y-72100000D03*
%TD*%
%TO.C,U19*%
X139725000Y-37100000D03*
X139725000Y-38050000D03*
X139725000Y-39000000D03*
X142000000Y-39000000D03*
X142000000Y-37100000D03*
%TD*%
%TO.C,U18*%
X191000000Y-72100000D03*
X191000000Y-73050000D03*
X191000000Y-74000000D03*
X193275000Y-74000000D03*
X193275000Y-72100000D03*
%TD*%
%TO.C,U17*%
X140000000Y-31100000D03*
X140000000Y-32050000D03*
X140000000Y-33000000D03*
X142275000Y-33000000D03*
X142275000Y-31100000D03*
%TD*%
D12*
%TO.C,U16*%
X172050000Y-49650000D03*
X172050000Y-50920000D03*
X172050000Y-52190000D03*
X172050000Y-53460000D03*
X172050000Y-54730000D03*
X172050000Y-56000000D03*
X172050000Y-57270000D03*
X177000000Y-57270000D03*
X177000000Y-56000000D03*
X177000000Y-54730000D03*
X177000000Y-53460000D03*
X177000000Y-52190000D03*
X177000000Y-50920000D03*
X177000000Y-49650000D03*
%TD*%
D11*
%TO.C,U15*%
X189725000Y-52725000D03*
X189725000Y-53675000D03*
X189725000Y-54625000D03*
X192000000Y-54625000D03*
X192000000Y-52725000D03*
%TD*%
%TO.C,U14*%
X189725000Y-48100000D03*
X189725000Y-49050000D03*
X189725000Y-50000000D03*
X192000000Y-50000000D03*
X192000000Y-48100000D03*
%TD*%
D12*
%TO.C,U13*%
X88000000Y-48650000D03*
X88000000Y-49920000D03*
X88000000Y-51190000D03*
X88000000Y-52460000D03*
X88000000Y-53730000D03*
X88000000Y-55000000D03*
X88000000Y-56270000D03*
X92950000Y-56270000D03*
X92950000Y-55000000D03*
X92950000Y-53730000D03*
X92950000Y-52460000D03*
X92950000Y-51190000D03*
X92950000Y-49920000D03*
X92950000Y-48650000D03*
%TD*%
%TO.C,U12*%
X99050000Y-43920000D03*
X99050000Y-45190000D03*
X99050000Y-46460000D03*
X99050000Y-47730000D03*
X99050000Y-49000000D03*
X99050000Y-50270000D03*
X99050000Y-51540000D03*
X104000000Y-51540000D03*
X104000000Y-50270000D03*
X104000000Y-49000000D03*
X104000000Y-47730000D03*
X104000000Y-46460000D03*
X104000000Y-45190000D03*
X104000000Y-43920000D03*
%TD*%
%TO.C,U10*%
X93000000Y-66110000D03*
X93000000Y-67380000D03*
X93000000Y-68650000D03*
X93000000Y-69920000D03*
X93000000Y-71190000D03*
X93000000Y-72460000D03*
X93000000Y-73730000D03*
X93000000Y-75000000D03*
X97950000Y-75000000D03*
X97950000Y-73730000D03*
X97950000Y-72460000D03*
X97950000Y-71190000D03*
X97950000Y-69920000D03*
X97950000Y-68650000D03*
X97950000Y-67380000D03*
X97950000Y-66110000D03*
%TD*%
%TO.C,U9*%
X121050000Y-66380000D03*
X121050000Y-67650000D03*
X121050000Y-68920000D03*
X121050000Y-70190000D03*
X121050000Y-71460000D03*
X121050000Y-72730000D03*
X121050000Y-74000000D03*
X121050000Y-75270000D03*
X126000000Y-75270000D03*
X126000000Y-74000000D03*
X126000000Y-72730000D03*
X126000000Y-71460000D03*
X126000000Y-70190000D03*
X126000000Y-68920000D03*
X126000000Y-67650000D03*
X126000000Y-66380000D03*
%TD*%
%TO.C,U8*%
X134050000Y-66380000D03*
X134050000Y-67650000D03*
X134050000Y-68920000D03*
X134050000Y-70190000D03*
X134050000Y-71460000D03*
X134050000Y-72730000D03*
X134050000Y-74000000D03*
X134050000Y-75270000D03*
X139000000Y-75270000D03*
X139000000Y-74000000D03*
X139000000Y-72730000D03*
X139000000Y-71460000D03*
X139000000Y-70190000D03*
X139000000Y-68920000D03*
X139000000Y-67650000D03*
X139000000Y-66380000D03*
%TD*%
%TO.C,U7*%
X112000000Y-43650000D03*
X112000000Y-44920000D03*
X112000000Y-46190000D03*
X112000000Y-47460000D03*
X112000000Y-48730000D03*
X112000000Y-50000000D03*
X112000000Y-51270000D03*
X116950000Y-51270000D03*
X116950000Y-50000000D03*
X116950000Y-48730000D03*
X116950000Y-47460000D03*
X116950000Y-46190000D03*
X116950000Y-44920000D03*
X116950000Y-43650000D03*
%TD*%
%TO.C,U6*%
X128050000Y-45650000D03*
X128050000Y-46920000D03*
X128050000Y-48190000D03*
X128050000Y-49460000D03*
X128050000Y-50730000D03*
X128050000Y-52000000D03*
X128050000Y-53270000D03*
X128050000Y-54540000D03*
X133000000Y-54540000D03*
X133000000Y-53270000D03*
X133000000Y-52000000D03*
X133000000Y-50730000D03*
X133000000Y-49460000D03*
X133000000Y-48190000D03*
X133000000Y-46920000D03*
X133000000Y-45650000D03*
%TD*%
%TO.C,U5*%
X139050000Y-45650000D03*
X139050000Y-46920000D03*
X139050000Y-48190000D03*
X139050000Y-49460000D03*
X139050000Y-50730000D03*
X139050000Y-52000000D03*
X139050000Y-53270000D03*
X139050000Y-54540000D03*
X144000000Y-54540000D03*
X144000000Y-53270000D03*
X144000000Y-52000000D03*
X144000000Y-50730000D03*
X144000000Y-49460000D03*
X144000000Y-48190000D03*
X144000000Y-46920000D03*
X144000000Y-45650000D03*
%TD*%
%TO.C,U4*%
X149050000Y-59380000D03*
X149050000Y-60650000D03*
X149050000Y-61920000D03*
X149050000Y-63190000D03*
X149050000Y-64460000D03*
X149050000Y-65730000D03*
X149050000Y-67000000D03*
X149050000Y-68270000D03*
X154000000Y-68270000D03*
X154000000Y-67000000D03*
X154000000Y-65730000D03*
X154000000Y-64460000D03*
X154000000Y-63190000D03*
X154000000Y-61920000D03*
X154000000Y-60650000D03*
X154000000Y-59380000D03*
%TD*%
%TO.C,U3*%
X161000000Y-61650000D03*
X161000000Y-62920000D03*
X161000000Y-64190000D03*
X161000000Y-65460000D03*
X161000000Y-66730000D03*
X161000000Y-68000000D03*
X161000000Y-69270000D03*
X165950000Y-69270000D03*
X165950000Y-68000000D03*
X165950000Y-66730000D03*
X165950000Y-65460000D03*
X165950000Y-64190000D03*
X165950000Y-62920000D03*
X165950000Y-61650000D03*
%TD*%
%TO.C,U2*%
X192050000Y-60920000D03*
X192050000Y-62190000D03*
X192050000Y-63460000D03*
X192050000Y-64730000D03*
X192050000Y-66000000D03*
X192050000Y-67270000D03*
X192050000Y-68540000D03*
X197000000Y-68540000D03*
X197000000Y-67270000D03*
X197000000Y-66000000D03*
X197000000Y-64730000D03*
X197000000Y-63460000D03*
X197000000Y-62190000D03*
X197000000Y-60920000D03*
%TD*%
%TO.C,U1*%
X183600000Y-60920000D03*
X183600000Y-62190000D03*
X183600000Y-63460000D03*
X183600000Y-64730000D03*
X183600000Y-66000000D03*
X183600000Y-67270000D03*
X183600000Y-68540000D03*
X188550000Y-68540000D03*
X188550000Y-67270000D03*
X188550000Y-66000000D03*
X188550000Y-64730000D03*
X188550000Y-63460000D03*
X188550000Y-62190000D03*
X188550000Y-60920000D03*
%TD*%
D13*
%TO.C,SW1*%
X189500000Y-44000000D03*
X191250000Y-41700000D03*
X193000000Y-44000000D03*
%TD*%
D10*
%TO.C,R8*%
X76825000Y-27000000D03*
X75175000Y-27000000D03*
%TD*%
%TO.C,R7*%
X73825000Y-25000000D03*
X72175000Y-25000000D03*
%TD*%
%TO.C,R6*%
X69825000Y-24000000D03*
X68175000Y-24000000D03*
%TD*%
%TO.C,R5*%
X66825000Y-23000000D03*
X65175000Y-23000000D03*
%TD*%
%TO.C,R4*%
X63000000Y-22000000D03*
X61350000Y-22000000D03*
%TD*%
%TO.C,R3*%
X70825000Y-26000000D03*
X69175000Y-26000000D03*
%TD*%
D14*
%TO.C,R2*%
X191000000Y-38825000D03*
X191000000Y-37175000D03*
%TD*%
D15*
%TO.C,R1*%
X189000000Y-38350000D03*
X189000000Y-40000000D03*
%TD*%
D16*
%TO.C,F1*%
X176862500Y-20000000D03*
X181137500Y-20000000D03*
%TD*%
D17*
%TO.C,U11*%
X81950000Y-76000000D03*
X81950000Y-74730000D03*
X81950000Y-73460000D03*
X81950000Y-72190000D03*
X81950000Y-70920000D03*
X81950000Y-69650000D03*
X81950000Y-68380000D03*
X81950000Y-67110000D03*
X77000000Y-67110000D03*
X77000000Y-68380000D03*
X77000000Y-69650000D03*
X77000000Y-70920000D03*
X77000000Y-72190000D03*
X77000000Y-73460000D03*
X77000000Y-74730000D03*
X77000000Y-76000000D03*
%TD*%
D11*
%TO.C,U30*%
X158587500Y-31050000D03*
X158587500Y-32000000D03*
X158587500Y-32950000D03*
X160862500Y-32950000D03*
X160862500Y-31050000D03*
%TD*%
M02*
