%TF.GenerationSoftware,KiCad,Pcbnew,9.0.7*%
%TF.CreationDate,2026-05-12T22:30:37-04:00*%
%TF.ProjectId,Turing Machine,54757269-6e67-4204-9d61-6368696e652e,rev?*%
%TF.SameCoordinates,Original*%
%TF.FileFunction,Soldermask,Top*%
%TF.FilePolarity,Negative*%
%FSLAX46Y46*%
G04 Gerber Fmt 4.6, Leading zero omitted, Abs format (unit mm)*
G04 Created by KiCad (PCBNEW 9.0.7) date 2026-05-12 22:30:37*
%MOMM*%
%LPD*%
G01*
G04 APERTURE LIST*
G04 Aperture macros list*
%AMRoundRect*
0 Rectangle with rounded corners*
0 $1 Rounding radius*
0 $2 $3 $4 $5 $6 $7 $8 $9 X,Y pos of 4 corners*
0 Add a 4 corners polygon primitive as box body*
4,1,4,$2,$3,$4,$5,$6,$7,$8,$9,$2,$3,0*
0 Add four circle primitives for the rounded corners*
1,1,$1+$1,$2,$3*
1,1,$1+$1,$4,$5*
1,1,$1+$1,$6,$7*
1,1,$1+$1,$8,$9*
0 Add four rect primitives between the rounded corners*
20,1,$1+$1,$2,$3,$4,$5,0*
20,1,$1+$1,$4,$5,$6,$7,0*
20,1,$1+$1,$6,$7,$8,$9,0*
20,1,$1+$1,$8,$9,$2,$3,0*%
G04 Aperture macros list end*
%ADD10RoundRect,0.200000X-0.200000X-0.275000X0.200000X-0.275000X0.200000X0.275000X-0.200000X0.275000X0*%
%ADD11C,0.700000*%
%ADD12O,2.400000X0.900000*%
%ADD13O,1.700000X0.900000*%
%ADD14RoundRect,0.250000X-0.312500X-1.450000X0.312500X-1.450000X0.312500X1.450000X-0.312500X1.450000X0*%
%ADD15RoundRect,0.249999X-0.850001X-0.850001X0.850001X-0.850001X0.850001X0.850001X-0.850001X0.850001X0*%
%ADD16C,2.200000*%
%ADD17RoundRect,0.150000X0.512500X0.150000X-0.512500X0.150000X-0.512500X-0.150000X0.512500X-0.150000X0*%
%ADD18R,1.700000X1.700000*%
%ADD19C,1.700000*%
%ADD20RoundRect,0.150000X-0.825000X-0.150000X0.825000X-0.150000X0.825000X0.150000X-0.825000X0.150000X0*%
%ADD21RoundRect,0.150000X0.150000X-0.512500X0.150000X0.512500X-0.150000X0.512500X-0.150000X-0.512500X0*%
%ADD22RoundRect,0.150000X-0.512500X-0.150000X0.512500X-0.150000X0.512500X0.150000X-0.512500X0.150000X0*%
%ADD23RoundRect,0.150000X0.825000X0.150000X-0.825000X0.150000X-0.825000X-0.150000X0.825000X-0.150000X0*%
%ADD24RoundRect,0.200000X-0.275000X0.200000X-0.275000X-0.200000X0.275000X-0.200000X0.275000X0.200000X0*%
%ADD25RoundRect,0.150000X-0.150000X0.825000X-0.150000X-0.825000X0.150000X-0.825000X0.150000X0.825000X0*%
%ADD26RoundRect,0.200000X0.275000X-0.200000X0.275000X0.200000X-0.275000X0.200000X-0.275000X-0.200000X0*%
%ADD27RoundRect,0.150000X-0.150000X0.512500X-0.150000X-0.512500X0.150000X-0.512500X0.150000X0.512500X0*%
%ADD28RoundRect,0.250000X-0.550000X0.250000X-0.550000X-0.250000X0.550000X-0.250000X0.550000X0.250000X0*%
G04 APERTURE END LIST*
D10*
%TO.C,R10*%
X271175000Y-109000000D03*
X272825000Y-109000000D03*
%TD*%
%TO.C,R9*%
X270175000Y-105000000D03*
X271825000Y-105000000D03*
%TD*%
D11*
%TO.C,J193*%
X283025000Y-105975000D03*
X283025000Y-106825000D03*
X283025000Y-107675000D03*
X283025000Y-108525000D03*
X283025000Y-109375000D03*
X283025000Y-110225000D03*
X283025000Y-111075000D03*
X283025000Y-111925000D03*
X281675000Y-111925000D03*
X281675000Y-111075000D03*
X281675000Y-110225000D03*
X281675000Y-109375000D03*
X281675000Y-108525000D03*
X281675000Y-107675000D03*
X281675000Y-106825000D03*
X281675000Y-105975000D03*
D12*
X282045000Y-104625000D03*
D13*
X278665000Y-104625000D03*
D12*
X282045000Y-113275000D03*
D13*
X278665000Y-113275000D03*
%TD*%
D14*
%TO.C,F1*%
X276725000Y-98000000D03*
X281000000Y-98000000D03*
%TD*%
D15*
%TO.C,D1*%
X262840000Y-97000000D03*
D16*
X273000000Y-97000000D03*
%TD*%
D17*
%TO.C,U47*%
X256362500Y-129450000D03*
X256362500Y-127550000D03*
X258637500Y-127550000D03*
X258637500Y-128500000D03*
X258637500Y-129450000D03*
%TD*%
D18*
%TO.C,J32*%
X100500000Y-162500000D03*
D19*
X100500000Y-159960000D03*
%TD*%
D18*
%TO.C,J107*%
X69000000Y-149637500D03*
D19*
X69000000Y-147097500D03*
%TD*%
D20*
%TO.C,U1*%
X209550000Y-110380000D03*
X209550000Y-111650000D03*
X209550000Y-112920000D03*
X209550000Y-114190000D03*
X209550000Y-115460000D03*
X209550000Y-116730000D03*
X209550000Y-118000000D03*
X214500000Y-118000000D03*
X214500000Y-116730000D03*
X214500000Y-115460000D03*
X214500000Y-114190000D03*
X214500000Y-112920000D03*
X214500000Y-111650000D03*
X214500000Y-110380000D03*
%TD*%
D18*
%TO.C,J39*%
X61000000Y-162862500D03*
D19*
X61000000Y-160322500D03*
%TD*%
D18*
%TO.C,J184*%
X88500000Y-129460000D03*
D19*
X88500000Y-132000000D03*
%TD*%
D18*
%TO.C,J21*%
X30500000Y-189040000D03*
D19*
X30500000Y-186500000D03*
%TD*%
D18*
%TO.C,J72*%
X21000000Y-107745000D03*
D19*
X21000000Y-110285000D03*
%TD*%
D18*
%TO.C,J152*%
X29000000Y-118745000D03*
D19*
X29000000Y-121285000D03*
%TD*%
D18*
%TO.C,J173*%
X37000000Y-129480000D03*
D19*
X37000000Y-132020000D03*
%TD*%
D18*
%TO.C,J110*%
X84500000Y-174500000D03*
D19*
X84500000Y-171960000D03*
%TD*%
D18*
%TO.C,J2*%
X125500000Y-149725000D03*
D19*
X125500000Y-147185000D03*
%TD*%
D18*
%TO.C,J121*%
X17000000Y-97020000D03*
D19*
X17000000Y-99560000D03*
%TD*%
D18*
%TO.C,J120*%
X80500000Y-174500000D03*
D19*
X80500000Y-171960000D03*
%TD*%
D21*
%TO.C,U22*%
X194050000Y-136137500D03*
X195000000Y-136137500D03*
X195950000Y-136137500D03*
X195950000Y-133862500D03*
X194050000Y-133862500D03*
%TD*%
D18*
%TO.C,J104*%
X143000000Y-169275000D03*
D19*
X143000000Y-166735000D03*
%TD*%
D18*
%TO.C,J75*%
X30000000Y-162010000D03*
D19*
X30000000Y-159470000D03*
%TD*%
D18*
%TO.C,J76*%
X151000000Y-159550000D03*
D19*
X151000000Y-157010000D03*
%TD*%
D22*
%TO.C,U44*%
X248000000Y-137975000D03*
X248000000Y-138925000D03*
X248000000Y-139875000D03*
X250275000Y-139875000D03*
X250275000Y-137975000D03*
%TD*%
D18*
%TO.C,J34*%
X100680000Y-174490000D03*
D19*
X100680000Y-171950000D03*
%TD*%
D20*
%TO.C,U7*%
X242050000Y-127150000D03*
X242050000Y-128420000D03*
X242050000Y-129690000D03*
X242050000Y-130960000D03*
X242050000Y-132230000D03*
X242050000Y-133500000D03*
X242050000Y-134770000D03*
X247000000Y-134770000D03*
X247000000Y-133500000D03*
X247000000Y-132230000D03*
X247000000Y-130960000D03*
X247000000Y-129690000D03*
X247000000Y-128420000D03*
X247000000Y-127150000D03*
%TD*%
D18*
%TO.C,J35*%
X155000000Y-150050000D03*
D19*
X155000000Y-147510000D03*
%TD*%
D22*
%TO.C,U28*%
X225500000Y-82500000D03*
X225500000Y-83450000D03*
X225500000Y-84400000D03*
X227775000Y-84400000D03*
X227775000Y-82500000D03*
%TD*%
D18*
%TO.C,J119*%
X48500000Y-175362500D03*
D19*
X48500000Y-172822500D03*
%TD*%
D18*
%TO.C,J82*%
X147000000Y-159550000D03*
D19*
X147000000Y-157010000D03*
%TD*%
D17*
%TO.C,U32*%
X244637500Y-95450000D03*
X244637500Y-94500000D03*
X244637500Y-93550000D03*
X242362500Y-93550000D03*
X242362500Y-95450000D03*
%TD*%
D20*
%TO.C,U10*%
X166000000Y-111110000D03*
X166000000Y-112380000D03*
X166000000Y-113650000D03*
X166000000Y-114920000D03*
X166000000Y-116190000D03*
X166000000Y-117460000D03*
X166000000Y-118730000D03*
X166000000Y-120000000D03*
X170950000Y-120000000D03*
X170950000Y-118730000D03*
X170950000Y-117460000D03*
X170950000Y-116190000D03*
X170950000Y-114920000D03*
X170950000Y-113650000D03*
X170950000Y-112380000D03*
X170950000Y-111110000D03*
%TD*%
D22*
%TO.C,U26*%
X219725000Y-126000000D03*
X219725000Y-126950000D03*
X219725000Y-127900000D03*
X222000000Y-127900000D03*
X222000000Y-126000000D03*
%TD*%
D18*
%TO.C,J87*%
X22000000Y-162010000D03*
D19*
X22000000Y-159470000D03*
%TD*%
D18*
%TO.C,J28*%
X159000000Y-169275000D03*
D19*
X159000000Y-166735000D03*
%TD*%
D22*
%TO.C,U21*%
X202500000Y-123100000D03*
X202500000Y-124050000D03*
X202500000Y-125000000D03*
X204775000Y-125000000D03*
X204775000Y-123100000D03*
%TD*%
D18*
%TO.C,J156*%
X59514571Y-108239571D03*
D19*
X59514571Y-110779571D03*
%TD*%
D22*
%TO.C,U17*%
X199000000Y-134600000D03*
X199000000Y-135550000D03*
X199000000Y-136500000D03*
X201275000Y-136500000D03*
X201275000Y-134600000D03*
%TD*%
D18*
%TO.C,J60*%
X26500000Y-174580000D03*
D19*
X26500000Y-172040000D03*
%TD*%
D18*
%TO.C,J142*%
X25000000Y-118745000D03*
D19*
X25000000Y-121285000D03*
%TD*%
D18*
%TO.C,J163*%
X33000000Y-129480000D03*
D19*
X33000000Y-132020000D03*
%TD*%
D18*
%TO.C,J69*%
X34000000Y-162010000D03*
D19*
X34000000Y-159470000D03*
%TD*%
D18*
%TO.C,J29*%
X53000000Y-162872500D03*
D19*
X53000000Y-160332500D03*
%TD*%
D18*
%TO.C,J174*%
X68014571Y-118239571D03*
D19*
X68014571Y-120779571D03*
%TD*%
D18*
%TO.C,J158*%
X59514571Y-98239571D03*
D19*
X59514571Y-100779571D03*
%TD*%
D18*
%TO.C,J131*%
X21000000Y-97020000D03*
D19*
X21000000Y-99560000D03*
%TD*%
D18*
%TO.C,J183*%
X88500000Y-118960000D03*
D19*
X88500000Y-121500000D03*
%TD*%
D18*
%TO.C,J130*%
X84500000Y-108000000D03*
D19*
X84500000Y-110540000D03*
%TD*%
D18*
%TO.C,J108*%
X84500000Y-162500000D03*
D19*
X84500000Y-159960000D03*
%TD*%
D18*
%TO.C,J175*%
X109500000Y-159500000D03*
D19*
X109500000Y-156960000D03*
%TD*%
D18*
%TO.C,J114*%
X139000000Y-169275000D03*
D19*
X139000000Y-166735000D03*
%TD*%
D18*
%TO.C,J30*%
X38500000Y-174540000D03*
D19*
X38500000Y-172000000D03*
%TD*%
D18*
%TO.C,J106*%
X22500000Y-174540000D03*
D19*
X22500000Y-172000000D03*
%TD*%
D18*
%TO.C,J70*%
X155000000Y-159550000D03*
D19*
X155000000Y-157010000D03*
%TD*%
D21*
%TO.C,U27*%
X215500000Y-87775000D03*
X216450000Y-87775000D03*
X217400000Y-87775000D03*
X217400000Y-85500000D03*
X215500000Y-85500000D03*
%TD*%
D18*
%TO.C,J103*%
X113500000Y-182000000D03*
D19*
X113500000Y-179460000D03*
%TD*%
D18*
%TO.C,J58*%
X147000000Y-169275000D03*
D19*
X147000000Y-166735000D03*
%TD*%
D18*
%TO.C,J33*%
X52500000Y-175362500D03*
D19*
X52500000Y-172822500D03*
%TD*%
D18*
%TO.C,J127*%
X84500000Y-97460000D03*
D19*
X84500000Y-100000000D03*
%TD*%
D18*
%TO.C,J10*%
X88500000Y-189775000D03*
D19*
X88500000Y-187235000D03*
%TD*%
D18*
%TO.C,J47*%
X121500000Y-182000000D03*
D19*
X121500000Y-179460000D03*
%TD*%
D18*
%TO.C,J145*%
X121500000Y-159500000D03*
D19*
X121500000Y-156960000D03*
%TD*%
D18*
%TO.C,J41*%
X61000000Y-149862500D03*
D19*
X61000000Y-147322500D03*
%TD*%
D18*
%TO.C,J111*%
X139000000Y-150050000D03*
D19*
X139000000Y-147510000D03*
%TD*%
D23*
%TO.C,U4*%
X164000000Y-133500000D03*
X164000000Y-132230000D03*
X164000000Y-130960000D03*
X164000000Y-129690000D03*
X164000000Y-128420000D03*
X164000000Y-127150000D03*
X164000000Y-125880000D03*
X164000000Y-124610000D03*
X159050000Y-124610000D03*
X159050000Y-125880000D03*
X159050000Y-127150000D03*
X159050000Y-128420000D03*
X159050000Y-129690000D03*
X159050000Y-130960000D03*
X159050000Y-132230000D03*
X159050000Y-133500000D03*
%TD*%
D18*
%TO.C,J182*%
X84500000Y-129460000D03*
D19*
X84500000Y-132000000D03*
%TD*%
D24*
%TO.C,R2*%
X221150001Y-153445000D03*
X221150001Y-155095000D03*
%TD*%
D18*
%TO.C,J62*%
X100500000Y-149775000D03*
D19*
X100500000Y-147235000D03*
%TD*%
D18*
%TO.C,J166*%
X63514571Y-108239571D03*
D19*
X63514571Y-110779571D03*
%TD*%
D18*
%TO.C,J81*%
X26000000Y-162010000D03*
D19*
X26000000Y-159470000D03*
%TD*%
D18*
%TO.C,J172*%
X37000000Y-118745000D03*
D19*
X37000000Y-121285000D03*
%TD*%
D18*
%TO.C,J140*%
X88500000Y-108000000D03*
D19*
X88500000Y-110540000D03*
%TD*%
D18*
%TO.C,J59*%
X57040000Y-162872500D03*
D19*
X57040000Y-160332500D03*
%TD*%
D22*
%TO.C,U39*%
X246725000Y-146100000D03*
X246725000Y-147050000D03*
X246725000Y-148000000D03*
X249000000Y-148000000D03*
X249000000Y-146100000D03*
%TD*%
D18*
%TO.C,J147*%
X92500000Y-97460000D03*
D19*
X92500000Y-100000000D03*
%TD*%
D22*
%TO.C,U14*%
X225200001Y-145370000D03*
X225200001Y-146320000D03*
X225200001Y-147270000D03*
X227475001Y-147270000D03*
X227475001Y-145370000D03*
%TD*%
%TO.C,U42*%
X270000000Y-130600000D03*
X270000000Y-131550000D03*
X270000000Y-132500000D03*
X272275000Y-132500000D03*
X272275000Y-130600000D03*
%TD*%
D18*
%TO.C,J117*%
X49000000Y-149862500D03*
D19*
X49000000Y-147322500D03*
%TD*%
D18*
%TO.C,J38*%
X155000000Y-169275000D03*
D19*
X155000000Y-166735000D03*
%TD*%
D18*
%TO.C,J151*%
X29000000Y-97020000D03*
D19*
X29000000Y-99560000D03*
%TD*%
D18*
%TO.C,J126*%
X47514571Y-108239571D03*
D19*
X47514571Y-110779571D03*
%TD*%
D10*
%TO.C,R7*%
X255825000Y-111000000D03*
X257475000Y-111000000D03*
%TD*%
D18*
%TO.C,J122*%
X17000000Y-118745000D03*
D19*
X17000000Y-121285000D03*
%TD*%
D18*
%TO.C,J89*%
X143000000Y-180550000D03*
D19*
X143000000Y-178010000D03*
%TD*%
D18*
%TO.C,J64*%
X159000000Y-159550000D03*
D19*
X159000000Y-157010000D03*
%TD*%
D25*
%TO.C,U6*%
X216470000Y-93120000D03*
X215200000Y-93120000D03*
X213930000Y-93120000D03*
X212660000Y-93120000D03*
X211390000Y-93120000D03*
X210120000Y-93120000D03*
X208850000Y-93120000D03*
X207580000Y-93120000D03*
X207580000Y-98070000D03*
X208850000Y-98070000D03*
X210120000Y-98070000D03*
X211390000Y-98070000D03*
X212660000Y-98070000D03*
X213930000Y-98070000D03*
X215200000Y-98070000D03*
X216470000Y-98070000D03*
%TD*%
D18*
%TO.C,J97*%
X57000000Y-149839496D03*
D19*
X57000000Y-147299496D03*
%TD*%
D18*
%TO.C,J143*%
X25000000Y-129480000D03*
D19*
X25000000Y-132020000D03*
%TD*%
D18*
%TO.C,J176*%
X67514571Y-108239571D03*
D19*
X67514571Y-110779571D03*
%TD*%
D20*
%TO.C,U11*%
X132550000Y-101380000D03*
X132550000Y-102650000D03*
X132550000Y-103920000D03*
X132550000Y-105190000D03*
X132550000Y-106460000D03*
X132550000Y-107730000D03*
X132550000Y-109000000D03*
X132550000Y-110270000D03*
X137500000Y-110270000D03*
X137500000Y-109000000D03*
X137500000Y-107730000D03*
X137500000Y-106460000D03*
X137500000Y-105190000D03*
X137500000Y-103920000D03*
X137500000Y-102650000D03*
X137500000Y-101380000D03*
%TD*%
D18*
%TO.C,J25*%
X159000000Y-150050000D03*
D19*
X159000000Y-147510000D03*
%TD*%
D18*
%TO.C,J138*%
X51514571Y-98239571D03*
D19*
X51514571Y-100779571D03*
%TD*%
D18*
%TO.C,J40*%
X34500000Y-174540000D03*
D19*
X34500000Y-172000000D03*
%TD*%
D26*
%TO.C,R3*%
X204500000Y-137150000D03*
X204500000Y-135500000D03*
%TD*%
D18*
%TO.C,J24*%
X18500000Y-189040000D03*
D19*
X18500000Y-186500000D03*
%TD*%
D23*
%TO.C,U49*%
X206050000Y-157905000D03*
X206050000Y-156635000D03*
X206050000Y-155365000D03*
X206050000Y-154095000D03*
X206050000Y-152825000D03*
X206050000Y-151555000D03*
X206050000Y-150285000D03*
X206050000Y-149015000D03*
X201100000Y-149015000D03*
X201100000Y-150285000D03*
X201100000Y-151555000D03*
X201100000Y-152825000D03*
X201100000Y-154095000D03*
X201100000Y-155365000D03*
X201100000Y-156635000D03*
X201100000Y-157905000D03*
%TD*%
D17*
%TO.C,U40*%
X246275000Y-116000000D03*
X246275000Y-115050000D03*
X246275000Y-114100000D03*
X244000000Y-114100000D03*
X244000000Y-116000000D03*
%TD*%
D18*
%TO.C,J149*%
X55985429Y-130054571D03*
D19*
X55985429Y-132594571D03*
%TD*%
D18*
%TO.C,J133*%
X21000000Y-129480000D03*
D19*
X21000000Y-132020000D03*
%TD*%
D18*
%TO.C,J46*%
X121500000Y-170000000D03*
D19*
X121500000Y-167460000D03*
%TD*%
D18*
%TO.C,J116*%
X18500000Y-174540000D03*
D19*
X18500000Y-172000000D03*
%TD*%
D18*
%TO.C,J23*%
X22500000Y-189040000D03*
D19*
X22500000Y-186500000D03*
%TD*%
D18*
%TO.C,J124*%
X48014571Y-118239571D03*
D19*
X48014571Y-120779571D03*
%TD*%
D18*
%TO.C,J18*%
X48730000Y-190137500D03*
D19*
X48730000Y-187597500D03*
%TD*%
D10*
%TO.C,R5*%
X256000000Y-105000000D03*
X257650000Y-105000000D03*
%TD*%
D18*
%TO.C,J79*%
X25500000Y-149275000D03*
D19*
X25500000Y-146735000D03*
%TD*%
D18*
%TO.C,J5*%
X113500000Y-149725000D03*
D19*
X113500000Y-147185000D03*
%TD*%
D18*
%TO.C,J102*%
X113500000Y-170000000D03*
D19*
X113500000Y-167460000D03*
%TD*%
D18*
%TO.C,J53*%
X64500000Y-175137500D03*
D19*
X64500000Y-172597500D03*
%TD*%
D22*
%TO.C,U37*%
X247225000Y-151500000D03*
X247225000Y-152450000D03*
X247225000Y-153400000D03*
X249500000Y-153400000D03*
X249500000Y-151500000D03*
%TD*%
D18*
%TO.C,J17*%
X70000000Y-190137500D03*
D19*
X70000000Y-187597500D03*
%TD*%
D18*
%TO.C,J157*%
X96500000Y-97460000D03*
D19*
X96500000Y-100000000D03*
%TD*%
D18*
%TO.C,J177*%
X104500000Y-97460000D03*
D19*
X104500000Y-100000000D03*
%TD*%
D18*
%TO.C,J112*%
X109500000Y-170000000D03*
D19*
X109500000Y-167460000D03*
%TD*%
D18*
%TO.C,J27*%
X129500000Y-182000000D03*
D19*
X129500000Y-179460000D03*
%TD*%
D18*
%TO.C,J109*%
X68468906Y-175349897D03*
D19*
X68468906Y-172809897D03*
%TD*%
D18*
%TO.C,J181*%
X84500000Y-118960000D03*
D19*
X84500000Y-121500000D03*
%TD*%
D18*
%TO.C,J154*%
X60014571Y-118239571D03*
D19*
X60014571Y-120779571D03*
%TD*%
D18*
%TO.C,J31*%
X52860000Y-149839496D03*
D19*
X52860000Y-147299496D03*
%TD*%
D18*
%TO.C,J85*%
X21500000Y-149275000D03*
D19*
X21500000Y-146735000D03*
%TD*%
D18*
%TO.C,J12*%
X80410000Y-189775000D03*
D19*
X80410000Y-187235000D03*
%TD*%
D21*
%TO.C,U46*%
X186050000Y-136637500D03*
X187000000Y-136637500D03*
X187950000Y-136637500D03*
X187950000Y-134362500D03*
X186050000Y-134362500D03*
%TD*%
D18*
%TO.C,J144*%
X56014571Y-118239571D03*
D19*
X56014571Y-120779571D03*
%TD*%
D18*
%TO.C,J80*%
X88500000Y-149775000D03*
D19*
X88500000Y-147235000D03*
%TD*%
D27*
%TO.C,U33*%
X266812500Y-132912500D03*
X265862500Y-132912500D03*
X264912500Y-132912500D03*
X264912500Y-135187500D03*
X266812500Y-135187500D03*
%TD*%
D18*
%TO.C,J191*%
X104500000Y-119000000D03*
D19*
X104500000Y-121540000D03*
%TD*%
D18*
%TO.C,J129*%
X48014571Y-130054571D03*
D19*
X48014571Y-132594571D03*
%TD*%
D18*
%TO.C,J96*%
X37000000Y-107755000D03*
D19*
X37000000Y-110295000D03*
%TD*%
D18*
%TO.C,J98*%
X88500000Y-162500000D03*
D19*
X88500000Y-159960000D03*
%TD*%
D22*
%TO.C,U23*%
X221225000Y-115100000D03*
X221225000Y-116050000D03*
X221225000Y-117000000D03*
X223500000Y-117000000D03*
X223500000Y-115100000D03*
%TD*%
%TO.C,U45*%
X208000000Y-126600000D03*
X208000000Y-127550000D03*
X208000000Y-128500000D03*
X210275000Y-128500000D03*
X210275000Y-126600000D03*
%TD*%
D10*
%TO.C,R6*%
X256000000Y-108000000D03*
X257650000Y-108000000D03*
%TD*%
D18*
%TO.C,J171*%
X37000000Y-97020000D03*
D19*
X37000000Y-99560000D03*
%TD*%
D18*
%TO.C,J3*%
X121500000Y-149725000D03*
D19*
X121500000Y-147185000D03*
%TD*%
D18*
%TO.C,J1*%
X129500000Y-149725000D03*
D19*
X129500000Y-147185000D03*
%TD*%
D18*
%TO.C,J42*%
X96500000Y-162500000D03*
D19*
X96500000Y-159960000D03*
%TD*%
D18*
%TO.C,J49*%
X65000000Y-162872500D03*
D19*
X65000000Y-160332500D03*
%TD*%
D18*
%TO.C,J11*%
X84500000Y-189775000D03*
D19*
X84500000Y-187235000D03*
%TD*%
D18*
%TO.C,J113*%
X109500000Y-182000000D03*
D19*
X109500000Y-179460000D03*
%TD*%
D18*
%TO.C,J136*%
X51514571Y-108239571D03*
D19*
X51514571Y-110779571D03*
%TD*%
D18*
%TO.C,J167*%
X100500000Y-97460000D03*
D19*
X100500000Y-100000000D03*
%TD*%
D22*
%TO.C,U20*%
X212725000Y-129500000D03*
X212725000Y-130450000D03*
X212725000Y-131400000D03*
X215000000Y-131400000D03*
X215000000Y-129500000D03*
%TD*%
D20*
%TO.C,U16*%
X228525001Y-155150000D03*
X228525001Y-156420000D03*
X228525001Y-157690000D03*
X228525001Y-158960000D03*
X228525001Y-160230000D03*
X228525001Y-161500000D03*
X228525001Y-162770000D03*
X233475001Y-162770000D03*
X233475001Y-161500000D03*
X233475001Y-160230000D03*
X233475001Y-158960000D03*
X233475001Y-157690000D03*
X233475001Y-156420000D03*
X233475001Y-155150000D03*
%TD*%
D18*
%TO.C,J93*%
X18000000Y-162010000D03*
D19*
X18000000Y-159470000D03*
%TD*%
D18*
%TO.C,J56*%
X117500000Y-170000000D03*
D19*
X117500000Y-167460000D03*
%TD*%
D18*
%TO.C,J14*%
X62000000Y-190137500D03*
D19*
X62000000Y-187597500D03*
%TD*%
D18*
%TO.C,J100*%
X88500000Y-174500000D03*
D19*
X88500000Y-171960000D03*
%TD*%
D18*
%TO.C,J65*%
X159000000Y-180550000D03*
D19*
X159000000Y-178010000D03*
%TD*%
D17*
%TO.C,U29*%
X185637500Y-126500000D03*
X185637500Y-125550000D03*
X185637500Y-124600000D03*
X183362500Y-124600000D03*
X183362500Y-126500000D03*
%TD*%
D20*
%TO.C,U2*%
X233550000Y-88150000D03*
X233550000Y-89420000D03*
X233550000Y-90690000D03*
X233550000Y-91960000D03*
X233550000Y-93230000D03*
X233550000Y-94500000D03*
X233550000Y-95770000D03*
X238500000Y-95770000D03*
X238500000Y-94500000D03*
X238500000Y-93230000D03*
X238500000Y-91960000D03*
X238500000Y-90690000D03*
X238500000Y-89420000D03*
X238500000Y-88150000D03*
%TD*%
D18*
%TO.C,J16*%
X57910000Y-190137500D03*
D19*
X57910000Y-187597500D03*
%TD*%
D22*
%TO.C,U15*%
X225700001Y-149870000D03*
X225700001Y-150820000D03*
X225700001Y-151770000D03*
X227975001Y-151770000D03*
X227975001Y-149870000D03*
%TD*%
D18*
%TO.C,J61*%
X37500000Y-149275000D03*
D19*
X37500000Y-146735000D03*
%TD*%
D18*
%TO.C,J8*%
X96500000Y-189775000D03*
D19*
X96500000Y-187235000D03*
%TD*%
D17*
%TO.C,U24*%
X228637500Y-115450000D03*
X228637500Y-114500000D03*
X228637500Y-113550000D03*
X226362500Y-113550000D03*
X226362500Y-115450000D03*
%TD*%
D18*
%TO.C,J192*%
X104500000Y-129460000D03*
D19*
X104500000Y-132000000D03*
%TD*%
D18*
%TO.C,J125*%
X129500000Y-159500000D03*
D19*
X129500000Y-156960000D03*
%TD*%
D10*
%TO.C,R4*%
X256000000Y-102490000D03*
X257650000Y-102490000D03*
%TD*%
D18*
%TO.C,J118*%
X80500000Y-162500000D03*
D19*
X80500000Y-159960000D03*
%TD*%
D28*
%TO.C,SW1*%
X218475001Y-144520000D03*
X220775001Y-146270000D03*
X218475001Y-148020000D03*
%TD*%
D18*
%TO.C,J66*%
X17000000Y-107745000D03*
D19*
X17000000Y-110285000D03*
%TD*%
D18*
%TO.C,J168*%
X63514571Y-98199571D03*
D19*
X63514571Y-100739571D03*
%TD*%
D18*
%TO.C,J165*%
X113500000Y-159500000D03*
D19*
X113500000Y-156960000D03*
%TD*%
D18*
%TO.C,J51*%
X65000000Y-149839496D03*
D19*
X65000000Y-147299496D03*
%TD*%
D18*
%TO.C,J153*%
X29000000Y-129480000D03*
D19*
X29000000Y-132020000D03*
%TD*%
D18*
%TO.C,J45*%
X151000000Y-150050000D03*
D19*
X151000000Y-147510000D03*
%TD*%
D18*
%TO.C,J63*%
X38000000Y-162010000D03*
D19*
X38000000Y-159470000D03*
%TD*%
D18*
%TO.C,J189*%
X100500000Y-119000000D03*
D19*
X100500000Y-121540000D03*
%TD*%
D23*
%TO.C,U13*%
X186950000Y-114580000D03*
X186950000Y-113310000D03*
X186950000Y-112040000D03*
X186950000Y-110770000D03*
X186950000Y-109500000D03*
X186950000Y-108230000D03*
X186950000Y-106960000D03*
X182000000Y-106960000D03*
X182000000Y-108230000D03*
X182000000Y-109500000D03*
X182000000Y-110770000D03*
X182000000Y-112040000D03*
X182000000Y-113310000D03*
X182000000Y-114580000D03*
%TD*%
D18*
%TO.C,J94*%
X139000000Y-159550000D03*
D19*
X139000000Y-157010000D03*
%TD*%
D18*
%TO.C,J74*%
X92500000Y-149775000D03*
D19*
X92500000Y-147235000D03*
%TD*%
D18*
%TO.C,J55*%
X147000000Y-150050000D03*
D19*
X147000000Y-147510000D03*
%TD*%
D18*
%TO.C,J159*%
X59898005Y-130054571D03*
D19*
X59898005Y-132594571D03*
%TD*%
D18*
%TO.C,J150*%
X92500000Y-108000000D03*
D19*
X92500000Y-110540000D03*
%TD*%
D17*
%TO.C,U48*%
X253775000Y-129500000D03*
X253775000Y-128550000D03*
X253775000Y-127600000D03*
X251500000Y-127600000D03*
X251500000Y-129500000D03*
%TD*%
D18*
%TO.C,J190*%
X100500000Y-129460000D03*
D19*
X100500000Y-132000000D03*
%TD*%
D18*
%TO.C,J169*%
X63926288Y-130054571D03*
D19*
X63926288Y-132594571D03*
%TD*%
D20*
%TO.C,U3*%
X237725000Y-142980000D03*
X237725000Y-144250000D03*
X237725000Y-145520000D03*
X237725000Y-146790000D03*
X237725000Y-148060000D03*
X237725000Y-149330000D03*
X237725000Y-150600000D03*
X242675000Y-150600000D03*
X242675000Y-149330000D03*
X242675000Y-148060000D03*
X242675000Y-146790000D03*
X242675000Y-145520000D03*
X242675000Y-144250000D03*
X242675000Y-142980000D03*
%TD*%
D18*
%TO.C,J84*%
X29000000Y-107745000D03*
D19*
X29000000Y-110285000D03*
%TD*%
D18*
%TO.C,J91*%
X17500000Y-149275000D03*
D19*
X17500000Y-146735000D03*
%TD*%
D18*
%TO.C,J92*%
X80500000Y-149775000D03*
D19*
X80500000Y-147235000D03*
%TD*%
D18*
%TO.C,J160*%
X96500000Y-108000000D03*
D19*
X96500000Y-110540000D03*
%TD*%
D18*
%TO.C,J137*%
X88500000Y-97460000D03*
D19*
X88500000Y-100000000D03*
%TD*%
D23*
%TO.C,U5*%
X197000000Y-129500000D03*
X197000000Y-128230000D03*
X197000000Y-126960000D03*
X197000000Y-125690000D03*
X197000000Y-124420000D03*
X197000000Y-123150000D03*
X197000000Y-121880000D03*
X197000000Y-120610000D03*
X192050000Y-120610000D03*
X192050000Y-121880000D03*
X192050000Y-123150000D03*
X192050000Y-124420000D03*
X192050000Y-125690000D03*
X192050000Y-126960000D03*
X192050000Y-128230000D03*
X192050000Y-129500000D03*
%TD*%
D18*
%TO.C,J105*%
X69000000Y-162862500D03*
D19*
X69000000Y-160322500D03*
%TD*%
D18*
%TO.C,J161*%
X33000000Y-97020000D03*
D19*
X33000000Y-99560000D03*
%TD*%
D22*
%TO.C,U18*%
X220862500Y-110050000D03*
X220862500Y-111000000D03*
X220862500Y-111950000D03*
X223137500Y-111950000D03*
X223137500Y-110050000D03*
%TD*%
%TO.C,U25*%
X224725000Y-122000000D03*
X224725000Y-122950000D03*
X224725000Y-123900000D03*
X227000000Y-123900000D03*
X227000000Y-122000000D03*
%TD*%
D18*
%TO.C,J20*%
X34500000Y-189040000D03*
D19*
X34500000Y-186500000D03*
%TD*%
D17*
%TO.C,U31*%
X250275000Y-97900000D03*
X250275000Y-96950000D03*
X250275000Y-96000000D03*
X248000000Y-96000000D03*
X248000000Y-97900000D03*
%TD*%
D18*
%TO.C,J13*%
X53000000Y-190137500D03*
D19*
X53000000Y-187597500D03*
%TD*%
D18*
%TO.C,J50*%
X30500000Y-174580000D03*
D19*
X30500000Y-172040000D03*
%TD*%
D18*
%TO.C,J67*%
X33500000Y-149275000D03*
D19*
X33500000Y-146735000D03*
%TD*%
D18*
%TO.C,J185*%
X92500000Y-118960000D03*
D19*
X92500000Y-121500000D03*
%TD*%
D22*
%TO.C,U35*%
X265500000Y-138600000D03*
X265500000Y-139550000D03*
X265500000Y-140500000D03*
X267775000Y-140500000D03*
X267775000Y-138600000D03*
%TD*%
D23*
%TO.C,U9*%
X159500000Y-120890000D03*
X159500000Y-119620000D03*
X159500000Y-118350000D03*
X159500000Y-117080000D03*
X159500000Y-115810000D03*
X159500000Y-114540000D03*
X159500000Y-113270000D03*
X159500000Y-112000000D03*
X154550000Y-112000000D03*
X154550000Y-113270000D03*
X154550000Y-114540000D03*
X154550000Y-115810000D03*
X154550000Y-117080000D03*
X154550000Y-118350000D03*
X154550000Y-119620000D03*
X154550000Y-120890000D03*
%TD*%
D18*
%TO.C,J178*%
X67514571Y-98239571D03*
D19*
X67514571Y-100779571D03*
%TD*%
D18*
%TO.C,J57*%
X117500000Y-182000000D03*
D19*
X117500000Y-179460000D03*
%TD*%
D18*
%TO.C,J141*%
X25000000Y-97020000D03*
D19*
X25000000Y-99560000D03*
%TD*%
D18*
%TO.C,J123*%
X17000000Y-129480000D03*
D19*
X17000000Y-132020000D03*
%TD*%
D10*
%TO.C,R8*%
X209675000Y-158500000D03*
X211325000Y-158500000D03*
%TD*%
D22*
%TO.C,U36*%
X256000000Y-139600000D03*
X256000000Y-140550000D03*
X256000000Y-141500000D03*
X258275000Y-141500000D03*
X258275000Y-139600000D03*
%TD*%
D18*
%TO.C,J115*%
X49040000Y-162872500D03*
D19*
X49040000Y-160332500D03*
%TD*%
D22*
%TO.C,U34*%
X260000000Y-134600000D03*
X260000000Y-135550000D03*
X260000000Y-136500000D03*
X262275000Y-136500000D03*
X262275000Y-134600000D03*
%TD*%
D18*
%TO.C,J146*%
X55514571Y-108239571D03*
D19*
X55514571Y-110779571D03*
%TD*%
D18*
%TO.C,J179*%
X67911895Y-130054571D03*
D19*
X67911895Y-132594571D03*
%TD*%
D20*
%TO.C,U12*%
X191525000Y-107150000D03*
X191525000Y-108420000D03*
X191525000Y-109690000D03*
X191525000Y-110960000D03*
X191525000Y-112230000D03*
X191525000Y-113500000D03*
X191525000Y-114770000D03*
X196475000Y-114770000D03*
X196475000Y-113500000D03*
X196475000Y-112230000D03*
X196475000Y-110960000D03*
X196475000Y-109690000D03*
X196475000Y-108420000D03*
X196475000Y-107150000D03*
%TD*%
D18*
%TO.C,J9*%
X92500000Y-189775000D03*
D19*
X92500000Y-187235000D03*
%TD*%
D18*
%TO.C,J36*%
X125500000Y-170000000D03*
D19*
X125500000Y-167460000D03*
%TD*%
D18*
%TO.C,J132*%
X21000000Y-118745000D03*
D19*
X21000000Y-121285000D03*
%TD*%
D18*
%TO.C,J88*%
X143000000Y-159550000D03*
D19*
X143000000Y-157010000D03*
%TD*%
D18*
%TO.C,J6*%
X109320000Y-149725000D03*
D19*
X109320000Y-147185000D03*
%TD*%
D18*
%TO.C,J37*%
X125500000Y-182000000D03*
D19*
X125500000Y-179460000D03*
%TD*%
D18*
%TO.C,J4*%
X117500000Y-149725000D03*
D19*
X117500000Y-147185000D03*
%TD*%
D18*
%TO.C,J26*%
X129500000Y-170000000D03*
D19*
X129500000Y-167460000D03*
%TD*%
D18*
%TO.C,J15*%
X66000000Y-190137500D03*
D19*
X66000000Y-187597500D03*
%TD*%
D18*
%TO.C,J43*%
X60500000Y-175362500D03*
D19*
X60500000Y-172822500D03*
%TD*%
D18*
%TO.C,J134*%
X52014571Y-118239571D03*
D19*
X52014571Y-120779571D03*
%TD*%
D18*
%TO.C,J164*%
X64014571Y-118239571D03*
D19*
X64014571Y-120779571D03*
%TD*%
D22*
%TO.C,U19*%
X202500000Y-128600000D03*
X202500000Y-129550000D03*
X202500000Y-130500000D03*
X204775000Y-130500000D03*
X204775000Y-128600000D03*
%TD*%
D18*
%TO.C,J139*%
X51985429Y-130054571D03*
D19*
X51985429Y-132594571D03*
%TD*%
D18*
%TO.C,J77*%
X151000000Y-180550000D03*
D19*
X151000000Y-178010000D03*
%TD*%
D18*
%TO.C,J162*%
X33000000Y-118745000D03*
D19*
X33000000Y-121285000D03*
%TD*%
D20*
%TO.C,U8*%
X157000000Y-90730000D03*
X157000000Y-92000000D03*
X157000000Y-93270000D03*
X157000000Y-94540000D03*
X157000000Y-95810000D03*
X157000000Y-97080000D03*
X157000000Y-98350000D03*
X157000000Y-99620000D03*
X161950000Y-99620000D03*
X161950000Y-98350000D03*
X161950000Y-97080000D03*
X161950000Y-95810000D03*
X161950000Y-94540000D03*
X161950000Y-93270000D03*
X161950000Y-92000000D03*
X161950000Y-90730000D03*
%TD*%
D18*
%TO.C,J101*%
X143000000Y-150050000D03*
D19*
X143000000Y-147510000D03*
%TD*%
D18*
%TO.C,J68*%
X96500000Y-149775000D03*
D19*
X96500000Y-147235000D03*
%TD*%
D18*
%TO.C,J54*%
X92500000Y-174500000D03*
D19*
X92500000Y-171960000D03*
%TD*%
D18*
%TO.C,J71*%
X155000000Y-180550000D03*
D19*
X155000000Y-178010000D03*
%TD*%
D18*
%TO.C,J155*%
X117500000Y-159500000D03*
D19*
X117500000Y-156960000D03*
%TD*%
D21*
%TO.C,U30*%
X182550000Y-136637500D03*
X183500000Y-136637500D03*
X184450000Y-136637500D03*
X184450000Y-134362500D03*
X182550000Y-134362500D03*
%TD*%
D18*
%TO.C,J135*%
X125500000Y-159500000D03*
D19*
X125500000Y-156960000D03*
%TD*%
D18*
%TO.C,J86*%
X84500000Y-149775000D03*
D19*
X84500000Y-147235000D03*
%TD*%
D18*
%TO.C,J99*%
X56500000Y-175362500D03*
D19*
X56500000Y-172822500D03*
%TD*%
D24*
%TO.C,R1*%
X225500000Y-140675000D03*
X225500000Y-142325000D03*
%TD*%
D18*
%TO.C,J22*%
X26500000Y-189040000D03*
D19*
X26500000Y-186500000D03*
%TD*%
D18*
%TO.C,J95*%
X139000000Y-180550000D03*
D19*
X139000000Y-178010000D03*
%TD*%
D18*
%TO.C,J170*%
X100500000Y-108000000D03*
D19*
X100500000Y-110540000D03*
%TD*%
D18*
%TO.C,J44*%
X96500000Y-174500000D03*
D19*
X96500000Y-171960000D03*
%TD*%
D22*
%TO.C,U43*%
X252500000Y-135100000D03*
X252500000Y-136050000D03*
X252500000Y-137000000D03*
X254775000Y-137000000D03*
X254775000Y-135100000D03*
%TD*%
D18*
%TO.C,J73*%
X29500000Y-149275000D03*
D19*
X29500000Y-146735000D03*
%TD*%
D18*
%TO.C,J78*%
X25000000Y-107745000D03*
D19*
X25000000Y-110285000D03*
%TD*%
D18*
%TO.C,J48*%
X151000000Y-169275000D03*
D19*
X151000000Y-166735000D03*
%TD*%
D18*
%TO.C,J128*%
X47514571Y-98239571D03*
D19*
X47514571Y-100779571D03*
%TD*%
D18*
%TO.C,J180*%
X104451937Y-107999397D03*
D19*
X104451937Y-110539397D03*
%TD*%
D18*
%TO.C,J188*%
X96500000Y-129460000D03*
D19*
X96500000Y-132000000D03*
%TD*%
D18*
%TO.C,J148*%
X55604571Y-98239571D03*
D19*
X55604571Y-100779571D03*
%TD*%
D18*
%TO.C,J7*%
X100500000Y-189775000D03*
D19*
X100500000Y-187235000D03*
%TD*%
D22*
%TO.C,U41*%
X273000000Y-126600000D03*
X273000000Y-127550000D03*
X273000000Y-128500000D03*
X275275000Y-128500000D03*
X275275000Y-126600000D03*
%TD*%
D18*
%TO.C,J52*%
X92550000Y-162500000D03*
D19*
X92550000Y-159960000D03*
%TD*%
D21*
%TO.C,U38*%
X190100000Y-136275000D03*
X191050000Y-136275000D03*
X192000000Y-136275000D03*
X192000000Y-134000000D03*
X190100000Y-134000000D03*
%TD*%
D18*
%TO.C,J186*%
X92500000Y-129460000D03*
D19*
X92500000Y-132000000D03*
%TD*%
D18*
%TO.C,J83*%
X147000000Y-180550000D03*
D19*
X147000000Y-178010000D03*
%TD*%
D18*
%TO.C,J90*%
X33000000Y-107745000D03*
D19*
X33000000Y-110285000D03*
%TD*%
D18*
%TO.C,J19*%
X38500000Y-189040000D03*
D19*
X38500000Y-186500000D03*
%TD*%
D18*
%TO.C,J187*%
X96500000Y-119000000D03*
D19*
X96500000Y-121540000D03*
%TD*%
M02*
