%TF.GenerationSoftware,KiCad,Pcbnew,9.0.7*%
%TF.CreationDate,2026-06-23T20:31:20-04:00*%
%TF.ProjectId,Turing Machine,54757269-6e67-4204-9d61-6368696e652e,rev?*%
%TF.SameCoordinates,Original*%
%TF.FileFunction,Soldermask,Top*%
%TF.FilePolarity,Negative*%
%FSLAX46Y46*%
G04 Gerber Fmt 4.6, Leading zero omitted, Abs format (unit mm)*
G04 Created by KiCad (PCBNEW 9.0.7) date 2026-06-23 20:31:20*
%MOMM*%
%LPD*%
G01*
G04 APERTURE LIST*
G04 Aperture macros list*
%AMRoundRect*
0 Rectangle with rounded corners*
0 $1 Rounding radius*
0 $2 $3 $4 $5 $6 $7 $8 $9 X,Y pos of 4 corners*
0 Add a 4 corners polygon primitive as box body*
4,1,4,$2,$3,$4,$5,$6,$7,$8,$9,$2,$3,0*
0 Add four circle primitives for the rounded corners*
1,1,$1+$1,$2,$3*
1,1,$1+$1,$4,$5*
1,1,$1+$1,$6,$7*
1,1,$1+$1,$8,$9*
0 Add four rect primitives between the rounded corners*
20,1,$1+$1,$2,$3,$4,$5,0*
20,1,$1+$1,$4,$5,$6,$7,0*
20,1,$1+$1,$6,$7,$8,$9,0*
20,1,$1+$1,$8,$9,$2,$3,0*%
G04 Aperture macros list end*
%ADD10RoundRect,0.200000X0.200000X0.275000X-0.200000X0.275000X-0.200000X-0.275000X0.200000X-0.275000X0*%
%ADD11RoundRect,0.150000X-0.512500X-0.150000X0.512500X-0.150000X0.512500X0.150000X-0.512500X0.150000X0*%
%ADD12C,1.700000*%
%ADD13R,1.700000X1.700000*%
%ADD14RoundRect,0.150000X-0.825000X-0.150000X0.825000X-0.150000X0.825000X0.150000X-0.825000X0.150000X0*%
%ADD15RoundRect,0.250000X-0.250000X-0.550000X0.250000X-0.550000X0.250000X0.550000X-0.250000X0.550000X0*%
%ADD16RoundRect,0.200000X0.275000X-0.200000X0.275000X0.200000X-0.275000X0.200000X-0.275000X-0.200000X0*%
%ADD17RoundRect,0.200000X-0.275000X0.200000X-0.275000X-0.200000X0.275000X-0.200000X0.275000X0.200000X0*%
%ADD18C,0.700000*%
%ADD19O,0.900000X2.400000*%
%ADD20O,0.900000X1.700000*%
%ADD21RoundRect,0.250000X-0.312500X-1.450000X0.312500X-1.450000X0.312500X1.450000X-0.312500X1.450000X0*%
%ADD22RoundRect,0.249999X-0.850001X-0.850001X0.850001X-0.850001X0.850001X0.850001X-0.850001X0.850001X0*%
%ADD23C,2.200000*%
%ADD24RoundRect,0.150000X0.825000X0.150000X-0.825000X0.150000X-0.825000X-0.150000X0.825000X-0.150000X0*%
G04 APERTURE END LIST*
D10*
%TO.C,R10*%
X152175000Y-20000000D03*
X153825000Y-20000000D03*
%TD*%
%TO.C,R9*%
X149175000Y-19000000D03*
X150825000Y-19000000D03*
%TD*%
D11*
%TO.C,U29*%
X158862500Y-37050000D03*
X158862500Y-38000000D03*
X158862500Y-38950000D03*
X161137500Y-38950000D03*
X161137500Y-37050000D03*
%TD*%
D12*
%TO.C,J78*%
X264000000Y-147000000D03*
D13*
X264000000Y-144460000D03*
%TD*%
D12*
%TO.C,J89*%
X247000000Y-147000000D03*
D13*
X247000000Y-144460000D03*
%TD*%
D12*
%TO.C,J83*%
X243000000Y-147000000D03*
D13*
X243000000Y-144460000D03*
%TD*%
D12*
%TO.C,J70*%
X210000000Y-147000000D03*
D13*
X210000000Y-144460000D03*
%TD*%
D12*
%TO.C,J8*%
X22800000Y-147540000D03*
D13*
X22800000Y-145000000D03*
%TD*%
D12*
%TO.C,J6*%
X70400000Y-147000000D03*
D13*
X70400000Y-144460000D03*
%TD*%
D12*
%TO.C,J68*%
X185000000Y-147000000D03*
D13*
X185000000Y-144460000D03*
%TD*%
D12*
%TO.C,J62*%
X181000000Y-147000000D03*
D13*
X181000000Y-144460000D03*
%TD*%
D12*
%TO.C,J19*%
X103000000Y-147000000D03*
D13*
X103000000Y-144460000D03*
%TD*%
D14*
%TO.C,U49*%
X161050000Y-49380000D03*
X161050000Y-50650000D03*
X161050000Y-51920000D03*
X161050000Y-53190000D03*
X161050000Y-54460000D03*
X161050000Y-55730000D03*
X161050000Y-57000000D03*
X161050000Y-58270000D03*
X166000000Y-58270000D03*
X166000000Y-57000000D03*
X166000000Y-55730000D03*
X166000000Y-54460000D03*
X166000000Y-53190000D03*
X166000000Y-51920000D03*
X166000000Y-50650000D03*
X166000000Y-49380000D03*
%TD*%
D11*
%TO.C,U48*%
X132725000Y-31100000D03*
X132725000Y-32050000D03*
X132725000Y-33000000D03*
X135000000Y-33000000D03*
X135000000Y-31100000D03*
%TD*%
%TO.C,U47*%
X126725000Y-31100000D03*
X126725000Y-32050000D03*
X126725000Y-33000000D03*
X129000000Y-33000000D03*
X129000000Y-31100000D03*
%TD*%
%TO.C,U46*%
X133725000Y-37100000D03*
X133725000Y-38050000D03*
X133725000Y-39000000D03*
X136000000Y-39000000D03*
X136000000Y-37100000D03*
%TD*%
%TO.C,U45*%
X127725000Y-37100000D03*
X127725000Y-38050000D03*
X127725000Y-39000000D03*
X130000000Y-39000000D03*
X130000000Y-37100000D03*
%TD*%
%TO.C,U44*%
X114725000Y-32100000D03*
X114725000Y-33050000D03*
X114725000Y-34000000D03*
X117000000Y-34000000D03*
X117000000Y-32100000D03*
%TD*%
%TO.C,U43*%
X111862500Y-53050000D03*
X111862500Y-54000000D03*
X111862500Y-54950000D03*
X114137500Y-54950000D03*
X114137500Y-53050000D03*
%TD*%
%TO.C,U42*%
X174725000Y-31000000D03*
X174725000Y-31950000D03*
X174725000Y-32900000D03*
X177000000Y-32900000D03*
X177000000Y-31000000D03*
%TD*%
%TO.C,U41*%
X174862500Y-37050000D03*
X174862500Y-38000000D03*
X174862500Y-38950000D03*
X177137500Y-38950000D03*
X177137500Y-37050000D03*
%TD*%
%TO.C,U40*%
X175862500Y-62050000D03*
X175862500Y-63000000D03*
X175862500Y-63950000D03*
X178137500Y-63950000D03*
X178137500Y-62050000D03*
%TD*%
%TO.C,U39*%
X171725000Y-42100000D03*
X171725000Y-43050000D03*
X171725000Y-44000000D03*
X174000000Y-44000000D03*
X174000000Y-42100000D03*
%TD*%
%TO.C,U38*%
X169725000Y-31100000D03*
X169725000Y-32050000D03*
X169725000Y-33000000D03*
X172000000Y-33000000D03*
X172000000Y-31100000D03*
%TD*%
%TO.C,U37*%
X169725000Y-37000000D03*
X169725000Y-37950000D03*
X169725000Y-38900000D03*
X172000000Y-38900000D03*
X172000000Y-37000000D03*
%TD*%
%TO.C,U36*%
X169725000Y-62100000D03*
X169725000Y-63050000D03*
X169725000Y-64000000D03*
X172000000Y-64000000D03*
X172000000Y-62100000D03*
%TD*%
%TO.C,U35*%
X169725000Y-67100000D03*
X169725000Y-68050000D03*
X169725000Y-69000000D03*
X172000000Y-69000000D03*
X172000000Y-67100000D03*
%TD*%
%TO.C,U34*%
X163862500Y-31100000D03*
X163862500Y-32050000D03*
X163862500Y-33000000D03*
X166137500Y-33000000D03*
X166137500Y-31100000D03*
%TD*%
%TO.C,U33*%
X163862500Y-37050000D03*
X163862500Y-38000000D03*
X163862500Y-38950000D03*
X166137500Y-38950000D03*
X166137500Y-37050000D03*
%TD*%
%TO.C,U32*%
X203000000Y-66000000D03*
X203000000Y-66950000D03*
X203000000Y-67900000D03*
X205275000Y-67900000D03*
X205275000Y-66000000D03*
%TD*%
%TO.C,U31*%
X203000000Y-61375000D03*
X203000000Y-62325000D03*
X203000000Y-63275000D03*
X205275000Y-63275000D03*
X205275000Y-61375000D03*
%TD*%
%TO.C,U28*%
X197862500Y-55050000D03*
X197862500Y-56000000D03*
X197862500Y-56950000D03*
X200137500Y-56950000D03*
X200137500Y-55050000D03*
%TD*%
%TO.C,U27*%
X182862500Y-40050000D03*
X182862500Y-41000000D03*
X182862500Y-41950000D03*
X185137500Y-41950000D03*
X185137500Y-40050000D03*
%TD*%
%TO.C,U26*%
X152725000Y-31000000D03*
X152725000Y-31950000D03*
X152725000Y-32900000D03*
X155000000Y-32900000D03*
X155000000Y-31000000D03*
%TD*%
%TO.C,U25*%
X152862500Y-37050000D03*
X152862500Y-38000000D03*
X152862500Y-38950000D03*
X155137500Y-38950000D03*
X155137500Y-37050000D03*
%TD*%
%TO.C,U24*%
X109725000Y-32100000D03*
X109725000Y-33050000D03*
X109725000Y-34000000D03*
X112000000Y-34000000D03*
X112000000Y-32100000D03*
%TD*%
%TO.C,U23*%
X120725000Y-32000000D03*
X120725000Y-32950000D03*
X120725000Y-33900000D03*
X123000000Y-33900000D03*
X123000000Y-32000000D03*
%TD*%
%TO.C,U22*%
X146725000Y-31050000D03*
X146725000Y-32000000D03*
X146725000Y-32950000D03*
X149000000Y-32950000D03*
X149000000Y-31050000D03*
%TD*%
%TO.C,U21*%
X146862500Y-37050000D03*
X146862500Y-38000000D03*
X146862500Y-38950000D03*
X149137500Y-38950000D03*
X149137500Y-37050000D03*
%TD*%
%TO.C,U20*%
X186000000Y-72100000D03*
X186000000Y-73050000D03*
X186000000Y-74000000D03*
X188275000Y-74000000D03*
X188275000Y-72100000D03*
%TD*%
%TO.C,U19*%
X139725000Y-37100000D03*
X139725000Y-38050000D03*
X139725000Y-39000000D03*
X142000000Y-39000000D03*
X142000000Y-37100000D03*
%TD*%
%TO.C,U18*%
X191000000Y-72100000D03*
X191000000Y-73050000D03*
X191000000Y-74000000D03*
X193275000Y-74000000D03*
X193275000Y-72100000D03*
%TD*%
%TO.C,U17*%
X140000000Y-31100000D03*
X140000000Y-32050000D03*
X140000000Y-33000000D03*
X142275000Y-33000000D03*
X142275000Y-31100000D03*
%TD*%
D14*
%TO.C,U16*%
X172050000Y-49650000D03*
X172050000Y-50920000D03*
X172050000Y-52190000D03*
X172050000Y-53460000D03*
X172050000Y-54730000D03*
X172050000Y-56000000D03*
X172050000Y-57270000D03*
X177000000Y-57270000D03*
X177000000Y-56000000D03*
X177000000Y-54730000D03*
X177000000Y-53460000D03*
X177000000Y-52190000D03*
X177000000Y-50920000D03*
X177000000Y-49650000D03*
%TD*%
D11*
%TO.C,U15*%
X189725000Y-52725000D03*
X189725000Y-53675000D03*
X189725000Y-54625000D03*
X192000000Y-54625000D03*
X192000000Y-52725000D03*
%TD*%
%TO.C,U14*%
X189725000Y-48100000D03*
X189725000Y-49050000D03*
X189725000Y-50000000D03*
X192000000Y-50000000D03*
X192000000Y-48100000D03*
%TD*%
D14*
%TO.C,U13*%
X88000000Y-48650000D03*
X88000000Y-49920000D03*
X88000000Y-51190000D03*
X88000000Y-52460000D03*
X88000000Y-53730000D03*
X88000000Y-55000000D03*
X88000000Y-56270000D03*
X92950000Y-56270000D03*
X92950000Y-55000000D03*
X92950000Y-53730000D03*
X92950000Y-52460000D03*
X92950000Y-51190000D03*
X92950000Y-49920000D03*
X92950000Y-48650000D03*
%TD*%
%TO.C,U12*%
X99050000Y-43920000D03*
X99050000Y-45190000D03*
X99050000Y-46460000D03*
X99050000Y-47730000D03*
X99050000Y-49000000D03*
X99050000Y-50270000D03*
X99050000Y-51540000D03*
X104000000Y-51540000D03*
X104000000Y-50270000D03*
X104000000Y-49000000D03*
X104000000Y-47730000D03*
X104000000Y-46460000D03*
X104000000Y-45190000D03*
X104000000Y-43920000D03*
%TD*%
%TO.C,U10*%
X93000000Y-66110000D03*
X93000000Y-67380000D03*
X93000000Y-68650000D03*
X93000000Y-69920000D03*
X93000000Y-71190000D03*
X93000000Y-72460000D03*
X93000000Y-73730000D03*
X93000000Y-75000000D03*
X97950000Y-75000000D03*
X97950000Y-73730000D03*
X97950000Y-72460000D03*
X97950000Y-71190000D03*
X97950000Y-69920000D03*
X97950000Y-68650000D03*
X97950000Y-67380000D03*
X97950000Y-66110000D03*
%TD*%
%TO.C,U9*%
X121050000Y-66380000D03*
X121050000Y-67650000D03*
X121050000Y-68920000D03*
X121050000Y-70190000D03*
X121050000Y-71460000D03*
X121050000Y-72730000D03*
X121050000Y-74000000D03*
X121050000Y-75270000D03*
X126000000Y-75270000D03*
X126000000Y-74000000D03*
X126000000Y-72730000D03*
X126000000Y-71460000D03*
X126000000Y-70190000D03*
X126000000Y-68920000D03*
X126000000Y-67650000D03*
X126000000Y-66380000D03*
%TD*%
%TO.C,U8*%
X134050000Y-66380000D03*
X134050000Y-67650000D03*
X134050000Y-68920000D03*
X134050000Y-70190000D03*
X134050000Y-71460000D03*
X134050000Y-72730000D03*
X134050000Y-74000000D03*
X134050000Y-75270000D03*
X139000000Y-75270000D03*
X139000000Y-74000000D03*
X139000000Y-72730000D03*
X139000000Y-71460000D03*
X139000000Y-70190000D03*
X139000000Y-68920000D03*
X139000000Y-67650000D03*
X139000000Y-66380000D03*
%TD*%
%TO.C,U7*%
X112000000Y-43650000D03*
X112000000Y-44920000D03*
X112000000Y-46190000D03*
X112000000Y-47460000D03*
X112000000Y-48730000D03*
X112000000Y-50000000D03*
X112000000Y-51270000D03*
X116950000Y-51270000D03*
X116950000Y-50000000D03*
X116950000Y-48730000D03*
X116950000Y-47460000D03*
X116950000Y-46190000D03*
X116950000Y-44920000D03*
X116950000Y-43650000D03*
%TD*%
%TO.C,U6*%
X128050000Y-45650000D03*
X128050000Y-46920000D03*
X128050000Y-48190000D03*
X128050000Y-49460000D03*
X128050000Y-50730000D03*
X128050000Y-52000000D03*
X128050000Y-53270000D03*
X128050000Y-54540000D03*
X133000000Y-54540000D03*
X133000000Y-53270000D03*
X133000000Y-52000000D03*
X133000000Y-50730000D03*
X133000000Y-49460000D03*
X133000000Y-48190000D03*
X133000000Y-46920000D03*
X133000000Y-45650000D03*
%TD*%
%TO.C,U5*%
X139050000Y-45650000D03*
X139050000Y-46920000D03*
X139050000Y-48190000D03*
X139050000Y-49460000D03*
X139050000Y-50730000D03*
X139050000Y-52000000D03*
X139050000Y-53270000D03*
X139050000Y-54540000D03*
X144000000Y-54540000D03*
X144000000Y-53270000D03*
X144000000Y-52000000D03*
X144000000Y-50730000D03*
X144000000Y-49460000D03*
X144000000Y-48190000D03*
X144000000Y-46920000D03*
X144000000Y-45650000D03*
%TD*%
%TO.C,U4*%
X149050000Y-59380000D03*
X149050000Y-60650000D03*
X149050000Y-61920000D03*
X149050000Y-63190000D03*
X149050000Y-64460000D03*
X149050000Y-65730000D03*
X149050000Y-67000000D03*
X149050000Y-68270000D03*
X154000000Y-68270000D03*
X154000000Y-67000000D03*
X154000000Y-65730000D03*
X154000000Y-64460000D03*
X154000000Y-63190000D03*
X154000000Y-61920000D03*
X154000000Y-60650000D03*
X154000000Y-59380000D03*
%TD*%
%TO.C,U3*%
X161000000Y-61650000D03*
X161000000Y-62920000D03*
X161000000Y-64190000D03*
X161000000Y-65460000D03*
X161000000Y-66730000D03*
X161000000Y-68000000D03*
X161000000Y-69270000D03*
X165950000Y-69270000D03*
X165950000Y-68000000D03*
X165950000Y-66730000D03*
X165950000Y-65460000D03*
X165950000Y-64190000D03*
X165950000Y-62920000D03*
X165950000Y-61650000D03*
%TD*%
%TO.C,U2*%
X192050000Y-60920000D03*
X192050000Y-62190000D03*
X192050000Y-63460000D03*
X192050000Y-64730000D03*
X192050000Y-66000000D03*
X192050000Y-67270000D03*
X192050000Y-68540000D03*
X197000000Y-68540000D03*
X197000000Y-67270000D03*
X197000000Y-66000000D03*
X197000000Y-64730000D03*
X197000000Y-63460000D03*
X197000000Y-62190000D03*
X197000000Y-60920000D03*
%TD*%
%TO.C,U1*%
X183600000Y-60920000D03*
X183600000Y-62190000D03*
X183600000Y-63460000D03*
X183600000Y-64730000D03*
X183600000Y-66000000D03*
X183600000Y-67270000D03*
X183600000Y-68540000D03*
X188550000Y-68540000D03*
X188550000Y-67270000D03*
X188550000Y-66000000D03*
X188550000Y-64730000D03*
X188550000Y-63460000D03*
X188550000Y-62190000D03*
X188550000Y-60920000D03*
%TD*%
D15*
%TO.C,SW1*%
X189500000Y-44000000D03*
X191250000Y-41700000D03*
X193000000Y-44000000D03*
%TD*%
D10*
%TO.C,R8*%
X76825000Y-27000000D03*
X75175000Y-27000000D03*
%TD*%
%TO.C,R7*%
X73825000Y-25000000D03*
X72175000Y-25000000D03*
%TD*%
%TO.C,R6*%
X69825000Y-24000000D03*
X68175000Y-24000000D03*
%TD*%
%TO.C,R5*%
X66825000Y-23000000D03*
X65175000Y-23000000D03*
%TD*%
%TO.C,R4*%
X63000000Y-22000000D03*
X61350000Y-22000000D03*
%TD*%
%TO.C,R3*%
X70825000Y-26000000D03*
X69175000Y-26000000D03*
%TD*%
D16*
%TO.C,R2*%
X191000000Y-38825000D03*
X191000000Y-37175000D03*
%TD*%
D17*
%TO.C,R1*%
X189000000Y-38350000D03*
X189000000Y-40000000D03*
%TD*%
D18*
%TO.C,J193*%
X163350000Y-10640000D03*
X164200000Y-10640000D03*
X165050000Y-10640000D03*
X165900000Y-10640000D03*
X166750000Y-10640000D03*
X167600000Y-10640000D03*
X168450000Y-10640000D03*
X169300000Y-10640000D03*
X169300000Y-11990000D03*
X168450000Y-11990000D03*
X167600000Y-11990000D03*
X166750000Y-11990000D03*
X165900000Y-11990000D03*
X165050000Y-11990000D03*
X164200000Y-11990000D03*
X163350000Y-11990000D03*
D19*
X162000000Y-11620000D03*
D20*
X162000000Y-15000000D03*
D19*
X170650000Y-11620000D03*
D20*
X170650000Y-15000000D03*
%TD*%
D13*
%TO.C,J192*%
X65000000Y-87390143D03*
D12*
X65000000Y-84850143D03*
%TD*%
D13*
%TO.C,J191*%
X40000000Y-87390143D03*
D12*
X40000000Y-84850143D03*
%TD*%
D13*
%TO.C,J190*%
X61000000Y-87390143D03*
D12*
X61000000Y-84850143D03*
%TD*%
D13*
%TO.C,J189*%
X36000000Y-87390143D03*
D12*
X36000000Y-84850143D03*
%TD*%
D13*
%TO.C,J188*%
X57000000Y-87390143D03*
D12*
X57000000Y-84850143D03*
%TD*%
D13*
%TO.C,J187*%
X32000000Y-87390143D03*
D12*
X32000000Y-84850143D03*
%TD*%
D13*
%TO.C,J186*%
X53000000Y-87390143D03*
D12*
X53000000Y-84850143D03*
%TD*%
D13*
%TO.C,J185*%
X28000000Y-87390143D03*
D12*
X28000000Y-84850143D03*
%TD*%
D13*
%TO.C,J184*%
X49000000Y-87390143D03*
D12*
X49000000Y-84850143D03*
%TD*%
D13*
%TO.C,J183*%
X24000000Y-87390143D03*
D12*
X24000000Y-84850143D03*
%TD*%
D13*
%TO.C,J182*%
X45000000Y-87390143D03*
D12*
X45000000Y-84850143D03*
%TD*%
D13*
%TO.C,J181*%
X20000000Y-87390143D03*
D12*
X20000000Y-84850143D03*
%TD*%
D13*
%TO.C,J180*%
X265937440Y-106443867D03*
D12*
X265937440Y-108983867D03*
%TD*%
D13*
%TO.C,J179*%
X240943696Y-106443867D03*
D12*
X240943696Y-108983867D03*
%TD*%
D13*
%TO.C,J178*%
X215974858Y-106289331D03*
D12*
X215974858Y-108829331D03*
%TD*%
D13*
%TO.C,J177*%
X191000000Y-106189167D03*
D12*
X191000000Y-108729167D03*
%TD*%
D13*
%TO.C,J176*%
X165000000Y-106390143D03*
D12*
X165000000Y-108930143D03*
%TD*%
D13*
%TO.C,J175*%
X140000000Y-106310143D03*
D12*
X140000000Y-108850143D03*
%TD*%
D13*
%TO.C,J174*%
X115000000Y-106390143D03*
D12*
X115000000Y-108930143D03*
%TD*%
D13*
%TO.C,J173*%
X90000000Y-106390143D03*
D12*
X90000000Y-108930143D03*
%TD*%
D13*
%TO.C,J172*%
X64651166Y-106358004D03*
D12*
X64651166Y-108898004D03*
%TD*%
D13*
%TO.C,J171*%
X39909784Y-106293347D03*
D12*
X39909784Y-108833347D03*
%TD*%
D13*
%TO.C,J170*%
X261822925Y-106460000D03*
D12*
X261822925Y-109000000D03*
%TD*%
D13*
%TO.C,J169*%
X236943696Y-106443867D03*
D12*
X236943696Y-108983867D03*
%TD*%
D13*
%TO.C,J168*%
X211974858Y-106289331D03*
D12*
X211974858Y-108829331D03*
%TD*%
D13*
%TO.C,J167*%
X186834846Y-106189167D03*
D12*
X186834846Y-108729167D03*
%TD*%
D13*
%TO.C,J166*%
X161000000Y-106390143D03*
D12*
X161000000Y-108930143D03*
%TD*%
D13*
%TO.C,J165*%
X136200000Y-106390143D03*
D12*
X136200000Y-108930143D03*
%TD*%
D13*
%TO.C,J164*%
X111000000Y-106390143D03*
D12*
X111000000Y-108930143D03*
%TD*%
D13*
%TO.C,J163*%
X86000000Y-106390143D03*
D12*
X86000000Y-108930143D03*
%TD*%
D13*
%TO.C,J162*%
X60696155Y-106358004D03*
D12*
X60696155Y-108898004D03*
%TD*%
D13*
%TO.C,J161*%
X35991367Y-106363319D03*
D12*
X35991367Y-108903319D03*
%TD*%
D13*
%TO.C,J160*%
X257937440Y-106443867D03*
D12*
X257937440Y-108983867D03*
%TD*%
D13*
%TO.C,J159*%
X232943696Y-106443867D03*
D12*
X232943696Y-108983867D03*
%TD*%
D13*
%TO.C,J158*%
X207974858Y-106289331D03*
D12*
X207974858Y-108829331D03*
%TD*%
D13*
%TO.C,J157*%
X182732543Y-106318221D03*
D12*
X182732543Y-108858221D03*
%TD*%
D13*
%TO.C,J156*%
X156948552Y-106356413D03*
D12*
X156948552Y-108896413D03*
%TD*%
D13*
%TO.C,J155*%
X132000000Y-106310143D03*
D12*
X132000000Y-108850143D03*
%TD*%
D13*
%TO.C,J154*%
X107000000Y-106390143D03*
D12*
X107000000Y-108930143D03*
%TD*%
D13*
%TO.C,J153*%
X82000000Y-106390143D03*
D12*
X82000000Y-108930143D03*
%TD*%
D13*
%TO.C,J152*%
X56826198Y-106443058D03*
D12*
X56826198Y-108983058D03*
%TD*%
D13*
%TO.C,J151*%
X31991367Y-106363319D03*
D12*
X31991367Y-108903319D03*
%TD*%
D13*
%TO.C,J150*%
X253937440Y-106443867D03*
D12*
X253937440Y-108983867D03*
%TD*%
D13*
%TO.C,J149*%
X228945513Y-106472043D03*
D12*
X228945513Y-109012043D03*
%TD*%
D13*
%TO.C,J148*%
X203974858Y-106289331D03*
D12*
X203974858Y-108829331D03*
%TD*%
D13*
%TO.C,J147*%
X178419538Y-106318221D03*
D12*
X178419538Y-108858221D03*
%TD*%
D13*
%TO.C,J146*%
X152948552Y-106356413D03*
D12*
X152948552Y-108896413D03*
%TD*%
D13*
%TO.C,J145*%
X128000000Y-106390143D03*
D12*
X128000000Y-108930143D03*
%TD*%
D13*
%TO.C,J144*%
X103000000Y-106390143D03*
D12*
X103000000Y-108930143D03*
%TD*%
D13*
%TO.C,J143*%
X78000000Y-106390143D03*
D12*
X78000000Y-108930143D03*
%TD*%
D13*
%TO.C,J142*%
X52913714Y-106400531D03*
D12*
X52913714Y-108940531D03*
%TD*%
D13*
%TO.C,J141*%
X27991367Y-106363319D03*
D12*
X27991367Y-108903319D03*
%TD*%
D13*
%TO.C,J140*%
X249937440Y-106443867D03*
D12*
X249937440Y-108983867D03*
%TD*%
D13*
%TO.C,J139*%
X225000000Y-106550143D03*
D12*
X225000000Y-109090143D03*
%TD*%
D13*
%TO.C,J138*%
X199974858Y-106289331D03*
D12*
X199974858Y-108829331D03*
%TD*%
D13*
%TO.C,J137*%
X174240269Y-106318221D03*
D12*
X174240269Y-108858221D03*
%TD*%
D13*
%TO.C,J136*%
X148948552Y-106356413D03*
D12*
X148948552Y-108896413D03*
%TD*%
D13*
%TO.C,J135*%
X124000000Y-106390143D03*
D12*
X124000000Y-108930143D03*
%TD*%
D13*
%TO.C,J134*%
X99000000Y-106390143D03*
D12*
X99000000Y-108930143D03*
%TD*%
D13*
%TO.C,J133*%
X74000000Y-106390143D03*
D12*
X74000000Y-108930143D03*
%TD*%
D13*
%TO.C,J132*%
X48916177Y-106400531D03*
D12*
X48916177Y-108940531D03*
%TD*%
D13*
%TO.C,J131*%
X24000000Y-106390143D03*
D12*
X24000000Y-108930143D03*
%TD*%
D13*
%TO.C,J130*%
X245937440Y-106443867D03*
D12*
X245937440Y-108983867D03*
%TD*%
D13*
%TO.C,J129*%
X221000000Y-106550143D03*
D12*
X221000000Y-109090143D03*
%TD*%
D13*
%TO.C,J128*%
X195974858Y-106289331D03*
D12*
X195974858Y-108829331D03*
%TD*%
D13*
%TO.C,J127*%
X170127868Y-106318221D03*
D12*
X170127868Y-108858221D03*
%TD*%
D13*
%TO.C,J126*%
X144948552Y-106356413D03*
D12*
X144948552Y-108896413D03*
%TD*%
D13*
%TO.C,J125*%
X120000000Y-106390143D03*
D12*
X120000000Y-108930143D03*
%TD*%
D13*
%TO.C,J124*%
X95000000Y-106390143D03*
D12*
X95000000Y-108930143D03*
%TD*%
D13*
%TO.C,J123*%
X70000000Y-106400143D03*
D12*
X70000000Y-108940143D03*
%TD*%
D13*
%TO.C,J122*%
X45000000Y-106390143D03*
D12*
X45000000Y-108930143D03*
%TD*%
D13*
%TO.C,J121*%
X20000000Y-106390143D03*
D12*
X20000000Y-108930143D03*
%TD*%
D13*
%TO.C,J120*%
X276000000Y-126015317D03*
D12*
X276000000Y-123475317D03*
%TD*%
D13*
%TO.C,J119*%
X251000000Y-126000000D03*
D12*
X251000000Y-123460000D03*
%TD*%
D13*
%TO.C,J118*%
X226000000Y-126000000D03*
D12*
X226000000Y-123460000D03*
%TD*%
D13*
%TO.C,J117*%
X201000000Y-126000000D03*
D12*
X201000000Y-123460000D03*
%TD*%
D13*
%TO.C,J116*%
X177000000Y-126000000D03*
D12*
X177000000Y-123460000D03*
%TD*%
D13*
%TO.C,J115*%
X151949439Y-125969462D03*
D12*
X151949439Y-123429462D03*
%TD*%
D13*
%TO.C,J114*%
X124609658Y-125964233D03*
D12*
X124609658Y-123424233D03*
%TD*%
D13*
%TO.C,J113*%
X97000000Y-126000000D03*
D12*
X97000000Y-123460000D03*
%TD*%
D13*
%TO.C,J112*%
X65000000Y-126000000D03*
D12*
X65000000Y-123460000D03*
%TD*%
D13*
%TO.C,J111*%
X40000000Y-126000000D03*
D12*
X40000000Y-123460000D03*
%TD*%
D13*
%TO.C,J110*%
X272112219Y-126000000D03*
D12*
X272112219Y-123460000D03*
%TD*%
D13*
%TO.C,J109*%
X246949477Y-126052973D03*
D12*
X246949477Y-123512973D03*
%TD*%
D13*
%TO.C,J108*%
X222077614Y-125941526D03*
D12*
X222077614Y-123401526D03*
%TD*%
D13*
%TO.C,J107*%
X197083075Y-126230407D03*
D12*
X197083075Y-123690407D03*
%TD*%
D13*
%TO.C,J106*%
X173000000Y-126000000D03*
D12*
X173000000Y-123460000D03*
%TD*%
D13*
%TO.C,J105*%
X148000000Y-126000000D03*
D12*
X148000000Y-123460000D03*
%TD*%
D13*
%TO.C,J104*%
X120725385Y-126050550D03*
D12*
X120725385Y-123510550D03*
%TD*%
D13*
%TO.C,J103*%
X93000000Y-126000000D03*
D12*
X93000000Y-123460000D03*
%TD*%
D13*
%TO.C,J102*%
X61000000Y-126000000D03*
D12*
X61000000Y-123460000D03*
%TD*%
D13*
%TO.C,J101*%
X36000000Y-126000000D03*
D12*
X36000000Y-123460000D03*
%TD*%
D13*
%TO.C,J100*%
X268112219Y-126000000D03*
D12*
X268112219Y-123460000D03*
%TD*%
D13*
%TO.C,J99*%
X243024542Y-126006257D03*
D12*
X243024542Y-123466257D03*
%TD*%
D13*
%TO.C,J98*%
X218077614Y-125941526D03*
D12*
X218077614Y-123401526D03*
%TD*%
D13*
%TO.C,J97*%
X193242952Y-126268809D03*
D12*
X193242952Y-123728809D03*
%TD*%
D13*
%TO.C,J96*%
X276000000Y-144460000D03*
D12*
X276000000Y-147000000D03*
%TD*%
D13*
%TO.C,J95*%
X251000000Y-144460000D03*
D12*
X251000000Y-147000000D03*
%TD*%
D13*
%TO.C,J94*%
X226000000Y-144460000D03*
D12*
X226000000Y-147000000D03*
%TD*%
D13*
%TO.C,J93*%
X176000000Y-144460000D03*
D12*
X176000000Y-147000000D03*
%TD*%
D13*
%TO.C,J92*%
X201000000Y-144460000D03*
D12*
X201000000Y-147000000D03*
%TD*%
D13*
%TO.C,J91*%
X151000000Y-144460000D03*
D12*
X151000000Y-147000000D03*
%TD*%
D13*
%TO.C,J90*%
X272000000Y-144460000D03*
D12*
X272000000Y-147000000D03*
%TD*%
D13*
%TO.C,J88*%
X222000000Y-144460000D03*
D12*
X222000000Y-147000000D03*
%TD*%
D13*
%TO.C,J87*%
X172000000Y-144460000D03*
D12*
X172000000Y-147000000D03*
%TD*%
D13*
%TO.C,J86*%
X197000000Y-144460000D03*
D12*
X197000000Y-147000000D03*
%TD*%
D13*
%TO.C,J85*%
X147000000Y-144460000D03*
D12*
X147000000Y-147000000D03*
%TD*%
D13*
%TO.C,J84*%
X268000000Y-144460000D03*
D12*
X268000000Y-147000000D03*
%TD*%
D13*
%TO.C,J82*%
X218000000Y-144460000D03*
D12*
X218000000Y-147000000D03*
%TD*%
D13*
%TO.C,J81*%
X168000000Y-144460000D03*
D12*
X168000000Y-147000000D03*
%TD*%
D13*
%TO.C,J80*%
X193000000Y-144460000D03*
D12*
X193000000Y-147000000D03*
%TD*%
D13*
%TO.C,J79*%
X143000000Y-144460000D03*
D12*
X143000000Y-147000000D03*
%TD*%
D13*
%TO.C,J77*%
X239000000Y-144460000D03*
D12*
X239000000Y-147000000D03*
%TD*%
D13*
%TO.C,J76*%
X214000000Y-144460000D03*
D12*
X214000000Y-147000000D03*
%TD*%
D13*
%TO.C,J75*%
X164000000Y-144460000D03*
D12*
X164000000Y-147000000D03*
%TD*%
D13*
%TO.C,J74*%
X189000000Y-144460000D03*
D12*
X189000000Y-147000000D03*
%TD*%
D13*
%TO.C,J73*%
X139000000Y-144460000D03*
D12*
X139000000Y-147000000D03*
%TD*%
D13*
%TO.C,J72*%
X260000000Y-144460000D03*
D12*
X260000000Y-147000000D03*
%TD*%
D13*
%TO.C,J71*%
X235000000Y-144460000D03*
D12*
X235000000Y-147000000D03*
%TD*%
D13*
%TO.C,J69*%
X160000000Y-144460000D03*
D12*
X160000000Y-147000000D03*
%TD*%
D13*
%TO.C,J67*%
X135000000Y-144460000D03*
D12*
X135000000Y-147000000D03*
%TD*%
D13*
%TO.C,J66*%
X256000000Y-144460000D03*
D12*
X256000000Y-147000000D03*
%TD*%
D13*
%TO.C,J65*%
X231000000Y-144460000D03*
D12*
X231000000Y-147000000D03*
%TD*%
D13*
%TO.C,J64*%
X205600000Y-144460000D03*
D12*
X205600000Y-147000000D03*
%TD*%
D13*
%TO.C,J63*%
X156000000Y-144460000D03*
D12*
X156000000Y-147000000D03*
%TD*%
D13*
%TO.C,J61*%
X131000000Y-144460000D03*
D12*
X131000000Y-147000000D03*
%TD*%
D13*
%TO.C,J60*%
X169000000Y-126000000D03*
D12*
X169000000Y-123460000D03*
%TD*%
D13*
%TO.C,J59*%
X144000000Y-126000000D03*
D12*
X144000000Y-123460000D03*
%TD*%
D13*
%TO.C,J58*%
X116841113Y-126007391D03*
D12*
X116841113Y-123467391D03*
%TD*%
D13*
%TO.C,J57*%
X89000000Y-126038931D03*
D12*
X89000000Y-123498931D03*
%TD*%
D13*
%TO.C,J56*%
X57000000Y-126000000D03*
D12*
X57000000Y-123460000D03*
%TD*%
D13*
%TO.C,J55*%
X32000000Y-126000000D03*
D12*
X32000000Y-123460000D03*
%TD*%
D13*
%TO.C,J54*%
X264136133Y-125959131D03*
D12*
X264136133Y-123419131D03*
%TD*%
D13*
%TO.C,J53*%
X239024542Y-126006257D03*
D12*
X239024542Y-123466257D03*
%TD*%
D13*
%TO.C,J52*%
X214077614Y-125941526D03*
D12*
X214077614Y-123401526D03*
%TD*%
D13*
%TO.C,J51*%
X189365997Y-126298555D03*
D12*
X189365997Y-123758555D03*
%TD*%
D13*
%TO.C,J50*%
X165000000Y-126000000D03*
D12*
X165000000Y-123460000D03*
%TD*%
D13*
%TO.C,J49*%
X140000000Y-126000000D03*
D12*
X140000000Y-123460000D03*
%TD*%
D13*
%TO.C,J48*%
X113000000Y-126000000D03*
D12*
X113000000Y-123460000D03*
%TD*%
D13*
%TO.C,J47*%
X85000000Y-126000000D03*
D12*
X85000000Y-123460000D03*
%TD*%
D13*
%TO.C,J45*%
X28000000Y-126000000D03*
D12*
X28000000Y-123460000D03*
%TD*%
D13*
%TO.C,J44*%
X260205917Y-125959131D03*
D12*
X260205917Y-123419131D03*
%TD*%
D13*
%TO.C,J43*%
X235024542Y-126006257D03*
D12*
X235024542Y-123466257D03*
%TD*%
D13*
%TO.C,J42*%
X210077614Y-125941526D03*
D12*
X210077614Y-123401526D03*
%TD*%
D13*
%TO.C,J41*%
X185365997Y-126298555D03*
D12*
X185365997Y-123758555D03*
%TD*%
D13*
%TO.C,J40*%
X161000000Y-126000000D03*
D12*
X161000000Y-123460000D03*
%TD*%
D13*
%TO.C,J39*%
X136000000Y-126000000D03*
D12*
X136000000Y-123460000D03*
%TD*%
D13*
%TO.C,J37*%
X81000000Y-126000000D03*
D12*
X81000000Y-123460000D03*
%TD*%
D13*
%TO.C,J36*%
X49000000Y-126000000D03*
D12*
X49000000Y-123460000D03*
%TD*%
D13*
%TO.C,J35*%
X24000000Y-126000000D03*
D12*
X24000000Y-123460000D03*
%TD*%
D13*
%TO.C,J34*%
X256275702Y-125959131D03*
D12*
X256275702Y-123419131D03*
%TD*%
D13*
%TO.C,J33*%
X231024542Y-126006257D03*
D12*
X231024542Y-123466257D03*
%TD*%
D13*
%TO.C,J32*%
X206077614Y-125941526D03*
D12*
X206077614Y-123401526D03*
%TD*%
D13*
%TO.C,J31*%
X181365997Y-126298555D03*
D12*
X181365997Y-123758555D03*
%TD*%
D13*
%TO.C,J30*%
X157000000Y-126000000D03*
D12*
X157000000Y-123460000D03*
%TD*%
D13*
%TO.C,J29*%
X132000000Y-126000000D03*
D12*
X132000000Y-123460000D03*
%TD*%
D13*
%TO.C,J28*%
X105000000Y-126000000D03*
D12*
X105000000Y-123460000D03*
%TD*%
D13*
%TO.C,J27*%
X77000000Y-126000000D03*
D12*
X77000000Y-123460000D03*
%TD*%
D13*
%TO.C,J26*%
X45000000Y-126000000D03*
D12*
X45000000Y-123460000D03*
%TD*%
D13*
%TO.C,J25*%
X20000000Y-126000000D03*
D12*
X20000000Y-123460000D03*
%TD*%
D13*
%TO.C,J24*%
X126000000Y-144460000D03*
D12*
X126000000Y-147000000D03*
%TD*%
D13*
%TO.C,J23*%
X121400000Y-144460000D03*
D12*
X121400000Y-147000000D03*
%TD*%
D13*
%TO.C,J22*%
X116800000Y-144460000D03*
D12*
X116800000Y-147000000D03*
%TD*%
D13*
%TO.C,J21*%
X112200000Y-144460000D03*
D12*
X112200000Y-147000000D03*
%TD*%
D13*
%TO.C,J20*%
X107600000Y-144460000D03*
D12*
X107600000Y-147000000D03*
%TD*%
D13*
%TO.C,J18*%
X98600000Y-144460000D03*
D12*
X98600000Y-147000000D03*
%TD*%
D13*
%TO.C,J17*%
X94000000Y-144460000D03*
D12*
X94000000Y-147000000D03*
%TD*%
D13*
%TO.C,J16*%
X89400000Y-144460000D03*
D12*
X89400000Y-147000000D03*
%TD*%
D13*
%TO.C,J15*%
X84800000Y-144460000D03*
D12*
X84800000Y-147000000D03*
%TD*%
D13*
%TO.C,J14*%
X80200000Y-144460000D03*
D12*
X80200000Y-147000000D03*
%TD*%
D13*
%TO.C,J13*%
X75600000Y-144460000D03*
D12*
X75600000Y-147000000D03*
%TD*%
D13*
%TO.C,J12*%
X41200000Y-145000000D03*
D12*
X41200000Y-147540000D03*
%TD*%
D13*
%TO.C,J11*%
X36600000Y-145000000D03*
D12*
X36600000Y-147540000D03*
%TD*%
D13*
%TO.C,J10*%
X32000000Y-145000000D03*
D12*
X32000000Y-147540000D03*
%TD*%
D13*
%TO.C,J9*%
X27400000Y-145000000D03*
D12*
X27400000Y-147540000D03*
%TD*%
D13*
%TO.C,J7*%
X18200000Y-145000000D03*
D12*
X18200000Y-147540000D03*
%TD*%
D13*
%TO.C,J5*%
X65800000Y-144460000D03*
D12*
X65800000Y-147000000D03*
%TD*%
D13*
%TO.C,J4*%
X61200000Y-144460000D03*
D12*
X61200000Y-147000000D03*
%TD*%
D13*
%TO.C,J3*%
X56600000Y-144460000D03*
D12*
X56600000Y-147000000D03*
%TD*%
D13*
%TO.C,J2*%
X52000000Y-144460000D03*
D12*
X52000000Y-147000000D03*
%TD*%
D13*
%TO.C,J1*%
X47400000Y-144460000D03*
D12*
X47400000Y-147000000D03*
%TD*%
D21*
%TO.C,F1*%
X176862500Y-20000000D03*
X181137500Y-20000000D03*
%TD*%
D22*
%TO.C,D1*%
X127840000Y-19000000D03*
D23*
X138000000Y-19000000D03*
%TD*%
D13*
%TO.C,J46*%
X53000000Y-126000000D03*
D12*
X53000000Y-123460000D03*
%TD*%
D13*
%TO.C,J38*%
X109000000Y-126000000D03*
D12*
X109000000Y-123460000D03*
%TD*%
D24*
%TO.C,U11*%
X81950000Y-76000000D03*
X81950000Y-74730000D03*
X81950000Y-73460000D03*
X81950000Y-72190000D03*
X81950000Y-70920000D03*
X81950000Y-69650000D03*
X81950000Y-68380000D03*
X81950000Y-67110000D03*
X77000000Y-67110000D03*
X77000000Y-68380000D03*
X77000000Y-69650000D03*
X77000000Y-70920000D03*
X77000000Y-72190000D03*
X77000000Y-73460000D03*
X77000000Y-74730000D03*
X77000000Y-76000000D03*
%TD*%
D11*
%TO.C,U30*%
X158587500Y-31050000D03*
X158587500Y-32000000D03*
X158587500Y-32950000D03*
X160862500Y-32950000D03*
X160862500Y-31050000D03*
%TD*%
M02*
