%TF.GenerationSoftware,KiCad,Pcbnew,9.0.7*%
%TF.CreationDate,2026-06-23T20:31:08-04:00*%
%TF.ProjectId,Turing Machine,54757269-6e67-4204-9d61-6368696e652e,rev?*%
%TF.SameCoordinates,Original*%
%TF.FileFunction,Copper,L1,Top*%
%TF.FilePolarity,Positive*%
%FSLAX46Y46*%
G04 Gerber Fmt 4.6, Leading zero omitted, Abs format (unit mm)*
G04 Created by KiCad (PCBNEW 9.0.7) date 2026-06-23 20:31:08*
%MOMM*%
%LPD*%
G01*
G04 APERTURE LIST*
G04 Aperture macros list*
%AMRoundRect*
0 Rectangle with rounded corners*
0 $1 Rounding radius*
0 $2 $3 $4 $5 $6 $7 $8 $9 X,Y pos of 4 corners*
0 Add a 4 corners polygon primitive as box body*
4,1,4,$2,$3,$4,$5,$6,$7,$8,$9,$2,$3,0*
0 Add four circle primitives for the rounded corners*
1,1,$1+$1,$2,$3*
1,1,$1+$1,$4,$5*
1,1,$1+$1,$6,$7*
1,1,$1+$1,$8,$9*
0 Add four rect primitives between the rounded corners*
20,1,$1+$1,$2,$3,$4,$5,0*
20,1,$1+$1,$4,$5,$6,$7,0*
20,1,$1+$1,$6,$7,$8,$9,0*
20,1,$1+$1,$8,$9,$2,$3,0*%
G04 Aperture macros list end*
%TA.AperFunction,SMDPad,CuDef*%
%ADD10RoundRect,0.200000X0.200000X0.275000X-0.200000X0.275000X-0.200000X-0.275000X0.200000X-0.275000X0*%
%TD*%
%TA.AperFunction,SMDPad,CuDef*%
%ADD11RoundRect,0.150000X-0.512500X-0.150000X0.512500X-0.150000X0.512500X0.150000X-0.512500X0.150000X0*%
%TD*%
%TA.AperFunction,ComponentPad*%
%ADD12C,1.700000*%
%TD*%
%TA.AperFunction,ComponentPad*%
%ADD13R,1.700000X1.700000*%
%TD*%
%TA.AperFunction,SMDPad,CuDef*%
%ADD14RoundRect,0.150000X-0.825000X-0.150000X0.825000X-0.150000X0.825000X0.150000X-0.825000X0.150000X0*%
%TD*%
%TA.AperFunction,SMDPad,CuDef*%
%ADD15RoundRect,0.250000X-0.250000X-0.550000X0.250000X-0.550000X0.250000X0.550000X-0.250000X0.550000X0*%
%TD*%
%TA.AperFunction,SMDPad,CuDef*%
%ADD16RoundRect,0.200000X0.275000X-0.200000X0.275000X0.200000X-0.275000X0.200000X-0.275000X-0.200000X0*%
%TD*%
%TA.AperFunction,SMDPad,CuDef*%
%ADD17RoundRect,0.200000X-0.275000X0.200000X-0.275000X-0.200000X0.275000X-0.200000X0.275000X0.200000X0*%
%TD*%
%TA.AperFunction,ComponentPad*%
%ADD18C,0.700000*%
%TD*%
%TA.AperFunction,ComponentPad*%
%ADD19O,0.900000X2.400000*%
%TD*%
%TA.AperFunction,ComponentPad*%
%ADD20O,0.900000X1.700000*%
%TD*%
%TA.AperFunction,SMDPad,CuDef*%
%ADD21RoundRect,0.250000X-0.312500X-1.450000X0.312500X-1.450000X0.312500X1.450000X-0.312500X1.450000X0*%
%TD*%
%TA.AperFunction,ComponentPad*%
%ADD22RoundRect,0.249999X-0.850001X-0.850001X0.850001X-0.850001X0.850001X0.850001X-0.850001X0.850001X0*%
%TD*%
%TA.AperFunction,ComponentPad*%
%ADD23C,2.200000*%
%TD*%
%TA.AperFunction,SMDPad,CuDef*%
%ADD24RoundRect,0.150000X0.825000X0.150000X-0.825000X0.150000X-0.825000X-0.150000X0.825000X-0.150000X0*%
%TD*%
%TA.AperFunction,ViaPad*%
%ADD25C,0.600000*%
%TD*%
%TA.AperFunction,Conductor*%
%ADD26C,0.200000*%
%TD*%
G04 APERTURE END LIST*
D10*
%TO.P,R10,2*%
%TO.N,GND*%
X152175000Y-20000000D03*
%TO.P,R10,1*%
%TO.N,Net-(J193-CC2)*%
X153825000Y-20000000D03*
%TD*%
%TO.P,R9,2*%
%TO.N,GND*%
X149175000Y-19000000D03*
%TO.P,R9,1*%
%TO.N,Net-(J193-CC1)*%
X150825000Y-19000000D03*
%TD*%
D11*
%TO.P,U29,1,NC*%
%TO.N,unconnected-(U29-NC-Pad1)*%
X158862500Y-37050000D03*
%TO.P,U29,2*%
%TO.N,Y3*%
X158862500Y-38000000D03*
%TO.P,U29,3,GND*%
%TO.N,unconnected-(U29-GND-Pad3)*%
X158862500Y-38950000D03*
%TO.P,U29,4*%
%TO.N,Net-(U29-Pad4)*%
X161137500Y-38950000D03*
%TO.P,U29,5,VCC*%
%TO.N,unconnected-(U29-VCC-Pad5)*%
X161137500Y-37050000D03*
%TD*%
D12*
%TO.P,J78,2,Pin_2*%
%TO.N,TABLE9*%
X264000000Y-147000000D03*
D13*
%TO.P,J78,1,Pin_1*%
%TO.N,S3D*%
X264000000Y-144460000D03*
%TD*%
D12*
%TO.P,J89,2,Pin_2*%
%TO.N,TABLE8*%
X247000000Y-147000000D03*
D13*
%TO.P,J89,1,Pin_1*%
%TO.N,tNew*%
X247000000Y-144460000D03*
%TD*%
D12*
%TO.P,J83,2,Pin_2*%
%TO.N,TABLE8*%
X243000000Y-147000000D03*
D13*
%TO.P,J83,1,Pin_1*%
%TO.N,S4D*%
X243000000Y-144460000D03*
%TD*%
D12*
%TO.P,J70,2,Pin_2*%
%TO.N,TABLE7*%
X210000000Y-147000000D03*
D13*
%TO.P,J70,1,Pin_1*%
%TO.N,S2D*%
X210000000Y-144460000D03*
%TD*%
D12*
%TO.P,J8,2,Pin_2*%
%TO.N,TABLE1*%
X22800000Y-147540000D03*
D13*
%TO.P,J8,1,Pin_1*%
%TO.N,S2D*%
X22800000Y-145000000D03*
%TD*%
D12*
%TO.P,J6,2,Pin_2*%
%TO.N,TABLE0*%
X70400000Y-147000000D03*
D13*
%TO.P,J6,1,Pin_1*%
%TO.N,R{slash}L*%
X70400000Y-144460000D03*
%TD*%
D12*
%TO.P,J68,2,Pin_2*%
%TO.N,TABLE5*%
X185000000Y-147000000D03*
D13*
%TO.P,J68,1,Pin_1*%
%TO.N,S2D*%
X185000000Y-144460000D03*
%TD*%
D12*
%TO.P,J62,2,Pin_2*%
%TO.N,TABLE5*%
X181000000Y-147000000D03*
D13*
%TO.P,J62,1,Pin_1*%
%TO.N,S1D*%
X181000000Y-144460000D03*
%TD*%
D12*
%TO.P,J19,2,Pin_2*%
%TO.N,TABLE3*%
X103000000Y-147000000D03*
D13*
%TO.P,J19,1,Pin_1*%
%TO.N,S1D*%
X103000000Y-144460000D03*
%TD*%
D14*
%TO.P,U49,1,S*%
%TO.N,R{slash}L*%
X161050000Y-49380000D03*
%TO.P,U49,2,I0a*%
%TO.N,CLK1*%
X161050000Y-50650000D03*
%TO.P,U49,3,I1a*%
%TO.N,VCC*%
X161050000Y-51920000D03*
%TO.P,U49,4,Za*%
%TO.N,Net-(U4-DOWN)*%
X161050000Y-53190000D03*
%TO.P,U49,5,I0b*%
%TO.N,CLK1*%
X161050000Y-54460000D03*
%TO.P,U49,6,I1b*%
%TO.N,VCC*%
X161050000Y-55730000D03*
%TO.P,U49,7,Zb*%
%TO.N,Net-(U4-UP)*%
X161050000Y-57000000D03*
%TO.P,U49,8,GND*%
%TO.N,GND*%
X161050000Y-58270000D03*
%TO.P,U49,9,Zc*%
%TO.N,unconnected-(U49-Zc-Pad9)*%
X166000000Y-58270000D03*
%TO.P,U49,10,I1c*%
%TO.N,unconnected-(U49-I1c-Pad10)*%
X166000000Y-57000000D03*
%TO.P,U49,11,I0c*%
%TO.N,unconnected-(U49-I0c-Pad11)*%
X166000000Y-55730000D03*
%TO.P,U49,12,Zd*%
%TO.N,unconnected-(U49-Zd-Pad12)*%
X166000000Y-54460000D03*
%TO.P,U49,13,I1d*%
%TO.N,unconnected-(U49-I1d-Pad13)*%
X166000000Y-53190000D03*
%TO.P,U49,14,I0d*%
%TO.N,unconnected-(U49-I0d-Pad14)*%
X166000000Y-51920000D03*
%TO.P,U49,15,E*%
%TO.N,unconnected-(U49-E-Pad15)*%
X166000000Y-50650000D03*
%TO.P,U49,16,VCC*%
%TO.N,VCC*%
X166000000Y-49380000D03*
%TD*%
D11*
%TO.P,U48,1*%
%TO.N,Net-(U46-Pad4)*%
X132725000Y-31100000D03*
%TO.P,U48,2*%
%TO.N,Net-(U47-Pad4)*%
X132725000Y-32050000D03*
%TO.P,U48,3,GND*%
%TO.N,GND*%
X132725000Y-33000000D03*
%TO.P,U48,4*%
%TO.N,T8D*%
X135000000Y-33000000D03*
%TO.P,U48,5,VCC*%
%TO.N,VCC*%
X135000000Y-31100000D03*
%TD*%
%TO.P,U47,1*%
%TO.N,T8Q*%
X126725000Y-31100000D03*
%TO.P,U47,2*%
%TO.N,Net-(U45-Pad4)*%
X126725000Y-32050000D03*
%TO.P,U47,3,GND*%
%TO.N,GND*%
X126725000Y-33000000D03*
%TO.P,U47,4*%
%TO.N,Net-(U47-Pad4)*%
X129000000Y-33000000D03*
%TO.P,U47,5,VCC*%
%TO.N,VCC*%
X129000000Y-31100000D03*
%TD*%
%TO.P,U46,1*%
%TO.N,Y7*%
X133725000Y-37100000D03*
%TO.P,U46,2*%
%TO.N,tNew*%
X133725000Y-38050000D03*
%TO.P,U46,3,GND*%
%TO.N,GND*%
X133725000Y-39000000D03*
%TO.P,U46,4*%
%TO.N,Net-(U46-Pad4)*%
X136000000Y-39000000D03*
%TO.P,U46,5,VCC*%
%TO.N,VCC*%
X136000000Y-37100000D03*
%TD*%
%TO.P,U45,1,NC*%
%TO.N,unconnected-(U45-NC-Pad1)*%
X127725000Y-37100000D03*
%TO.P,U45,2*%
%TO.N,Y7*%
X127725000Y-38050000D03*
%TO.P,U45,3,GND*%
%TO.N,unconnected-(U45-GND-Pad3)*%
X127725000Y-39000000D03*
%TO.P,U45,4*%
%TO.N,Net-(U45-Pad4)*%
X130000000Y-39000000D03*
%TO.P,U45,5,VCC*%
%TO.N,unconnected-(U45-VCC-Pad5)*%
X130000000Y-37100000D03*
%TD*%
%TO.P,U44,1*%
%TO.N,Net-(U42-Pad4)*%
X114725000Y-32100000D03*
%TO.P,U44,2*%
%TO.N,Net-(U43-Pad4)*%
X114725000Y-33050000D03*
%TO.P,U44,3,GND*%
%TO.N,GND*%
X114725000Y-34000000D03*
%TO.P,U44,4*%
%TO.N,T7D*%
X117000000Y-34000000D03*
%TO.P,U44,5,VCC*%
%TO.N,VCC*%
X117000000Y-32100000D03*
%TD*%
%TO.P,U43,1*%
%TO.N,T7Q*%
X111862500Y-53050000D03*
%TO.P,U43,2*%
%TO.N,Net-(U41-Pad4)*%
X111862500Y-54000000D03*
%TO.P,U43,3,GND*%
%TO.N,GND*%
X111862500Y-54950000D03*
%TO.P,U43,4*%
%TO.N,Net-(U43-Pad4)*%
X114137500Y-54950000D03*
%TO.P,U43,5,VCC*%
%TO.N,VCC*%
X114137500Y-53050000D03*
%TD*%
%TO.P,U42,1*%
%TO.N,Y6*%
X174725000Y-31000000D03*
%TO.P,U42,2*%
%TO.N,tNew*%
X174725000Y-31950000D03*
%TO.P,U42,3,GND*%
%TO.N,GND*%
X174725000Y-32900000D03*
%TO.P,U42,4*%
%TO.N,Net-(U42-Pad4)*%
X177000000Y-32900000D03*
%TO.P,U42,5,VCC*%
%TO.N,VCC*%
X177000000Y-31000000D03*
%TD*%
%TO.P,U41,1,NC*%
%TO.N,unconnected-(U41-NC-Pad1)*%
X174862500Y-37050000D03*
%TO.P,U41,2*%
%TO.N,Y6*%
X174862500Y-38000000D03*
%TO.P,U41,3,GND*%
%TO.N,unconnected-(U41-GND-Pad3)*%
X174862500Y-38950000D03*
%TO.P,U41,4*%
%TO.N,Net-(U41-Pad4)*%
X177137500Y-38950000D03*
%TO.P,U41,5,VCC*%
%TO.N,unconnected-(U41-VCC-Pad5)*%
X177137500Y-37050000D03*
%TD*%
%TO.P,U40,1*%
%TO.N,Net-(U38-Pad4)*%
X175862500Y-62050000D03*
%TO.P,U40,2*%
%TO.N,Net-(U39-Pad4)*%
X175862500Y-63000000D03*
%TO.P,U40,3,GND*%
%TO.N,GND*%
X175862500Y-63950000D03*
%TO.P,U40,4*%
%TO.N,T6D*%
X178137500Y-63950000D03*
%TO.P,U40,5,VCC*%
%TO.N,VCC*%
X178137500Y-62050000D03*
%TD*%
%TO.P,U39,1*%
%TO.N,T6Q*%
X171725000Y-42100000D03*
%TO.P,U39,2*%
%TO.N,Net-(U37-Pad4)*%
X171725000Y-43050000D03*
%TO.P,U39,3,GND*%
%TO.N,GND*%
X171725000Y-44000000D03*
%TO.P,U39,4*%
%TO.N,Net-(U39-Pad4)*%
X174000000Y-44000000D03*
%TO.P,U39,5,VCC*%
%TO.N,VCC*%
X174000000Y-42100000D03*
%TD*%
%TO.P,U38,1*%
%TO.N,Y5*%
X169725000Y-31100000D03*
%TO.P,U38,2*%
%TO.N,tNew*%
X169725000Y-32050000D03*
%TO.P,U38,3,GND*%
%TO.N,GND*%
X169725000Y-33000000D03*
%TO.P,U38,4*%
%TO.N,Net-(U38-Pad4)*%
X172000000Y-33000000D03*
%TO.P,U38,5,VCC*%
%TO.N,VCC*%
X172000000Y-31100000D03*
%TD*%
%TO.P,U37,1,NC*%
%TO.N,unconnected-(U37-NC-Pad1)*%
X169725000Y-37000000D03*
%TO.P,U37,2*%
%TO.N,Y5*%
X169725000Y-37950000D03*
%TO.P,U37,3,GND*%
%TO.N,unconnected-(U37-GND-Pad3)*%
X169725000Y-38900000D03*
%TO.P,U37,4*%
%TO.N,Net-(U37-Pad4)*%
X172000000Y-38900000D03*
%TO.P,U37,5,VCC*%
%TO.N,unconnected-(U37-VCC-Pad5)*%
X172000000Y-37000000D03*
%TD*%
%TO.P,U36,1*%
%TO.N,Net-(U34-Pad4)*%
X169725000Y-62100000D03*
%TO.P,U36,2*%
%TO.N,Net-(U35-Pad4)*%
X169725000Y-63050000D03*
%TO.P,U36,3,GND*%
%TO.N,GND*%
X169725000Y-64000000D03*
%TO.P,U36,4*%
%TO.N,T5D*%
X172000000Y-64000000D03*
%TO.P,U36,5,VCC*%
%TO.N,VCC*%
X172000000Y-62100000D03*
%TD*%
%TO.P,U35,1*%
%TO.N,T5Q*%
X169725000Y-67100000D03*
%TO.P,U35,2*%
%TO.N,Net-(U33-Pad4)*%
X169725000Y-68050000D03*
%TO.P,U35,3,GND*%
%TO.N,GND*%
X169725000Y-69000000D03*
%TO.P,U35,4*%
%TO.N,Net-(U35-Pad4)*%
X172000000Y-69000000D03*
%TO.P,U35,5,VCC*%
%TO.N,VCC*%
X172000000Y-67100000D03*
%TD*%
%TO.P,U34,1*%
%TO.N,Y4*%
X163862500Y-31100000D03*
%TO.P,U34,2*%
%TO.N,tNew*%
X163862500Y-32050000D03*
%TO.P,U34,3,GND*%
%TO.N,GND*%
X163862500Y-33000000D03*
%TO.P,U34,4*%
%TO.N,Net-(U34-Pad4)*%
X166137500Y-33000000D03*
%TO.P,U34,5,VCC*%
%TO.N,VCC*%
X166137500Y-31100000D03*
%TD*%
%TO.P,U33,1,NC*%
%TO.N,unconnected-(U33-NC-Pad1)*%
X163862500Y-37050000D03*
%TO.P,U33,2*%
%TO.N,Y4*%
X163862500Y-38000000D03*
%TO.P,U33,3,GND*%
%TO.N,unconnected-(U33-GND-Pad3)*%
X163862500Y-38950000D03*
%TO.P,U33,4*%
%TO.N,Net-(U33-Pad4)*%
X166137500Y-38950000D03*
%TO.P,U33,5,VCC*%
%TO.N,unconnected-(U33-VCC-Pad5)*%
X166137500Y-37050000D03*
%TD*%
%TO.P,U32,1*%
%TO.N,Net-(U30-Pad4)*%
X203000000Y-66000000D03*
%TO.P,U32,2*%
%TO.N,Net-(U31-Pad4)*%
X203000000Y-66950000D03*
%TO.P,U32,3,GND*%
%TO.N,GND*%
X203000000Y-67900000D03*
%TO.P,U32,4*%
%TO.N,T4D*%
X205275000Y-67900000D03*
%TO.P,U32,5,VCC*%
%TO.N,VCC*%
X205275000Y-66000000D03*
%TD*%
%TO.P,U31,1*%
%TO.N,T4Q*%
X203000000Y-61375000D03*
%TO.P,U31,2*%
%TO.N,Net-(U29-Pad4)*%
X203000000Y-62325000D03*
%TO.P,U31,3,GND*%
%TO.N,GND*%
X203000000Y-63275000D03*
%TO.P,U31,4*%
%TO.N,Net-(U31-Pad4)*%
X205275000Y-63275000D03*
%TO.P,U31,5,VCC*%
%TO.N,VCC*%
X205275000Y-61375000D03*
%TD*%
%TO.P,U28,1*%
%TO.N,Net-(U26-Pad4)*%
X197862500Y-55050000D03*
%TO.P,U28,2*%
%TO.N,Net-(U27-Pad4)*%
X197862500Y-56000000D03*
%TO.P,U28,3,GND*%
%TO.N,GND*%
X197862500Y-56950000D03*
%TO.P,U28,4*%
%TO.N,T3D*%
X200137500Y-56950000D03*
%TO.P,U28,5,VCC*%
%TO.N,VCC*%
X200137500Y-55050000D03*
%TD*%
%TO.P,U27,1*%
%TO.N,T3Q*%
X182862500Y-40050000D03*
%TO.P,U27,2*%
%TO.N,Net-(U25-Pad4)*%
X182862500Y-41000000D03*
%TO.P,U27,3,GND*%
%TO.N,GND*%
X182862500Y-41950000D03*
%TO.P,U27,4*%
%TO.N,Net-(U27-Pad4)*%
X185137500Y-41950000D03*
%TO.P,U27,5,VCC*%
%TO.N,VCC*%
X185137500Y-40050000D03*
%TD*%
%TO.P,U26,1*%
%TO.N,Y2*%
X152725000Y-31000000D03*
%TO.P,U26,2*%
%TO.N,tNew*%
X152725000Y-31950000D03*
%TO.P,U26,3,GND*%
%TO.N,GND*%
X152725000Y-32900000D03*
%TO.P,U26,4*%
%TO.N,Net-(U26-Pad4)*%
X155000000Y-32900000D03*
%TO.P,U26,5,VCC*%
%TO.N,VCC*%
X155000000Y-31000000D03*
%TD*%
%TO.P,U25,1,NC*%
%TO.N,unconnected-(U25-NC-Pad1)*%
X152862500Y-37050000D03*
%TO.P,U25,2*%
%TO.N,Y2*%
X152862500Y-38000000D03*
%TO.P,U25,3,GND*%
%TO.N,unconnected-(U25-GND-Pad3)*%
X152862500Y-38950000D03*
%TO.P,U25,4*%
%TO.N,Net-(U25-Pad4)*%
X155137500Y-38950000D03*
%TO.P,U25,5,VCC*%
%TO.N,unconnected-(U25-VCC-Pad5)*%
X155137500Y-37050000D03*
%TD*%
%TO.P,U24,1*%
%TO.N,Net-(U22-Pad4)*%
X109725000Y-32100000D03*
%TO.P,U24,2*%
%TO.N,Net-(U23-Pad4)*%
X109725000Y-33050000D03*
%TO.P,U24,3,GND*%
%TO.N,GND*%
X109725000Y-34000000D03*
%TO.P,U24,4*%
%TO.N,T2D*%
X112000000Y-34000000D03*
%TO.P,U24,5,VCC*%
%TO.N,VCC*%
X112000000Y-32100000D03*
%TD*%
%TO.P,U23,1*%
%TO.N,T2Q*%
X120725000Y-32000000D03*
%TO.P,U23,2*%
%TO.N,Net-(U21-Pad4)*%
X120725000Y-32950000D03*
%TO.P,U23,3,GND*%
%TO.N,GND*%
X120725000Y-33900000D03*
%TO.P,U23,4*%
%TO.N,Net-(U23-Pad4)*%
X123000000Y-33900000D03*
%TO.P,U23,5,VCC*%
%TO.N,VCC*%
X123000000Y-32000000D03*
%TD*%
%TO.P,U22,1*%
%TO.N,Y1*%
X146725000Y-31050000D03*
%TO.P,U22,2*%
%TO.N,tNew*%
X146725000Y-32000000D03*
%TO.P,U22,3,GND*%
%TO.N,GND*%
X146725000Y-32950000D03*
%TO.P,U22,4*%
%TO.N,Net-(U22-Pad4)*%
X149000000Y-32950000D03*
%TO.P,U22,5,VCC*%
%TO.N,VCC*%
X149000000Y-31050000D03*
%TD*%
%TO.P,U21,1,NC*%
%TO.N,unconnected-(U21-NC-Pad1)*%
X146862500Y-37050000D03*
%TO.P,U21,2*%
%TO.N,Y1*%
X146862500Y-38000000D03*
%TO.P,U21,3,GND*%
%TO.N,unconnected-(U21-GND-Pad3)*%
X146862500Y-38950000D03*
%TO.P,U21,4*%
%TO.N,Net-(U21-Pad4)*%
X149137500Y-38950000D03*
%TO.P,U21,5,VCC*%
%TO.N,unconnected-(U21-VCC-Pad5)*%
X149137500Y-37050000D03*
%TD*%
%TO.P,U20,1*%
%TO.N,T1Q*%
X186000000Y-72100000D03*
%TO.P,U20,2*%
%TO.N,Net-(U19-Pad4)*%
X186000000Y-73050000D03*
%TO.P,U20,3,GND*%
%TO.N,GND*%
X186000000Y-74000000D03*
%TO.P,U20,4*%
%TO.N,Net-(U18-Pad2)*%
X188275000Y-74000000D03*
%TO.P,U20,5,VCC*%
%TO.N,VCC*%
X188275000Y-72100000D03*
%TD*%
%TO.P,U19,1,NC*%
%TO.N,unconnected-(U19-NC-Pad1)*%
X139725000Y-37100000D03*
%TO.P,U19,2*%
%TO.N,Y0*%
X139725000Y-38050000D03*
%TO.P,U19,3,GND*%
%TO.N,GND*%
X139725000Y-39000000D03*
%TO.P,U19,4*%
%TO.N,Net-(U19-Pad4)*%
X142000000Y-39000000D03*
%TO.P,U19,5,VCC*%
%TO.N,unconnected-(U19-VCC-Pad5)*%
X142000000Y-37100000D03*
%TD*%
%TO.P,U18,1*%
%TO.N,Net-(U17-Pad4)*%
X191000000Y-72100000D03*
%TO.P,U18,2*%
%TO.N,Net-(U18-Pad2)*%
X191000000Y-73050000D03*
%TO.P,U18,3,GND*%
%TO.N,GND*%
X191000000Y-74000000D03*
%TO.P,U18,4*%
%TO.N,T1D*%
X193275000Y-74000000D03*
%TO.P,U18,5,VCC*%
%TO.N,VCC*%
X193275000Y-72100000D03*
%TD*%
%TO.P,U17,1*%
%TO.N,Y0*%
X140000000Y-31100000D03*
%TO.P,U17,2*%
%TO.N,tNew*%
X140000000Y-32050000D03*
%TO.P,U17,3,GND*%
%TO.N,GND*%
X140000000Y-33000000D03*
%TO.P,U17,4*%
%TO.N,Net-(U17-Pad4)*%
X142275000Y-33000000D03*
%TO.P,U17,5,VCC*%
%TO.N,VCC*%
X142275000Y-31100000D03*
%TD*%
D14*
%TO.P,U16,1,~{R}*%
%TO.N,unconnected-(U16A-~{R}-Pad1)*%
X172050000Y-49650000D03*
%TO.P,U16,2,D*%
%TO.N,CLK2*%
X172050000Y-50920000D03*
%TO.P,U16,3,C*%
%TO.N,Net-(U16A-C)*%
X172050000Y-52190000D03*
%TO.P,U16,4,~{S}*%
%TO.N,unconnected-(U16A-~{S}-Pad4)*%
X172050000Y-53460000D03*
%TO.P,U16,5,Q*%
%TO.N,CLK1*%
X172050000Y-54730000D03*
%TO.P,U16,6,~{Q}*%
%TO.N,CLK2*%
X172050000Y-56000000D03*
%TO.P,U16,7,GND*%
%TO.N,unconnected-(U16C-GND-Pad7)*%
X172050000Y-57270000D03*
%TO.P,U16,8,~{Q}*%
%TO.N,unconnected-(U16B-~{Q}-Pad8)*%
X177000000Y-57270000D03*
%TO.P,U16,9,Q*%
%TO.N,unconnected-(U16B-Q-Pad9)*%
X177000000Y-56000000D03*
%TO.P,U16,10,~{S}*%
%TO.N,unconnected-(U16B-~{S}-Pad10)*%
X177000000Y-54730000D03*
%TO.P,U16,11,C*%
%TO.N,unconnected-(U16B-C-Pad11)*%
X177000000Y-53460000D03*
%TO.P,U16,12,D*%
%TO.N,unconnected-(U16B-D-Pad12)*%
X177000000Y-52190000D03*
%TO.P,U16,13,~{R}*%
%TO.N,unconnected-(U16B-~{R}-Pad13)*%
X177000000Y-50920000D03*
%TO.P,U16,14,VCC*%
%TO.N,VCC*%
X177000000Y-49650000D03*
%TD*%
D11*
%TO.P,U15,1*%
%TO.N,Net-(U16A-C)*%
X189725000Y-52725000D03*
%TO.P,U15,2*%
%TO.N,Net-(SW1-C)*%
X189725000Y-53675000D03*
%TO.P,U15,3,GND*%
%TO.N,unconnected-(U15-GND-Pad3)*%
X189725000Y-54625000D03*
%TO.P,U15,4*%
%TO.N,Net-(U14-Pad2)*%
X192000000Y-54625000D03*
%TO.P,U15,5,VCC*%
%TO.N,VCC*%
X192000000Y-52725000D03*
%TD*%
%TO.P,U14,1*%
%TO.N,Net-(SW1-A)*%
X189725000Y-48100000D03*
%TO.P,U14,2*%
%TO.N,Net-(U14-Pad2)*%
X189725000Y-49050000D03*
%TO.P,U14,3,GND*%
%TO.N,unconnected-(U14-GND-Pad3)*%
X189725000Y-50000000D03*
%TO.P,U14,4*%
%TO.N,Net-(U16A-C)*%
X192000000Y-50000000D03*
%TO.P,U14,5,VCC*%
%TO.N,VCC*%
X192000000Y-48100000D03*
%TD*%
D14*
%TO.P,U13,1,~{R}*%
%TO.N,unconnected-(U13A-~{R}-Pad1)*%
X88000000Y-48650000D03*
%TO.P,U13,2,D*%
%TO.N,S3D*%
X88000000Y-49920000D03*
%TO.P,U13,3,C*%
%TO.N,CLK2*%
X88000000Y-51190000D03*
%TO.P,U13,4,~{S}*%
%TO.N,unconnected-(U13A-~{S}-Pad4)*%
X88000000Y-52460000D03*
%TO.P,U13,5,Q*%
%TO.N,S3Q*%
X88000000Y-53730000D03*
%TO.P,U13,6,~{Q}*%
%TO.N,NS3Q*%
X88000000Y-55000000D03*
%TO.P,U13,7,GND*%
%TO.N,unconnected-(U13C-GND-Pad7)*%
X88000000Y-56270000D03*
%TO.P,U13,8,~{Q}*%
%TO.N,NS4Q*%
X92950000Y-56270000D03*
%TO.P,U13,9,Q*%
%TO.N,S4Q*%
X92950000Y-55000000D03*
%TO.P,U13,10,~{S}*%
%TO.N,unconnected-(U13B-~{S}-Pad10)*%
X92950000Y-53730000D03*
%TO.P,U13,11,C*%
%TO.N,CLK2*%
X92950000Y-52460000D03*
%TO.P,U13,12,D*%
%TO.N,S4D*%
X92950000Y-51190000D03*
%TO.P,U13,13,~{R}*%
%TO.N,unconnected-(U13B-~{R}-Pad13)*%
X92950000Y-49920000D03*
%TO.P,U13,14,VCC*%
%TO.N,VCC*%
X92950000Y-48650000D03*
%TD*%
%TO.P,U12,1,~{R}*%
%TO.N,unconnected-(U12A-~{R}-Pad1)*%
X99050000Y-43920000D03*
%TO.P,U12,2,D*%
%TO.N,S1D*%
X99050000Y-45190000D03*
%TO.P,U12,3,C*%
%TO.N,CLK2*%
X99050000Y-46460000D03*
%TO.P,U12,4,~{S}*%
%TO.N,unconnected-(U12A-~{S}-Pad4)*%
X99050000Y-47730000D03*
%TO.P,U12,5,Q*%
%TO.N,S1Q*%
X99050000Y-49000000D03*
%TO.P,U12,6,~{Q}*%
%TO.N,unconnected-(U12A-~{Q}-Pad6)*%
X99050000Y-50270000D03*
%TO.P,U12,7,GND*%
%TO.N,unconnected-(U12C-GND-Pad7)*%
X99050000Y-51540000D03*
%TO.P,U12,8,~{Q}*%
%TO.N,unconnected-(U12B-~{Q}-Pad8)*%
X104000000Y-51540000D03*
%TO.P,U12,9,Q*%
%TO.N,S2Q*%
X104000000Y-50270000D03*
%TO.P,U12,10,~{S}*%
%TO.N,unconnected-(U12B-~{S}-Pad10)*%
X104000000Y-49000000D03*
%TO.P,U12,11,C*%
%TO.N,CLK2*%
X104000000Y-47730000D03*
%TO.P,U12,12,D*%
%TO.N,S2D*%
X104000000Y-46460000D03*
%TO.P,U12,13,~{R}*%
%TO.N,unconnected-(U12B-~{R}-Pad13)*%
X104000000Y-45190000D03*
%TO.P,U12,14,VCC*%
%TO.N,VCC*%
X104000000Y-43920000D03*
%TD*%
%TO.P,U10,1,A0*%
%TO.N,MUXZ*%
X93000000Y-66110000D03*
%TO.P,U10,2,A1*%
%TO.N,S1Q*%
X93000000Y-67380000D03*
%TO.P,U10,3,A2*%
%TO.N,S2Q*%
X93000000Y-68650000D03*
%TO.P,U10,4,~{E0}*%
%TO.N,VCC*%
X93000000Y-69920000D03*
%TO.P,U10,5,~{E1}*%
%TO.N,S3Q*%
X93000000Y-71190000D03*
%TO.P,U10,6,E2*%
%TO.N,NS4Q*%
X93000000Y-72460000D03*
%TO.P,U10,7,~{Y7}*%
%TO.N,TABLE23*%
X93000000Y-73730000D03*
%TO.P,U10,8,GND*%
%TO.N,unconnected-(U10-GND-Pad8)*%
X93000000Y-75000000D03*
%TO.P,U10,9,~{Y6}*%
%TO.N,TABLE22*%
X97950000Y-75000000D03*
%TO.P,U10,10,~{Y5}*%
%TO.N,TABLE21*%
X97950000Y-73730000D03*
%TO.P,U10,11,~{Y4}*%
%TO.N,TABLE20*%
X97950000Y-72460000D03*
%TO.P,U10,12,~{Y3}*%
%TO.N,TABLE19*%
X97950000Y-71190000D03*
%TO.P,U10,13,~{Y2}*%
%TO.N,TABLE18*%
X97950000Y-69920000D03*
%TO.P,U10,14,~{Y1}*%
%TO.N,TABLE17*%
X97950000Y-68650000D03*
%TO.P,U10,15,~{Y0}*%
%TO.N,TABLE16*%
X97950000Y-67380000D03*
%TO.P,U10,16,VCC*%
%TO.N,VCC*%
X97950000Y-66110000D03*
%TD*%
%TO.P,U9,1,A0*%
%TO.N,MUXZ*%
X121050000Y-66380000D03*
%TO.P,U9,2,A1*%
%TO.N,S1Q*%
X121050000Y-67650000D03*
%TO.P,U9,3,A2*%
%TO.N,S2Q*%
X121050000Y-68920000D03*
%TO.P,U9,4,~{E0}*%
%TO.N,VCC*%
X121050000Y-70190000D03*
%TO.P,U9,5,~{E1}*%
%TO.N,NS3Q*%
X121050000Y-71460000D03*
%TO.P,U9,6,E2*%
%TO.N,S4Q*%
X121050000Y-72730000D03*
%TO.P,U9,7,~{Y7}*%
%TO.N,TABLE15*%
X121050000Y-74000000D03*
%TO.P,U9,8,GND*%
%TO.N,unconnected-(U9-GND-Pad8)*%
X121050000Y-75270000D03*
%TO.P,U9,9,~{Y6}*%
%TO.N,TABLE14*%
X126000000Y-75270000D03*
%TO.P,U9,10,~{Y5}*%
%TO.N,TABLE13*%
X126000000Y-74000000D03*
%TO.P,U9,11,~{Y4}*%
%TO.N,TABLE12*%
X126000000Y-72730000D03*
%TO.P,U9,12,~{Y3}*%
%TO.N,TABLE11*%
X126000000Y-71460000D03*
%TO.P,U9,13,~{Y2}*%
%TO.N,TABLE10*%
X126000000Y-70190000D03*
%TO.P,U9,14,~{Y1}*%
%TO.N,TABLE9*%
X126000000Y-68920000D03*
%TO.P,U9,15,~{Y0}*%
%TO.N,TABLE8*%
X126000000Y-67650000D03*
%TO.P,U9,16,VCC*%
%TO.N,VCC*%
X126000000Y-66380000D03*
%TD*%
%TO.P,U8,1,A0*%
%TO.N,MUXZ*%
X134050000Y-66380000D03*
%TO.P,U8,2,A1*%
%TO.N,S1Q*%
X134050000Y-67650000D03*
%TO.P,U8,3,A2*%
%TO.N,S2Q*%
X134050000Y-68920000D03*
%TO.P,U8,4,~{E0}*%
%TO.N,VCC*%
X134050000Y-70190000D03*
%TO.P,U8,5,~{E1}*%
%TO.N,S3Q*%
X134050000Y-71460000D03*
%TO.P,U8,6,E2*%
%TO.N,S4Q*%
X134050000Y-72730000D03*
%TO.P,U8,7,~{Y7}*%
%TO.N,TABLE7*%
X134050000Y-74000000D03*
%TO.P,U8,8,GND*%
%TO.N,unconnected-(U8-GND-Pad8)*%
X134050000Y-75270000D03*
%TO.P,U8,9,~{Y6}*%
%TO.N,TABLE6*%
X139000000Y-75270000D03*
%TO.P,U8,10,~{Y5}*%
%TO.N,TABLE5*%
X139000000Y-74000000D03*
%TO.P,U8,11,~{Y4}*%
%TO.N,TABLE4*%
X139000000Y-72730000D03*
%TO.P,U8,12,~{Y3}*%
%TO.N,TABLE3*%
X139000000Y-71460000D03*
%TO.P,U8,13,~{Y2}*%
%TO.N,TABLE2*%
X139000000Y-70190000D03*
%TO.P,U8,14,~{Y1}*%
%TO.N,TABLE1*%
X139000000Y-68920000D03*
%TO.P,U8,15,~{Y0}*%
%TO.N,TABLE0*%
X139000000Y-67650000D03*
%TO.P,U8,16,VCC*%
%TO.N,VCC*%
X139000000Y-66380000D03*
%TD*%
%TO.P,U7,1,~{R}*%
%TO.N,unconnected-(U7A-~{R}-Pad1)*%
X112000000Y-43650000D03*
%TO.P,U7,2,D*%
%TO.N,T7D*%
X112000000Y-44920000D03*
%TO.P,U7,3,C*%
%TO.N,CLK2*%
X112000000Y-46190000D03*
%TO.P,U7,4,~{S}*%
%TO.N,unconnected-(U7A-~{S}-Pad4)*%
X112000000Y-47460000D03*
%TO.P,U7,5,Q*%
%TO.N,T7Q*%
X112000000Y-48730000D03*
%TO.P,U7,6,~{Q}*%
%TO.N,unconnected-(U7A-~{Q}-Pad6)*%
X112000000Y-50000000D03*
%TO.P,U7,7,GND*%
%TO.N,unconnected-(U7C-GND-Pad7)*%
X112000000Y-51270000D03*
%TO.P,U7,8,~{Q}*%
%TO.N,unconnected-(U7B-~{Q}-Pad8)*%
X116950000Y-51270000D03*
%TO.P,U7,9,Q*%
%TO.N,T8Q*%
X116950000Y-50000000D03*
%TO.P,U7,10,~{S}*%
%TO.N,unconnected-(U7B-~{S}-Pad10)*%
X116950000Y-48730000D03*
%TO.P,U7,11,C*%
%TO.N,CLK2*%
X116950000Y-47460000D03*
%TO.P,U7,12,D*%
%TO.N,T8D*%
X116950000Y-46190000D03*
%TO.P,U7,13,~{R}*%
%TO.N,unconnected-(U7B-~{R}-Pad13)*%
X116950000Y-44920000D03*
%TO.P,U7,14,VCC*%
%TO.N,VCC*%
X116950000Y-43650000D03*
%TD*%
%TO.P,U6,1,I3*%
%TO.N,T4Q*%
X128050000Y-45650000D03*
%TO.P,U6,2,I2*%
%TO.N,T3Q*%
X128050000Y-46920000D03*
%TO.P,U6,3,I1*%
%TO.N,T2Q*%
X128050000Y-48190000D03*
%TO.P,U6,4,I0*%
%TO.N,T1Q*%
X128050000Y-49460000D03*
%TO.P,U6,5,Z*%
%TO.N,MUXZ*%
X128050000Y-50730000D03*
%TO.P,U6,6,~{Z}*%
%TO.N,unconnected-(U6-~{Z}-Pad6)*%
X128050000Y-52000000D03*
%TO.P,U6,7,~{E}*%
%TO.N,GND*%
X128050000Y-53270000D03*
%TO.P,U6,8,GND*%
%TO.N,unconnected-(U6-GND-Pad8)*%
X128050000Y-54540000D03*
%TO.P,U6,9,S2*%
%TO.N,Net-(U4-QC)*%
X133000000Y-54540000D03*
%TO.P,U6,10,S1*%
%TO.N,Net-(U4-QB)*%
X133000000Y-53270000D03*
%TO.P,U6,11,S0*%
%TO.N,Net-(U4-QA)*%
X133000000Y-52000000D03*
%TO.P,U6,12,I7*%
%TO.N,T8Q*%
X133000000Y-50730000D03*
%TO.P,U6,13,I6*%
%TO.N,T7Q*%
X133000000Y-49460000D03*
%TO.P,U6,14,I5*%
%TO.N,T6Q*%
X133000000Y-48190000D03*
%TO.P,U6,15,I4*%
%TO.N,T5Q*%
X133000000Y-46920000D03*
%TO.P,U6,16,VCC*%
%TO.N,VCC*%
X133000000Y-45650000D03*
%TD*%
%TO.P,U5,1,A0*%
%TO.N,Net-(U4-QA)*%
X139050000Y-45650000D03*
%TO.P,U5,2,A1*%
%TO.N,Net-(U4-QB)*%
X139050000Y-46920000D03*
%TO.P,U5,3,A2*%
%TO.N,Net-(U4-QC)*%
X139050000Y-48190000D03*
%TO.P,U5,4,~{E0}*%
%TO.N,GND*%
X139050000Y-49460000D03*
%TO.P,U5,5,~{E1}*%
X139050000Y-50730000D03*
%TO.P,U5,6,E2*%
%TO.N,VCC*%
X139050000Y-52000000D03*
%TO.P,U5,7,~{Y7}*%
%TO.N,Y7*%
X139050000Y-53270000D03*
%TO.P,U5,8,GND*%
%TO.N,unconnected-(U5-GND-Pad8)*%
X139050000Y-54540000D03*
%TO.P,U5,9,~{Y6}*%
%TO.N,Y6*%
X144000000Y-54540000D03*
%TO.P,U5,10,~{Y5}*%
%TO.N,Y5*%
X144000000Y-53270000D03*
%TO.P,U5,11,~{Y4}*%
%TO.N,Y4*%
X144000000Y-52000000D03*
%TO.P,U5,12,~{Y3}*%
%TO.N,Y3*%
X144000000Y-50730000D03*
%TO.P,U5,13,~{Y2}*%
%TO.N,Y2*%
X144000000Y-49460000D03*
%TO.P,U5,14,~{Y1}*%
%TO.N,Y1*%
X144000000Y-48190000D03*
%TO.P,U5,15,~{Y0}*%
%TO.N,Y0*%
X144000000Y-46920000D03*
%TO.P,U5,16,VCC*%
%TO.N,VCC*%
X144000000Y-45650000D03*
%TD*%
%TO.P,U4,1,B*%
%TO.N,unconnected-(U4-B-Pad1)*%
X149050000Y-59380000D03*
%TO.P,U4,2,QB*%
%TO.N,Net-(U4-QB)*%
X149050000Y-60650000D03*
%TO.P,U4,3,QA*%
%TO.N,Net-(U4-QA)*%
X149050000Y-61920000D03*
%TO.P,U4,4,DOWN*%
%TO.N,Net-(U4-DOWN)*%
X149050000Y-63190000D03*
%TO.P,U4,5,UP*%
%TO.N,Net-(U4-UP)*%
X149050000Y-64460000D03*
%TO.P,U4,6,QC*%
%TO.N,Net-(U4-QC)*%
X149050000Y-65730000D03*
%TO.P,U4,7,QD*%
%TO.N,unconnected-(U4-QD-Pad7)*%
X149050000Y-67000000D03*
%TO.P,U4,8,GND*%
%TO.N,GND*%
X149050000Y-68270000D03*
%TO.P,U4,9,D*%
%TO.N,unconnected-(U4-D-Pad9)*%
X154000000Y-68270000D03*
%TO.P,U4,10,C*%
%TO.N,unconnected-(U4-C-Pad10)*%
X154000000Y-67000000D03*
%TO.P,U4,11,~{LOAD}*%
%TO.N,unconnected-(U4-~{LOAD}-Pad11)*%
X154000000Y-65730000D03*
%TO.P,U4,12,~{CO}*%
%TO.N,unconnected-(U4-~{CO}-Pad12)*%
X154000000Y-64460000D03*
%TO.P,U4,13,~{BO}*%
%TO.N,unconnected-(U4-~{BO}-Pad13)*%
X154000000Y-63190000D03*
%TO.P,U4,14,CLR*%
%TO.N,unconnected-(U4-CLR-Pad14)*%
X154000000Y-61920000D03*
%TO.P,U4,15,A*%
%TO.N,unconnected-(U4-A-Pad15)*%
X154000000Y-60650000D03*
%TO.P,U4,16,VCC*%
%TO.N,VCC*%
X154000000Y-59380000D03*
%TD*%
%TO.P,U3,1,~{R}*%
%TO.N,unconnected-(U3A-~{R}-Pad1)*%
X161000000Y-61650000D03*
%TO.P,U3,2,D*%
%TO.N,T5D*%
X161000000Y-62920000D03*
%TO.P,U3,3,C*%
%TO.N,CLK2*%
X161000000Y-64190000D03*
%TO.P,U3,4,~{S}*%
%TO.N,unconnected-(U3A-~{S}-Pad4)*%
X161000000Y-65460000D03*
%TO.P,U3,5,Q*%
%TO.N,T5Q*%
X161000000Y-66730000D03*
%TO.P,U3,6,~{Q}*%
%TO.N,unconnected-(U3A-~{Q}-Pad6)*%
X161000000Y-68000000D03*
%TO.P,U3,7,GND*%
%TO.N,unconnected-(U3C-GND-Pad7)*%
X161000000Y-69270000D03*
%TO.P,U3,8,~{Q}*%
%TO.N,unconnected-(U3B-~{Q}-Pad8)*%
X165950000Y-69270000D03*
%TO.P,U3,9,Q*%
%TO.N,T6Q*%
X165950000Y-68000000D03*
%TO.P,U3,10,~{S}*%
%TO.N,unconnected-(U3B-~{S}-Pad10)*%
X165950000Y-66730000D03*
%TO.P,U3,11,C*%
%TO.N,CLK2*%
X165950000Y-65460000D03*
%TO.P,U3,12,D*%
%TO.N,T6D*%
X165950000Y-64190000D03*
%TO.P,U3,13,~{R}*%
%TO.N,unconnected-(U3B-~{R}-Pad13)*%
X165950000Y-62920000D03*
%TO.P,U3,14,VCC*%
%TO.N,VCC*%
X165950000Y-61650000D03*
%TD*%
%TO.P,U2,1,~{R}*%
%TO.N,unconnected-(U2A-~{R}-Pad1)*%
X192050000Y-60920000D03*
%TO.P,U2,2,D*%
%TO.N,T3D*%
X192050000Y-62190000D03*
%TO.P,U2,3,C*%
%TO.N,CLK2*%
X192050000Y-63460000D03*
%TO.P,U2,4,~{S}*%
%TO.N,unconnected-(U2A-~{S}-Pad4)*%
X192050000Y-64730000D03*
%TO.P,U2,5,Q*%
%TO.N,T3Q*%
X192050000Y-66000000D03*
%TO.P,U2,6,~{Q}*%
%TO.N,unconnected-(U2A-~{Q}-Pad6)*%
X192050000Y-67270000D03*
%TO.P,U2,7,GND*%
%TO.N,unconnected-(U2C-GND-Pad7)*%
X192050000Y-68540000D03*
%TO.P,U2,8,~{Q}*%
%TO.N,unconnected-(U2B-~{Q}-Pad8)*%
X197000000Y-68540000D03*
%TO.P,U2,9,Q*%
%TO.N,T4Q*%
X197000000Y-67270000D03*
%TO.P,U2,10,~{S}*%
%TO.N,unconnected-(U2B-~{S}-Pad10)*%
X197000000Y-66000000D03*
%TO.P,U2,11,C*%
%TO.N,CLK2*%
X197000000Y-64730000D03*
%TO.P,U2,12,D*%
%TO.N,T4D*%
X197000000Y-63460000D03*
%TO.P,U2,13,~{R}*%
%TO.N,unconnected-(U2B-~{R}-Pad13)*%
X197000000Y-62190000D03*
%TO.P,U2,14,VCC*%
%TO.N,unconnected-(U2C-VCC-Pad14)*%
X197000000Y-60920000D03*
%TD*%
%TO.P,U1,1,~{R}*%
%TO.N,unconnected-(U1A-~{R}-Pad1)*%
X183600000Y-60920000D03*
%TO.P,U1,2,D*%
%TO.N,T1D*%
X183600000Y-62190000D03*
%TO.P,U1,3,C*%
%TO.N,CLK2*%
X183600000Y-63460000D03*
%TO.P,U1,4,~{S}*%
%TO.N,unconnected-(U1A-~{S}-Pad4)*%
X183600000Y-64730000D03*
%TO.P,U1,5,Q*%
%TO.N,T1Q*%
X183600000Y-66000000D03*
%TO.P,U1,6,~{Q}*%
%TO.N,unconnected-(U1A-~{Q}-Pad6)*%
X183600000Y-67270000D03*
%TO.P,U1,7,GND*%
%TO.N,unconnected-(U1C-GND-Pad7)*%
X183600000Y-68540000D03*
%TO.P,U1,8,~{Q}*%
%TO.N,unconnected-(U1B-~{Q}-Pad8)*%
X188550000Y-68540000D03*
%TO.P,U1,9,Q*%
%TO.N,T2Q*%
X188550000Y-67270000D03*
%TO.P,U1,10,~{S}*%
%TO.N,unconnected-(U1B-~{S}-Pad10)*%
X188550000Y-66000000D03*
%TO.P,U1,11,C*%
%TO.N,CLK2*%
X188550000Y-64730000D03*
%TO.P,U1,12,D*%
%TO.N,T2D*%
X188550000Y-63460000D03*
%TO.P,U1,13,~{R}*%
%TO.N,unconnected-(U1B-~{R}-Pad13)*%
X188550000Y-62190000D03*
%TO.P,U1,14,VCC*%
%TO.N,VCC*%
X188550000Y-60920000D03*
%TD*%
D15*
%TO.P,SW1,1,A*%
%TO.N,Net-(SW1-A)*%
X189500000Y-44000000D03*
%TO.P,SW1,2,B*%
%TO.N,VCC*%
X191250000Y-41700000D03*
%TO.P,SW1,3,C*%
%TO.N,Net-(SW1-C)*%
X193000000Y-44000000D03*
%TD*%
D10*
%TO.P,R8,1*%
%TO.N,R{slash}L*%
X76825000Y-27000000D03*
%TO.P,R8,2*%
%TO.N,GND*%
X75175000Y-27000000D03*
%TD*%
%TO.P,R7,1*%
%TO.N,S4D*%
X73825000Y-25000000D03*
%TO.P,R7,2*%
%TO.N,GND*%
X72175000Y-25000000D03*
%TD*%
%TO.P,R6,1*%
%TO.N,S3D*%
X69825000Y-24000000D03*
%TO.P,R6,2*%
%TO.N,GND*%
X68175000Y-24000000D03*
%TD*%
%TO.P,R5,1*%
%TO.N,S2D*%
X66825000Y-23000000D03*
%TO.P,R5,2*%
%TO.N,GND*%
X65175000Y-23000000D03*
%TD*%
%TO.P,R4,1*%
%TO.N,S1D*%
X63000000Y-22000000D03*
%TO.P,R4,2*%
%TO.N,GND*%
X61350000Y-22000000D03*
%TD*%
%TO.P,R3,1*%
%TO.N,tNew*%
X70825000Y-26000000D03*
%TO.P,R3,2*%
%TO.N,GND*%
X69175000Y-26000000D03*
%TD*%
D16*
%TO.P,R2,1*%
%TO.N,Net-(SW1-C)*%
X191000000Y-38825000D03*
%TO.P,R2,2*%
%TO.N,GND*%
X191000000Y-37175000D03*
%TD*%
D17*
%TO.P,R1,1*%
%TO.N,GND*%
X189000000Y-38350000D03*
%TO.P,R1,2*%
%TO.N,Net-(SW1-A)*%
X189000000Y-40000000D03*
%TD*%
D18*
%TO.P,J193,A1,GND*%
%TO.N,GND*%
X163350000Y-10640000D03*
%TO.P,J193,A4,VBUS*%
%TO.N,Net-(F1-Pad2)*%
X164200000Y-10640000D03*
%TO.P,J193,A5,CC1*%
%TO.N,Net-(J193-CC1)*%
X165050000Y-10640000D03*
%TO.P,J193,A6,D+*%
%TO.N,unconnected-(J193-D+-PadA6)*%
X165900000Y-10640000D03*
%TO.P,J193,A7,D-*%
%TO.N,unconnected-(J193-D--PadA7)*%
X166750000Y-10640000D03*
%TO.P,J193,A8*%
%TO.N,N/C*%
X167600000Y-10640000D03*
%TO.P,J193,A9,VBUS*%
%TO.N,Net-(F1-Pad2)*%
X168450000Y-10640000D03*
%TO.P,J193,A12,GND*%
%TO.N,GND*%
X169300000Y-10640000D03*
%TO.P,J193,B1,GND*%
X169300000Y-11990000D03*
%TO.P,J193,B4,VBUS*%
%TO.N,Net-(F1-Pad2)*%
X168450000Y-11990000D03*
%TO.P,J193,B5,CC2*%
%TO.N,Net-(J193-CC2)*%
X167600000Y-11990000D03*
%TO.P,J193,B6,D+*%
%TO.N,unconnected-(J193-D+-PadB6)*%
X166750000Y-11990000D03*
%TO.P,J193,B7,D-*%
%TO.N,unconnected-(J193-D--PadB7)*%
X165900000Y-11990000D03*
%TO.P,J193,B8*%
%TO.N,N/C*%
X165050000Y-11990000D03*
%TO.P,J193,B9,VBUS*%
%TO.N,Net-(F1-Pad2)*%
X164200000Y-11990000D03*
%TO.P,J193,B12,GND*%
%TO.N,GND*%
X163350000Y-11990000D03*
D19*
%TO.P,J193,S1,SHIELD*%
X162000000Y-11620000D03*
D20*
X162000000Y-15000000D03*
D19*
X170650000Y-11620000D03*
D20*
X170650000Y-15000000D03*
%TD*%
D13*
%TO.P,J192,1,Pin_1*%
%TO.N,R{slash}L*%
X65000000Y-87390143D03*
D12*
%TO.P,J192,2,Pin_2*%
%TO.N,TABLE31*%
X65000000Y-84850143D03*
%TD*%
D13*
%TO.P,J191,1,Pin_1*%
%TO.N,R{slash}L*%
X40000000Y-87390143D03*
D12*
%TO.P,J191,2,Pin_2*%
%TO.N,TABLE30*%
X40000000Y-84850143D03*
%TD*%
D13*
%TO.P,J190,1,Pin_1*%
%TO.N,tNew*%
X61000000Y-87390143D03*
D12*
%TO.P,J190,2,Pin_2*%
%TO.N,TABLE31*%
X61000000Y-84850143D03*
%TD*%
D13*
%TO.P,J189,1,Pin_1*%
%TO.N,tNew*%
X36000000Y-87390143D03*
D12*
%TO.P,J189,2,Pin_2*%
%TO.N,TABLE30*%
X36000000Y-84850143D03*
%TD*%
D13*
%TO.P,J188,1,Pin_1*%
%TO.N,S4D*%
X57000000Y-87390143D03*
D12*
%TO.P,J188,2,Pin_2*%
%TO.N,TABLE31*%
X57000000Y-84850143D03*
%TD*%
D13*
%TO.P,J187,1,Pin_1*%
%TO.N,S4D*%
X32000000Y-87390143D03*
D12*
%TO.P,J187,2,Pin_2*%
%TO.N,TABLE30*%
X32000000Y-84850143D03*
%TD*%
D13*
%TO.P,J186,1,Pin_1*%
%TO.N,S3D*%
X53000000Y-87390143D03*
D12*
%TO.P,J186,2,Pin_2*%
%TO.N,TABLE31*%
X53000000Y-84850143D03*
%TD*%
D13*
%TO.P,J185,1,Pin_1*%
%TO.N,S3D*%
X28000000Y-87390143D03*
D12*
%TO.P,J185,2,Pin_2*%
%TO.N,TABLE30*%
X28000000Y-84850143D03*
%TD*%
D13*
%TO.P,J184,1,Pin_1*%
%TO.N,S2D*%
X49000000Y-87390143D03*
D12*
%TO.P,J184,2,Pin_2*%
%TO.N,TABLE31*%
X49000000Y-84850143D03*
%TD*%
D13*
%TO.P,J183,1,Pin_1*%
%TO.N,S2D*%
X24000000Y-87390143D03*
D12*
%TO.P,J183,2,Pin_2*%
%TO.N,TABLE30*%
X24000000Y-84850143D03*
%TD*%
D13*
%TO.P,J182,1,Pin_1*%
%TO.N,S1D*%
X45000000Y-87390143D03*
D12*
%TO.P,J182,2,Pin_2*%
%TO.N,TABLE31*%
X45000000Y-84850143D03*
%TD*%
D13*
%TO.P,J181,1,Pin_1*%
%TO.N,S1D*%
X20000000Y-87390143D03*
D12*
%TO.P,J181,2,Pin_2*%
%TO.N,TABLE30*%
X20000000Y-84850143D03*
%TD*%
D13*
%TO.P,J180,1,Pin_1*%
%TO.N,R{slash}L*%
X265937440Y-106443867D03*
D12*
%TO.P,J180,2,Pin_2*%
%TO.N,TABLE29*%
X265937440Y-108983867D03*
%TD*%
D13*
%TO.P,J179,1,Pin_1*%
%TO.N,R{slash}L*%
X240943696Y-106443867D03*
D12*
%TO.P,J179,2,Pin_2*%
%TO.N,TABLE28*%
X240943696Y-108983867D03*
%TD*%
D13*
%TO.P,J178,1,Pin_1*%
%TO.N,R{slash}L*%
X215974858Y-106289331D03*
D12*
%TO.P,J178,2,Pin_2*%
%TO.N,TABLE27*%
X215974858Y-108829331D03*
%TD*%
D13*
%TO.P,J177,1,Pin_1*%
%TO.N,R{slash}L*%
X191000000Y-106189167D03*
D12*
%TO.P,J177,2,Pin_2*%
%TO.N,TABLE26*%
X191000000Y-108729167D03*
%TD*%
D13*
%TO.P,J176,1,Pin_1*%
%TO.N,R{slash}L*%
X165000000Y-106390143D03*
D12*
%TO.P,J176,2,Pin_2*%
%TO.N,TABLE25*%
X165000000Y-108930143D03*
%TD*%
D13*
%TO.P,J175,1,Pin_1*%
%TO.N,R{slash}L*%
X140000000Y-106310143D03*
D12*
%TO.P,J175,2,Pin_2*%
%TO.N,TABLE24*%
X140000000Y-108850143D03*
%TD*%
D13*
%TO.P,J174,1,Pin_1*%
%TO.N,R{slash}L*%
X115000000Y-106390143D03*
D12*
%TO.P,J174,2,Pin_2*%
%TO.N,TABLE23*%
X115000000Y-108930143D03*
%TD*%
D13*
%TO.P,J173,1,Pin_1*%
%TO.N,R{slash}L*%
X90000000Y-106390143D03*
D12*
%TO.P,J173,2,Pin_2*%
%TO.N,TABLE22*%
X90000000Y-108930143D03*
%TD*%
D13*
%TO.P,J172,1,Pin_1*%
%TO.N,R{slash}L*%
X64651166Y-106358004D03*
D12*
%TO.P,J172,2,Pin_2*%
%TO.N,TABLE21*%
X64651166Y-108898004D03*
%TD*%
D13*
%TO.P,J171,1,Pin_1*%
%TO.N,R{slash}L*%
X39909784Y-106293347D03*
D12*
%TO.P,J171,2,Pin_2*%
%TO.N,TABLE20*%
X39909784Y-108833347D03*
%TD*%
D13*
%TO.P,J170,1,Pin_1*%
%TO.N,tNew*%
X261822925Y-106460000D03*
D12*
%TO.P,J170,2,Pin_2*%
%TO.N,TABLE29*%
X261822925Y-109000000D03*
%TD*%
D13*
%TO.P,J169,1,Pin_1*%
%TO.N,tNew*%
X236943696Y-106443867D03*
D12*
%TO.P,J169,2,Pin_2*%
%TO.N,TABLE28*%
X236943696Y-108983867D03*
%TD*%
D13*
%TO.P,J168,1,Pin_1*%
%TO.N,tNew*%
X211974858Y-106289331D03*
D12*
%TO.P,J168,2,Pin_2*%
%TO.N,TABLE27*%
X211974858Y-108829331D03*
%TD*%
D13*
%TO.P,J167,1,Pin_1*%
%TO.N,tNew*%
X186834846Y-106189167D03*
D12*
%TO.P,J167,2,Pin_2*%
%TO.N,TABLE26*%
X186834846Y-108729167D03*
%TD*%
D13*
%TO.P,J166,1,Pin_1*%
%TO.N,tNew*%
X161000000Y-106390143D03*
D12*
%TO.P,J166,2,Pin_2*%
%TO.N,TABLE25*%
X161000000Y-108930143D03*
%TD*%
D13*
%TO.P,J165,1,Pin_1*%
%TO.N,tNew*%
X136200000Y-106390143D03*
D12*
%TO.P,J165,2,Pin_2*%
%TO.N,TABLE24*%
X136200000Y-108930143D03*
%TD*%
D13*
%TO.P,J164,1,Pin_1*%
%TO.N,tNew*%
X111000000Y-106390143D03*
D12*
%TO.P,J164,2,Pin_2*%
%TO.N,TABLE23*%
X111000000Y-108930143D03*
%TD*%
D13*
%TO.P,J163,1,Pin_1*%
%TO.N,tNew*%
X86000000Y-106390143D03*
D12*
%TO.P,J163,2,Pin_2*%
%TO.N,TABLE22*%
X86000000Y-108930143D03*
%TD*%
D13*
%TO.P,J162,1,Pin_1*%
%TO.N,tNew*%
X60696155Y-106358004D03*
D12*
%TO.P,J162,2,Pin_2*%
%TO.N,TABLE21*%
X60696155Y-108898004D03*
%TD*%
D13*
%TO.P,J161,1,Pin_1*%
%TO.N,tNew*%
X35991367Y-106363319D03*
D12*
%TO.P,J161,2,Pin_2*%
%TO.N,TABLE20*%
X35991367Y-108903319D03*
%TD*%
D13*
%TO.P,J160,1,Pin_1*%
%TO.N,S4D*%
X257937440Y-106443867D03*
D12*
%TO.P,J160,2,Pin_2*%
%TO.N,TABLE29*%
X257937440Y-108983867D03*
%TD*%
D13*
%TO.P,J159,1,Pin_1*%
%TO.N,S4D*%
X232943696Y-106443867D03*
D12*
%TO.P,J159,2,Pin_2*%
%TO.N,TABLE28*%
X232943696Y-108983867D03*
%TD*%
D13*
%TO.P,J158,1,Pin_1*%
%TO.N,S4D*%
X207974858Y-106289331D03*
D12*
%TO.P,J158,2,Pin_2*%
%TO.N,TABLE27*%
X207974858Y-108829331D03*
%TD*%
D13*
%TO.P,J157,1,Pin_1*%
%TO.N,S4D*%
X182732543Y-106318221D03*
D12*
%TO.P,J157,2,Pin_2*%
%TO.N,TABLE26*%
X182732543Y-108858221D03*
%TD*%
D13*
%TO.P,J156,1,Pin_1*%
%TO.N,S4D*%
X156948552Y-106356413D03*
D12*
%TO.P,J156,2,Pin_2*%
%TO.N,TABLE25*%
X156948552Y-108896413D03*
%TD*%
D13*
%TO.P,J155,1,Pin_1*%
%TO.N,S4D*%
X132000000Y-106310143D03*
D12*
%TO.P,J155,2,Pin_2*%
%TO.N,TABLE24*%
X132000000Y-108850143D03*
%TD*%
D13*
%TO.P,J154,1,Pin_1*%
%TO.N,S4D*%
X107000000Y-106390143D03*
D12*
%TO.P,J154,2,Pin_2*%
%TO.N,TABLE23*%
X107000000Y-108930143D03*
%TD*%
D13*
%TO.P,J153,1,Pin_1*%
%TO.N,S4D*%
X82000000Y-106390143D03*
D12*
%TO.P,J153,2,Pin_2*%
%TO.N,TABLE22*%
X82000000Y-108930143D03*
%TD*%
D13*
%TO.P,J152,1,Pin_1*%
%TO.N,S4D*%
X56826198Y-106443058D03*
D12*
%TO.P,J152,2,Pin_2*%
%TO.N,TABLE21*%
X56826198Y-108983058D03*
%TD*%
D13*
%TO.P,J151,1,Pin_1*%
%TO.N,S4D*%
X31991367Y-106363319D03*
D12*
%TO.P,J151,2,Pin_2*%
%TO.N,TABLE20*%
X31991367Y-108903319D03*
%TD*%
D13*
%TO.P,J150,1,Pin_1*%
%TO.N,S3D*%
X253937440Y-106443867D03*
D12*
%TO.P,J150,2,Pin_2*%
%TO.N,TABLE29*%
X253937440Y-108983867D03*
%TD*%
D13*
%TO.P,J149,1,Pin_1*%
%TO.N,S3D*%
X228945513Y-106472043D03*
D12*
%TO.P,J149,2,Pin_2*%
%TO.N,TABLE28*%
X228945513Y-109012043D03*
%TD*%
D13*
%TO.P,J148,1,Pin_1*%
%TO.N,S3D*%
X203974858Y-106289331D03*
D12*
%TO.P,J148,2,Pin_2*%
%TO.N,TABLE27*%
X203974858Y-108829331D03*
%TD*%
D13*
%TO.P,J147,1,Pin_1*%
%TO.N,S3D*%
X178419538Y-106318221D03*
D12*
%TO.P,J147,2,Pin_2*%
%TO.N,TABLE26*%
X178419538Y-108858221D03*
%TD*%
D13*
%TO.P,J146,1,Pin_1*%
%TO.N,S3D*%
X152948552Y-106356413D03*
D12*
%TO.P,J146,2,Pin_2*%
%TO.N,TABLE25*%
X152948552Y-108896413D03*
%TD*%
D13*
%TO.P,J145,1,Pin_1*%
%TO.N,S3D*%
X128000000Y-106390143D03*
D12*
%TO.P,J145,2,Pin_2*%
%TO.N,TABLE24*%
X128000000Y-108930143D03*
%TD*%
D13*
%TO.P,J144,1,Pin_1*%
%TO.N,S3D*%
X103000000Y-106390143D03*
D12*
%TO.P,J144,2,Pin_2*%
%TO.N,TABLE23*%
X103000000Y-108930143D03*
%TD*%
D13*
%TO.P,J143,1,Pin_1*%
%TO.N,S3D*%
X78000000Y-106390143D03*
D12*
%TO.P,J143,2,Pin_2*%
%TO.N,TABLE22*%
X78000000Y-108930143D03*
%TD*%
D13*
%TO.P,J142,1,Pin_1*%
%TO.N,S3D*%
X52913714Y-106400531D03*
D12*
%TO.P,J142,2,Pin_2*%
%TO.N,TABLE21*%
X52913714Y-108940531D03*
%TD*%
D13*
%TO.P,J141,1,Pin_1*%
%TO.N,S3D*%
X27991367Y-106363319D03*
D12*
%TO.P,J141,2,Pin_2*%
%TO.N,TABLE20*%
X27991367Y-108903319D03*
%TD*%
D13*
%TO.P,J140,1,Pin_1*%
%TO.N,S2D*%
X249937440Y-106443867D03*
D12*
%TO.P,J140,2,Pin_2*%
%TO.N,TABLE29*%
X249937440Y-108983867D03*
%TD*%
D13*
%TO.P,J139,1,Pin_1*%
%TO.N,S2D*%
X225000000Y-106550143D03*
D12*
%TO.P,J139,2,Pin_2*%
%TO.N,TABLE28*%
X225000000Y-109090143D03*
%TD*%
D13*
%TO.P,J138,1,Pin_1*%
%TO.N,S2D*%
X199974858Y-106289331D03*
D12*
%TO.P,J138,2,Pin_2*%
%TO.N,TABLE27*%
X199974858Y-108829331D03*
%TD*%
D13*
%TO.P,J137,1,Pin_1*%
%TO.N,S2D*%
X174240269Y-106318221D03*
D12*
%TO.P,J137,2,Pin_2*%
%TO.N,TABLE26*%
X174240269Y-108858221D03*
%TD*%
D13*
%TO.P,J136,1,Pin_1*%
%TO.N,S2D*%
X148948552Y-106356413D03*
D12*
%TO.P,J136,2,Pin_2*%
%TO.N,TABLE25*%
X148948552Y-108896413D03*
%TD*%
D13*
%TO.P,J135,1,Pin_1*%
%TO.N,S2D*%
X124000000Y-106390143D03*
D12*
%TO.P,J135,2,Pin_2*%
%TO.N,TABLE24*%
X124000000Y-108930143D03*
%TD*%
D13*
%TO.P,J134,1,Pin_1*%
%TO.N,S2D*%
X99000000Y-106390143D03*
D12*
%TO.P,J134,2,Pin_2*%
%TO.N,TABLE23*%
X99000000Y-108930143D03*
%TD*%
D13*
%TO.P,J133,1,Pin_1*%
%TO.N,S2D*%
X74000000Y-106390143D03*
D12*
%TO.P,J133,2,Pin_2*%
%TO.N,TABLE22*%
X74000000Y-108930143D03*
%TD*%
D13*
%TO.P,J132,1,Pin_1*%
%TO.N,S2D*%
X48916177Y-106400531D03*
D12*
%TO.P,J132,2,Pin_2*%
%TO.N,TABLE21*%
X48916177Y-108940531D03*
%TD*%
D13*
%TO.P,J131,1,Pin_1*%
%TO.N,S2D*%
X24000000Y-106390143D03*
D12*
%TO.P,J131,2,Pin_2*%
%TO.N,TABLE20*%
X24000000Y-108930143D03*
%TD*%
D13*
%TO.P,J130,1,Pin_1*%
%TO.N,S1D*%
X245937440Y-106443867D03*
D12*
%TO.P,J130,2,Pin_2*%
%TO.N,TABLE29*%
X245937440Y-108983867D03*
%TD*%
D13*
%TO.P,J129,1,Pin_1*%
%TO.N,S1D*%
X221000000Y-106550143D03*
D12*
%TO.P,J129,2,Pin_2*%
%TO.N,TABLE28*%
X221000000Y-109090143D03*
%TD*%
D13*
%TO.P,J128,1,Pin_1*%
%TO.N,S1D*%
X195974858Y-106289331D03*
D12*
%TO.P,J128,2,Pin_2*%
%TO.N,TABLE27*%
X195974858Y-108829331D03*
%TD*%
D13*
%TO.P,J127,1,Pin_1*%
%TO.N,S1D*%
X170127868Y-106318221D03*
D12*
%TO.P,J127,2,Pin_2*%
%TO.N,TABLE26*%
X170127868Y-108858221D03*
%TD*%
D13*
%TO.P,J126,1,Pin_1*%
%TO.N,S1D*%
X144948552Y-106356413D03*
D12*
%TO.P,J126,2,Pin_2*%
%TO.N,TABLE25*%
X144948552Y-108896413D03*
%TD*%
D13*
%TO.P,J125,1,Pin_1*%
%TO.N,S1D*%
X120000000Y-106390143D03*
D12*
%TO.P,J125,2,Pin_2*%
%TO.N,TABLE24*%
X120000000Y-108930143D03*
%TD*%
D13*
%TO.P,J124,1,Pin_1*%
%TO.N,S1D*%
X95000000Y-106390143D03*
D12*
%TO.P,J124,2,Pin_2*%
%TO.N,TABLE23*%
X95000000Y-108930143D03*
%TD*%
D13*
%TO.P,J123,1,Pin_1*%
%TO.N,S1D*%
X70000000Y-106400143D03*
D12*
%TO.P,J123,2,Pin_2*%
%TO.N,TABLE22*%
X70000000Y-108940143D03*
%TD*%
D13*
%TO.P,J122,1,Pin_1*%
%TO.N,S1D*%
X45000000Y-106390143D03*
D12*
%TO.P,J122,2,Pin_2*%
%TO.N,TABLE21*%
X45000000Y-108930143D03*
%TD*%
D13*
%TO.P,J121,1,Pin_1*%
%TO.N,S1D*%
X20000000Y-106390143D03*
D12*
%TO.P,J121,2,Pin_2*%
%TO.N,TABLE20*%
X20000000Y-108930143D03*
%TD*%
D13*
%TO.P,J120,1,Pin_1*%
%TO.N,R{slash}L*%
X276000000Y-126015317D03*
D12*
%TO.P,J120,2,Pin_2*%
%TO.N,TABLE19*%
X276000000Y-123475317D03*
%TD*%
D13*
%TO.P,J119,1,Pin_1*%
%TO.N,R{slash}L*%
X251000000Y-126000000D03*
D12*
%TO.P,J119,2,Pin_2*%
%TO.N,TABLE18*%
X251000000Y-123460000D03*
%TD*%
D13*
%TO.P,J118,1,Pin_1*%
%TO.N,R{slash}L*%
X226000000Y-126000000D03*
D12*
%TO.P,J118,2,Pin_2*%
%TO.N,TABLE17*%
X226000000Y-123460000D03*
%TD*%
D13*
%TO.P,J117,1,Pin_1*%
%TO.N,R{slash}L*%
X201000000Y-126000000D03*
D12*
%TO.P,J117,2,Pin_2*%
%TO.N,TABLE16*%
X201000000Y-123460000D03*
%TD*%
D13*
%TO.P,J116,1,Pin_1*%
%TO.N,R{slash}L*%
X177000000Y-126000000D03*
D12*
%TO.P,J116,2,Pin_2*%
%TO.N,TABLE15*%
X177000000Y-123460000D03*
%TD*%
D13*
%TO.P,J115,1,Pin_1*%
%TO.N,R{slash}L*%
X151949439Y-125969462D03*
D12*
%TO.P,J115,2,Pin_2*%
%TO.N,TABLE14*%
X151949439Y-123429462D03*
%TD*%
D13*
%TO.P,J114,1,Pin_1*%
%TO.N,R{slash}L*%
X124609658Y-125964233D03*
D12*
%TO.P,J114,2,Pin_2*%
%TO.N,TABLE13*%
X124609658Y-123424233D03*
%TD*%
D13*
%TO.P,J113,1,Pin_1*%
%TO.N,R{slash}L*%
X97000000Y-126000000D03*
D12*
%TO.P,J113,2,Pin_2*%
%TO.N,TABLE12*%
X97000000Y-123460000D03*
%TD*%
D13*
%TO.P,J112,1,Pin_1*%
%TO.N,R{slash}L*%
X65000000Y-126000000D03*
D12*
%TO.P,J112,2,Pin_2*%
%TO.N,TABLE11*%
X65000000Y-123460000D03*
%TD*%
D13*
%TO.P,J111,1,Pin_1*%
%TO.N,R{slash}L*%
X40000000Y-126000000D03*
D12*
%TO.P,J111,2,Pin_2*%
%TO.N,TABLE10*%
X40000000Y-123460000D03*
%TD*%
D13*
%TO.P,J110,1,Pin_1*%
%TO.N,tNew*%
X272112219Y-126000000D03*
D12*
%TO.P,J110,2,Pin_2*%
%TO.N,TABLE19*%
X272112219Y-123460000D03*
%TD*%
D13*
%TO.P,J109,1,Pin_1*%
%TO.N,tNew*%
X246949477Y-126052973D03*
D12*
%TO.P,J109,2,Pin_2*%
%TO.N,TABLE18*%
X246949477Y-123512973D03*
%TD*%
D13*
%TO.P,J108,1,Pin_1*%
%TO.N,tNew*%
X222077614Y-125941526D03*
D12*
%TO.P,J108,2,Pin_2*%
%TO.N,TABLE17*%
X222077614Y-123401526D03*
%TD*%
D13*
%TO.P,J107,1,Pin_1*%
%TO.N,tNew*%
X197083075Y-126230407D03*
D12*
%TO.P,J107,2,Pin_2*%
%TO.N,TABLE16*%
X197083075Y-123690407D03*
%TD*%
D13*
%TO.P,J106,1,Pin_1*%
%TO.N,tNew*%
X173000000Y-126000000D03*
D12*
%TO.P,J106,2,Pin_2*%
%TO.N,TABLE15*%
X173000000Y-123460000D03*
%TD*%
D13*
%TO.P,J105,1,Pin_1*%
%TO.N,tNew*%
X148000000Y-126000000D03*
D12*
%TO.P,J105,2,Pin_2*%
%TO.N,TABLE14*%
X148000000Y-123460000D03*
%TD*%
D13*
%TO.P,J104,1,Pin_1*%
%TO.N,tNew*%
X120725385Y-126050550D03*
D12*
%TO.P,J104,2,Pin_2*%
%TO.N,TABLE13*%
X120725385Y-123510550D03*
%TD*%
D13*
%TO.P,J103,1,Pin_1*%
%TO.N,tNew*%
X93000000Y-126000000D03*
D12*
%TO.P,J103,2,Pin_2*%
%TO.N,TABLE12*%
X93000000Y-123460000D03*
%TD*%
D13*
%TO.P,J102,1,Pin_1*%
%TO.N,tNew*%
X61000000Y-126000000D03*
D12*
%TO.P,J102,2,Pin_2*%
%TO.N,TABLE11*%
X61000000Y-123460000D03*
%TD*%
D13*
%TO.P,J101,1,Pin_1*%
%TO.N,tNew*%
X36000000Y-126000000D03*
D12*
%TO.P,J101,2,Pin_2*%
%TO.N,TABLE10*%
X36000000Y-123460000D03*
%TD*%
D13*
%TO.P,J100,1,Pin_1*%
%TO.N,S4D*%
X268112219Y-126000000D03*
D12*
%TO.P,J100,2,Pin_2*%
%TO.N,TABLE19*%
X268112219Y-123460000D03*
%TD*%
D13*
%TO.P,J99,1,Pin_1*%
%TO.N,S4D*%
X243024542Y-126006257D03*
D12*
%TO.P,J99,2,Pin_2*%
%TO.N,TABLE18*%
X243024542Y-123466257D03*
%TD*%
D13*
%TO.P,J98,1,Pin_1*%
%TO.N,S4D*%
X218077614Y-125941526D03*
D12*
%TO.P,J98,2,Pin_2*%
%TO.N,TABLE17*%
X218077614Y-123401526D03*
%TD*%
D13*
%TO.P,J97,1,Pin_1*%
%TO.N,S4D*%
X193242952Y-126268809D03*
D12*
%TO.P,J97,2,Pin_2*%
%TO.N,TABLE16*%
X193242952Y-123728809D03*
%TD*%
D13*
%TO.P,J96,1,Pin_1*%
%TO.N,R{slash}L*%
X276000000Y-144460000D03*
D12*
%TO.P,J96,2,Pin_2*%
%TO.N,TABLE9*%
X276000000Y-147000000D03*
%TD*%
D13*
%TO.P,J95,1,Pin_1*%
%TO.N,R{slash}L*%
X251000000Y-144460000D03*
D12*
%TO.P,J95,2,Pin_2*%
%TO.N,TABLE8*%
X251000000Y-147000000D03*
%TD*%
D13*
%TO.P,J94,1,Pin_1*%
%TO.N,R{slash}L*%
X226000000Y-144460000D03*
D12*
%TO.P,J94,2,Pin_2*%
%TO.N,TABLE7*%
X226000000Y-147000000D03*
%TD*%
D13*
%TO.P,J93,1,Pin_1*%
%TO.N,R{slash}L*%
X176000000Y-144460000D03*
D12*
%TO.P,J93,2,Pin_2*%
%TO.N,TABLE6*%
X176000000Y-147000000D03*
%TD*%
D13*
%TO.P,J92,1,Pin_1*%
%TO.N,R{slash}L*%
X201000000Y-144460000D03*
D12*
%TO.P,J92,2,Pin_2*%
%TO.N,TABLE5*%
X201000000Y-147000000D03*
%TD*%
D13*
%TO.P,J91,1,Pin_1*%
%TO.N,R{slash}L*%
X151000000Y-144460000D03*
D12*
%TO.P,J91,2,Pin_2*%
%TO.N,TABLE4*%
X151000000Y-147000000D03*
%TD*%
D13*
%TO.P,J90,1,Pin_1*%
%TO.N,tNew*%
X272000000Y-144460000D03*
D12*
%TO.P,J90,2,Pin_2*%
%TO.N,TABLE9*%
X272000000Y-147000000D03*
%TD*%
D13*
%TO.P,J88,1,Pin_1*%
%TO.N,tNew*%
X222000000Y-144460000D03*
D12*
%TO.P,J88,2,Pin_2*%
%TO.N,TABLE7*%
X222000000Y-147000000D03*
%TD*%
D13*
%TO.P,J87,1,Pin_1*%
%TO.N,tNew*%
X172000000Y-144460000D03*
D12*
%TO.P,J87,2,Pin_2*%
%TO.N,TABLE6*%
X172000000Y-147000000D03*
%TD*%
D13*
%TO.P,J86,1,Pin_1*%
%TO.N,tNew*%
X197000000Y-144460000D03*
D12*
%TO.P,J86,2,Pin_2*%
%TO.N,TABLE5*%
X197000000Y-147000000D03*
%TD*%
D13*
%TO.P,J85,1,Pin_1*%
%TO.N,tNew*%
X147000000Y-144460000D03*
D12*
%TO.P,J85,2,Pin_2*%
%TO.N,TABLE4*%
X147000000Y-147000000D03*
%TD*%
D13*
%TO.P,J84,1,Pin_1*%
%TO.N,S4D*%
X268000000Y-144460000D03*
D12*
%TO.P,J84,2,Pin_2*%
%TO.N,TABLE9*%
X268000000Y-147000000D03*
%TD*%
D13*
%TO.P,J82,1,Pin_1*%
%TO.N,S4D*%
X218000000Y-144460000D03*
D12*
%TO.P,J82,2,Pin_2*%
%TO.N,TABLE7*%
X218000000Y-147000000D03*
%TD*%
D13*
%TO.P,J81,1,Pin_1*%
%TO.N,S4D*%
X168000000Y-144460000D03*
D12*
%TO.P,J81,2,Pin_2*%
%TO.N,TABLE6*%
X168000000Y-147000000D03*
%TD*%
D13*
%TO.P,J80,1,Pin_1*%
%TO.N,S4D*%
X193000000Y-144460000D03*
D12*
%TO.P,J80,2,Pin_2*%
%TO.N,TABLE5*%
X193000000Y-147000000D03*
%TD*%
D13*
%TO.P,J79,1,Pin_1*%
%TO.N,S4D*%
X143000000Y-144460000D03*
D12*
%TO.P,J79,2,Pin_2*%
%TO.N,TABLE4*%
X143000000Y-147000000D03*
%TD*%
D13*
%TO.P,J77,1,Pin_1*%
%TO.N,S3D*%
X239000000Y-144460000D03*
D12*
%TO.P,J77,2,Pin_2*%
%TO.N,TABLE8*%
X239000000Y-147000000D03*
%TD*%
D13*
%TO.P,J76,1,Pin_1*%
%TO.N,S3D*%
X214000000Y-144460000D03*
D12*
%TO.P,J76,2,Pin_2*%
%TO.N,TABLE7*%
X214000000Y-147000000D03*
%TD*%
D13*
%TO.P,J75,1,Pin_1*%
%TO.N,S3D*%
X164000000Y-144460000D03*
D12*
%TO.P,J75,2,Pin_2*%
%TO.N,TABLE6*%
X164000000Y-147000000D03*
%TD*%
D13*
%TO.P,J74,1,Pin_1*%
%TO.N,S3D*%
X189000000Y-144460000D03*
D12*
%TO.P,J74,2,Pin_2*%
%TO.N,TABLE5*%
X189000000Y-147000000D03*
%TD*%
D13*
%TO.P,J73,1,Pin_1*%
%TO.N,S3D*%
X139000000Y-144460000D03*
D12*
%TO.P,J73,2,Pin_2*%
%TO.N,TABLE4*%
X139000000Y-147000000D03*
%TD*%
D13*
%TO.P,J72,1,Pin_1*%
%TO.N,S2D*%
X260000000Y-144460000D03*
D12*
%TO.P,J72,2,Pin_2*%
%TO.N,TABLE9*%
X260000000Y-147000000D03*
%TD*%
D13*
%TO.P,J71,1,Pin_1*%
%TO.N,S2D*%
X235000000Y-144460000D03*
D12*
%TO.P,J71,2,Pin_2*%
%TO.N,TABLE8*%
X235000000Y-147000000D03*
%TD*%
D13*
%TO.P,J69,1,Pin_1*%
%TO.N,S2D*%
X160000000Y-144460000D03*
D12*
%TO.P,J69,2,Pin_2*%
%TO.N,TABLE6*%
X160000000Y-147000000D03*
%TD*%
D13*
%TO.P,J67,1,Pin_1*%
%TO.N,S2D*%
X135000000Y-144460000D03*
D12*
%TO.P,J67,2,Pin_2*%
%TO.N,TABLE4*%
X135000000Y-147000000D03*
%TD*%
D13*
%TO.P,J66,1,Pin_1*%
%TO.N,S1D*%
X256000000Y-144460000D03*
D12*
%TO.P,J66,2,Pin_2*%
%TO.N,TABLE9*%
X256000000Y-147000000D03*
%TD*%
D13*
%TO.P,J65,1,Pin_1*%
%TO.N,S1D*%
X231000000Y-144460000D03*
D12*
%TO.P,J65,2,Pin_2*%
%TO.N,TABLE8*%
X231000000Y-147000000D03*
%TD*%
D13*
%TO.P,J64,1,Pin_1*%
%TO.N,S1D*%
X205600000Y-144460000D03*
D12*
%TO.P,J64,2,Pin_2*%
%TO.N,TABLE7*%
X205600000Y-147000000D03*
%TD*%
D13*
%TO.P,J63,1,Pin_1*%
%TO.N,S1D*%
X156000000Y-144460000D03*
D12*
%TO.P,J63,2,Pin_2*%
%TO.N,TABLE6*%
X156000000Y-147000000D03*
%TD*%
D13*
%TO.P,J61,1,Pin_1*%
%TO.N,S1D*%
X131000000Y-144460000D03*
D12*
%TO.P,J61,2,Pin_2*%
%TO.N,TABLE4*%
X131000000Y-147000000D03*
%TD*%
D13*
%TO.P,J60,1,Pin_1*%
%TO.N,S4D*%
X169000000Y-126000000D03*
D12*
%TO.P,J60,2,Pin_2*%
%TO.N,TABLE15*%
X169000000Y-123460000D03*
%TD*%
D13*
%TO.P,J59,1,Pin_1*%
%TO.N,S4D*%
X144000000Y-126000000D03*
D12*
%TO.P,J59,2,Pin_2*%
%TO.N,TABLE14*%
X144000000Y-123460000D03*
%TD*%
D13*
%TO.P,J58,1,Pin_1*%
%TO.N,S4D*%
X116841113Y-126007391D03*
D12*
%TO.P,J58,2,Pin_2*%
%TO.N,TABLE13*%
X116841113Y-123467391D03*
%TD*%
D13*
%TO.P,J57,1,Pin_1*%
%TO.N,S4D*%
X89000000Y-126038931D03*
D12*
%TO.P,J57,2,Pin_2*%
%TO.N,TABLE12*%
X89000000Y-123498931D03*
%TD*%
D13*
%TO.P,J56,1,Pin_1*%
%TO.N,S4D*%
X57000000Y-126000000D03*
D12*
%TO.P,J56,2,Pin_2*%
%TO.N,TABLE11*%
X57000000Y-123460000D03*
%TD*%
D13*
%TO.P,J55,1,Pin_1*%
%TO.N,S4D*%
X32000000Y-126000000D03*
D12*
%TO.P,J55,2,Pin_2*%
%TO.N,TABLE10*%
X32000000Y-123460000D03*
%TD*%
D13*
%TO.P,J54,1,Pin_1*%
%TO.N,S3D*%
X264136133Y-125959131D03*
D12*
%TO.P,J54,2,Pin_2*%
%TO.N,TABLE19*%
X264136133Y-123419131D03*
%TD*%
D13*
%TO.P,J53,1,Pin_1*%
%TO.N,S3D*%
X239024542Y-126006257D03*
D12*
%TO.P,J53,2,Pin_2*%
%TO.N,TABLE18*%
X239024542Y-123466257D03*
%TD*%
D13*
%TO.P,J52,1,Pin_1*%
%TO.N,S3D*%
X214077614Y-125941526D03*
D12*
%TO.P,J52,2,Pin_2*%
%TO.N,TABLE17*%
X214077614Y-123401526D03*
%TD*%
D13*
%TO.P,J51,1,Pin_1*%
%TO.N,S3D*%
X189365997Y-126298555D03*
D12*
%TO.P,J51,2,Pin_2*%
%TO.N,TABLE16*%
X189365997Y-123758555D03*
%TD*%
D13*
%TO.P,J50,1,Pin_1*%
%TO.N,S3D*%
X165000000Y-126000000D03*
D12*
%TO.P,J50,2,Pin_2*%
%TO.N,TABLE15*%
X165000000Y-123460000D03*
%TD*%
D13*
%TO.P,J49,1,Pin_1*%
%TO.N,S3D*%
X140000000Y-126000000D03*
D12*
%TO.P,J49,2,Pin_2*%
%TO.N,TABLE14*%
X140000000Y-123460000D03*
%TD*%
D13*
%TO.P,J48,1,Pin_1*%
%TO.N,S3D*%
X113000000Y-126000000D03*
D12*
%TO.P,J48,2,Pin_2*%
%TO.N,TABLE13*%
X113000000Y-123460000D03*
%TD*%
D13*
%TO.P,J47,1,Pin_1*%
%TO.N,S3D*%
X85000000Y-126000000D03*
D12*
%TO.P,J47,2,Pin_2*%
%TO.N,TABLE12*%
X85000000Y-123460000D03*
%TD*%
D13*
%TO.P,J45,1,Pin_1*%
%TO.N,S3D*%
X28000000Y-126000000D03*
D12*
%TO.P,J45,2,Pin_2*%
%TO.N,TABLE10*%
X28000000Y-123460000D03*
%TD*%
D13*
%TO.P,J44,1,Pin_1*%
%TO.N,S2D*%
X260205917Y-125959131D03*
D12*
%TO.P,J44,2,Pin_2*%
%TO.N,TABLE19*%
X260205917Y-123419131D03*
%TD*%
D13*
%TO.P,J43,1,Pin_1*%
%TO.N,S2D*%
X235024542Y-126006257D03*
D12*
%TO.P,J43,2,Pin_2*%
%TO.N,TABLE18*%
X235024542Y-123466257D03*
%TD*%
D13*
%TO.P,J42,1,Pin_1*%
%TO.N,S2D*%
X210077614Y-125941526D03*
D12*
%TO.P,J42,2,Pin_2*%
%TO.N,TABLE17*%
X210077614Y-123401526D03*
%TD*%
D13*
%TO.P,J41,1,Pin_1*%
%TO.N,S2D*%
X185365997Y-126298555D03*
D12*
%TO.P,J41,2,Pin_2*%
%TO.N,TABLE16*%
X185365997Y-123758555D03*
%TD*%
D13*
%TO.P,J40,1,Pin_1*%
%TO.N,S2D*%
X161000000Y-126000000D03*
D12*
%TO.P,J40,2,Pin_2*%
%TO.N,TABLE15*%
X161000000Y-123460000D03*
%TD*%
D13*
%TO.P,J39,1,Pin_1*%
%TO.N,S2D*%
X136000000Y-126000000D03*
D12*
%TO.P,J39,2,Pin_2*%
%TO.N,TABLE14*%
X136000000Y-123460000D03*
%TD*%
D13*
%TO.P,J37,1,Pin_1*%
%TO.N,S2D*%
X81000000Y-126000000D03*
D12*
%TO.P,J37,2,Pin_2*%
%TO.N,TABLE12*%
X81000000Y-123460000D03*
%TD*%
D13*
%TO.P,J36,1,Pin_1*%
%TO.N,S2D*%
X49000000Y-126000000D03*
D12*
%TO.P,J36,2,Pin_2*%
%TO.N,TABLE11*%
X49000000Y-123460000D03*
%TD*%
D13*
%TO.P,J35,1,Pin_1*%
%TO.N,S2D*%
X24000000Y-126000000D03*
D12*
%TO.P,J35,2,Pin_2*%
%TO.N,TABLE10*%
X24000000Y-123460000D03*
%TD*%
D13*
%TO.P,J34,1,Pin_1*%
%TO.N,S1D*%
X256275702Y-125959131D03*
D12*
%TO.P,J34,2,Pin_2*%
%TO.N,TABLE19*%
X256275702Y-123419131D03*
%TD*%
D13*
%TO.P,J33,1,Pin_1*%
%TO.N,S1D*%
X231024542Y-126006257D03*
D12*
%TO.P,J33,2,Pin_2*%
%TO.N,TABLE18*%
X231024542Y-123466257D03*
%TD*%
D13*
%TO.P,J32,1,Pin_1*%
%TO.N,S1D*%
X206077614Y-125941526D03*
D12*
%TO.P,J32,2,Pin_2*%
%TO.N,TABLE17*%
X206077614Y-123401526D03*
%TD*%
D13*
%TO.P,J31,1,Pin_1*%
%TO.N,S1D*%
X181365997Y-126298555D03*
D12*
%TO.P,J31,2,Pin_2*%
%TO.N,TABLE16*%
X181365997Y-123758555D03*
%TD*%
D13*
%TO.P,J30,1,Pin_1*%
%TO.N,S1D*%
X157000000Y-126000000D03*
D12*
%TO.P,J30,2,Pin_2*%
%TO.N,TABLE15*%
X157000000Y-123460000D03*
%TD*%
D13*
%TO.P,J29,1,Pin_1*%
%TO.N,S1D*%
X132000000Y-126000000D03*
D12*
%TO.P,J29,2,Pin_2*%
%TO.N,TABLE14*%
X132000000Y-123460000D03*
%TD*%
D13*
%TO.P,J28,1,Pin_1*%
%TO.N,S1D*%
X105000000Y-126000000D03*
D12*
%TO.P,J28,2,Pin_2*%
%TO.N,TABLE13*%
X105000000Y-123460000D03*
%TD*%
D13*
%TO.P,J27,1,Pin_1*%
%TO.N,S1D*%
X77000000Y-126000000D03*
D12*
%TO.P,J27,2,Pin_2*%
%TO.N,TABLE12*%
X77000000Y-123460000D03*
%TD*%
D13*
%TO.P,J26,1,Pin_1*%
%TO.N,S1D*%
X45000000Y-126000000D03*
D12*
%TO.P,J26,2,Pin_2*%
%TO.N,TABLE11*%
X45000000Y-123460000D03*
%TD*%
D13*
%TO.P,J25,1,Pin_1*%
%TO.N,S1D*%
X20000000Y-126000000D03*
D12*
%TO.P,J25,2,Pin_2*%
%TO.N,TABLE10*%
X20000000Y-123460000D03*
%TD*%
D13*
%TO.P,J24,1,Pin_1*%
%TO.N,R{slash}L*%
X126000000Y-144460000D03*
D12*
%TO.P,J24,2,Pin_2*%
%TO.N,TABLE3*%
X126000000Y-147000000D03*
%TD*%
D13*
%TO.P,J23,1,Pin_1*%
%TO.N,tNew*%
X121400000Y-144460000D03*
D12*
%TO.P,J23,2,Pin_2*%
%TO.N,TABLE3*%
X121400000Y-147000000D03*
%TD*%
D13*
%TO.P,J22,1,Pin_1*%
%TO.N,S4D*%
X116800000Y-144460000D03*
D12*
%TO.P,J22,2,Pin_2*%
%TO.N,TABLE3*%
X116800000Y-147000000D03*
%TD*%
D13*
%TO.P,J21,1,Pin_1*%
%TO.N,S3D*%
X112200000Y-144460000D03*
D12*
%TO.P,J21,2,Pin_2*%
%TO.N,TABLE3*%
X112200000Y-147000000D03*
%TD*%
D13*
%TO.P,J20,1,Pin_1*%
%TO.N,S2D*%
X107600000Y-144460000D03*
D12*
%TO.P,J20,2,Pin_2*%
%TO.N,TABLE3*%
X107600000Y-147000000D03*
%TD*%
D13*
%TO.P,J18,1,Pin_1*%
%TO.N,R{slash}L*%
X98600000Y-144460000D03*
D12*
%TO.P,J18,2,Pin_2*%
%TO.N,TABLE2*%
X98600000Y-147000000D03*
%TD*%
D13*
%TO.P,J17,1,Pin_1*%
%TO.N,tNew*%
X94000000Y-144460000D03*
D12*
%TO.P,J17,2,Pin_2*%
%TO.N,TABLE2*%
X94000000Y-147000000D03*
%TD*%
D13*
%TO.P,J16,1,Pin_1*%
%TO.N,S4D*%
X89400000Y-144460000D03*
D12*
%TO.P,J16,2,Pin_2*%
%TO.N,TABLE2*%
X89400000Y-147000000D03*
%TD*%
D13*
%TO.P,J15,1,Pin_1*%
%TO.N,S3D*%
X84800000Y-144460000D03*
D12*
%TO.P,J15,2,Pin_2*%
%TO.N,TABLE2*%
X84800000Y-147000000D03*
%TD*%
D13*
%TO.P,J14,1,Pin_1*%
%TO.N,S2D*%
X80200000Y-144460000D03*
D12*
%TO.P,J14,2,Pin_2*%
%TO.N,TABLE2*%
X80200000Y-147000000D03*
%TD*%
D13*
%TO.P,J13,1,Pin_1*%
%TO.N,S1D*%
X75600000Y-144460000D03*
D12*
%TO.P,J13,2,Pin_2*%
%TO.N,TABLE2*%
X75600000Y-147000000D03*
%TD*%
D13*
%TO.P,J12,1,Pin_1*%
%TO.N,R{slash}L*%
X41200000Y-145000000D03*
D12*
%TO.P,J12,2,Pin_2*%
%TO.N,TABLE1*%
X41200000Y-147540000D03*
%TD*%
D13*
%TO.P,J11,1,Pin_1*%
%TO.N,tNew*%
X36600000Y-145000000D03*
D12*
%TO.P,J11,2,Pin_2*%
%TO.N,TABLE1*%
X36600000Y-147540000D03*
%TD*%
D13*
%TO.P,J10,1,Pin_1*%
%TO.N,S4D*%
X32000000Y-145000000D03*
D12*
%TO.P,J10,2,Pin_2*%
%TO.N,TABLE1*%
X32000000Y-147540000D03*
%TD*%
D13*
%TO.P,J9,1,Pin_1*%
%TO.N,S3D*%
X27400000Y-145000000D03*
D12*
%TO.P,J9,2,Pin_2*%
%TO.N,TABLE1*%
X27400000Y-147540000D03*
%TD*%
D13*
%TO.P,J7,1,Pin_1*%
%TO.N,S1D*%
X18200000Y-145000000D03*
D12*
%TO.P,J7,2,Pin_2*%
%TO.N,TABLE1*%
X18200000Y-147540000D03*
%TD*%
D13*
%TO.P,J5,1,Pin_1*%
%TO.N,tNew*%
X65800000Y-144460000D03*
D12*
%TO.P,J5,2,Pin_2*%
%TO.N,TABLE0*%
X65800000Y-147000000D03*
%TD*%
D13*
%TO.P,J4,1,Pin_1*%
%TO.N,S4D*%
X61200000Y-144460000D03*
D12*
%TO.P,J4,2,Pin_2*%
%TO.N,TABLE0*%
X61200000Y-147000000D03*
%TD*%
D13*
%TO.P,J3,1,Pin_1*%
%TO.N,S3D*%
X56600000Y-144460000D03*
D12*
%TO.P,J3,2,Pin_2*%
%TO.N,TABLE0*%
X56600000Y-147000000D03*
%TD*%
D13*
%TO.P,J2,1,Pin_1*%
%TO.N,S2D*%
X52000000Y-144460000D03*
D12*
%TO.P,J2,2,Pin_2*%
%TO.N,TABLE0*%
X52000000Y-147000000D03*
%TD*%
D13*
%TO.P,J1,1,Pin_1*%
%TO.N,S1D*%
X47400000Y-144460000D03*
D12*
%TO.P,J1,2,Pin_2*%
%TO.N,TABLE0*%
X47400000Y-147000000D03*
%TD*%
D21*
%TO.P,F1,1*%
%TO.N,Net-(D1-A)*%
X176862500Y-20000000D03*
%TO.P,F1,2*%
%TO.N,Net-(F1-Pad2)*%
X181137500Y-20000000D03*
%TD*%
D22*
%TO.P,D1,1,K*%
%TO.N,VCC*%
X127840000Y-19000000D03*
D23*
%TO.P,D1,2,A*%
%TO.N,Net-(D1-A)*%
X138000000Y-19000000D03*
%TD*%
D13*
%TO.P,J46,1,Pin_1*%
%TO.N,S3D*%
X53000000Y-126000000D03*
D12*
%TO.P,J46,2,Pin_2*%
%TO.N,TABLE11*%
X53000000Y-123460000D03*
%TD*%
D13*
%TO.P,J38,1,Pin_1*%
%TO.N,S2D*%
X109000000Y-126000000D03*
D12*
%TO.P,J38,2,Pin_2*%
%TO.N,TABLE13*%
X109000000Y-123460000D03*
%TD*%
D24*
%TO.P,U11,1,A0*%
%TO.N,MUXZ*%
X81950000Y-76000000D03*
%TO.P,U11,2,A1*%
%TO.N,S1Q*%
X81950000Y-74730000D03*
%TO.P,U11,3,A2*%
%TO.N,S2Q*%
X81950000Y-73460000D03*
%TO.P,U11,4,~{E0}*%
%TO.N,VCC*%
X81950000Y-72190000D03*
%TO.P,U11,5,~{E1}*%
%TO.N,NS3Q*%
X81950000Y-70920000D03*
%TO.P,U11,6,E2*%
%TO.N,NS4Q*%
X81950000Y-69650000D03*
%TO.P,U11,7,~{Y7}*%
%TO.N,TABLE31*%
X81950000Y-68380000D03*
%TO.P,U11,8,GND*%
%TO.N,unconnected-(U11-GND-Pad8)*%
X81950000Y-67110000D03*
%TO.P,U11,9,~{Y6}*%
%TO.N,TABLE30*%
X77000000Y-67110000D03*
%TO.P,U11,10,~{Y5}*%
%TO.N,TABLE29*%
X77000000Y-68380000D03*
%TO.P,U11,11,~{Y4}*%
%TO.N,TABLE28*%
X77000000Y-69650000D03*
%TO.P,U11,12,~{Y3}*%
%TO.N,TABLE27*%
X77000000Y-70920000D03*
%TO.P,U11,13,~{Y2}*%
%TO.N,TABLE26*%
X77000000Y-72190000D03*
%TO.P,U11,14,~{Y1}*%
%TO.N,TABLE25*%
X77000000Y-73460000D03*
%TO.P,U11,15,~{Y0}*%
%TO.N,TABLE24*%
X77000000Y-74730000D03*
%TO.P,U11,16,VCC*%
%TO.N,VCC*%
X77000000Y-76000000D03*
%TD*%
D11*
%TO.P,U30,1*%
%TO.N,Y3*%
X158587500Y-31050000D03*
%TO.P,U30,2*%
%TO.N,tNew*%
X158587500Y-32000000D03*
%TO.P,U30,3,GND*%
%TO.N,GND*%
X158587500Y-32950000D03*
%TO.P,U30,4*%
%TO.N,Net-(U30-Pad4)*%
X160862500Y-32950000D03*
%TO.P,U30,5,VCC*%
%TO.N,VCC*%
X160862500Y-31050000D03*
%TD*%
D25*
%TO.N,VCC*%
X195000000Y-72000000D03*
X189000000Y-72000000D03*
X179000000Y-61000000D03*
X176000000Y-43000000D03*
X124000000Y-31000000D03*
%TO.N,GND*%
X126000000Y-34000000D03*
%TO.N,VCC*%
X137000000Y-31000000D03*
X131000000Y-31000000D03*
%TO.N,CLK2*%
X152000000Y-52000000D03*
X164000000Y-54000000D03*
X170000000Y-51000000D03*
X170000000Y-53000000D03*
X157000000Y-52000000D03*
%TO.N,GND*%
X170000000Y-69000000D03*
X176000000Y-63951000D03*
X170000000Y-64000000D03*
X152000000Y-34000000D03*
X163000000Y-34000000D03*
X158000000Y-34000000D03*
%TO.N,VCC*%
X167000000Y-31000000D03*
X162000000Y-32000000D03*
%TO.N,tNew*%
X139000000Y-26000000D03*
X138950000Y-30050000D03*
%TO.N,GND*%
X148000000Y-19000000D03*
X150000000Y-20000000D03*
X172000000Y-17000000D03*
X172000000Y-45000000D03*
%TO.N,VCC*%
X206000000Y-65000000D03*
%TO.N,Net-(U29-Pad4)*%
X185000000Y-71000000D03*
X182000000Y-71000000D03*
X174201000Y-60000000D03*
X206000000Y-69000000D03*
X170000000Y-57000000D03*
X163000000Y-40000000D03*
X170000000Y-54000000D03*
X167261747Y-53825000D03*
%TO.N,GND*%
X145000000Y-33000000D03*
%TO.N,VCC*%
X126000000Y-18000000D03*
X113000000Y-31000000D03*
%TO.N,GND*%
X189000000Y-37000000D03*
X191000000Y-36000000D03*
X184000000Y-74000000D03*
X190000000Y-75000000D03*
X202000000Y-69000000D03*
%TO.N,Net-(U27-Pad4)*%
X187000000Y-50000000D03*
X197862500Y-56000000D03*
%TO.N,GND*%
X182000000Y-43000000D03*
%TO.N,Net-(U25-Pad4)*%
X160000000Y-41000000D03*
X162000000Y-45000000D03*
X155137500Y-38950000D03*
X162000000Y-41000000D03*
X172000000Y-41000000D03*
X171000000Y-45000000D03*
X181000000Y-43000000D03*
X179000000Y-42000000D03*
%TO.N,T3Q*%
X182000000Y-52000000D03*
X181000000Y-47000000D03*
X183000000Y-59000000D03*
%TO.N,VCC*%
X187000000Y-39000000D03*
%TO.N,Net-(U41-Pad4)*%
X177137500Y-38950000D03*
X131000000Y-72000000D03*
X139000000Y-77000000D03*
X122000000Y-64000000D03*
X118000000Y-64000000D03*
X117000000Y-56000000D03*
%TO.N,GND*%
X111000000Y-56000000D03*
%TO.N,VCC*%
X117000000Y-42000000D03*
%TO.N,GND*%
X63000000Y-24000000D03*
X138000000Y-42000000D03*
X134000000Y-40000000D03*
X121000000Y-35000000D03*
X132000000Y-34000000D03*
%TO.N,VCC*%
X144000000Y-32000000D03*
X151000000Y-32000000D03*
X156000000Y-32000000D03*
%TO.N,Net-(U42-Pad4)*%
X179000000Y-31000000D03*
X162000000Y-29000000D03*
%TO.N,GND*%
X174000000Y-34000000D03*
%TO.N,VCC*%
X178000000Y-32000000D03*
X173000000Y-32000000D03*
%TO.N,GND*%
X168000000Y-32000000D03*
%TO.N,Net-(U38-Pad4)*%
X170000000Y-34000000D03*
X175000000Y-48600000D03*
X170000000Y-36000000D03*
X175000000Y-47000000D03*
X170000000Y-47000000D03*
X172000000Y-33000000D03*
%TO.N,VCC*%
X170000000Y-66000000D03*
X172000000Y-61000000D03*
X167000000Y-61000000D03*
X154000000Y-58000000D03*
%TO.N,CLK2*%
X156000000Y-58000000D03*
X126000000Y-48000000D03*
X116950000Y-47460000D03*
X118009309Y-52029379D03*
%TO.N,VCC*%
X130000000Y-70000000D03*
X128000000Y-67000000D03*
X84000000Y-70000000D03*
X77000000Y-77000000D03*
X99084885Y-66656476D03*
X105000000Y-43000000D03*
X95000000Y-48000000D03*
%TO.N,GND*%
X126600000Y-51162020D03*
X135000000Y-47000000D03*
%TO.N,MUXZ*%
X119000000Y-65000000D03*
X119000000Y-56000000D03*
X121000000Y-54000000D03*
X122000000Y-56000000D03*
X126000000Y-54000000D03*
X130000000Y-55000000D03*
%TO.N,GND*%
X140000000Y-44000000D03*
%TO.N,VCC*%
X141000000Y-44000000D03*
X137000000Y-36000000D03*
X132000000Y-45000000D03*
%TO.N,T4Q*%
X174201000Y-58024528D03*
X172000000Y-58070000D03*
X131000000Y-43000000D03*
X197000000Y-67270000D03*
%TO.N,T3Q*%
X174201000Y-59000000D03*
X132000000Y-44000000D03*
X172000000Y-59000000D03*
X192050000Y-66000000D03*
%TO.N,T1Q*%
X126000000Y-50000000D03*
X128050000Y-49460000D03*
X124000000Y-52000000D03*
X120000000Y-56000000D03*
X123000000Y-64000000D03*
X123000000Y-54000000D03*
X175000000Y-71000000D03*
X175000000Y-69000000D03*
X151000000Y-72000000D03*
X139000000Y-65000000D03*
%TO.N,T2Q*%
X185000000Y-70000000D03*
X125000000Y-56000000D03*
X172000000Y-70000000D03*
X188550000Y-67270000D03*
%TO.N,T2D*%
X112000000Y-35000000D03*
X188550000Y-63460000D03*
%TO.N,GND*%
X110000000Y-35000000D03*
X115000000Y-35000000D03*
%TO.N,VCC*%
X119000000Y-33000000D03*
%TO.N,Net-(U43-Pad4)*%
X119000000Y-54000000D03*
X119000000Y-45000000D03*
%TO.N,VCC*%
X115000000Y-54000000D03*
X206000000Y-62000000D03*
%TO.N,GND*%
X203000000Y-65000000D03*
X196000000Y-58000000D03*
%TO.N,VCC*%
X201000000Y-56000000D03*
X191000000Y-46000000D03*
X194000000Y-49000000D03*
X193000000Y-52000000D03*
X190000000Y-60000000D03*
X179000000Y-51000000D03*
X159000000Y-55000000D03*
X159000000Y-52000000D03*
X167000000Y-48000000D03*
%TO.N,GND*%
X139000000Y-35000000D03*
%TO.N,Net-(U17-Pad4)*%
X142000000Y-35000000D03*
X144600000Y-68000000D03*
%TO.N,Net-(U19-Pad4)*%
X142000000Y-48000000D03*
X145000000Y-67000000D03*
X143000000Y-59000000D03*
X142000000Y-39000000D03*
%TO.N,Net-(U21-Pad4)*%
X150000000Y-29000000D03*
X149137500Y-38950000D03*
%TO.N,T2Q*%
X124000000Y-45000000D03*
X123000000Y-43000000D03*
%TO.N,GND*%
X160000000Y-59000000D03*
X150000000Y-69400000D03*
%TO.N,T6Q*%
X137000000Y-55000000D03*
X133000000Y-48190000D03*
%TO.N,T7Q*%
X126000000Y-53000000D03*
X133000000Y-49460000D03*
%TO.N,T5D*%
X167000000Y-60000000D03*
X172000000Y-64000000D03*
%TO.N,Net-(U26-Pad4)*%
X162000000Y-46000000D03*
X181000000Y-49000000D03*
X157000000Y-42000000D03*
X178000000Y-46000000D03*
%TO.N,Net-(U30-Pad4)*%
X162000000Y-33000000D03*
X202000000Y-64000000D03*
%TO.N,T4D*%
X200000000Y-65000000D03*
X205275000Y-67900000D03*
%TO.N,Net-(U37-Pad4)*%
X171000000Y-41000000D03*
X172000000Y-38900000D03*
%TO.N,T6Q*%
X168000000Y-69000000D03*
X171725000Y-42100000D03*
%TO.N,T6D*%
X173000000Y-65000000D03*
X165950000Y-64190000D03*
%TO.N,Net-(U39-Pad4)*%
X180000000Y-49000000D03*
X174000000Y-44000000D03*
%TO.N,Net-(U33-Pad4)*%
X168000000Y-56000000D03*
X166137500Y-38950000D03*
%TO.N,Net-(U34-Pad4)*%
X169000000Y-56000000D03*
X166137500Y-33000000D03*
%TO.N,Net-(U16A-C)*%
X189725000Y-52725000D03*
X186000000Y-51000000D03*
%TO.N,Net-(U4-QB)*%
X135997500Y-48997500D03*
X147600000Y-57000000D03*
%TO.N,Net-(U4-QA)*%
X151000000Y-58000000D03*
X134999000Y-52000000D03*
%TO.N,R{slash}L*%
X161000000Y-45000000D03*
X161000000Y-27000000D03*
%TO.N,Y7*%
X136000000Y-46000000D03*
X139050000Y-53270000D03*
%TO.N,Net-(U22-Pad4)*%
X149000000Y-34000000D03*
X109725000Y-32100000D03*
%TO.N,Net-(U23-Pad4)*%
X123000000Y-33900000D03*
X114000000Y-36000000D03*
%TO.N,T8D*%
X124000000Y-43000000D03*
X135000000Y-33000000D03*
%TO.N,Y7*%
X131000000Y-38000000D03*
X127725000Y-38050000D03*
%TO.N,S2D*%
X107000000Y-28000000D03*
X107000000Y-23000000D03*
%TO.N,S2Q*%
X102000000Y-55000000D03*
X93000000Y-68650000D03*
%TO.N,S1Q*%
X101000000Y-56000000D03*
%TO.N,S1D*%
X97000000Y-28000000D03*
X97000000Y-22000000D03*
%TO.N,S3Q*%
X116000000Y-64000000D03*
X90000000Y-58000000D03*
X90000000Y-64000000D03*
X116000000Y-70860000D03*
%TO.N,NS3Q*%
X85000000Y-58000000D03*
%TO.N,S3D*%
X86000000Y-28000000D03*
X86000000Y-24000000D03*
%TO.N,S4D*%
X143000000Y-74000000D03*
%TO.N,S4Q*%
X132000000Y-58000000D03*
%TO.N,NS4Q*%
X92950000Y-56270000D03*
%TO.N,S3Q*%
X130000000Y-71000000D03*
X100000000Y-73000000D03*
%TO.N,S4Q*%
X134050000Y-72730000D03*
X121050000Y-72730000D03*
%TO.N,TABLE7*%
X141000000Y-74000000D03*
X134050000Y-74000000D03*
X227000000Y-85000000D03*
X229000000Y-143000000D03*
%TO.N,TABLE5*%
X203000000Y-141000000D03*
X198000000Y-82000000D03*
%TO.N,TABLE6*%
X175000000Y-82000000D03*
X179000000Y-140000000D03*
%TO.N,TABLE4*%
X134000000Y-59000000D03*
X139000000Y-72730000D03*
%TO.N,TABLE3*%
X135000000Y-60000000D03*
X139000000Y-71460000D03*
%TO.N,TABLE2*%
X136000000Y-61000000D03*
X139000000Y-70190000D03*
%TO.N,TABLE0*%
X138000000Y-62000000D03*
X139000000Y-67650000D03*
%TO.N,S2Q*%
X129000000Y-68000000D03*
X121050000Y-68920000D03*
%TO.N,NS3Q*%
X81950000Y-70920000D03*
X115000000Y-73000000D03*
%TO.N,S2Q*%
X93000000Y-68650000D03*
X113000000Y-71000000D03*
%TO.N,S1Q*%
X100000000Y-66000000D03*
X93000000Y-67380000D03*
%TO.N,TABLE15*%
X119000000Y-78000000D03*
X129000000Y-79000000D03*
%TO.N,TABLE12*%
X125000000Y-78000000D03*
X125000000Y-83000000D03*
X126000000Y-72730000D03*
%TO.N,TABLE8*%
X278000000Y-86000000D03*
X287000000Y-86000000D03*
%TO.N,TABLE9*%
X278000000Y-87000000D03*
X286000000Y-87000000D03*
%TO.N,TABLE10*%
X92000000Y-110000000D03*
X123000000Y-81000000D03*
%TO.N,TABLE11*%
X124000000Y-82000000D03*
X93000000Y-101000000D03*
%TO.N,TABLE12*%
X118000000Y-103000000D03*
%TO.N,TABLE13*%
X143000000Y-102000000D03*
X143000000Y-83000000D03*
%TO.N,TABLE14*%
X167000000Y-83000000D03*
X168000000Y-102000000D03*
%TO.N,TABLE15*%
X193000000Y-85000000D03*
X194000000Y-103000000D03*
%TO.N,MUXZ*%
X84000000Y-75000000D03*
X87000000Y-75000000D03*
%TO.N,S1Q*%
X90000000Y-74000000D03*
X81950000Y-74730000D03*
%TO.N,S2Q*%
X91000000Y-73000000D03*
X81950000Y-73460000D03*
%TO.N,NS4Q*%
X93000000Y-72460000D03*
X81950000Y-69650000D03*
%TO.N,TABLE19*%
X110000000Y-71000000D03*
X97950000Y-71190000D03*
%TO.N,TABLE18*%
X108000000Y-70000000D03*
X97950000Y-69920000D03*
%TO.N,TABLE17*%
X106000000Y-69000000D03*
X97950000Y-68650000D03*
%TO.N,TABLE16*%
X269000000Y-92000000D03*
X271000000Y-102000000D03*
%TO.N,TABLE17*%
X271000000Y-92000000D03*
X272000000Y-102000000D03*
%TO.N,TABLE18*%
X272000000Y-92000000D03*
X273000000Y-102000000D03*
%TO.N,TABLE19*%
X273000000Y-92000000D03*
X274000000Y-102000000D03*
%TO.N,TABLE23*%
X99000000Y-79000000D03*
X93000000Y-73730000D03*
%TO.N,TABLE20*%
X97000000Y-77000000D03*
X97950000Y-72460000D03*
X42000000Y-108000000D03*
X90000000Y-87000000D03*
%TO.N,TABLE21*%
X67000000Y-108000000D03*
X88000000Y-87000000D03*
%TO.N,TABLE22*%
X92000000Y-87000000D03*
X91940143Y-108940143D03*
%TO.N,TABLE23*%
X117000000Y-87000000D03*
X117000000Y-107000000D03*
%TO.N,TABLE31*%
X71000000Y-74000000D03*
X81950000Y-68380000D03*
%TO.N,TABLE24*%
X142000000Y-106000000D03*
X142000000Y-93000000D03*
%TO.N,TABLE25*%
X167000000Y-93000000D03*
X167000000Y-107000000D03*
%TO.N,TABLE26*%
X193000000Y-93000000D03*
X193000000Y-106000000D03*
%TO.N,TABLE27*%
X218000000Y-93000000D03*
X218000000Y-107000000D03*
%TO.N,TABLE28*%
X243000000Y-93000000D03*
X243000000Y-105000000D03*
%TO.N,TABLE29*%
X269000000Y-93000000D03*
X269000000Y-106000000D03*
%TO.N,S1D*%
X275000000Y-100000000D03*
X285000000Y-99000000D03*
%TO.N,S2D*%
X275000000Y-99000000D03*
X284000000Y-99000000D03*
%TO.N,S3D*%
X276000000Y-98000000D03*
X283000000Y-98000000D03*
%TO.N,S4D*%
X277000000Y-97000000D03*
X282000000Y-96000000D03*
%TO.N,tNew*%
X278000000Y-96000000D03*
X281000000Y-95000000D03*
%TO.N,S1D*%
X46000000Y-99390143D03*
%TO.N,R{slash}L*%
X267000000Y-94390143D03*
%TO.N,tNew*%
X263000000Y-95390143D03*
%TO.N,S4D*%
X259000000Y-96390143D03*
%TO.N,S3D*%
X255000000Y-97390143D03*
%TO.N,S2D*%
X251000000Y-98390143D03*
%TO.N,R{slash}L*%
X242000000Y-94390143D03*
%TO.N,tNew*%
X238000000Y-95390143D03*
%TO.N,S4D*%
X234000000Y-96390143D03*
%TO.N,S3D*%
X230000000Y-97390143D03*
%TO.N,S2D*%
X226000000Y-98390143D03*
%TO.N,R{slash}L*%
X217000000Y-94390143D03*
%TO.N,tNew*%
X213000000Y-95390143D03*
%TO.N,S4D*%
X209000000Y-96390143D03*
%TO.N,S3D*%
X205000000Y-97390143D03*
%TO.N,S2D*%
X201000000Y-98390143D03*
%TO.N,R{slash}L*%
X192000000Y-94390143D03*
%TO.N,tNew*%
X188000000Y-95390143D03*
%TO.N,S4D*%
X184000000Y-96390143D03*
%TO.N,S3D*%
X179000000Y-97390143D03*
%TO.N,S2D*%
X175000000Y-98390143D03*
%TO.N,R{slash}L*%
X166000000Y-94390143D03*
%TO.N,tNew*%
X162000000Y-95390143D03*
%TO.N,S4D*%
X158000000Y-96390143D03*
%TO.N,S3D*%
X154000000Y-97390143D03*
%TO.N,S2D*%
X150000000Y-98390143D03*
%TO.N,R{slash}L*%
X141000000Y-94390143D03*
%TO.N,tNew*%
X137000000Y-95390143D03*
%TO.N,S4D*%
X133000000Y-96390143D03*
%TO.N,S3D*%
X129000000Y-97390143D03*
%TO.N,S2D*%
X125000000Y-98390143D03*
%TO.N,R{slash}L*%
X116000000Y-94390143D03*
%TO.N,tNew*%
X112000000Y-95390143D03*
%TO.N,S4D*%
X108000000Y-96390143D03*
%TO.N,S3D*%
X104000000Y-97390143D03*
%TO.N,S2D*%
X100000000Y-98390143D03*
%TO.N,R{slash}L*%
X91000000Y-94390143D03*
%TO.N,tNew*%
X87000000Y-95390143D03*
%TO.N,S4D*%
X83000000Y-96390143D03*
%TO.N,S3D*%
X79000000Y-97390143D03*
%TO.N,S2D*%
X75000000Y-98390143D03*
%TO.N,R{slash}L*%
X66000000Y-94390143D03*
%TO.N,tNew*%
X62000000Y-95390143D03*
%TO.N,S4D*%
X58000000Y-96390143D03*
%TO.N,S3D*%
X54000000Y-97390143D03*
%TO.N,S2D*%
X50000000Y-98390143D03*
%TO.N,R{slash}L*%
X41000000Y-94390143D03*
%TO.N,tNew*%
X37000000Y-95390143D03*
%TO.N,S4D*%
X33000000Y-96390143D03*
%TO.N,S3D*%
X29000000Y-97390143D03*
%TO.N,S2D*%
X25000000Y-98390143D03*
%TO.N,S1D*%
X78000000Y-138000000D03*
X105600000Y-138000000D03*
X132800000Y-137800000D03*
X158000000Y-138000000D03*
X182000000Y-138000000D03*
X207000000Y-138000000D03*
X232000000Y-138000000D03*
X258000000Y-138000000D03*
X45000000Y-138000000D03*
%TO.N,S2D*%
X260000000Y-137000000D03*
%TO.N,S4D*%
X269000000Y-135000000D03*
%TO.N,S3D*%
X264000000Y-136000000D03*
%TO.N,R{slash}L*%
X278000000Y-133000000D03*
%TO.N,tNew*%
X273000000Y-134000000D03*
%TO.N,S2D*%
X235000000Y-137000000D03*
%TO.N,S4D*%
X244000000Y-135000000D03*
%TO.N,S3D*%
X239000000Y-136000000D03*
%TO.N,R{slash}L*%
X253000000Y-133000000D03*
%TO.N,tNew*%
X248000000Y-134000000D03*
%TO.N,S2D*%
X210000000Y-137000000D03*
%TO.N,S4D*%
X219000000Y-135000000D03*
%TO.N,S3D*%
X214000000Y-136000000D03*
%TO.N,R{slash}L*%
X228000000Y-133000000D03*
%TO.N,tNew*%
X223000000Y-134000000D03*
%TO.N,S2D*%
X185000000Y-137000000D03*
%TO.N,S4D*%
X194000000Y-135000000D03*
%TO.N,S3D*%
X189000000Y-136000000D03*
%TO.N,R{slash}L*%
X203000000Y-133000000D03*
%TO.N,tNew*%
X198000000Y-134000000D03*
%TO.N,S4D*%
X169000000Y-135000000D03*
%TO.N,S2D*%
X160000000Y-137000000D03*
%TO.N,S4D*%
X169000000Y-135000000D03*
%TO.N,S3D*%
X164000000Y-136000000D03*
%TO.N,R{slash}L*%
X178000000Y-133000000D03*
%TO.N,tNew*%
X173000000Y-134000000D03*
%TO.N,S2D*%
X134800000Y-136800000D03*
%TO.N,R{slash}L*%
X152800000Y-132800000D03*
%TO.N,S4D*%
X143800000Y-134800000D03*
%TO.N,S3D*%
X138800000Y-135800000D03*
%TO.N,tNew*%
X147800000Y-133800000D03*
%TO.N,S2D*%
X107800000Y-136800000D03*
%TO.N,R{slash}L*%
X125800000Y-132800000D03*
%TO.N,S3D*%
X111800000Y-135800000D03*
%TO.N,S4D*%
X116800000Y-134800000D03*
%TO.N,tNew*%
X120800000Y-133800000D03*
%TO.N,S2D*%
X80000000Y-137000000D03*
%TO.N,R{slash}L*%
X98000000Y-133000000D03*
%TO.N,S3D*%
X84000000Y-136000000D03*
%TO.N,tNew*%
X93000000Y-134000000D03*
%TO.N,S4D*%
X89000000Y-135000000D03*
%TO.N,S2D*%
X52000000Y-137000000D03*
%TO.N,R{slash}L*%
X70000000Y-133000000D03*
%TO.N,S3D*%
X56000000Y-136000000D03*
%TO.N,tNew*%
X65000000Y-134000000D03*
%TO.N,S4D*%
X61000000Y-135000000D03*
%TO.N,R{slash}L*%
X41000000Y-133000000D03*
%TO.N,tNew*%
X36000000Y-134000000D03*
%TO.N,S4D*%
X32000000Y-135000000D03*
%TO.N,S3D*%
X27000000Y-136000000D03*
%TO.N,S2D*%
X23000000Y-137000000D03*
%TD*%
D26*
%TO.N,Net-(F1-Pad2)*%
X168450000Y-11990000D02*
X168450000Y-12450000D01*
X178137500Y-17000000D02*
X181137500Y-20000000D01*
X168450000Y-12450000D02*
X169000000Y-13000000D01*
X169000000Y-13000000D02*
X169000000Y-16000000D01*
X171000000Y-18000000D02*
X175000000Y-18000000D01*
X169000000Y-16000000D02*
X171000000Y-18000000D01*
X176000000Y-17000000D02*
X178137500Y-17000000D01*
X175000000Y-18000000D02*
X176000000Y-17000000D01*
%TO.N,Net-(D1-A)*%
X176862500Y-20000000D02*
X164000000Y-20000000D01*
X163000000Y-21000000D02*
X141000000Y-21000000D01*
X164000000Y-20000000D02*
X163000000Y-21000000D01*
X141000000Y-21000000D02*
X138000000Y-18000000D01*
%TO.N,VCC*%
X194900000Y-72100000D02*
X195000000Y-72000000D01*
X193275000Y-72100000D02*
X194900000Y-72100000D01*
X188900000Y-72100000D02*
X189000000Y-72000000D01*
X188275000Y-72100000D02*
X188900000Y-72100000D01*
X178137500Y-61862500D02*
X179000000Y-61000000D01*
X178137500Y-62050000D02*
X178137500Y-61862500D01*
X175100000Y-42100000D02*
X176000000Y-43000000D01*
X174000000Y-42100000D02*
X175100000Y-42100000D01*
X123000000Y-32000000D02*
X124000000Y-31000000D01*
%TO.N,GND*%
X126725000Y-33275000D02*
X126000000Y-34000000D01*
X126725000Y-33000000D02*
X126725000Y-33275000D01*
%TO.N,VCC*%
X136900000Y-31100000D02*
X137000000Y-31000000D01*
X135000000Y-31100000D02*
X136900000Y-31100000D01*
X130900000Y-31100000D02*
X131000000Y-31000000D01*
X129000000Y-31100000D02*
X130900000Y-31100000D01*
%TO.N,R{slash}L*%
X151949439Y-125969462D02*
X151949439Y-131949439D01*
X151949439Y-131949439D02*
X152800000Y-132800000D01*
%TO.N,CLK2*%
X157000000Y-52000000D02*
X155049000Y-50049000D01*
X169589000Y-52589000D02*
X164984032Y-52589000D01*
X164984032Y-52589000D02*
X164000000Y-53573032D01*
X170000000Y-53000000D02*
X169589000Y-52589000D01*
X170080000Y-50920000D02*
X170000000Y-51000000D01*
X153951000Y-50049000D02*
X152000000Y-52000000D01*
X172050000Y-50920000D02*
X170080000Y-50920000D01*
X164000000Y-53573032D02*
X164000000Y-54000000D01*
X155049000Y-50049000D02*
X153951000Y-50049000D01*
%TO.N,GND*%
X169725000Y-69000000D02*
X170000000Y-69000000D01*
X175999000Y-63950000D02*
X176000000Y-63951000D01*
X175862500Y-63950000D02*
X175999000Y-63950000D01*
X169725000Y-64000000D02*
X170000000Y-64000000D01*
%TO.N,T7Q*%
X111862500Y-53050000D02*
X112912500Y-52000000D01*
X112912500Y-52000000D02*
X115000000Y-52000000D01*
%TO.N,GND*%
X152725000Y-33275000D02*
X152000000Y-34000000D01*
X152725000Y-32900000D02*
X152725000Y-33275000D01*
X163862500Y-33137500D02*
X163000000Y-34000000D01*
X163862500Y-33000000D02*
X163862500Y-33137500D01*
X158587500Y-33412500D02*
X158000000Y-34000000D01*
X158587500Y-32950000D02*
X158587500Y-33412500D01*
%TO.N,VCC*%
X166900000Y-31100000D02*
X167000000Y-31000000D01*
X166137500Y-31100000D02*
X166900000Y-31100000D01*
X161050000Y-31050000D02*
X162000000Y-32000000D01*
X160862500Y-31050000D02*
X161050000Y-31050000D01*
%TO.N,tNew*%
X70825000Y-26000000D02*
X139000000Y-26000000D01*
X138950000Y-32000000D02*
X138950000Y-32050000D01*
X139000000Y-30000000D02*
X138950000Y-30050000D01*
%TO.N,GND*%
X149175000Y-19000000D02*
X148000000Y-19000000D01*
X152175000Y-20000000D02*
X150000000Y-20000000D01*
X163350000Y-11990000D02*
X163350000Y-10640000D01*
%TO.N,Net-(F1-Pad2)*%
X164200000Y-11990000D02*
X164200000Y-10640000D01*
%TO.N,GND*%
X169300000Y-11990000D02*
X170280000Y-11990000D01*
X170280000Y-11990000D02*
X170650000Y-11620000D01*
X169300000Y-10640000D02*
X169300000Y-11990000D01*
%TO.N,Net-(F1-Pad2)*%
X168450000Y-11990000D02*
X168450000Y-10640000D01*
%TO.N,Net-(J193-CC2)*%
X153825000Y-20000000D02*
X160567100Y-20000000D01*
X160567100Y-20000000D02*
X167600000Y-12967100D01*
X167600000Y-12967100D02*
X167600000Y-11990000D01*
%TO.N,Net-(J193-CC1)*%
X161000000Y-19000000D02*
X162000000Y-18000000D01*
X150825000Y-19000000D02*
X161000000Y-19000000D01*
X162000000Y-18000000D02*
X161249000Y-17249000D01*
X161249000Y-17249000D02*
X161249000Y-10558926D01*
X161818926Y-9989000D02*
X164893974Y-9989000D01*
X161249000Y-10558926D02*
X161818926Y-9989000D01*
X164893974Y-9989000D02*
X165050000Y-10145026D01*
X165050000Y-10145026D02*
X165050000Y-10640000D01*
%TO.N,GND*%
X171725000Y-44725000D02*
X172000000Y-45000000D01*
X171725000Y-44000000D02*
X171725000Y-44725000D01*
%TO.N,VCC*%
X205275000Y-65725000D02*
X206000000Y-65000000D01*
X205275000Y-66000000D02*
X205275000Y-65725000D01*
%TO.N,Net-(U29-Pad4)*%
X173000000Y-60000000D02*
X174201000Y-60000000D01*
X207000000Y-68000000D02*
X207000000Y-63000000D01*
X182000000Y-71000000D02*
X185000000Y-71000000D01*
X206000000Y-69000000D02*
X207000000Y-68000000D01*
X207000000Y-63000000D02*
X206674000Y-62674000D01*
X206674000Y-62674000D02*
X203349000Y-62674000D01*
X203349000Y-62674000D02*
X203000000Y-62325000D01*
X170000000Y-58000000D02*
X172000000Y-60000000D01*
X167261747Y-53825000D02*
X167436747Y-54000000D01*
X172000000Y-60000000D02*
X173000000Y-60000000D01*
X161950000Y-38950000D02*
X163000000Y-40000000D01*
X161137500Y-38950000D02*
X161950000Y-38950000D01*
X170000000Y-57000000D02*
X170000000Y-58000000D01*
X167436747Y-54000000D02*
X170000000Y-54000000D01*
%TO.N,GND*%
X145050000Y-32950000D02*
X145000000Y-33000000D01*
X146725000Y-32950000D02*
X145050000Y-32950000D01*
%TO.N,VCC*%
X112000000Y-32000000D02*
X113000000Y-31000000D01*
X112000000Y-32100000D02*
X112000000Y-32000000D01*
%TO.N,GND*%
X189000000Y-38350000D02*
X189000000Y-37000000D01*
X191000000Y-37175000D02*
X191000000Y-36000000D01*
%TO.N,Net-(SW1-A)*%
X189000000Y-40000000D02*
X189000000Y-43500000D01*
X189000000Y-43500000D02*
X189500000Y-44000000D01*
%TO.N,Net-(SW1-C)*%
X193000000Y-41000000D02*
X191000000Y-39000000D01*
X193000000Y-44000000D02*
X193000000Y-41000000D01*
%TO.N,GND*%
X186000000Y-74000000D02*
X184000000Y-74000000D01*
X191000000Y-74000000D02*
X190000000Y-75000000D01*
X203000000Y-68000000D02*
X202000000Y-69000000D01*
X203000000Y-67900000D02*
X203000000Y-68000000D01*
%TO.N,Net-(U27-Pad4)*%
X185137500Y-41950000D02*
X187000000Y-43812500D01*
X187000000Y-43812500D02*
X187000000Y-50000000D01*
%TO.N,GND*%
X182862500Y-42137500D02*
X182000000Y-43000000D01*
X182862500Y-41950000D02*
X182862500Y-42137500D01*
%TO.N,Net-(U25-Pad4)*%
X162000000Y-41000000D02*
X160000000Y-41000000D01*
X181000000Y-42200001D02*
X181000000Y-43000000D01*
X162599000Y-44401000D02*
X162000000Y-45000000D01*
X178000000Y-41000000D02*
X172000000Y-41000000D01*
X182200001Y-41000000D02*
X181000000Y-42200001D01*
X171000000Y-45000000D02*
X170401000Y-44401000D01*
X179000000Y-42000000D02*
X178000000Y-41000000D01*
X170401000Y-44401000D02*
X162599000Y-44401000D01*
X182862500Y-41000000D02*
X182200001Y-41000000D01*
%TO.N,T3Q*%
X182200001Y-40050000D02*
X180000000Y-42250001D01*
X182000000Y-58000000D02*
X183000000Y-59000000D01*
X182862500Y-40050000D02*
X182200001Y-40050000D01*
X180000000Y-46000000D02*
X181000000Y-47000000D01*
X180000000Y-42250001D02*
X180000000Y-46000000D01*
X182000000Y-52000000D02*
X182000000Y-58000000D01*
%TO.N,VCC*%
X185950000Y-40050000D02*
X187000000Y-39000000D01*
X185137500Y-40050000D02*
X185950000Y-40050000D01*
%TO.N,Net-(U41-Pad4)*%
X131000000Y-74000000D02*
X134000000Y-77000000D01*
X131000000Y-72000000D02*
X131000000Y-74000000D01*
X134000000Y-77000000D02*
X139000000Y-77000000D01*
%TO.N,S3Q*%
X131000000Y-71000000D02*
X131460000Y-71460000D01*
X131460000Y-71460000D02*
X134050000Y-71460000D01*
X130000000Y-71000000D02*
X131000000Y-71000000D01*
%TO.N,Net-(U41-Pad4)*%
X121000000Y-64000000D02*
X122000000Y-64000000D01*
X111862500Y-54000000D02*
X112216968Y-54000000D01*
X112826000Y-55290968D02*
X113535032Y-56000000D01*
X112216968Y-54000000D02*
X112826000Y-54609032D01*
X112826000Y-54609032D02*
X112826000Y-55290968D01*
X118000000Y-64000000D02*
X121000000Y-64000000D01*
X113535032Y-56000000D02*
X117000000Y-56000000D01*
%TO.N,GND*%
X111862500Y-55137500D02*
X111000000Y-56000000D01*
X111862500Y-54950000D02*
X111862500Y-55137500D01*
%TO.N,VCC*%
X116950000Y-42050000D02*
X117000000Y-42000000D01*
X116950000Y-43650000D02*
X116950000Y-42050000D01*
%TO.N,GND*%
X62350000Y-23350000D02*
X63000000Y-24000000D01*
X62350000Y-23000000D02*
X62350000Y-23350000D01*
X65175000Y-23000000D02*
X62350000Y-23000000D01*
X62350000Y-23000000D02*
X61350000Y-22000000D01*
X68175000Y-24000000D02*
X66175000Y-24000000D01*
X66175000Y-24000000D02*
X65175000Y-23000000D01*
X69175000Y-25000000D02*
X72175000Y-25000000D01*
X69175000Y-26000000D02*
X69175000Y-25000000D01*
X69175000Y-25000000D02*
X68175000Y-24000000D01*
X75175000Y-27000000D02*
X70175000Y-27000000D01*
X70175000Y-27000000D02*
X69175000Y-26000000D01*
%TO.N,tNew*%
X139000000Y-26000000D02*
X277000000Y-26000000D01*
X277000000Y-26000000D02*
X281000000Y-30000000D01*
X281000000Y-30000000D02*
X281000000Y-95000000D01*
%TO.N,S1D*%
X63000000Y-22000000D02*
X97000000Y-22000000D01*
%TO.N,S2D*%
X66825000Y-23000000D02*
X107000000Y-23000000D01*
%TO.N,R{slash}L*%
X76825000Y-27000000D02*
X161000000Y-27000000D01*
%TO.N,S3D*%
X69825000Y-24000000D02*
X86000000Y-24000000D01*
%TO.N,S4D*%
X73825000Y-25000000D02*
X277000000Y-25000000D01*
X277000000Y-25000000D02*
X282000000Y-30000000D01*
X282000000Y-30000000D02*
X282000000Y-96000000D01*
%TO.N,GND*%
X138000000Y-40725000D02*
X138000000Y-42000000D01*
X139725000Y-39000000D02*
X138000000Y-40725000D01*
X133725000Y-39725000D02*
X134000000Y-40000000D01*
X133725000Y-39000000D02*
X133725000Y-39725000D01*
X120725000Y-34725000D02*
X121000000Y-35000000D01*
X120725000Y-33900000D02*
X120725000Y-34725000D01*
X132725000Y-33275000D02*
X132000000Y-34000000D01*
X132725000Y-33000000D02*
X132725000Y-33275000D01*
%TO.N,VCC*%
X143100000Y-31100000D02*
X144000000Y-32000000D01*
X142275000Y-31100000D02*
X143100000Y-31100000D01*
X150050000Y-31050000D02*
X151000000Y-32000000D01*
X149000000Y-31050000D02*
X150050000Y-31050000D01*
X155000000Y-31000000D02*
X156000000Y-32000000D01*
%TO.N,Net-(U42-Pad4)*%
X178100000Y-32900000D02*
X179000000Y-32000000D01*
X115000000Y-31000000D02*
X114725000Y-31275000D01*
X152000000Y-29000000D02*
X151000000Y-28000000D01*
X177000000Y-32900000D02*
X178100000Y-32900000D01*
X162000000Y-29000000D02*
X152000000Y-29000000D01*
X151000000Y-28000000D02*
X150000000Y-28000000D01*
X179000000Y-32000000D02*
X179000000Y-31000000D01*
X114725000Y-31275000D02*
X114725000Y-32100000D01*
X150000000Y-28000000D02*
X149401000Y-28599000D01*
X149401000Y-28599000D02*
X118401000Y-28599000D01*
X118401000Y-28599000D02*
X116000000Y-31000000D01*
X116000000Y-31000000D02*
X115000000Y-31000000D01*
%TO.N,GND*%
X174725000Y-33275000D02*
X174000000Y-34000000D01*
X174725000Y-32900000D02*
X174725000Y-33275000D01*
%TO.N,VCC*%
X177000000Y-31000000D02*
X178000000Y-32000000D01*
X172100000Y-31100000D02*
X173000000Y-32000000D01*
X172000000Y-31100000D02*
X172100000Y-31100000D01*
%TO.N,GND*%
X169000000Y-33000000D02*
X168000000Y-32000000D01*
X169725000Y-33000000D02*
X169000000Y-33000000D01*
%TO.N,Net-(U38-Pad4)*%
X170000000Y-36000000D02*
X170000000Y-34000000D01*
X175562501Y-49162501D02*
X175000000Y-48600000D01*
X175562501Y-61750001D02*
X175562501Y-49162501D01*
X175862500Y-62050000D02*
X175562501Y-61750001D01*
X175000000Y-47000000D02*
X170000000Y-47000000D01*
%TO.N,VCC*%
X171100000Y-67100000D02*
X170000000Y-66000000D01*
X172000000Y-67100000D02*
X171100000Y-67100000D01*
X172000000Y-62100000D02*
X172000000Y-61000000D01*
X166350000Y-61650000D02*
X167000000Y-61000000D01*
X165950000Y-61650000D02*
X166350000Y-61650000D01*
X154000000Y-59380000D02*
X154000000Y-58000000D01*
%TO.N,CLK2*%
X158000000Y-62000000D02*
X156000000Y-60000000D01*
X160190000Y-64190000D02*
X158000000Y-62000000D01*
X126000000Y-48000000D02*
X122038688Y-48000000D01*
X161000000Y-64190000D02*
X160190000Y-64190000D01*
X156000000Y-60000000D02*
X156000000Y-58000000D01*
X122038688Y-48000000D02*
X118009309Y-52029379D01*
%TO.N,VCC*%
X130190000Y-70190000D02*
X130000000Y-70000000D01*
X134050000Y-70190000D02*
X130190000Y-70190000D01*
X127380000Y-66380000D02*
X128000000Y-67000000D01*
X126000000Y-66380000D02*
X127380000Y-66380000D01*
X84000000Y-71114999D02*
X84000000Y-70000000D01*
X82924999Y-72190000D02*
X84000000Y-71114999D01*
X81950000Y-72190000D02*
X82924999Y-72190000D01*
X77000000Y-76000000D02*
X77000000Y-77000000D01*
X98538409Y-66110000D02*
X99084885Y-66656476D01*
X97950000Y-66110000D02*
X98538409Y-66110000D01*
X104080000Y-43920000D02*
X105000000Y-43000000D01*
X104000000Y-43920000D02*
X104080000Y-43920000D01*
X94350000Y-48650000D02*
X95000000Y-48000000D01*
X92950000Y-48650000D02*
X94350000Y-48650000D01*
%TO.N,GND*%
X126600000Y-52166968D02*
X126600000Y-51162020D01*
X127703032Y-53270000D02*
X126600000Y-52166968D01*
X128050000Y-53270000D02*
X127703032Y-53270000D01*
%TO.N,T2Q*%
X128050000Y-48190000D02*
X127703032Y-48190000D01*
X126371487Y-49521545D02*
X126601000Y-49751057D01*
X126248943Y-54601000D02*
X126000000Y-54601000D01*
X126601000Y-49751057D02*
X126601000Y-50248943D01*
X127703032Y-48190000D02*
X126371487Y-49521545D01*
X126000000Y-54601000D02*
X126000000Y-55000000D01*
X126601000Y-50248943D02*
X126248943Y-50601000D01*
X126248943Y-50601000D02*
X126000000Y-50601000D01*
X126000000Y-50601000D02*
X126000000Y-52399000D01*
X126248943Y-52399000D02*
X126601000Y-52751057D01*
X126601000Y-53248943D02*
X126349943Y-53500000D01*
X126601000Y-52751057D02*
X126601000Y-53248943D01*
X126000000Y-52399000D02*
X126248943Y-52399000D01*
X126349943Y-53500000D02*
X126601000Y-53751057D01*
X126601000Y-53751057D02*
X126601000Y-54248943D01*
X126601000Y-54248943D02*
X126248943Y-54601000D01*
X126000000Y-55000000D02*
X125000000Y-56000000D01*
%TO.N,MUXZ*%
X130000000Y-55000000D02*
X130000000Y-51000000D01*
X129024999Y-50730000D02*
X128050000Y-50730000D01*
X130000000Y-51000000D02*
X129294999Y-51000000D01*
X129294999Y-51000000D02*
X129024999Y-50730000D01*
X119000000Y-65000000D02*
X119670000Y-65000000D01*
X121000000Y-54000000D02*
X119000000Y-56000000D01*
X124000000Y-56000000D02*
X122000000Y-56000000D01*
X126000000Y-54000000D02*
X124000000Y-56000000D01*
%TO.N,GND*%
X140326000Y-44326000D02*
X140000000Y-44000000D01*
X140326000Y-49454000D02*
X140326000Y-44326000D01*
X139050000Y-50730000D02*
X140326000Y-49454000D01*
%TO.N,VCC*%
X142650000Y-45650000D02*
X141000000Y-44000000D01*
X144000000Y-45650000D02*
X142650000Y-45650000D01*
X136000000Y-37000000D02*
X137000000Y-36000000D01*
X136000000Y-37100000D02*
X136000000Y-37000000D01*
X132650000Y-45650000D02*
X132000000Y-45000000D01*
X133000000Y-45650000D02*
X132650000Y-45650000D01*
%TO.N,T4Q*%
X172000000Y-58070000D02*
X174155528Y-58070000D01*
X174155528Y-58070000D02*
X174201000Y-58024528D01*
X130700000Y-43000000D02*
X131000000Y-43000000D01*
X128050000Y-45650000D02*
X130700000Y-43000000D01*
%TO.N,T3Q*%
X172000000Y-59000000D02*
X174201000Y-59000000D01*
X129080000Y-46920000D02*
X132000000Y-44000000D01*
X128050000Y-46920000D02*
X129080000Y-46920000D01*
%TO.N,T1Q*%
X124000000Y-52000000D02*
X126000000Y-50000000D01*
X139000000Y-65000000D02*
X138000000Y-64000000D01*
X138000000Y-64000000D02*
X123000000Y-64000000D01*
X122000000Y-54000000D02*
X123000000Y-54000000D01*
X120000000Y-56000000D02*
X122000000Y-54000000D01*
X183600000Y-66000000D02*
X178000000Y-66000000D01*
X175000000Y-71000000D02*
X152000000Y-71000000D01*
X152000000Y-71000000D02*
X151000000Y-72000000D01*
X178000000Y-66000000D02*
X175000000Y-69000000D01*
%TO.N,T2Q*%
X172000000Y-70000000D02*
X185000000Y-70000000D01*
%TO.N,T2D*%
X112000000Y-34000000D02*
X112000000Y-35000000D01*
%TO.N,GND*%
X109725000Y-34725000D02*
X110000000Y-35000000D01*
X109725000Y-34000000D02*
X109725000Y-34725000D01*
X114725000Y-34725000D02*
X115000000Y-35000000D01*
X114725000Y-34000000D02*
X114725000Y-34725000D01*
%TO.N,VCC*%
X118100000Y-32100000D02*
X119000000Y-33000000D01*
X117000000Y-32100000D02*
X118100000Y-32100000D01*
%TO.N,Net-(U43-Pad4)*%
X118050000Y-54950000D02*
X119000000Y-54000000D01*
X114137500Y-54950000D02*
X118050000Y-54950000D01*
X119000000Y-45000000D02*
X119000000Y-34695532D01*
X119000000Y-34695532D02*
X117354468Y-33050000D01*
X117354468Y-33050000D02*
X114725000Y-33050000D01*
%TO.N,VCC*%
X114137500Y-53137500D02*
X115000000Y-54000000D01*
X114137500Y-53050000D02*
X114137500Y-53137500D01*
X205375000Y-61375000D02*
X206000000Y-62000000D01*
X205275000Y-61375000D02*
X205375000Y-61375000D01*
%TO.N,GND*%
X203000000Y-63275000D02*
X203000000Y-65000000D01*
X197050000Y-56950000D02*
X196000000Y-58000000D01*
X197862500Y-56950000D02*
X197050000Y-56950000D01*
%TO.N,VCC*%
X200137500Y-55137500D02*
X201000000Y-56000000D01*
X200137500Y-55050000D02*
X200137500Y-55137500D01*
X191250000Y-45750000D02*
X191000000Y-46000000D01*
X191250000Y-41700000D02*
X191250000Y-45750000D01*
X193100000Y-48100000D02*
X194000000Y-49000000D01*
X192000000Y-48100000D02*
X193100000Y-48100000D01*
X192275000Y-52725000D02*
X193000000Y-52000000D01*
X192000000Y-52725000D02*
X192275000Y-52725000D01*
X189080000Y-60920000D02*
X190000000Y-60000000D01*
X188550000Y-60920000D02*
X189080000Y-60920000D01*
X177650000Y-49650000D02*
X179000000Y-51000000D01*
X177000000Y-49650000D02*
X177650000Y-49650000D01*
X159730000Y-55730000D02*
X159000000Y-55000000D01*
X161050000Y-55730000D02*
X159730000Y-55730000D01*
X159080000Y-51920000D02*
X159000000Y-52000000D01*
X161050000Y-51920000D02*
X159080000Y-51920000D01*
X166000000Y-49000000D02*
X167000000Y-48000000D01*
X166000000Y-49380000D02*
X166000000Y-49000000D01*
%TO.N,CLK2*%
X182460000Y-63460000D02*
X181000000Y-62000000D01*
X184615968Y-61589000D02*
X187756968Y-64730000D01*
X183600000Y-63460000D02*
X182460000Y-63460000D01*
X181000000Y-62000000D02*
X181411000Y-61589000D01*
X187756968Y-64730000D02*
X188550000Y-64730000D01*
X181411000Y-61589000D02*
X184615968Y-61589000D01*
X176826000Y-64290968D02*
X176565968Y-64551000D01*
X177434032Y-63349000D02*
X176826000Y-63957032D01*
X176565968Y-64551000D02*
X175159032Y-64551000D01*
X175159032Y-64551000D02*
X174899000Y-64290968D01*
X176826000Y-63957032D02*
X176826000Y-64290968D01*
X183489000Y-63349000D02*
X177434032Y-63349000D01*
X183600000Y-63460000D02*
X183489000Y-63349000D01*
X174899000Y-57874001D02*
X173024999Y-56000000D01*
X192050000Y-63460000D02*
X191075001Y-63460000D01*
X191075001Y-63460000D02*
X189805001Y-64730000D01*
X189805001Y-64730000D02*
X188550000Y-64730000D01*
X197000000Y-64730000D02*
X196025001Y-64730000D01*
X196025001Y-64730000D02*
X194755001Y-63460000D01*
X194755001Y-63460000D02*
X192050000Y-63460000D01*
%TO.N,GND*%
X139000000Y-34000000D02*
X139000000Y-35000000D01*
X140000000Y-33000000D02*
X139000000Y-34000000D01*
%TO.N,Net-(U17-Pad4)*%
X142000000Y-35000000D02*
X142275000Y-34725000D01*
X142275000Y-34725000D02*
X142275000Y-33000000D01*
X180451000Y-73451000D02*
X172000000Y-73451000D01*
X172000000Y-73451000D02*
X148451000Y-73451000D01*
X187000000Y-75000000D02*
X183000000Y-75000000D01*
X144600000Y-69600000D02*
X144600000Y-68000000D01*
X182000000Y-74000000D02*
X181000000Y-74000000D01*
X148451000Y-73451000D02*
X146000000Y-71000000D01*
X146000000Y-71000000D02*
X144600000Y-69600000D01*
X183000000Y-75000000D02*
X182000000Y-74000000D01*
X181000000Y-74000000D02*
X180451000Y-73451000D01*
%TO.N,Net-(U19-Pad4)*%
X143000000Y-59000000D02*
X142000000Y-58000000D01*
X186000000Y-73050000D02*
X149050000Y-73050000D01*
X149050000Y-73050000D02*
X146000000Y-70000000D01*
X142000000Y-58000000D02*
X142000000Y-48000000D01*
X146000000Y-68000000D02*
X145000000Y-67000000D01*
X146000000Y-70000000D02*
X146000000Y-68000000D01*
%TO.N,Net-(U21-Pad4)*%
X129000000Y-29000000D02*
X150000000Y-29000000D01*
X120062501Y-32950000D02*
X119000000Y-31887499D01*
X139000000Y-29000000D02*
X129000000Y-29000000D01*
X120725000Y-32950000D02*
X120062501Y-32950000D01*
X119000000Y-31887499D02*
X119000000Y-31000000D01*
X119000000Y-31000000D02*
X121000000Y-29000000D01*
X121000000Y-29000000D02*
X139000000Y-29000000D01*
%TO.N,T2Q*%
X127190000Y-48190000D02*
X124000000Y-45000000D01*
X128050000Y-48190000D02*
X127190000Y-48190000D01*
X123000000Y-43000000D02*
X123000000Y-36000000D01*
X123000000Y-36000000D02*
X122000000Y-35000000D01*
X122000000Y-35000000D02*
X122000000Y-32612501D01*
X122000000Y-32612501D02*
X121387499Y-32000000D01*
X121387499Y-32000000D02*
X120725000Y-32000000D01*
%TO.N,Net-(U18-Pad2)*%
X188275000Y-74000000D02*
X189695532Y-74000000D01*
X189695532Y-74000000D02*
X190645532Y-73050000D01*
X190645532Y-73050000D02*
X191000000Y-73050000D01*
%TO.N,Net-(U17-Pad4)*%
X187000000Y-73970532D02*
X187000000Y-75000000D01*
X189346532Y-73399000D02*
X187571532Y-73399000D01*
X190645532Y-72100000D02*
X189346532Y-73399000D01*
X187571532Y-73399000D02*
X187000000Y-73970532D01*
X191000000Y-72100000D02*
X190645532Y-72100000D01*
%TO.N,T1D*%
X188000000Y-71000000D02*
X192000000Y-71000000D01*
X192000000Y-72725000D02*
X193275000Y-74000000D01*
X187000000Y-70000000D02*
X188000000Y-71000000D01*
X183600000Y-62190000D02*
X184574999Y-62190000D01*
X187000000Y-64615001D02*
X187000000Y-70000000D01*
X184574999Y-62190000D02*
X187000000Y-64615001D01*
X192000000Y-71000000D02*
X192000000Y-72725000D01*
%TO.N,GND*%
X160730000Y-58270000D02*
X160000000Y-59000000D01*
X161050000Y-58270000D02*
X160730000Y-58270000D01*
X149050000Y-68450000D02*
X150000000Y-69400000D01*
X149050000Y-68270000D02*
X149050000Y-68450000D01*
%TO.N,T1Q*%
X186000000Y-72100000D02*
X186000000Y-67425001D01*
X186000000Y-67425001D02*
X184574999Y-66000000D01*
X184574999Y-66000000D02*
X183600000Y-66000000D01*
%TO.N,T6Q*%
X159061000Y-66061000D02*
X159000000Y-66000000D01*
X165950000Y-68000000D02*
X163886968Y-68000000D01*
X163886968Y-68000000D02*
X161947968Y-66061000D01*
X161947968Y-66061000D02*
X159061000Y-66061000D01*
X158061000Y-65061000D02*
X147061000Y-65061000D01*
X159000000Y-66000000D02*
X158061000Y-65061000D01*
X147061000Y-65061000D02*
X137000000Y-55000000D01*
%TO.N,T7Q*%
X113730000Y-48730000D02*
X115000000Y-50000000D01*
X115000000Y-50000000D02*
X115000000Y-52000000D01*
X116000000Y-53000000D02*
X126000000Y-53000000D01*
X112000000Y-48730000D02*
X113730000Y-48730000D01*
X115000000Y-52000000D02*
X116000000Y-53000000D01*
%TO.N,T8Q*%
X125000000Y-43000000D02*
X125000000Y-42000000D01*
X134270000Y-50730000D02*
X134276000Y-50724000D01*
X133000000Y-50730000D02*
X134270000Y-50730000D01*
X134276000Y-50724000D02*
X134276000Y-45309032D01*
X134276000Y-45309032D02*
X130966968Y-42000000D01*
X130966968Y-42000000D02*
X125000000Y-42000000D01*
%TO.N,T5D*%
X165000000Y-60000000D02*
X167000000Y-60000000D01*
X162080000Y-62920000D02*
X163000000Y-62000000D01*
X161000000Y-62920000D02*
X162080000Y-62920000D01*
X163000000Y-62000000D02*
X165000000Y-60000000D01*
%TO.N,Net-(U26-Pad4)*%
X181000000Y-50000000D02*
X181000000Y-49000000D01*
X197862500Y-55050000D02*
X192950000Y-55050000D01*
X182000000Y-51000000D02*
X181000000Y-50000000D01*
X192000000Y-56000000D02*
X187000000Y-56000000D01*
X192950000Y-55050000D02*
X192000000Y-56000000D01*
X178000000Y-46000000D02*
X162000000Y-46000000D01*
X187000000Y-56000000D02*
X182000000Y-51000000D01*
X157000000Y-34900000D02*
X155000000Y-32900000D01*
X157000000Y-42000000D02*
X157000000Y-34900000D01*
%TO.N,T3D*%
X197087500Y-60000000D02*
X195000000Y-60000000D01*
X195000000Y-60000000D02*
X192810000Y-62190000D01*
X192810000Y-62190000D02*
X192050000Y-62190000D01*
X200137500Y-56950000D02*
X197087500Y-60000000D01*
%TO.N,Net-(U30-Pad4)*%
X202000000Y-65000000D02*
X202000000Y-64000000D01*
X203000000Y-66000000D02*
X202000000Y-65000000D01*
X162000000Y-33000000D02*
X160912500Y-33000000D01*
X160912500Y-33000000D02*
X160862500Y-32950000D01*
%TO.N,Net-(U31-Pad4)*%
X203000000Y-66950000D02*
X203662499Y-66950000D01*
X203662499Y-66950000D02*
X204000000Y-66612499D01*
X204000000Y-66612499D02*
X204000000Y-64550000D01*
X204000000Y-64550000D02*
X205275000Y-63275000D01*
%TO.N,T4D*%
X198460000Y-63460000D02*
X200000000Y-65000000D01*
X197000000Y-63460000D02*
X198460000Y-63460000D01*
%TO.N,T4Q*%
X201000000Y-65000000D02*
X201000000Y-61750000D01*
X201000000Y-61750000D02*
X201375000Y-61375000D01*
X197000000Y-67270000D02*
X198730000Y-67270000D01*
X198730000Y-67270000D02*
X201000000Y-65000000D01*
X201375000Y-61375000D02*
X203000000Y-61375000D01*
%TO.N,Net-(U37-Pad4)*%
X171062501Y-43050000D02*
X170761500Y-42748999D01*
X170761500Y-42748999D02*
X170761500Y-41238500D01*
X170761500Y-41238500D02*
X171000000Y-41000000D01*
X171725000Y-43050000D02*
X171062501Y-43050000D01*
%TO.N,T6Q*%
X167000000Y-68000000D02*
X168000000Y-69000000D01*
X165950000Y-68000000D02*
X167000000Y-68000000D01*
%TO.N,CLK2*%
X165950000Y-65460000D02*
X164975001Y-65460000D01*
X164975001Y-65460000D02*
X163705001Y-64190000D01*
X163705001Y-64190000D02*
X161000000Y-64190000D01*
%TO.N,T6D*%
X177087500Y-65000000D02*
X173000000Y-65000000D01*
X178137500Y-63950000D02*
X177087500Y-65000000D01*
%TO.N,Net-(U39-Pad4)*%
X177174000Y-61709032D02*
X180000000Y-58883032D01*
X180000000Y-58883032D02*
X180000000Y-49000000D01*
X177174000Y-62042968D02*
X177174000Y-61709032D01*
X176216968Y-63000000D02*
X177174000Y-62042968D01*
X175862500Y-63000000D02*
X176216968Y-63000000D01*
%TO.N,Net-(U35-Pad4)*%
X174000000Y-67000000D02*
X174000000Y-69000000D01*
X171000000Y-63662501D02*
X171000000Y-64304468D01*
X169725000Y-63050000D02*
X170387499Y-63050000D01*
X170387499Y-63050000D02*
X171000000Y-63662501D01*
X172695532Y-66000000D02*
X173000000Y-66000000D01*
X173000000Y-66000000D02*
X174000000Y-67000000D01*
X171000000Y-64304468D02*
X172695532Y-66000000D01*
X174000000Y-69000000D02*
X172000000Y-69000000D01*
%TO.N,T5Q*%
X161000000Y-66730000D02*
X160270000Y-66730000D01*
X160270000Y-66730000D02*
X157000000Y-70000000D01*
X157000000Y-70000000D02*
X147000000Y-70000000D01*
X147000000Y-70000000D02*
X147000000Y-67432900D01*
X132000000Y-56000000D02*
X131000000Y-55000000D01*
X147000000Y-67432900D02*
X140567100Y-61000000D01*
X140567100Y-61000000D02*
X140000000Y-61000000D01*
X140000000Y-61000000D02*
X136000000Y-57000000D01*
X131000000Y-47945001D02*
X132025001Y-46920000D01*
X136000000Y-57000000D02*
X135000000Y-57000000D01*
X135000000Y-57000000D02*
X134000000Y-56000000D01*
X132025001Y-46920000D02*
X133000000Y-46920000D01*
X134000000Y-56000000D02*
X132000000Y-56000000D01*
X131000000Y-55000000D02*
X131000000Y-47945001D01*
X171000000Y-67712501D02*
X171000000Y-70000000D01*
X171000000Y-70000000D02*
X164616968Y-70000000D01*
X169725000Y-67100000D02*
X170387499Y-67100000D01*
X170387499Y-67100000D02*
X171000000Y-67712501D01*
X164616968Y-70000000D02*
X161346968Y-66730000D01*
X161346968Y-66730000D02*
X161000000Y-66730000D01*
%TO.N,Net-(U33-Pad4)*%
X168000000Y-68000000D02*
X168000000Y-56000000D01*
X168050000Y-68050000D02*
X168000000Y-68000000D01*
X169725000Y-68050000D02*
X168050000Y-68050000D01*
%TO.N,Net-(U34-Pad4)*%
X169000000Y-61375000D02*
X169000000Y-56000000D01*
X169725000Y-62100000D02*
X169000000Y-61375000D01*
%TO.N,Net-(U16A-C)*%
X183000000Y-48000000D02*
X186000000Y-51000000D01*
X170190000Y-52190000D02*
X169000000Y-51000000D01*
X172050000Y-52190000D02*
X170190000Y-52190000D01*
X169000000Y-48000000D02*
X183000000Y-48000000D01*
X169000000Y-51000000D02*
X169000000Y-48000000D01*
%TO.N,CLK1*%
X172050000Y-54730000D02*
X171719000Y-55061000D01*
X171719000Y-55061000D02*
X161651000Y-55061000D01*
X161651000Y-55061000D02*
X161050000Y-54460000D01*
%TO.N,CLK2*%
X172050000Y-50920000D02*
X173024999Y-50920000D01*
X173024999Y-50920000D02*
X173326000Y-51221001D01*
X173024999Y-56000000D02*
X172050000Y-56000000D01*
X173326000Y-51221001D02*
X173326000Y-55698999D01*
X173326000Y-55698999D02*
X173024999Y-56000000D01*
%TO.N,Net-(U14-Pad2)*%
X188000000Y-50112501D02*
X188000000Y-55000000D01*
X189062501Y-49050000D02*
X188000000Y-50112501D01*
X189725000Y-49050000D02*
X189062501Y-49050000D01*
X188000000Y-55000000D02*
X188226000Y-55226000D01*
X191399000Y-55226000D02*
X192000000Y-54625000D01*
X188226000Y-55226000D02*
X191399000Y-55226000D01*
%TO.N,Net-(SW1-A)*%
X189725000Y-48100000D02*
X189725000Y-44225000D01*
X189725000Y-44225000D02*
X189500000Y-44000000D01*
%TO.N,Net-(U16A-C)*%
X192000000Y-50000000D02*
X189725000Y-52275000D01*
X189725000Y-52275000D02*
X189725000Y-52725000D01*
%TO.N,Net-(SW1-C)*%
X193000000Y-44000000D02*
X196000000Y-47000000D01*
X196000000Y-47000000D02*
X196000000Y-51000000D01*
X196000000Y-51000000D02*
X193325000Y-53675000D01*
X193325000Y-53675000D02*
X189725000Y-53675000D01*
%TO.N,Net-(U4-QC)*%
X149050000Y-65730000D02*
X146650000Y-65730000D01*
X146650000Y-65730000D02*
X135460000Y-54540000D01*
%TO.N,Net-(U4-UP)*%
X152000000Y-62484999D02*
X152000000Y-58000000D01*
X152000000Y-58000000D02*
X153000000Y-57000000D01*
X150024999Y-64460000D02*
X152000000Y-62484999D01*
X149050000Y-64460000D02*
X150024999Y-64460000D01*
X153000000Y-57000000D02*
X161050000Y-57000000D01*
%TO.N,Net-(U4-QB)*%
X135599000Y-49396001D02*
X135997500Y-48997500D01*
X135599000Y-53000000D02*
X135599000Y-51166100D01*
X147600000Y-59546968D02*
X147600000Y-57000000D01*
X148703032Y-60650000D02*
X147600000Y-59546968D01*
X149050000Y-60650000D02*
X148703032Y-60650000D01*
%TO.N,Net-(U4-QA)*%
X149050000Y-61920000D02*
X150080000Y-61920000D01*
X151000000Y-61000000D02*
X151000000Y-58000000D01*
X150080000Y-61920000D02*
X151000000Y-61000000D01*
%TO.N,Net-(U4-DOWN)*%
X147810000Y-53190000D02*
X147000000Y-54000000D01*
X148075001Y-63190000D02*
X149050000Y-63190000D01*
X161050000Y-53190000D02*
X147810000Y-53190000D01*
X147000000Y-54000000D02*
X147000000Y-62114999D01*
X147000000Y-62114999D02*
X148075001Y-63190000D01*
%TO.N,CLK1*%
X161050000Y-50650000D02*
X162024999Y-50650000D01*
X162024999Y-50650000D02*
X162326000Y-50951001D01*
X162326000Y-54158999D02*
X162024999Y-54460000D01*
X162326000Y-50951001D02*
X162326000Y-54158999D01*
X162024999Y-54460000D02*
X161050000Y-54460000D01*
%TO.N,R{slash}L*%
X161050000Y-45050000D02*
X161000000Y-45000000D01*
X277000000Y-27000000D02*
X161000000Y-27000000D01*
X161050000Y-49380000D02*
X161050000Y-45050000D01*
%TO.N,Y7*%
X131900000Y-37100000D02*
X131900000Y-41900000D01*
X131900000Y-41900000D02*
X136000000Y-46000000D01*
%TO.N,Y6*%
X174862500Y-38000000D02*
X175216968Y-38000000D01*
X175826000Y-38609032D02*
X175826000Y-39290968D01*
X157000000Y-46000000D02*
X154000000Y-46000000D01*
X175216968Y-38000000D02*
X175826000Y-38609032D01*
X175826000Y-39290968D02*
X175116968Y-40000000D01*
X171000000Y-40000000D02*
X167000000Y-44000000D01*
X145460000Y-54540000D02*
X144000000Y-54540000D01*
X175116968Y-40000000D02*
X171000000Y-40000000D01*
X167000000Y-44000000D02*
X159000000Y-44000000D01*
X159000000Y-44000000D02*
X157000000Y-46000000D01*
X154000000Y-46000000D02*
X145460000Y-54540000D01*
X174725000Y-31000000D02*
X175079468Y-31000000D01*
X175079468Y-31000000D02*
X175826000Y-31746532D01*
X175826000Y-37698999D02*
X175524999Y-38000000D01*
X175826000Y-31746532D02*
X175826000Y-37698999D01*
X175524999Y-38000000D02*
X174862500Y-38000000D01*
%TO.N,tNew*%
X168000000Y-30000000D02*
X173000000Y-30000000D01*
X173000000Y-30579468D02*
X173000000Y-30000000D01*
X174725000Y-31950000D02*
X174370532Y-31950000D01*
X174370532Y-31950000D02*
X173000000Y-30579468D01*
%TO.N,Y5*%
X170688500Y-37648999D02*
X170688500Y-39311500D01*
X170688500Y-39311500D02*
X167000000Y-43000000D01*
X167000000Y-43000000D02*
X159000000Y-43000000D01*
X159000000Y-43000000D02*
X157000000Y-45000000D01*
X157000000Y-45000000D02*
X154000000Y-45000000D01*
X154000000Y-45000000D02*
X145730000Y-53270000D01*
X145730000Y-53270000D02*
X144000000Y-53270000D01*
%TO.N,tNew*%
X163000000Y-30000000D02*
X168000000Y-30000000D01*
X169725000Y-32050000D02*
X169050000Y-32050000D01*
X169050000Y-32050000D02*
X168000000Y-31000000D01*
X168000000Y-31000000D02*
X168000000Y-30000000D01*
%TO.N,Y5*%
X169725000Y-31100000D02*
X170079468Y-31100000D01*
X170387499Y-37950000D02*
X169725000Y-37950000D01*
X170079468Y-31100000D02*
X170688500Y-31709032D01*
X170688500Y-31709032D02*
X170688500Y-37648999D01*
X170688500Y-37648999D02*
X170387499Y-37950000D01*
%TO.N,Y4*%
X164826000Y-37698999D02*
X164826000Y-40174000D01*
X164826000Y-40174000D02*
X163000000Y-42000000D01*
X163000000Y-42000000D02*
X159000000Y-42000000D01*
X154000000Y-44000000D02*
X146000000Y-52000000D01*
X159000000Y-42000000D02*
X157000000Y-44000000D01*
X157000000Y-44000000D02*
X154000000Y-44000000D01*
X146000000Y-52000000D02*
X144000000Y-52000000D01*
%TO.N,tNew*%
X156000000Y-30000000D02*
X163000000Y-30000000D01*
X162899000Y-31440968D02*
X162899000Y-30101000D01*
X163862500Y-32050000D02*
X163508032Y-32050000D01*
X163508032Y-32050000D02*
X162899000Y-31440968D01*
X162899000Y-30101000D02*
X163000000Y-30000000D01*
%TO.N,Y4*%
X163862500Y-31100000D02*
X164216968Y-31100000D01*
X164216968Y-31100000D02*
X164826000Y-31709032D01*
X164826000Y-37698999D02*
X164524999Y-38000000D01*
X164524999Y-38000000D02*
X163862500Y-38000000D01*
X164826000Y-31709032D02*
X164826000Y-37698999D01*
%TO.N,Y3*%
X159826000Y-37698999D02*
X159826000Y-40174000D01*
X159826000Y-40174000D02*
X157000000Y-43000000D01*
X154000000Y-43000000D02*
X146270000Y-50730000D01*
X157000000Y-43000000D02*
X154000000Y-43000000D01*
X146270000Y-50730000D02*
X144000000Y-50730000D01*
%TO.N,Y2*%
X152862500Y-38000000D02*
X153524999Y-38000000D01*
X153524999Y-38000000D02*
X154000000Y-38475001D01*
X154000000Y-38475001D02*
X154000000Y-42000000D01*
X154000000Y-42000000D02*
X146540000Y-49460000D01*
X146540000Y-49460000D02*
X144000000Y-49460000D01*
%TO.N,Y3*%
X158587500Y-31050000D02*
X159249999Y-31050000D01*
X159826000Y-31626001D02*
X159826000Y-37698999D01*
X159524999Y-38000000D02*
X158862500Y-38000000D01*
X159249999Y-31050000D02*
X159826000Y-31626001D01*
X159826000Y-37698999D02*
X159524999Y-38000000D01*
%TO.N,tNew*%
X156000000Y-30000000D02*
X158000000Y-32000000D01*
X158000000Y-32000000D02*
X158587500Y-32000000D01*
X151000000Y-30000000D02*
X156000000Y-30000000D01*
X152725000Y-31950000D02*
X152062501Y-31950000D01*
X152062501Y-31950000D02*
X151000000Y-30887499D01*
X151000000Y-30887499D02*
X151000000Y-30000000D01*
%TO.N,Y2*%
X152725000Y-31000000D02*
X153079468Y-31000000D01*
X153079468Y-31000000D02*
X153826000Y-31746532D01*
X153826000Y-31746532D02*
X153826000Y-37698999D01*
X153826000Y-37698999D02*
X153524999Y-38000000D01*
%TO.N,Y1*%
X147000000Y-48000000D02*
X147826000Y-47174000D01*
X147826000Y-37698999D02*
X147826000Y-47174000D01*
%TO.N,Net-(U22-Pad4)*%
X149000000Y-32950000D02*
X149000000Y-34000000D01*
%TO.N,tNew*%
X144000000Y-30000000D02*
X151000000Y-30000000D01*
X146725000Y-32000000D02*
X146000000Y-32000000D01*
X146000000Y-32000000D02*
X144000000Y-30000000D01*
X138950000Y-30050000D02*
X138950000Y-32000000D01*
X144000000Y-30000000D02*
X139000000Y-30000000D01*
%TO.N,Y1*%
X146725000Y-31050000D02*
X147079468Y-31050000D01*
X147826000Y-37698999D02*
X147524999Y-38000000D01*
X147079468Y-31050000D02*
X147826000Y-31796532D01*
X147524999Y-38000000D02*
X146862500Y-38000000D01*
X147826000Y-31796532D02*
X147826000Y-37698999D01*
%TO.N,tNew*%
X157925001Y-32000000D02*
X158587500Y-32000000D01*
%TO.N,Y0*%
X144000000Y-46920000D02*
X146000000Y-46920000D01*
X140950000Y-38050000D02*
X140950000Y-41950000D01*
X145000000Y-44000000D02*
X146000000Y-45000000D01*
X140950000Y-41950000D02*
X143000000Y-44000000D01*
X143000000Y-44000000D02*
X145000000Y-44000000D01*
X146000000Y-45000000D02*
X146000000Y-46920000D01*
%TO.N,tNew*%
X137000000Y-40000000D02*
X135000000Y-40000000D01*
X138000000Y-39000000D02*
X137000000Y-40000000D01*
X140000000Y-32050000D02*
X138950000Y-32050000D01*
X138950000Y-32050000D02*
X138000000Y-33000000D01*
X138000000Y-33000000D02*
X138000000Y-39000000D01*
X135000000Y-40000000D02*
X135000000Y-38970532D01*
X135000000Y-38970532D02*
X134079468Y-38050000D01*
X134079468Y-38050000D02*
X133725000Y-38050000D01*
%TO.N,Y0*%
X140000000Y-31100000D02*
X140662499Y-31100000D01*
X140662499Y-31100000D02*
X141000000Y-31437501D01*
X141000000Y-38000000D02*
X140950000Y-38050000D01*
X141000000Y-31437501D02*
X141000000Y-38000000D01*
X140950000Y-38050000D02*
X139725000Y-38050000D01*
%TO.N,Y1*%
X146810000Y-48190000D02*
X147000000Y-48000000D01*
X144000000Y-48190000D02*
X146810000Y-48190000D01*
%TO.N,VCC*%
X144000000Y-45650000D02*
X143025001Y-45650000D01*
X141000000Y-51024999D02*
X140024999Y-52000000D01*
X143025001Y-45650000D02*
X141000000Y-47675001D01*
X141000000Y-47675001D02*
X141000000Y-51024999D01*
X140024999Y-52000000D02*
X139050000Y-52000000D01*
%TO.N,GND*%
X139050000Y-50730000D02*
X139050000Y-49460000D01*
%TO.N,Net-(U4-QA)*%
X133000000Y-52000000D02*
X135000000Y-52000000D01*
X135000000Y-52000000D02*
X135000000Y-48725001D01*
X135000000Y-48725001D02*
X138075001Y-45650000D01*
X138075001Y-45650000D02*
X139050000Y-45650000D01*
%TO.N,Net-(U4-QB)*%
X135329000Y-53270000D02*
X135599000Y-53000000D01*
X133000000Y-53270000D02*
X135329000Y-53270000D01*
X135599000Y-51166100D02*
X135599000Y-49396001D01*
X135997500Y-48997500D02*
X138075001Y-46920000D01*
X138075001Y-46920000D02*
X139050000Y-46920000D01*
%TO.N,Net-(U4-QC)*%
X135460000Y-54540000D02*
X136000000Y-54000000D01*
X136000000Y-54000000D02*
X136000000Y-50265001D01*
X138075001Y-48190000D02*
X139050000Y-48190000D01*
X133000000Y-54540000D02*
X135460000Y-54540000D01*
X136000000Y-50265001D02*
X138075001Y-48190000D01*
%TO.N,Net-(U23-Pad4)*%
X108761500Y-33659032D02*
X108761500Y-35761500D01*
X109725000Y-33050000D02*
X109370532Y-33050000D01*
X109370532Y-33050000D02*
X108761500Y-33659032D01*
X108761500Y-35761500D02*
X109000000Y-36000000D01*
X109000000Y-36000000D02*
X114000000Y-36000000D01*
%TO.N,T8D*%
X120810000Y-46190000D02*
X124000000Y-43000000D01*
X116950000Y-46190000D02*
X120810000Y-46190000D01*
%TO.N,Net-(U46-Pad4)*%
X136000000Y-39000000D02*
X135036500Y-38036500D01*
X135036500Y-38036500D02*
X135036500Y-36036500D01*
X135036500Y-36036500D02*
X134000000Y-35000000D01*
X134000000Y-35000000D02*
X134000000Y-31712501D01*
X134000000Y-31712501D02*
X133387499Y-31100000D01*
X133387499Y-31100000D02*
X132725000Y-31100000D01*
%TO.N,Y7*%
X131900000Y-37100000D02*
X131000000Y-38000000D01*
X133725000Y-37100000D02*
X131900000Y-37100000D01*
%TO.N,Net-(U45-Pad4)*%
X126725000Y-32050000D02*
X127387499Y-32050000D01*
X127387499Y-32050000D02*
X128000000Y-32662501D01*
X128000000Y-32662501D02*
X128000000Y-36070532D01*
X128000000Y-36070532D02*
X129000000Y-37070532D01*
X129000000Y-38000000D02*
X130000000Y-39000000D01*
X129000000Y-37070532D02*
X129000000Y-38000000D01*
%TO.N,Net-(U47-Pad4)*%
X129000000Y-33000000D02*
X129950000Y-32050000D01*
X129950000Y-32050000D02*
X132725000Y-32050000D01*
%TO.N,T8Q*%
X116950000Y-50000000D02*
X118000000Y-50000000D01*
X126062501Y-31100000D02*
X126725000Y-31100000D01*
X118000000Y-50000000D02*
X125000000Y-43000000D01*
X125000000Y-42000000D02*
X125000000Y-32162501D01*
X125000000Y-32162501D02*
X126062501Y-31100000D01*
%TO.N,T7D*%
X117000000Y-34000000D02*
X114000000Y-37000000D01*
X114000000Y-37000000D02*
X114000000Y-43894999D01*
X114000000Y-43894999D02*
X112974999Y-44920000D01*
X112974999Y-44920000D02*
X112000000Y-44920000D01*
%TO.N,CLK2*%
X112000000Y-46190000D02*
X114190000Y-46190000D01*
X115460000Y-47460000D02*
X116950000Y-47460000D01*
X114190000Y-46190000D02*
X115460000Y-47460000D01*
X112000000Y-46190000D02*
X107810000Y-46190000D01*
X107810000Y-46190000D02*
X106270000Y-47730000D01*
X106270000Y-47730000D02*
X104000000Y-47730000D01*
%TO.N,S2D*%
X271000000Y-23000000D02*
X107000000Y-23000000D01*
X106000000Y-46000000D02*
X107000000Y-45000000D01*
X104000000Y-46460000D02*
X105540000Y-46460000D01*
X107000000Y-45000000D02*
X107000000Y-28000000D01*
X105540000Y-46460000D02*
X106000000Y-46000000D01*
%TO.N,S2Q*%
X104000000Y-50270000D02*
X103025001Y-50270000D01*
X103025001Y-50270000D02*
X102000000Y-51295001D01*
X102000000Y-52000000D02*
X102000000Y-55000000D01*
X102000000Y-51295001D02*
X102000000Y-52000000D01*
%TO.N,S1Q*%
X101000000Y-50000000D02*
X101000000Y-56000000D01*
X99050000Y-49000000D02*
X100000000Y-49000000D01*
X100000000Y-49000000D02*
X101000000Y-50000000D01*
%TO.N,CLK2*%
X99050000Y-46460000D02*
X92540000Y-46460000D01*
X90190000Y-48810000D02*
X90190000Y-51190000D01*
X92540000Y-46460000D02*
X90190000Y-48810000D01*
X100460000Y-46460000D02*
X102000000Y-48000000D01*
X99050000Y-46460000D02*
X100460000Y-46460000D01*
X102000000Y-48000000D02*
X102270000Y-47730000D01*
X102270000Y-47730000D02*
X104000000Y-47730000D01*
%TO.N,S1D*%
X99050000Y-45190000D02*
X97190000Y-45190000D01*
X97000000Y-45000000D02*
X97000000Y-28000000D01*
X278000000Y-22000000D02*
X97000000Y-22000000D01*
X97190000Y-45190000D02*
X97000000Y-45000000D01*
%TO.N,S3Q*%
X90000000Y-64000000D02*
X116000000Y-64000000D01*
X90000000Y-54755001D02*
X90000000Y-58000000D01*
X88000000Y-53730000D02*
X88974999Y-53730000D01*
X88974999Y-53730000D02*
X90000000Y-54755001D01*
%TO.N,NS3Q*%
X88000000Y-55000000D02*
X87025001Y-55000000D01*
X87025001Y-55000000D02*
X85000000Y-57025001D01*
X85000000Y-57025001D02*
X85000000Y-58000000D01*
%TO.N,S3D*%
X88000000Y-49920000D02*
X86920000Y-49920000D01*
X86000000Y-49000000D02*
X86000000Y-28000000D01*
X86920000Y-49920000D02*
X86000000Y-49000000D01*
X276000000Y-24000000D02*
X86000000Y-24000000D01*
%TO.N,S1D*%
X285000000Y-93000000D02*
X285000000Y-29000000D01*
X285000000Y-29000000D02*
X278000000Y-22000000D01*
%TO.N,S2D*%
X277000000Y-23000000D02*
X271000000Y-23000000D01*
X284000000Y-30000000D02*
X277000000Y-23000000D01*
X284000000Y-93000000D02*
X284000000Y-30000000D01*
%TO.N,S3D*%
X283000000Y-93000000D02*
X283000000Y-30000000D01*
X283000000Y-30000000D02*
X277000000Y-24000000D01*
X277000000Y-24000000D02*
X276000000Y-24000000D01*
%TO.N,R{slash}L*%
X280000000Y-93000000D02*
X280000000Y-30000000D01*
X280000000Y-30000000D02*
X277000000Y-27000000D01*
%TO.N,S4D*%
X107000000Y-57000000D02*
X134000000Y-57000000D01*
X97000000Y-57000000D02*
X107000000Y-57000000D01*
X144000000Y-65000000D02*
X144000000Y-73000000D01*
X144000000Y-73000000D02*
X143000000Y-74000000D01*
X92950000Y-51190000D02*
X93924999Y-51190000D01*
X134000000Y-57000000D02*
X139000000Y-62000000D01*
X95000000Y-52265001D02*
X95000000Y-55000000D01*
X93924999Y-51190000D02*
X95000000Y-52265001D01*
X141000000Y-62000000D02*
X144000000Y-65000000D01*
X139000000Y-62000000D02*
X141000000Y-62000000D01*
X95000000Y-55000000D02*
X97000000Y-57000000D01*
%TO.N,CLK2*%
X92950000Y-52460000D02*
X91460000Y-52460000D01*
X91460000Y-52460000D02*
X90190000Y-51190000D01*
X90190000Y-51190000D02*
X88000000Y-51190000D01*
%TO.N,S4Q*%
X97000000Y-58000000D02*
X132000000Y-58000000D01*
X92950000Y-55000000D02*
X94000000Y-55000000D01*
X94000000Y-55000000D02*
X97000000Y-58000000D01*
%TO.N,S3Q*%
X99939000Y-73061000D02*
X96061000Y-73061000D01*
X96061000Y-73061000D02*
X94190000Y-71190000D01*
X100000000Y-73000000D02*
X99939000Y-73061000D01*
X94190000Y-71190000D02*
X93000000Y-71190000D01*
%TO.N,TABLE7*%
X142000000Y-75000000D02*
X141000000Y-74000000D01*
X171000000Y-75000000D02*
X142000000Y-75000000D01*
X172000000Y-75000000D02*
X171000000Y-75000000D01*
X178000000Y-81000000D02*
X172000000Y-75000000D01*
X222000000Y-85000000D02*
X221000000Y-84000000D01*
X199000000Y-81000000D02*
X178000000Y-81000000D01*
X202000000Y-84000000D02*
X199000000Y-81000000D01*
X221000000Y-84000000D02*
X202000000Y-84000000D01*
X227000000Y-85000000D02*
X222000000Y-85000000D01*
%TO.N,TABLE5*%
X171000000Y-76000000D02*
X177000000Y-82000000D01*
X139000000Y-74000000D02*
X139974999Y-74000000D01*
X141000000Y-76000000D02*
X171000000Y-76000000D01*
X141000000Y-75025001D02*
X141000000Y-76000000D01*
X139974999Y-74000000D02*
X141000000Y-75025001D01*
X177000000Y-82000000D02*
X198000000Y-82000000D01*
%TO.N,TABLE6*%
X175000000Y-82000000D02*
X170000000Y-77000000D01*
X170000000Y-77000000D02*
X140730000Y-77000000D01*
X140730000Y-77000000D02*
X139000000Y-75270000D01*
%TO.N,TABLE7*%
X226000000Y-147000000D02*
X229000000Y-144000000D01*
X229000000Y-144000000D02*
X229000000Y-143000000D01*
X205600000Y-147000000D02*
X226000000Y-147000000D01*
%TO.N,TABLE5*%
X201000000Y-147000000D02*
X203000000Y-145000000D01*
X203000000Y-145000000D02*
X203000000Y-141000000D01*
X181000000Y-147000000D02*
X201000000Y-147000000D01*
%TO.N,TABLE6*%
X179000000Y-144000000D02*
X179000000Y-140000000D01*
X176000000Y-147000000D02*
X179000000Y-144000000D01*
X156000000Y-147000000D02*
X176000000Y-147000000D01*
%TO.N,TABLE4*%
X28000000Y-59000000D02*
X33000000Y-59000000D01*
X11000000Y-76000000D02*
X28000000Y-59000000D01*
X33000000Y-59000000D02*
X134000000Y-59000000D01*
%TO.N,TABLE3*%
X28000000Y-60000000D02*
X55000000Y-60000000D01*
X55000000Y-60000000D02*
X135000000Y-60000000D01*
X12000000Y-76000000D02*
X28000000Y-60000000D01*
X12000000Y-77000000D02*
X12000000Y-76000000D01*
%TO.N,TABLE2*%
X30000000Y-61000000D02*
X136000000Y-61000000D01*
X13000000Y-76000000D02*
X28000000Y-61000000D01*
X28000000Y-61000000D02*
X30000000Y-61000000D01*
%TO.N,TABLE0*%
X33000000Y-62000000D02*
X138000000Y-62000000D01*
X14000000Y-76000000D02*
X28000000Y-62000000D01*
X28000000Y-62000000D02*
X33000000Y-62000000D01*
%TO.N,TABLE1*%
X18200000Y-147540000D02*
X15000000Y-144340000D01*
X15000000Y-144340000D02*
X15000000Y-76000000D01*
X141000000Y-63000000D02*
X143000000Y-65000000D01*
X15000000Y-76000000D02*
X28000000Y-63000000D01*
X28000000Y-63000000D02*
X141000000Y-63000000D01*
X141920000Y-68920000D02*
X139000000Y-68920000D01*
X143000000Y-65000000D02*
X143000000Y-69000000D01*
X143000000Y-69000000D02*
X142000000Y-69000000D01*
X142000000Y-69000000D02*
X141920000Y-68920000D01*
%TO.N,TABLE4*%
X11000000Y-150000000D02*
X11000000Y-76000000D01*
X46000000Y-152000000D02*
X45000000Y-153000000D01*
X65000000Y-152000000D02*
X46000000Y-152000000D01*
X14000000Y-153000000D02*
X11000000Y-150000000D01*
X45000000Y-153000000D02*
X14000000Y-153000000D01*
%TO.N,TABLE3*%
X103000000Y-147000000D02*
X100000000Y-150000000D01*
X100000000Y-150000000D02*
X97000000Y-150000000D01*
X12000000Y-149000000D02*
X12000000Y-77000000D01*
X97000000Y-150000000D02*
X96000000Y-151000000D01*
X46000000Y-151000000D02*
X45000000Y-152000000D01*
X96000000Y-151000000D02*
X46000000Y-151000000D01*
X15000000Y-152000000D02*
X12000000Y-149000000D01*
X45000000Y-152000000D02*
X15000000Y-152000000D01*
%TO.N,TABLE4*%
X121000000Y-152000000D02*
X65000000Y-152000000D01*
X131000000Y-147000000D02*
X126000000Y-152000000D01*
X126000000Y-152000000D02*
X121000000Y-152000000D01*
X151000000Y-147000000D02*
X131000000Y-147000000D01*
%TO.N,TABLE3*%
X126000000Y-147000000D02*
X103000000Y-147000000D01*
%TO.N,TABLE2*%
X13000000Y-148000000D02*
X13000000Y-76000000D01*
X46000000Y-150000000D02*
X45000000Y-151000000D01*
X75600000Y-147000000D02*
X73000000Y-149600000D01*
X45000000Y-151000000D02*
X44599000Y-151401000D01*
X73000000Y-149600000D02*
X73000000Y-150000000D01*
X73000000Y-150000000D02*
X46000000Y-150000000D01*
X44599000Y-151401000D02*
X16401000Y-151401000D01*
X16401000Y-151401000D02*
X13000000Y-148000000D01*
X98600000Y-147000000D02*
X75600000Y-147000000D01*
%TO.N,TABLE0*%
X18000000Y-150000000D02*
X17000000Y-150000000D01*
X19000000Y-151000000D02*
X18000000Y-150000000D01*
X17000000Y-150000000D02*
X14000000Y-147000000D01*
X14000000Y-144000000D02*
X14000000Y-76000000D01*
X14000000Y-147000000D02*
X14000000Y-144000000D01*
X47400000Y-147000000D02*
X43400000Y-151000000D01*
X42000000Y-151000000D02*
X19000000Y-151000000D01*
X43400000Y-151000000D02*
X42000000Y-151000000D01*
X70400000Y-147000000D02*
X47400000Y-147000000D01*
%TO.N,TABLE1*%
X41200000Y-147540000D02*
X18200000Y-147540000D01*
%TO.N,VCC*%
X134050000Y-70190000D02*
X135024999Y-70190000D01*
X135024999Y-70190000D02*
X135326000Y-69888999D01*
X135326000Y-69888999D02*
X135326000Y-67674000D01*
X135326000Y-67674000D02*
X136620000Y-66380000D01*
X136620000Y-66380000D02*
X139000000Y-66380000D01*
%TO.N,S2Q*%
X129920000Y-68920000D02*
X129000000Y-68000000D01*
X134050000Y-68920000D02*
X129920000Y-68920000D01*
%TO.N,S1Q*%
X134050000Y-67650000D02*
X129650000Y-67650000D01*
X129650000Y-67650000D02*
X127779000Y-65779000D01*
X127779000Y-65779000D02*
X124653900Y-65779000D01*
X124653900Y-65779000D02*
X122782900Y-67650000D01*
X122782900Y-67650000D02*
X121050000Y-67650000D01*
%TO.N,MUXZ*%
X132380000Y-66380000D02*
X131000000Y-65000000D01*
X134050000Y-66380000D02*
X132380000Y-66380000D01*
X131000000Y-65000000D02*
X119670000Y-65000000D01*
%TO.N,VCC*%
X121050000Y-70190000D02*
X122810000Y-70190000D01*
X122810000Y-70190000D02*
X124000000Y-69000000D01*
X124000000Y-69000000D02*
X124000000Y-67000000D01*
X124000000Y-67000000D02*
X125380000Y-67000000D01*
X125380000Y-67000000D02*
X126000000Y-66380000D01*
%TO.N,NS3Q*%
X115000000Y-72000000D02*
X115000000Y-73000000D01*
X121050000Y-71460000D02*
X115540000Y-71460000D01*
X115540000Y-71460000D02*
X115000000Y-72000000D01*
%TO.N,S2Q*%
X121050000Y-68920000D02*
X115080000Y-68920000D01*
X115080000Y-68920000D02*
X113000000Y-71000000D01*
%TO.N,S1Q*%
X102000000Y-66000000D02*
X100000000Y-66000000D01*
X103650000Y-67650000D02*
X102000000Y-66000000D01*
X121050000Y-67650000D02*
X103650000Y-67650000D01*
%TO.N,MUXZ*%
X94000000Y-65110000D02*
X94000000Y-65000000D01*
X93000000Y-66110000D02*
X94000000Y-65110000D01*
X94000000Y-65000000D02*
X119000000Y-65000000D01*
X119670000Y-65000000D02*
X121050000Y-66380000D01*
%TO.N,TABLE8*%
X126000000Y-67650000D02*
X127217100Y-67650000D01*
X133000000Y-78000000D02*
X168000000Y-78000000D01*
X127217100Y-67650000D02*
X129000000Y-69432900D01*
X129000000Y-69432900D02*
X129000000Y-74000000D01*
X129000000Y-74000000D02*
X133000000Y-78000000D01*
X168000000Y-78000000D02*
X173000000Y-83000000D01*
X221000000Y-85000000D02*
X222000000Y-86000000D01*
X173000000Y-83000000D02*
X197000000Y-83000000D01*
X197000000Y-83000000D02*
X199000000Y-85000000D01*
X222000000Y-86000000D02*
X278000000Y-86000000D01*
X199000000Y-85000000D02*
X221000000Y-85000000D01*
%TO.N,TABLE9*%
X278000000Y-87000000D02*
X221000000Y-87000000D01*
X196000000Y-84000000D02*
X173000000Y-84000000D01*
X221000000Y-87000000D02*
X220000000Y-86000000D01*
X220000000Y-86000000D02*
X198000000Y-86000000D01*
X173000000Y-84000000D02*
X168000000Y-79000000D01*
X198000000Y-86000000D02*
X196000000Y-84000000D01*
X168000000Y-79000000D02*
X132000000Y-79000000D01*
X132000000Y-79000000D02*
X128000000Y-75000000D01*
X128000000Y-75000000D02*
X128000000Y-69000000D01*
X128000000Y-69000000D02*
X126080000Y-69000000D01*
X126080000Y-69000000D02*
X126000000Y-68920000D01*
%TO.N,TABLE15*%
X120075001Y-74000000D02*
X121050000Y-74000000D01*
X119000000Y-75075001D02*
X120075001Y-74000000D01*
X167000000Y-80000000D02*
X166000000Y-80000000D01*
X193000000Y-85000000D02*
X173000000Y-85000000D01*
X170000000Y-83000000D02*
X167000000Y-80000000D01*
X173000000Y-85000000D02*
X171000000Y-83000000D01*
X130000000Y-80000000D02*
X129000000Y-79000000D01*
X171000000Y-83000000D02*
X170000000Y-83000000D01*
X166000000Y-80000000D02*
X130000000Y-80000000D01*
X119000000Y-78000000D02*
X119000000Y-75075001D01*
%TO.N,TABLE12*%
X125000000Y-83000000D02*
X125000000Y-78000000D01*
%TO.N,TABLE11*%
X124000000Y-82000000D02*
X124000000Y-81000000D01*
X124000000Y-81000000D02*
X123599000Y-80599000D01*
X123599000Y-80599000D02*
X123599000Y-72401000D01*
X123599000Y-72401000D02*
X124540000Y-71460000D01*
X124540000Y-71460000D02*
X126000000Y-71460000D01*
%TO.N,TABLE10*%
X123000000Y-81000000D02*
X123000000Y-72215001D01*
X125025001Y-70190000D02*
X126000000Y-70190000D01*
X123000000Y-72215001D02*
X125025001Y-70190000D01*
%TO.N,TABLE13*%
X124000000Y-76000000D02*
X124000000Y-75000000D01*
X131000000Y-83000000D02*
X124000000Y-76000000D01*
X143000000Y-83000000D02*
X131000000Y-83000000D01*
X124000000Y-75000000D02*
X125000000Y-74000000D01*
X125000000Y-74000000D02*
X126000000Y-74000000D01*
%TO.N,TABLE14*%
X126000000Y-75270000D02*
X126000000Y-77000000D01*
X126000000Y-77000000D02*
X130000000Y-81000000D01*
X130000000Y-81000000D02*
X166000000Y-81000000D01*
X166000000Y-81000000D02*
X167000000Y-82000000D01*
X167000000Y-82000000D02*
X167000000Y-83000000D01*
%TO.N,TABLE8*%
X251000000Y-147000000D02*
X253000000Y-149000000D01*
X287000000Y-125000000D02*
X287000000Y-86000000D01*
X253000000Y-149000000D02*
X253000000Y-150000000D01*
X287000000Y-145000000D02*
X287000000Y-125000000D01*
X282000000Y-150000000D02*
X283000000Y-149000000D01*
X283000000Y-149000000D02*
X287000000Y-145000000D01*
X253000000Y-150000000D02*
X282000000Y-150000000D01*
X231000000Y-147000000D02*
X251000000Y-147000000D01*
%TO.N,TABLE9*%
X286000000Y-133000000D02*
X286000000Y-87000000D01*
X285000000Y-138000000D02*
X286000000Y-137000000D01*
X286000000Y-137000000D02*
X286000000Y-133000000D01*
X276000000Y-147000000D02*
X285000000Y-138000000D01*
X256000000Y-147000000D02*
X276000000Y-147000000D01*
%TO.N,TABLE10*%
X47460000Y-116000000D02*
X59000000Y-116000000D01*
X59000000Y-116000000D02*
X86000000Y-116000000D01*
X86000000Y-116000000D02*
X92000000Y-110000000D01*
X40000000Y-123460000D02*
X47460000Y-116000000D01*
X20000000Y-123460000D02*
X40000000Y-123460000D01*
%TO.N,TABLE11*%
X93000000Y-112000000D02*
X93000000Y-101000000D01*
X90000000Y-117000000D02*
X92000000Y-115000000D01*
X92000000Y-113000000D02*
X93000000Y-112000000D01*
X89000000Y-118000000D02*
X90000000Y-117000000D01*
X89000000Y-121000000D02*
X89000000Y-118000000D01*
X92000000Y-115000000D02*
X92000000Y-113000000D01*
X72000000Y-121000000D02*
X89000000Y-121000000D01*
X65000000Y-123460000D02*
X69540000Y-123460000D01*
X69540000Y-123460000D02*
X72000000Y-121000000D01*
X45000000Y-123460000D02*
X65000000Y-123460000D01*
%TO.N,TABLE12*%
X109000000Y-115000000D02*
X112000000Y-115000000D01*
X118000000Y-109000000D02*
X118000000Y-103000000D01*
X108000000Y-115000000D02*
X109000000Y-115000000D01*
X100000000Y-123000000D02*
X108000000Y-115000000D01*
X112000000Y-115000000D02*
X118000000Y-109000000D01*
%TO.N,TABLE23*%
X117000000Y-87000000D02*
X107000000Y-87000000D01*
X107000000Y-87000000D02*
X99000000Y-79000000D01*
%TO.N,TABLE12*%
X99540000Y-123460000D02*
X100000000Y-123000000D01*
X77000000Y-123460000D02*
X99540000Y-123460000D01*
%TO.N,TABLE13*%
X134000000Y-120000000D02*
X143000000Y-111000000D01*
X131000000Y-120000000D02*
X134000000Y-120000000D01*
X105000000Y-123460000D02*
X126540000Y-123460000D01*
X143000000Y-111000000D02*
X143000000Y-102000000D01*
X130000000Y-120000000D02*
X131000000Y-120000000D01*
X126540000Y-123460000D02*
X127000000Y-123000000D01*
X127000000Y-123000000D02*
X130000000Y-120000000D01*
%TO.N,TABLE14*%
X156000000Y-120000000D02*
X162000000Y-120000000D01*
X153540000Y-123460000D02*
X154000000Y-123000000D01*
X162000000Y-120000000D02*
X168000000Y-114000000D01*
X132000000Y-123460000D02*
X153540000Y-123460000D01*
X156000000Y-121000000D02*
X156000000Y-120000000D01*
X154000000Y-123000000D02*
X156000000Y-121000000D01*
X168000000Y-114000000D02*
X168000000Y-102000000D01*
%TO.N,TABLE15*%
X184000000Y-121000000D02*
X192000000Y-121000000D01*
X177000000Y-123460000D02*
X179460000Y-121000000D01*
X179460000Y-121000000D02*
X184000000Y-121000000D01*
X192000000Y-121000000D02*
X194000000Y-119000000D01*
X194000000Y-119000000D02*
X194000000Y-103000000D01*
X157000000Y-123460000D02*
X177000000Y-123460000D01*
%TO.N,VCC*%
X94080000Y-69920000D02*
X95000000Y-69000000D01*
X93000000Y-69920000D02*
X94080000Y-69920000D01*
X95000000Y-69000000D02*
X95000000Y-68085001D01*
X96975001Y-66110000D02*
X97950000Y-66110000D01*
X95000000Y-68085001D02*
X96975001Y-66110000D01*
%TO.N,MUXZ*%
X81950000Y-76000000D02*
X83000000Y-76000000D01*
X83000000Y-76000000D02*
X84000000Y-75000000D01*
X87000000Y-75000000D02*
X89000000Y-73000000D01*
X89000000Y-73000000D02*
X89000000Y-69135001D01*
X89000000Y-69135001D02*
X92025001Y-66110000D01*
X92025001Y-66110000D02*
X93000000Y-66110000D01*
%TO.N,S1Q*%
X90000000Y-69000000D02*
X90000000Y-74000000D01*
X91000000Y-68000000D02*
X90000000Y-69000000D01*
%TO.N,S2Q*%
X91000000Y-69675001D02*
X91000000Y-73000000D01*
X92025001Y-68650000D02*
X91000000Y-69675001D01*
X93000000Y-68650000D02*
X92025001Y-68650000D01*
%TO.N,S1Q*%
X91620000Y-67380000D02*
X91000000Y-68000000D01*
X93000000Y-67380000D02*
X91620000Y-67380000D01*
%TO.N,TABLE19*%
X111000000Y-71000000D02*
X110000000Y-71000000D01*
X124000000Y-84000000D02*
X111000000Y-71000000D01*
X197000000Y-86000000D02*
X173000000Y-86000000D01*
X171000000Y-84000000D02*
X124000000Y-84000000D01*
X245000000Y-88000000D02*
X221000000Y-88000000D01*
X273000000Y-92000000D02*
X270000000Y-89000000D01*
X198000000Y-87000000D02*
X197000000Y-86000000D01*
X246000000Y-89000000D02*
X245000000Y-88000000D01*
X221000000Y-88000000D02*
X220000000Y-87000000D01*
X270000000Y-89000000D02*
X246000000Y-89000000D01*
X220000000Y-87000000D02*
X198000000Y-87000000D01*
X173000000Y-86000000D02*
X171000000Y-84000000D01*
%TO.N,TABLE18*%
X197000000Y-88000000D02*
X196000000Y-87000000D01*
X270000000Y-90000000D02*
X246000000Y-90000000D01*
X196000000Y-87000000D02*
X173000000Y-87000000D01*
X216000000Y-88000000D02*
X197000000Y-88000000D01*
X246000000Y-90000000D02*
X245000000Y-89000000D01*
X243000000Y-89000000D02*
X221000000Y-89000000D01*
X272000000Y-92000000D02*
X270000000Y-90000000D01*
X173000000Y-87000000D02*
X171000000Y-85000000D01*
X221000000Y-89000000D02*
X220000000Y-88000000D01*
X123000000Y-85000000D02*
X108000000Y-70000000D01*
X245000000Y-89000000D02*
X243000000Y-89000000D01*
X171000000Y-85000000D02*
X123000000Y-85000000D01*
X220000000Y-88000000D02*
X216000000Y-88000000D01*
%TO.N,TABLE17*%
X213000000Y-89000000D02*
X196000000Y-89000000D01*
X271000000Y-92000000D02*
X270000000Y-91000000D01*
X196000000Y-89000000D02*
X195000000Y-88000000D01*
X120000000Y-83000000D02*
X106000000Y-69000000D01*
X245000000Y-91000000D02*
X244000000Y-90000000D01*
X244000000Y-90000000D02*
X221000000Y-90000000D01*
X171000000Y-86000000D02*
X169000000Y-86000000D01*
X172000000Y-87000000D02*
X171000000Y-86000000D01*
X195000000Y-88000000D02*
X173000000Y-88000000D01*
X173000000Y-88000000D02*
X172000000Y-87000000D01*
X221000000Y-90000000D02*
X220000000Y-89000000D01*
X270000000Y-91000000D02*
X245000000Y-91000000D01*
X169000000Y-86000000D02*
X123000000Y-86000000D01*
X220000000Y-89000000D02*
X213000000Y-89000000D01*
X123000000Y-86000000D02*
X120000000Y-83000000D01*
%TO.N,TABLE16*%
X269000000Y-92000000D02*
X245000000Y-92000000D01*
X244000000Y-91000000D02*
X220000000Y-91000000D01*
X245000000Y-92000000D02*
X244000000Y-91000000D01*
X220000000Y-91000000D02*
X219000000Y-90000000D01*
X219000000Y-90000000D02*
X195000000Y-90000000D01*
X195000000Y-90000000D02*
X194000000Y-89000000D01*
X101380000Y-67380000D02*
X97950000Y-67380000D01*
X194000000Y-89000000D02*
X173000000Y-89000000D01*
X173000000Y-89000000D02*
X171000000Y-87000000D01*
X171000000Y-87000000D02*
X121000000Y-87000000D01*
X121000000Y-87000000D02*
X101380000Y-67380000D01*
X193242952Y-123728809D02*
X197044673Y-123728809D01*
X197044673Y-123728809D02*
X197083075Y-123690407D01*
X231000000Y-117000000D02*
X270000000Y-117000000D01*
X270000000Y-117000000D02*
X271000000Y-116000000D01*
X271000000Y-116000000D02*
X271000000Y-102000000D01*
X204000000Y-120000000D02*
X207000000Y-117000000D01*
X207000000Y-117000000D02*
X231000000Y-117000000D01*
X201000000Y-123460000D02*
X204000000Y-120460000D01*
X204000000Y-120460000D02*
X204000000Y-120000000D01*
X181365997Y-123758555D02*
X200701445Y-123758555D01*
X200701445Y-123758555D02*
X201000000Y-123460000D01*
%TO.N,TABLE17*%
X270000000Y-118000000D02*
X272000000Y-116000000D01*
X230000000Y-118000000D02*
X270000000Y-118000000D01*
X272000000Y-116000000D02*
X272000000Y-102000000D01*
X226000000Y-123460000D02*
X230000000Y-119460000D01*
X230000000Y-119460000D02*
X230000000Y-118000000D01*
X206077614Y-123401526D02*
X225941526Y-123401526D01*
X225941526Y-123401526D02*
X226000000Y-123460000D01*
%TO.N,TABLE18*%
X270000000Y-119000000D02*
X273000000Y-116000000D01*
X251000000Y-123460000D02*
X251000000Y-122000000D01*
X254000000Y-119000000D02*
X270000000Y-119000000D01*
X251000000Y-122000000D02*
X254000000Y-119000000D01*
X273000000Y-116000000D02*
X273000000Y-102000000D01*
X231024542Y-123466257D02*
X250993743Y-123466257D01*
X250993743Y-123466257D02*
X251000000Y-123460000D01*
%TO.N,TABLE19*%
X276000000Y-123475317D02*
X276000000Y-112000000D01*
X276000000Y-112000000D02*
X274000000Y-110000000D01*
X274000000Y-110000000D02*
X274000000Y-102000000D01*
X256275702Y-123419131D02*
X275943814Y-123419131D01*
X275943814Y-123419131D02*
X276000000Y-123475317D01*
%TO.N,TABLE20*%
X96000000Y-77000000D02*
X97000000Y-77000000D01*
%TO.N,TABLE22*%
X92000000Y-87000000D02*
X97950000Y-81050000D01*
X97950000Y-81050000D02*
X97950000Y-75000000D01*
%TO.N,TABLE20*%
X90000000Y-83000000D02*
X96000000Y-77000000D01*
X90000000Y-87000000D02*
X90000000Y-83000000D01*
%TO.N,TABLE21*%
X88000000Y-87000000D02*
X88000000Y-83000000D01*
X88000000Y-83000000D02*
X97270000Y-73730000D01*
X97270000Y-73730000D02*
X97950000Y-73730000D01*
%TO.N,TABLE20*%
X41166653Y-108833347D02*
X42000000Y-108000000D01*
X39909784Y-108833347D02*
X41166653Y-108833347D01*
X20000000Y-108930143D02*
X39812988Y-108930143D01*
X39812988Y-108930143D02*
X39909784Y-108833347D01*
%TO.N,TABLE21*%
X65549170Y-108000000D02*
X67000000Y-108000000D01*
X64651166Y-108898004D02*
X65549170Y-108000000D01*
X45000000Y-108930143D02*
X64619027Y-108930143D01*
X64619027Y-108930143D02*
X64651166Y-108898004D01*
%TO.N,TABLE22*%
X70000000Y-108940143D02*
X91940143Y-108940143D01*
X92000000Y-109000000D02*
X91940143Y-108940143D01*
%TO.N,TABLE23*%
X115069857Y-108930143D02*
X117000000Y-107000000D01*
X115000000Y-108930143D02*
X115069857Y-108930143D01*
X95000000Y-108930143D02*
X115000000Y-108930143D01*
%TO.N,TABLE31*%
X67000000Y-78000000D02*
X71000000Y-74000000D01*
X67000000Y-83000000D02*
X67000000Y-78000000D01*
%TO.N,TABLE30*%
X77000000Y-67110000D02*
X46890000Y-67110000D01*
X46890000Y-67110000D02*
X41000000Y-73000000D01*
%TO.N,TABLE29*%
X269000000Y-93000000D02*
X244000000Y-93000000D01*
X243000000Y-92000000D02*
X220000000Y-92000000D01*
X244000000Y-93000000D02*
X243000000Y-92000000D01*
X78599000Y-65833900D02*
X78599000Y-67401000D01*
X220000000Y-92000000D02*
X219000000Y-91000000D01*
X219000000Y-91000000D02*
X195000000Y-91000000D01*
X195000000Y-91000000D02*
X194000000Y-90000000D01*
X87000000Y-88000000D02*
X86000000Y-87000000D01*
X194000000Y-90000000D02*
X172000000Y-90000000D01*
X86000000Y-87000000D02*
X86000000Y-68000000D01*
X172000000Y-90000000D02*
X170000000Y-88000000D01*
X80432900Y-64000000D02*
X78599000Y-65833900D01*
X170000000Y-88000000D02*
X87000000Y-88000000D01*
X82000000Y-64000000D02*
X80432900Y-64000000D01*
X86000000Y-68000000D02*
X82000000Y-64000000D01*
X78599000Y-67401000D02*
X77620000Y-68380000D01*
X77620000Y-68380000D02*
X77000000Y-68380000D01*
%TO.N,TABLE28*%
X85000000Y-89000000D02*
X169000000Y-89000000D01*
X169000000Y-89000000D02*
X171000000Y-91000000D01*
X82000000Y-65000000D02*
X85000000Y-68000000D01*
X79000000Y-69000000D02*
X79000000Y-66000000D01*
X80000000Y-65000000D02*
X82000000Y-65000000D01*
X219000000Y-92000000D02*
X220000000Y-93000000D01*
X171000000Y-91000000D02*
X194000000Y-91000000D01*
X220000000Y-93000000D02*
X243000000Y-93000000D01*
X194000000Y-91000000D02*
X195000000Y-92000000D01*
X78350000Y-69650000D02*
X79000000Y-69000000D01*
X195000000Y-92000000D02*
X219000000Y-92000000D01*
X77000000Y-69650000D02*
X78350000Y-69650000D01*
X79000000Y-66000000D02*
X80000000Y-65000000D01*
X85000000Y-68000000D02*
X85000000Y-89000000D01*
%TO.N,TABLE27*%
X194000000Y-92000000D02*
X195000000Y-93000000D01*
X170000000Y-92000000D02*
X194000000Y-92000000D01*
X195000000Y-93000000D02*
X218000000Y-93000000D01*
X77346968Y-70920000D02*
X80401000Y-73974032D01*
X81000000Y-90000000D02*
X168000000Y-90000000D01*
X80401000Y-79401000D02*
X81000000Y-80000000D01*
X80401000Y-73974032D02*
X80401000Y-79401000D01*
X81000000Y-80000000D02*
X81000000Y-90000000D01*
X168000000Y-90000000D02*
X170000000Y-92000000D01*
X77000000Y-70920000D02*
X77346968Y-70920000D01*
%TO.N,TABLE26*%
X77000000Y-72190000D02*
X77974999Y-72190000D01*
X80000000Y-91000000D02*
X167000000Y-91000000D01*
X77974999Y-72190000D02*
X80000000Y-74215001D01*
X80000000Y-74215001D02*
X80000000Y-91000000D01*
X167000000Y-91000000D02*
X169000000Y-93000000D01*
X169000000Y-93000000D02*
X193000000Y-93000000D01*
%TO.N,TABLE25*%
X77000000Y-73460000D02*
X77974999Y-73460000D01*
X79000000Y-74485001D02*
X79000000Y-92000000D01*
X77974999Y-73460000D02*
X79000000Y-74485001D01*
%TO.N,TABLE24*%
X73000000Y-91000000D02*
X75000000Y-93000000D01*
%TO.N,TABLE25*%
X166000000Y-92000000D02*
X79000000Y-92000000D01*
X167000000Y-93000000D02*
X166000000Y-92000000D01*
%TO.N,TABLE24*%
X142000000Y-93000000D02*
X75000000Y-93000000D01*
X73000000Y-91000000D02*
X73000000Y-76000000D01*
X73000000Y-76000000D02*
X74270000Y-74730000D01*
X74270000Y-74730000D02*
X77000000Y-74730000D01*
X142000000Y-106850143D02*
X142000000Y-106000000D01*
X140000000Y-108850143D02*
X142000000Y-106850143D01*
X120000000Y-108930143D02*
X139920000Y-108930143D01*
X139920000Y-108930143D02*
X140000000Y-108850143D01*
%TO.N,TABLE25*%
X165000000Y-108930143D02*
X166930143Y-107000000D01*
X166930143Y-107000000D02*
X167000000Y-107000000D01*
X144948552Y-108896413D02*
X164966270Y-108896413D01*
X164966270Y-108896413D02*
X165000000Y-108930143D01*
%TO.N,TABLE26*%
X191270833Y-108729167D02*
X193000000Y-107000000D01*
X191000000Y-108729167D02*
X191270833Y-108729167D01*
X193000000Y-107000000D02*
X193000000Y-106000000D01*
X170127868Y-108858221D02*
X190870946Y-108858221D01*
X190870946Y-108858221D02*
X191000000Y-108729167D01*
%TO.N,TABLE27*%
X215974858Y-108829331D02*
X217804189Y-107000000D01*
X217804189Y-107000000D02*
X218000000Y-107000000D01*
X195974858Y-108829331D02*
X215974858Y-108829331D01*
%TO.N,TABLE28*%
X240943696Y-108983867D02*
X242927563Y-107000000D01*
X242927563Y-107000000D02*
X243000000Y-107000000D01*
X243000000Y-107000000D02*
X243000000Y-105000000D01*
X221000000Y-109090143D02*
X240837420Y-109090143D01*
X240837420Y-109090143D02*
X240943696Y-108983867D01*
%TO.N,TABLE29*%
X265937440Y-108983867D02*
X268921307Y-106000000D01*
X268921307Y-106000000D02*
X269000000Y-106000000D01*
X245937440Y-108983867D02*
X265937440Y-108983867D01*
%TO.N,TABLE31*%
X66850143Y-83000000D02*
X67000000Y-83000000D01*
X65000000Y-84850143D02*
X66850143Y-83000000D01*
X45000000Y-84850143D02*
X65000000Y-84850143D01*
%TO.N,TABLE30*%
X41000000Y-83850143D02*
X41000000Y-73000000D01*
X40000000Y-84850143D02*
X41000000Y-83850143D01*
%TO.N,S1D*%
X285000000Y-96000000D02*
X285000000Y-93000000D01*
%TO.N,S2D*%
X284000000Y-96000000D02*
X284000000Y-93000000D01*
%TO.N,S3D*%
X283000000Y-97000000D02*
X283000000Y-93000000D01*
%TO.N,R{slash}L*%
X280000000Y-94000000D02*
X280000000Y-93000000D01*
%TO.N,S1D*%
X270609857Y-100000000D02*
X275000000Y-100000000D01*
X270000000Y-99390143D02*
X270609857Y-100000000D01*
X285000000Y-137000000D02*
X285000000Y-99000000D01*
%TO.N,S2D*%
X274390143Y-98390143D02*
X275000000Y-99000000D01*
X270000000Y-98390143D02*
X274390143Y-98390143D01*
X284000000Y-136000000D02*
X284000000Y-99000000D01*
%TO.N,S3D*%
X275390143Y-97390143D02*
X276000000Y-98000000D01*
X270000000Y-97390143D02*
X275390143Y-97390143D01*
X283000000Y-136000000D02*
X283000000Y-98000000D01*
%TO.N,S4D*%
X276390143Y-96390143D02*
X277000000Y-97000000D01*
X282000000Y-135000000D02*
X282000000Y-96000000D01*
X270000000Y-96390143D02*
X276390143Y-96390143D01*
%TO.N,tNew*%
X277390143Y-95390143D02*
X278000000Y-96000000D01*
X270000000Y-95390143D02*
X277390143Y-95390143D01*
%TO.N,R{slash}L*%
X267000000Y-94390143D02*
X279609857Y-94390143D01*
X279609857Y-94390143D02*
X280000000Y-94000000D01*
X280000000Y-94000000D02*
X280000000Y-132000000D01*
X280000000Y-132000000D02*
X279000000Y-133000000D01*
X279000000Y-133000000D02*
X278000000Y-133000000D01*
%TO.N,tNew*%
X281000000Y-134000000D02*
X281000000Y-95000000D01*
X279000000Y-134000000D02*
X281000000Y-134000000D01*
%TO.N,S4D*%
X279000000Y-135000000D02*
X282000000Y-135000000D01*
%TO.N,S3D*%
X283000000Y-98000000D02*
X283000000Y-97000000D01*
X279000000Y-136000000D02*
X283000000Y-136000000D01*
%TO.N,S2D*%
X284000000Y-99000000D02*
X284000000Y-96000000D01*
X279000000Y-137000000D02*
X283000000Y-137000000D01*
X283000000Y-137000000D02*
X284000000Y-136000000D01*
%TO.N,S1D*%
X285000000Y-99000000D02*
X285000000Y-96000000D01*
X284000000Y-138000000D02*
X285000000Y-137000000D01*
X279000000Y-138000000D02*
X284000000Y-138000000D01*
%TO.N,TABLE30*%
X20000000Y-84850143D02*
X40000000Y-84850143D01*
%TO.N,R{slash}L*%
X65000000Y-87390143D02*
X65000000Y-93390143D01*
X65000000Y-93390143D02*
X66000000Y-94390143D01*
X40000000Y-87390143D02*
X40000000Y-93390143D01*
X40000000Y-93390143D02*
X41000000Y-94390143D01*
%TO.N,tNew*%
X36000000Y-87390143D02*
X36000000Y-94390143D01*
X36000000Y-94390143D02*
X37000000Y-95390143D01*
%TO.N,S4D*%
X32000000Y-87390143D02*
X32000000Y-95390143D01*
X32000000Y-95390143D02*
X33000000Y-96390143D01*
%TO.N,S3D*%
X28000000Y-87390143D02*
X28000000Y-96390143D01*
X28000000Y-96390143D02*
X29000000Y-97390143D01*
%TO.N,S2D*%
X24000000Y-87390143D02*
X24000000Y-97390143D01*
X24000000Y-97390143D02*
X25000000Y-98390143D01*
%TO.N,S1D*%
X21000000Y-102390143D02*
X22000000Y-101390143D01*
X20000000Y-99390143D02*
X22000000Y-101390143D01*
X20000000Y-87390143D02*
X20000000Y-99390143D01*
X222000000Y-99390143D02*
X247000000Y-99390143D01*
X245937440Y-106443867D02*
X245937440Y-100452703D01*
X245937440Y-100452703D02*
X247000000Y-99390143D01*
X197000000Y-99390143D02*
X222000000Y-99390143D01*
X221000000Y-106550143D02*
X221000000Y-100390143D01*
X221000000Y-100390143D02*
X222000000Y-99390143D01*
X171000000Y-99390143D02*
X197000000Y-99390143D01*
X195974858Y-106289331D02*
X195974858Y-100415285D01*
X195974858Y-100415285D02*
X197000000Y-99390143D01*
X146000000Y-99390143D02*
X171000000Y-99390143D01*
X170127868Y-106318221D02*
X170127868Y-100262275D01*
X170127868Y-100262275D02*
X171000000Y-99390143D01*
X121000000Y-99390143D02*
X146000000Y-99390143D01*
X144948552Y-106356413D02*
X144948552Y-100441591D01*
X144948552Y-100441591D02*
X146000000Y-99390143D01*
X96000000Y-99390143D02*
X121000000Y-99390143D01*
X120000000Y-106390143D02*
X120000000Y-100390143D01*
X120000000Y-100390143D02*
X121000000Y-99390143D01*
X71000000Y-99390143D02*
X96000000Y-99390143D01*
X95000000Y-106390143D02*
X95000000Y-100390143D01*
X95000000Y-100390143D02*
X96000000Y-99390143D01*
X24000000Y-99390143D02*
X46000000Y-99390143D01*
X45000000Y-106390143D02*
X45000000Y-100390143D01*
X45000000Y-100390143D02*
X46000000Y-99390143D01*
X46000000Y-99390143D02*
X71000000Y-99390143D01*
X70000000Y-106400143D02*
X70000000Y-100390143D01*
X70000000Y-100390143D02*
X71000000Y-99390143D01*
%TO.N,R{slash}L*%
X242000000Y-94390143D02*
X267000000Y-94390143D01*
%TO.N,tNew*%
X263000000Y-95390143D02*
X270000000Y-95390143D01*
%TO.N,S4D*%
X234000000Y-96390143D02*
X259000000Y-96390143D01*
%TO.N,S3D*%
X230000000Y-97390143D02*
X255000000Y-97390143D01*
%TO.N,S2D*%
X226000000Y-98390143D02*
X251000000Y-98390143D01*
%TO.N,R{slash}L*%
X217000000Y-94390143D02*
X242000000Y-94390143D01*
%TO.N,tNew*%
X238000000Y-95390143D02*
X263000000Y-95390143D01*
%TO.N,S4D*%
X259000000Y-96390143D02*
X270000000Y-96390143D01*
%TO.N,S3D*%
X205000000Y-97390143D02*
X230000000Y-97390143D01*
%TO.N,S2D*%
X201000000Y-98390143D02*
X226000000Y-98390143D01*
%TO.N,R{slash}L*%
X192000000Y-94390143D02*
X217000000Y-94390143D01*
%TO.N,tNew*%
X188000000Y-95390143D02*
X213000000Y-95390143D01*
%TO.N,S4D*%
X184000000Y-96390143D02*
X209000000Y-96390143D01*
%TO.N,S3D*%
X179000000Y-97390143D02*
X205000000Y-97390143D01*
%TO.N,S2D*%
X199000000Y-98390143D02*
X201000000Y-98390143D01*
%TO.N,R{slash}L*%
X166000000Y-94390143D02*
X192000000Y-94390143D01*
%TO.N,tNew*%
X213000000Y-95390143D02*
X238000000Y-95390143D01*
%TO.N,S4D*%
X209000000Y-96390143D02*
X234000000Y-96390143D01*
%TO.N,S3D*%
X154000000Y-97390143D02*
X179000000Y-97390143D01*
%TO.N,S2D*%
X150000000Y-98390143D02*
X175000000Y-98390143D01*
%TO.N,tNew*%
X137000000Y-95390143D02*
X162000000Y-95390143D01*
%TO.N,S4D*%
X133000000Y-96390143D02*
X158000000Y-96390143D01*
%TO.N,S3D*%
X129000000Y-97390143D02*
X154000000Y-97390143D01*
%TO.N,S2D*%
X125000000Y-98390143D02*
X150000000Y-98390143D01*
%TO.N,R{slash}L*%
X116000000Y-94390143D02*
X141000000Y-94390143D01*
%TO.N,tNew*%
X112000000Y-95390143D02*
X137000000Y-95390143D01*
%TO.N,S4D*%
X108000000Y-96390143D02*
X133000000Y-96390143D01*
%TO.N,S3D*%
X104000000Y-97390143D02*
X129000000Y-97390143D01*
%TO.N,S2D*%
X100000000Y-98390143D02*
X125000000Y-98390143D01*
%TO.N,R{slash}L*%
X91000000Y-94390143D02*
X116000000Y-94390143D01*
%TO.N,tNew*%
X87000000Y-95390143D02*
X112000000Y-95390143D01*
%TO.N,S4D*%
X158000000Y-96390143D02*
X184000000Y-96390143D01*
%TO.N,S3D*%
X79000000Y-97390143D02*
X104000000Y-97390143D01*
%TO.N,S2D*%
X75000000Y-98390143D02*
X100000000Y-98390143D01*
%TO.N,R{slash}L*%
X66000000Y-94390143D02*
X91000000Y-94390143D01*
%TO.N,tNew*%
X62000000Y-95390143D02*
X87000000Y-95390143D01*
%TO.N,S4D*%
X58000000Y-96390143D02*
X83000000Y-96390143D01*
%TO.N,S3D*%
X255000000Y-97390143D02*
X270000000Y-97390143D01*
%TO.N,S2D*%
X50000000Y-98390143D02*
X75000000Y-98390143D01*
%TO.N,R{slash}L*%
X41000000Y-94390143D02*
X66000000Y-94390143D01*
%TO.N,tNew*%
X37000000Y-95390143D02*
X62000000Y-95390143D01*
%TO.N,S4D*%
X40000000Y-96390143D02*
X58000000Y-96390143D01*
%TO.N,S3D*%
X33000000Y-97390143D02*
X54000000Y-97390143D01*
%TO.N,S2D*%
X25000000Y-98390143D02*
X50000000Y-98390143D01*
%TO.N,R{slash}L*%
X141000000Y-94390143D02*
X166000000Y-94390143D01*
%TO.N,tNew*%
X162000000Y-95390143D02*
X188000000Y-95390143D01*
%TO.N,S4D*%
X83000000Y-96390143D02*
X108000000Y-96390143D01*
X33000000Y-96390143D02*
X40000000Y-96390143D01*
%TO.N,S3D*%
X54000000Y-97390143D02*
X79000000Y-97390143D01*
X29000000Y-97390143D02*
X33000000Y-97390143D01*
%TO.N,S2D*%
X251000000Y-98390143D02*
X270000000Y-98390143D01*
X175000000Y-98390143D02*
X199000000Y-98390143D01*
%TO.N,S1D*%
X20000000Y-106390143D02*
X20000000Y-103390143D01*
X247000000Y-99390143D02*
X270000000Y-99390143D01*
X22000000Y-101390143D02*
X24000000Y-99390143D01*
X20000000Y-103390143D02*
X21000000Y-102390143D01*
%TO.N,R{slash}L*%
X251000000Y-126000000D02*
X251000000Y-131000000D01*
X251000000Y-131000000D02*
X253000000Y-133000000D01*
X226000000Y-126000000D02*
X226000000Y-131000000D01*
X226000000Y-131000000D02*
X228000000Y-133000000D01*
X201000000Y-126000000D02*
X201000000Y-131000000D01*
X201000000Y-131000000D02*
X203000000Y-133000000D01*
X177000000Y-126000000D02*
X178000000Y-127000000D01*
X178000000Y-127000000D02*
X178000000Y-133000000D01*
X124609658Y-125964233D02*
X124609658Y-131609658D01*
X124609658Y-131609658D02*
X125800000Y-132800000D01*
X97000000Y-126000000D02*
X97000000Y-132000000D01*
X97000000Y-132000000D02*
X98000000Y-133000000D01*
%TO.N,S1D*%
X182000000Y-138000000D02*
X183000000Y-138000000D01*
X183000000Y-138000000D02*
X207000000Y-138000000D01*
X208000000Y-138000000D02*
X232000000Y-138000000D01*
%TO.N,R{slash}L*%
X276000000Y-126015317D02*
X276000000Y-131000000D01*
X276000000Y-131000000D02*
X278000000Y-133000000D01*
X253000000Y-133000000D02*
X266000000Y-133000000D01*
X179000000Y-133000000D02*
X190000000Y-133000000D01*
X41000000Y-133000000D02*
X66000000Y-133000000D01*
X65000000Y-126000000D02*
X65000000Y-132000000D01*
X65000000Y-132000000D02*
X66000000Y-133000000D01*
%TO.N,S1D*%
X20200000Y-138000000D02*
X45000000Y-138000000D01*
X20100000Y-138100000D02*
X20200000Y-138000000D01*
X20000000Y-138000000D02*
X20000000Y-126000000D01*
X20100000Y-138100000D02*
X20000000Y-138000000D01*
%TO.N,S2D*%
X24000000Y-126000000D02*
X24000000Y-136000000D01*
X24000000Y-136000000D02*
X23000000Y-137000000D01*
%TO.N,S3D*%
X28000000Y-126000000D02*
X28000000Y-135000000D01*
X28000000Y-135000000D02*
X27000000Y-136000000D01*
%TO.N,S4D*%
X32000000Y-126000000D02*
X32000000Y-135000000D01*
%TO.N,tNew*%
X36000000Y-126000000D02*
X36000000Y-134000000D01*
%TO.N,R{slash}L*%
X40000000Y-126000000D02*
X40000000Y-132000000D01*
X40000000Y-132000000D02*
X41000000Y-133000000D01*
%TO.N,S1D*%
X233000000Y-138000000D02*
X258000000Y-138000000D01*
%TO.N,S2D*%
X235000000Y-137000000D02*
X260000000Y-137000000D01*
%TO.N,S3D*%
X239000000Y-136000000D02*
X264000000Y-136000000D01*
%TO.N,S4D*%
X244000000Y-135000000D02*
X269000000Y-135000000D01*
%TO.N,tNew*%
X248000000Y-134000000D02*
X273000000Y-134000000D01*
%TO.N,R{slash}L*%
X266000000Y-133000000D02*
X278000000Y-133000000D01*
%TO.N,S1D*%
X256000000Y-144460000D02*
X256000000Y-140000000D01*
X258000000Y-138000000D02*
X279000000Y-138000000D01*
X256000000Y-140000000D02*
X258000000Y-138000000D01*
%TO.N,S4D*%
X269000000Y-135000000D02*
X271000000Y-135000000D01*
%TO.N,S2D*%
X260000000Y-137000000D02*
X262000000Y-137000000D01*
X274000000Y-137000000D02*
X279000000Y-137000000D01*
%TO.N,tNew*%
X272800000Y-134200000D02*
X273000000Y-134000000D01*
%TO.N,S3D*%
X263800000Y-136200000D02*
X264000000Y-136000000D01*
%TO.N,S2D*%
X259800000Y-137200000D02*
X260000000Y-137000000D01*
%TO.N,S3D*%
X271000000Y-136000000D02*
X274000000Y-136000000D01*
%TO.N,S4D*%
X268800000Y-135200000D02*
X269000000Y-135000000D01*
%TO.N,R{slash}L*%
X277800000Y-133200000D02*
X278000000Y-133000000D01*
%TO.N,S4D*%
X271000000Y-135000000D02*
X274000000Y-135000000D01*
X274000000Y-135000000D02*
X279000000Y-135000000D01*
%TO.N,tNew*%
X273000000Y-134000000D02*
X279000000Y-134000000D01*
%TO.N,S2D*%
X262000000Y-137000000D02*
X267000000Y-137000000D01*
%TO.N,S3D*%
X267000000Y-136000000D02*
X271000000Y-136000000D01*
%TO.N,S2D*%
X267000000Y-137000000D02*
X274000000Y-137000000D01*
%TO.N,S3D*%
X264000000Y-136000000D02*
X267000000Y-136000000D01*
X274000000Y-136000000D02*
X279000000Y-136000000D01*
%TO.N,S1D*%
X232000000Y-138000000D02*
X233000000Y-138000000D01*
%TO.N,S2D*%
X210000000Y-137000000D02*
X235000000Y-137000000D01*
%TO.N,S3D*%
X214000000Y-136000000D02*
X239000000Y-136000000D01*
%TO.N,S4D*%
X219000000Y-135000000D02*
X244000000Y-135000000D01*
%TO.N,tNew*%
X223000000Y-134000000D02*
X247600000Y-134000000D01*
X247600000Y-134000000D02*
X247800000Y-134200000D01*
X247800000Y-134200000D02*
X248000000Y-134000000D01*
%TO.N,R{slash}L*%
X228000000Y-133000000D02*
X253000000Y-133000000D01*
%TO.N,S1D*%
X231000000Y-144460000D02*
X231000000Y-140000000D01*
X231000000Y-140000000D02*
X233000000Y-138000000D01*
%TO.N,S3D*%
X238800000Y-136200000D02*
X239000000Y-136000000D01*
%TO.N,S2D*%
X234800000Y-137200000D02*
X235000000Y-137000000D01*
%TO.N,S4D*%
X243800000Y-135200000D02*
X244000000Y-135000000D01*
%TO.N,R{slash}L*%
X252800000Y-133200000D02*
X253000000Y-133000000D01*
%TO.N,S1D*%
X207000000Y-138000000D02*
X208000000Y-138000000D01*
%TO.N,S2D*%
X185000000Y-137000000D02*
X210000000Y-137000000D01*
%TO.N,S3D*%
X189000000Y-136000000D02*
X214000000Y-136000000D01*
%TO.N,S4D*%
X194000000Y-135000000D02*
X219000000Y-135000000D01*
%TO.N,tNew*%
X198000000Y-134000000D02*
X223000000Y-134000000D01*
%TO.N,R{slash}L*%
X203000000Y-133000000D02*
X228000000Y-133000000D01*
%TO.N,S1D*%
X205600000Y-144460000D02*
X205600000Y-140400000D01*
X205600000Y-140400000D02*
X208000000Y-138000000D01*
%TO.N,tNew*%
X222800000Y-134200000D02*
X223000000Y-134000000D01*
%TO.N,S3D*%
X213800000Y-136200000D02*
X214000000Y-136000000D01*
%TO.N,S2D*%
X209800000Y-137200000D02*
X210000000Y-137000000D01*
%TO.N,S4D*%
X218800000Y-135200000D02*
X219000000Y-135000000D01*
%TO.N,R{slash}L*%
X227800000Y-133200000D02*
X228000000Y-133000000D01*
%TO.N,S4D*%
X169000000Y-135000000D02*
X194000000Y-135000000D01*
%TO.N,tNew*%
X173000000Y-134000000D02*
X198000000Y-134000000D01*
%TO.N,R{slash}L*%
X190000000Y-133000000D02*
X203000000Y-133000000D01*
%TO.N,S3D*%
X164000000Y-136000000D02*
X189000000Y-136000000D01*
%TO.N,S2D*%
X160000000Y-137000000D02*
X185000000Y-137000000D01*
%TO.N,S1D*%
X158000000Y-138000000D02*
X182000000Y-138000000D01*
X181000000Y-144460000D02*
X181000000Y-140000000D01*
X181000000Y-140000000D02*
X183000000Y-138000000D01*
%TO.N,tNew*%
X197800000Y-134200000D02*
X198000000Y-134000000D01*
%TO.N,S3D*%
X188800000Y-136200000D02*
X189000000Y-136000000D01*
%TO.N,S2D*%
X184800000Y-137200000D02*
X185000000Y-137000000D01*
%TO.N,S4D*%
X193800000Y-135200000D02*
X194000000Y-135000000D01*
%TO.N,R{slash}L*%
X202800000Y-133200000D02*
X203000000Y-133000000D01*
%TO.N,S1D*%
X132800000Y-137800000D02*
X153800000Y-137800000D01*
X154000000Y-138000000D02*
X158000000Y-138000000D01*
X153800000Y-137800000D02*
X154000000Y-138000000D01*
%TO.N,S2D*%
X134800000Y-136800000D02*
X159800000Y-136800000D01*
X159800000Y-136800000D02*
X160000000Y-137000000D01*
%TO.N,S3D*%
X138800000Y-135800000D02*
X153800000Y-135800000D01*
X153800000Y-135800000D02*
X154000000Y-136000000D01*
X154000000Y-136000000D02*
X164000000Y-136000000D01*
%TO.N,S4D*%
X154000000Y-135000000D02*
X169000000Y-135000000D01*
X153800000Y-134800000D02*
X154000000Y-135000000D01*
%TO.N,tNew*%
X153800000Y-133800000D02*
X154000000Y-134000000D01*
X154000000Y-134000000D02*
X173000000Y-134000000D01*
%TO.N,R{slash}L*%
X153800000Y-132800000D02*
X154000000Y-133000000D01*
X154000000Y-133000000D02*
X178000000Y-133000000D01*
%TO.N,S1D*%
X156000000Y-144460000D02*
X156000000Y-140000000D01*
X156000000Y-140000000D02*
X158000000Y-138000000D01*
%TO.N,tNew*%
X172800000Y-134200000D02*
X173000000Y-134000000D01*
%TO.N,R{slash}L*%
X178000000Y-133000000D02*
X179000000Y-133000000D01*
%TO.N,S4D*%
X168800000Y-135200000D02*
X169000000Y-135000000D01*
%TO.N,R{slash}L*%
X177800000Y-133200000D02*
X178000000Y-133000000D01*
X125800000Y-132800000D02*
X152800000Y-132800000D01*
%TO.N,tNew*%
X120800000Y-133800000D02*
X147800000Y-133800000D01*
%TO.N,S4D*%
X116800000Y-134800000D02*
X143800000Y-134800000D01*
%TO.N,S3D*%
X111800000Y-135800000D02*
X138800000Y-135800000D01*
%TO.N,S2D*%
X107800000Y-136800000D02*
X134800000Y-136800000D01*
%TO.N,S1D*%
X105800000Y-137800000D02*
X132800000Y-137800000D01*
X131000000Y-144460000D02*
X131000000Y-139600000D01*
%TO.N,tNew*%
X147800000Y-133800000D02*
X153800000Y-133800000D01*
%TO.N,S1D*%
X131000000Y-139600000D02*
X132800000Y-137800000D01*
%TO.N,S4D*%
X148800000Y-134800000D02*
X153800000Y-134800000D01*
X143800000Y-134800000D02*
X145800000Y-134800000D01*
%TO.N,R{slash}L*%
X152800000Y-132800000D02*
X153800000Y-132800000D01*
%TO.N,S3D*%
X138600000Y-136000000D02*
X138800000Y-135800000D01*
%TO.N,S2D*%
X134600000Y-137000000D02*
X134800000Y-136800000D01*
%TO.N,S4D*%
X145800000Y-134800000D02*
X148800000Y-134800000D01*
%TO.N,R{slash}L*%
X98000000Y-133000000D02*
X125600000Y-133000000D01*
X125600000Y-133000000D02*
X125800000Y-132800000D01*
%TO.N,tNew*%
X93000000Y-134000000D02*
X120600000Y-134000000D01*
X120600000Y-134000000D02*
X120800000Y-133800000D01*
%TO.N,S4D*%
X89000000Y-135000000D02*
X116600000Y-135000000D01*
X116600000Y-135000000D02*
X116800000Y-134800000D01*
%TO.N,S3D*%
X84000000Y-136000000D02*
X111600000Y-136000000D01*
X111600000Y-136000000D02*
X111800000Y-135800000D01*
%TO.N,S2D*%
X80000000Y-137000000D02*
X107600000Y-137000000D01*
X107600000Y-137000000D02*
X107800000Y-136800000D01*
%TO.N,S1D*%
X78000000Y-138000000D02*
X105600000Y-138000000D01*
X105600000Y-138000000D02*
X105800000Y-137800000D01*
X103000000Y-144460000D02*
X103000000Y-140600000D01*
X103000000Y-140600000D02*
X103400000Y-140200000D01*
X103400000Y-140200000D02*
X105800000Y-137800000D01*
%TO.N,R{slash}L*%
X70000000Y-133000000D02*
X98000000Y-133000000D01*
%TO.N,tNew*%
X65000000Y-134000000D02*
X93000000Y-134000000D01*
%TO.N,S4D*%
X61000000Y-135000000D02*
X89000000Y-135000000D01*
%TO.N,S3D*%
X56000000Y-136000000D02*
X84000000Y-136000000D01*
%TO.N,S2D*%
X52000000Y-137000000D02*
X80000000Y-137000000D01*
%TO.N,S1D*%
X75600000Y-140400000D02*
X78000000Y-138000000D01*
X49200000Y-138000000D02*
X77200000Y-138000000D01*
X75600000Y-140400000D02*
X75600000Y-144460000D01*
X77200000Y-138000000D02*
X78000000Y-138000000D01*
%TO.N,R{slash}L*%
X66000000Y-133000000D02*
X70000000Y-133000000D01*
%TO.N,tNew*%
X36000000Y-134000000D02*
X65000000Y-134000000D01*
%TO.N,S4D*%
X32000000Y-135000000D02*
X61000000Y-135000000D01*
%TO.N,S3D*%
X27000000Y-136000000D02*
X56000000Y-136000000D01*
%TO.N,S2D*%
X23000000Y-137000000D02*
X52000000Y-137000000D01*
%TO.N,S1D*%
X18200000Y-140000000D02*
X20100000Y-138100000D01*
X45000000Y-138000000D02*
X49200000Y-138000000D01*
X47400000Y-144460000D02*
X47400000Y-139800000D01*
X47400000Y-139800000D02*
X49200000Y-138000000D01*
X18200000Y-145000000D02*
X18200000Y-140000000D01*
X18200000Y-140000000D02*
X18200000Y-139800000D01*
%TO.N,CLK2*%
X174899000Y-64290968D02*
X174899000Y-57874001D01*
%TD*%
M02*
