%TF.GenerationSoftware,KiCad,Pcbnew,9.0.7*%
%TF.CreationDate,2026-05-12T13:45:53-04:00*%
%TF.ProjectId,Turing Machine,54757269-6e67-4204-9d61-6368696e652e,rev?*%
%TF.SameCoordinates,Original*%
%TF.FileFunction,Soldermask,Bot*%
%TF.FilePolarity,Negative*%
%FSLAX46Y46*%
G04 Gerber Fmt 4.6, Leading zero omitted, Abs format (unit mm)*
G04 Created by KiCad (PCBNEW 9.0.7) date 2026-05-12 13:45:53*
%MOMM*%
%LPD*%
G01*
G04 APERTURE LIST*
G04 Aperture macros list*
%AMRoundRect*
0 Rectangle with rounded corners*
0 $1 Rounding radius*
0 $2 $3 $4 $5 $6 $7 $8 $9 X,Y pos of 4 corners*
0 Add a 4 corners polygon primitive as box body*
4,1,4,$2,$3,$4,$5,$6,$7,$8,$9,$2,$3,0*
0 Add four circle primitives for the rounded corners*
1,1,$1+$1,$2,$3*
1,1,$1+$1,$4,$5*
1,1,$1+$1,$6,$7*
1,1,$1+$1,$8,$9*
0 Add four rect primitives between the rounded corners*
20,1,$1+$1,$2,$3,$4,$5,0*
20,1,$1+$1,$4,$5,$6,$7,0*
20,1,$1+$1,$6,$7,$8,$9,0*
20,1,$1+$1,$8,$9,$2,$3,0*%
G04 Aperture macros list end*
%ADD10C,0.700000*%
%ADD11O,2.400000X0.900000*%
%ADD12O,1.700000X0.900000*%
%ADD13RoundRect,0.249999X-0.850001X-0.850001X0.850001X-0.850001X0.850001X0.850001X-0.850001X0.850001X0*%
%ADD14C,2.200000*%
%ADD15R,1.700000X1.700000*%
%ADD16C,1.700000*%
G04 APERTURE END LIST*
D10*
%TO.C,J193*%
X283025000Y-105975000D03*
X283025000Y-106825000D03*
X283025000Y-107675000D03*
X283025000Y-108525000D03*
X283025000Y-109375000D03*
X283025000Y-110225000D03*
X283025000Y-111075000D03*
X283025000Y-111925000D03*
X281675000Y-111925000D03*
X281675000Y-111075000D03*
X281675000Y-110225000D03*
X281675000Y-109375000D03*
X281675000Y-108525000D03*
X281675000Y-107675000D03*
X281675000Y-106825000D03*
X281675000Y-105975000D03*
D11*
X282045000Y-104625000D03*
D12*
X278665000Y-104625000D03*
D11*
X282045000Y-113275000D03*
D12*
X278665000Y-113275000D03*
%TD*%
D13*
%TO.C,D1*%
X262840000Y-97000000D03*
D14*
X273000000Y-97000000D03*
%TD*%
D15*
%TO.C,J32*%
X100500000Y-162500000D03*
D16*
X100500000Y-159960000D03*
%TD*%
D15*
%TO.C,J107*%
X69000000Y-149637500D03*
D16*
X69000000Y-147097500D03*
%TD*%
D15*
%TO.C,J39*%
X61000000Y-162862500D03*
D16*
X61000000Y-160322500D03*
%TD*%
D15*
%TO.C,J184*%
X88500000Y-129460000D03*
D16*
X88500000Y-132000000D03*
%TD*%
D15*
%TO.C,J21*%
X30500000Y-189040000D03*
D16*
X30500000Y-186500000D03*
%TD*%
D15*
%TO.C,J72*%
X21000000Y-107745000D03*
D16*
X21000000Y-110285000D03*
%TD*%
D15*
%TO.C,J152*%
X29000000Y-118745000D03*
D16*
X29000000Y-121285000D03*
%TD*%
D15*
%TO.C,J173*%
X37000000Y-129480000D03*
D16*
X37000000Y-132020000D03*
%TD*%
D15*
%TO.C,J110*%
X84500000Y-174500000D03*
D16*
X84500000Y-171960000D03*
%TD*%
D15*
%TO.C,J2*%
X125500000Y-149725000D03*
D16*
X125500000Y-147185000D03*
%TD*%
D15*
%TO.C,J121*%
X17000000Y-97020000D03*
D16*
X17000000Y-99560000D03*
%TD*%
D15*
%TO.C,J120*%
X80500000Y-174500000D03*
D16*
X80500000Y-171960000D03*
%TD*%
D15*
%TO.C,J104*%
X143000000Y-169275000D03*
D16*
X143000000Y-166735000D03*
%TD*%
D15*
%TO.C,J75*%
X30000000Y-162010000D03*
D16*
X30000000Y-159470000D03*
%TD*%
D15*
%TO.C,J76*%
X151000000Y-159550000D03*
D16*
X151000000Y-157010000D03*
%TD*%
D15*
%TO.C,J34*%
X100680000Y-174490000D03*
D16*
X100680000Y-171950000D03*
%TD*%
D15*
%TO.C,J35*%
X155000000Y-150050000D03*
D16*
X155000000Y-147510000D03*
%TD*%
D15*
%TO.C,J119*%
X48500000Y-175362500D03*
D16*
X48500000Y-172822500D03*
%TD*%
D15*
%TO.C,J82*%
X147000000Y-159550000D03*
D16*
X147000000Y-157010000D03*
%TD*%
D15*
%TO.C,J87*%
X22000000Y-162010000D03*
D16*
X22000000Y-159470000D03*
%TD*%
D15*
%TO.C,J28*%
X159000000Y-169275000D03*
D16*
X159000000Y-166735000D03*
%TD*%
D15*
%TO.C,J156*%
X59514571Y-108239571D03*
D16*
X59514571Y-110779571D03*
%TD*%
D15*
%TO.C,J60*%
X26500000Y-174580000D03*
D16*
X26500000Y-172040000D03*
%TD*%
D15*
%TO.C,J142*%
X25000000Y-118745000D03*
D16*
X25000000Y-121285000D03*
%TD*%
D15*
%TO.C,J163*%
X33000000Y-129480000D03*
D16*
X33000000Y-132020000D03*
%TD*%
D15*
%TO.C,J69*%
X34000000Y-162010000D03*
D16*
X34000000Y-159470000D03*
%TD*%
D15*
%TO.C,J29*%
X53000000Y-162872500D03*
D16*
X53000000Y-160332500D03*
%TD*%
D15*
%TO.C,J174*%
X68014571Y-118239571D03*
D16*
X68014571Y-120779571D03*
%TD*%
D15*
%TO.C,J158*%
X59514571Y-98239571D03*
D16*
X59514571Y-100779571D03*
%TD*%
D15*
%TO.C,J131*%
X21000000Y-97020000D03*
D16*
X21000000Y-99560000D03*
%TD*%
D15*
%TO.C,J183*%
X88500000Y-118960000D03*
D16*
X88500000Y-121500000D03*
%TD*%
D15*
%TO.C,J130*%
X84500000Y-108000000D03*
D16*
X84500000Y-110540000D03*
%TD*%
D15*
%TO.C,J108*%
X84500000Y-162500000D03*
D16*
X84500000Y-159960000D03*
%TD*%
D15*
%TO.C,J175*%
X109500000Y-159500000D03*
D16*
X109500000Y-156960000D03*
%TD*%
D15*
%TO.C,J114*%
X139000000Y-169275000D03*
D16*
X139000000Y-166735000D03*
%TD*%
D15*
%TO.C,J30*%
X38500000Y-174540000D03*
D16*
X38500000Y-172000000D03*
%TD*%
D15*
%TO.C,J106*%
X22500000Y-174540000D03*
D16*
X22500000Y-172000000D03*
%TD*%
D15*
%TO.C,J70*%
X155000000Y-159550000D03*
D16*
X155000000Y-157010000D03*
%TD*%
D15*
%TO.C,J103*%
X113500000Y-182000000D03*
D16*
X113500000Y-179460000D03*
%TD*%
D15*
%TO.C,J58*%
X147000000Y-169275000D03*
D16*
X147000000Y-166735000D03*
%TD*%
D15*
%TO.C,J33*%
X52500000Y-175362500D03*
D16*
X52500000Y-172822500D03*
%TD*%
D15*
%TO.C,J127*%
X84500000Y-97460000D03*
D16*
X84500000Y-100000000D03*
%TD*%
D15*
%TO.C,J10*%
X88500000Y-189775000D03*
D16*
X88500000Y-187235000D03*
%TD*%
D15*
%TO.C,J47*%
X121500000Y-182000000D03*
D16*
X121500000Y-179460000D03*
%TD*%
D15*
%TO.C,J145*%
X121500000Y-159500000D03*
D16*
X121500000Y-156960000D03*
%TD*%
D15*
%TO.C,J41*%
X61000000Y-149862500D03*
D16*
X61000000Y-147322500D03*
%TD*%
D15*
%TO.C,J111*%
X139000000Y-150050000D03*
D16*
X139000000Y-147510000D03*
%TD*%
D15*
%TO.C,J182*%
X84500000Y-129460000D03*
D16*
X84500000Y-132000000D03*
%TD*%
D15*
%TO.C,J62*%
X100500000Y-149775000D03*
D16*
X100500000Y-147235000D03*
%TD*%
D15*
%TO.C,J166*%
X63514571Y-108239571D03*
D16*
X63514571Y-110779571D03*
%TD*%
D15*
%TO.C,J81*%
X26000000Y-162010000D03*
D16*
X26000000Y-159470000D03*
%TD*%
D15*
%TO.C,J172*%
X37000000Y-118745000D03*
D16*
X37000000Y-121285000D03*
%TD*%
D15*
%TO.C,J140*%
X88500000Y-108000000D03*
D16*
X88500000Y-110540000D03*
%TD*%
D15*
%TO.C,J59*%
X57040000Y-162872500D03*
D16*
X57040000Y-160332500D03*
%TD*%
D15*
%TO.C,J147*%
X92500000Y-97460000D03*
D16*
X92500000Y-100000000D03*
%TD*%
D15*
%TO.C,J117*%
X49000000Y-149862500D03*
D16*
X49000000Y-147322500D03*
%TD*%
D15*
%TO.C,J38*%
X155000000Y-169275000D03*
D16*
X155000000Y-166735000D03*
%TD*%
D15*
%TO.C,J151*%
X29000000Y-97020000D03*
D16*
X29000000Y-99560000D03*
%TD*%
D15*
%TO.C,J126*%
X47514571Y-108239571D03*
D16*
X47514571Y-110779571D03*
%TD*%
D15*
%TO.C,J122*%
X17000000Y-118745000D03*
D16*
X17000000Y-121285000D03*
%TD*%
D15*
%TO.C,J89*%
X143000000Y-180550000D03*
D16*
X143000000Y-178010000D03*
%TD*%
D15*
%TO.C,J64*%
X159000000Y-159550000D03*
D16*
X159000000Y-157010000D03*
%TD*%
D15*
%TO.C,J97*%
X57000000Y-149839496D03*
D16*
X57000000Y-147299496D03*
%TD*%
D15*
%TO.C,J143*%
X25000000Y-129480000D03*
D16*
X25000000Y-132020000D03*
%TD*%
D15*
%TO.C,J176*%
X67514571Y-108239571D03*
D16*
X67514571Y-110779571D03*
%TD*%
D15*
%TO.C,J25*%
X159000000Y-150050000D03*
D16*
X159000000Y-147510000D03*
%TD*%
D15*
%TO.C,J138*%
X51514571Y-98239571D03*
D16*
X51514571Y-100779571D03*
%TD*%
D15*
%TO.C,J40*%
X34500000Y-174540000D03*
D16*
X34500000Y-172000000D03*
%TD*%
D15*
%TO.C,J24*%
X18500000Y-189040000D03*
D16*
X18500000Y-186500000D03*
%TD*%
D15*
%TO.C,J149*%
X55985429Y-130054571D03*
D16*
X55985429Y-132594571D03*
%TD*%
D15*
%TO.C,J133*%
X21000000Y-129480000D03*
D16*
X21000000Y-132020000D03*
%TD*%
D15*
%TO.C,J46*%
X121500000Y-170000000D03*
D16*
X121500000Y-167460000D03*
%TD*%
D15*
%TO.C,J116*%
X18500000Y-174540000D03*
D16*
X18500000Y-172000000D03*
%TD*%
D15*
%TO.C,J23*%
X22500000Y-189040000D03*
D16*
X22500000Y-186500000D03*
%TD*%
D15*
%TO.C,J124*%
X48014571Y-118239571D03*
D16*
X48014571Y-120779571D03*
%TD*%
D15*
%TO.C,J18*%
X48730000Y-190137500D03*
D16*
X48730000Y-187597500D03*
%TD*%
D15*
%TO.C,J79*%
X25500000Y-149275000D03*
D16*
X25500000Y-146735000D03*
%TD*%
D15*
%TO.C,J5*%
X113500000Y-149725000D03*
D16*
X113500000Y-147185000D03*
%TD*%
D15*
%TO.C,J102*%
X113500000Y-170000000D03*
D16*
X113500000Y-167460000D03*
%TD*%
D15*
%TO.C,J53*%
X64500000Y-175137500D03*
D16*
X64500000Y-172597500D03*
%TD*%
D15*
%TO.C,J17*%
X70000000Y-190137500D03*
D16*
X70000000Y-187597500D03*
%TD*%
D15*
%TO.C,J157*%
X96500000Y-97460000D03*
D16*
X96500000Y-100000000D03*
%TD*%
D15*
%TO.C,J177*%
X104500000Y-97460000D03*
D16*
X104500000Y-100000000D03*
%TD*%
D15*
%TO.C,J112*%
X109500000Y-170000000D03*
D16*
X109500000Y-167460000D03*
%TD*%
D15*
%TO.C,J27*%
X129500000Y-182000000D03*
D16*
X129500000Y-179460000D03*
%TD*%
D15*
%TO.C,J109*%
X68468906Y-175349897D03*
D16*
X68468906Y-172809897D03*
%TD*%
D15*
%TO.C,J181*%
X84500000Y-118960000D03*
D16*
X84500000Y-121500000D03*
%TD*%
D15*
%TO.C,J154*%
X60014571Y-118239571D03*
D16*
X60014571Y-120779571D03*
%TD*%
D15*
%TO.C,J31*%
X52860000Y-149839496D03*
D16*
X52860000Y-147299496D03*
%TD*%
D15*
%TO.C,J85*%
X21500000Y-149275000D03*
D16*
X21500000Y-146735000D03*
%TD*%
D15*
%TO.C,J12*%
X80410000Y-189775000D03*
D16*
X80410000Y-187235000D03*
%TD*%
D15*
%TO.C,J144*%
X56014571Y-118239571D03*
D16*
X56014571Y-120779571D03*
%TD*%
D15*
%TO.C,J80*%
X88500000Y-149775000D03*
D16*
X88500000Y-147235000D03*
%TD*%
D15*
%TO.C,J191*%
X104500000Y-119000000D03*
D16*
X104500000Y-121540000D03*
%TD*%
D15*
%TO.C,J129*%
X48014571Y-130054571D03*
D16*
X48014571Y-132594571D03*
%TD*%
D15*
%TO.C,J96*%
X37000000Y-107755000D03*
D16*
X37000000Y-110295000D03*
%TD*%
D15*
%TO.C,J98*%
X88500000Y-162500000D03*
D16*
X88500000Y-159960000D03*
%TD*%
D15*
%TO.C,J171*%
X37000000Y-97020000D03*
D16*
X37000000Y-99560000D03*
%TD*%
D15*
%TO.C,J3*%
X121500000Y-149725000D03*
D16*
X121500000Y-147185000D03*
%TD*%
D15*
%TO.C,J1*%
X129500000Y-149725000D03*
D16*
X129500000Y-147185000D03*
%TD*%
D15*
%TO.C,J42*%
X96500000Y-162500000D03*
D16*
X96500000Y-159960000D03*
%TD*%
D15*
%TO.C,J49*%
X65000000Y-162872500D03*
D16*
X65000000Y-160332500D03*
%TD*%
D15*
%TO.C,J11*%
X84500000Y-189775000D03*
D16*
X84500000Y-187235000D03*
%TD*%
D15*
%TO.C,J113*%
X109500000Y-182000000D03*
D16*
X109500000Y-179460000D03*
%TD*%
D15*
%TO.C,J136*%
X51514571Y-108239571D03*
D16*
X51514571Y-110779571D03*
%TD*%
D15*
%TO.C,J167*%
X100500000Y-97460000D03*
D16*
X100500000Y-100000000D03*
%TD*%
D15*
%TO.C,J93*%
X18000000Y-162010000D03*
D16*
X18000000Y-159470000D03*
%TD*%
D15*
%TO.C,J56*%
X117500000Y-170000000D03*
D16*
X117500000Y-167460000D03*
%TD*%
D15*
%TO.C,J14*%
X62000000Y-190137500D03*
D16*
X62000000Y-187597500D03*
%TD*%
D15*
%TO.C,J100*%
X88500000Y-174500000D03*
D16*
X88500000Y-171960000D03*
%TD*%
D15*
%TO.C,J65*%
X159000000Y-180550000D03*
D16*
X159000000Y-178010000D03*
%TD*%
D15*
%TO.C,J16*%
X57910000Y-190137500D03*
D16*
X57910000Y-187597500D03*
%TD*%
D15*
%TO.C,J61*%
X37500000Y-149275000D03*
D16*
X37500000Y-146735000D03*
%TD*%
D15*
%TO.C,J8*%
X96500000Y-189775000D03*
D16*
X96500000Y-187235000D03*
%TD*%
D15*
%TO.C,J192*%
X104500000Y-129460000D03*
D16*
X104500000Y-132000000D03*
%TD*%
D15*
%TO.C,J125*%
X129500000Y-159500000D03*
D16*
X129500000Y-156960000D03*
%TD*%
D15*
%TO.C,J118*%
X80500000Y-162500000D03*
D16*
X80500000Y-159960000D03*
%TD*%
D15*
%TO.C,J66*%
X17000000Y-107745000D03*
D16*
X17000000Y-110285000D03*
%TD*%
D15*
%TO.C,J168*%
X63514571Y-98199571D03*
D16*
X63514571Y-100739571D03*
%TD*%
D15*
%TO.C,J165*%
X113500000Y-159500000D03*
D16*
X113500000Y-156960000D03*
%TD*%
D15*
%TO.C,J51*%
X65000000Y-149839496D03*
D16*
X65000000Y-147299496D03*
%TD*%
D15*
%TO.C,J153*%
X29000000Y-129480000D03*
D16*
X29000000Y-132020000D03*
%TD*%
D15*
%TO.C,J45*%
X151000000Y-150050000D03*
D16*
X151000000Y-147510000D03*
%TD*%
D15*
%TO.C,J63*%
X38000000Y-162010000D03*
D16*
X38000000Y-159470000D03*
%TD*%
D15*
%TO.C,J189*%
X100500000Y-119000000D03*
D16*
X100500000Y-121540000D03*
%TD*%
D15*
%TO.C,J94*%
X139000000Y-159550000D03*
D16*
X139000000Y-157010000D03*
%TD*%
D15*
%TO.C,J74*%
X92500000Y-149775000D03*
D16*
X92500000Y-147235000D03*
%TD*%
D15*
%TO.C,J55*%
X147000000Y-150050000D03*
D16*
X147000000Y-147510000D03*
%TD*%
D15*
%TO.C,J159*%
X59898005Y-130054571D03*
D16*
X59898005Y-132594571D03*
%TD*%
D15*
%TO.C,J150*%
X92500000Y-108000000D03*
D16*
X92500000Y-110540000D03*
%TD*%
D15*
%TO.C,J190*%
X100500000Y-129460000D03*
D16*
X100500000Y-132000000D03*
%TD*%
D15*
%TO.C,J169*%
X63926288Y-130054571D03*
D16*
X63926288Y-132594571D03*
%TD*%
D15*
%TO.C,J84*%
X29000000Y-107745000D03*
D16*
X29000000Y-110285000D03*
%TD*%
D15*
%TO.C,J91*%
X17500000Y-149275000D03*
D16*
X17500000Y-146735000D03*
%TD*%
D15*
%TO.C,J92*%
X80500000Y-149775000D03*
D16*
X80500000Y-147235000D03*
%TD*%
D15*
%TO.C,J160*%
X96500000Y-108000000D03*
D16*
X96500000Y-110540000D03*
%TD*%
D15*
%TO.C,J137*%
X88500000Y-97460000D03*
D16*
X88500000Y-100000000D03*
%TD*%
D15*
%TO.C,J105*%
X69000000Y-162862500D03*
D16*
X69000000Y-160322500D03*
%TD*%
D15*
%TO.C,J161*%
X33000000Y-97020000D03*
D16*
X33000000Y-99560000D03*
%TD*%
D15*
%TO.C,J20*%
X34500000Y-189040000D03*
D16*
X34500000Y-186500000D03*
%TD*%
D15*
%TO.C,J13*%
X53000000Y-190137500D03*
D16*
X53000000Y-187597500D03*
%TD*%
D15*
%TO.C,J50*%
X30500000Y-174580000D03*
D16*
X30500000Y-172040000D03*
%TD*%
D15*
%TO.C,J67*%
X33500000Y-149275000D03*
D16*
X33500000Y-146735000D03*
%TD*%
D15*
%TO.C,J185*%
X92500000Y-118960000D03*
D16*
X92500000Y-121500000D03*
%TD*%
D15*
%TO.C,J178*%
X67514571Y-98239571D03*
D16*
X67514571Y-100779571D03*
%TD*%
D15*
%TO.C,J57*%
X117500000Y-182000000D03*
D16*
X117500000Y-179460000D03*
%TD*%
D15*
%TO.C,J141*%
X25000000Y-97020000D03*
D16*
X25000000Y-99560000D03*
%TD*%
D15*
%TO.C,J123*%
X17000000Y-129480000D03*
D16*
X17000000Y-132020000D03*
%TD*%
D15*
%TO.C,J115*%
X49040000Y-162872500D03*
D16*
X49040000Y-160332500D03*
%TD*%
D15*
%TO.C,J146*%
X55514571Y-108239571D03*
D16*
X55514571Y-110779571D03*
%TD*%
D15*
%TO.C,J179*%
X67911895Y-130054571D03*
D16*
X67911895Y-132594571D03*
%TD*%
D15*
%TO.C,J9*%
X92500000Y-189775000D03*
D16*
X92500000Y-187235000D03*
%TD*%
D15*
%TO.C,J36*%
X125500000Y-170000000D03*
D16*
X125500000Y-167460000D03*
%TD*%
D15*
%TO.C,J132*%
X21000000Y-118745000D03*
D16*
X21000000Y-121285000D03*
%TD*%
D15*
%TO.C,J88*%
X143000000Y-159550000D03*
D16*
X143000000Y-157010000D03*
%TD*%
D15*
%TO.C,J6*%
X109320000Y-149725000D03*
D16*
X109320000Y-147185000D03*
%TD*%
D15*
%TO.C,J37*%
X125500000Y-182000000D03*
D16*
X125500000Y-179460000D03*
%TD*%
D15*
%TO.C,J4*%
X117500000Y-149725000D03*
D16*
X117500000Y-147185000D03*
%TD*%
D15*
%TO.C,J26*%
X129500000Y-170000000D03*
D16*
X129500000Y-167460000D03*
%TD*%
D15*
%TO.C,J15*%
X66000000Y-190137500D03*
D16*
X66000000Y-187597500D03*
%TD*%
D15*
%TO.C,J43*%
X60500000Y-175362500D03*
D16*
X60500000Y-172822500D03*
%TD*%
D15*
%TO.C,J134*%
X52014571Y-118239571D03*
D16*
X52014571Y-120779571D03*
%TD*%
D15*
%TO.C,J164*%
X64014571Y-118239571D03*
D16*
X64014571Y-120779571D03*
%TD*%
D15*
%TO.C,J139*%
X51985429Y-130054571D03*
D16*
X51985429Y-132594571D03*
%TD*%
D15*
%TO.C,J77*%
X151000000Y-180550000D03*
D16*
X151000000Y-178010000D03*
%TD*%
D15*
%TO.C,J162*%
X33000000Y-118745000D03*
D16*
X33000000Y-121285000D03*
%TD*%
D15*
%TO.C,J101*%
X143000000Y-150050000D03*
D16*
X143000000Y-147510000D03*
%TD*%
D15*
%TO.C,J68*%
X96500000Y-149775000D03*
D16*
X96500000Y-147235000D03*
%TD*%
D15*
%TO.C,J54*%
X92500000Y-174500000D03*
D16*
X92500000Y-171960000D03*
%TD*%
D15*
%TO.C,J71*%
X155000000Y-180550000D03*
D16*
X155000000Y-178010000D03*
%TD*%
D15*
%TO.C,J155*%
X117500000Y-159500000D03*
D16*
X117500000Y-156960000D03*
%TD*%
D15*
%TO.C,J135*%
X125500000Y-159500000D03*
D16*
X125500000Y-156960000D03*
%TD*%
D15*
%TO.C,J86*%
X84500000Y-149775000D03*
D16*
X84500000Y-147235000D03*
%TD*%
D15*
%TO.C,J99*%
X56500000Y-175362500D03*
D16*
X56500000Y-172822500D03*
%TD*%
D15*
%TO.C,J22*%
X26500000Y-189040000D03*
D16*
X26500000Y-186500000D03*
%TD*%
D15*
%TO.C,J95*%
X139000000Y-180550000D03*
D16*
X139000000Y-178010000D03*
%TD*%
D15*
%TO.C,J170*%
X100500000Y-108000000D03*
D16*
X100500000Y-110540000D03*
%TD*%
D15*
%TO.C,J44*%
X96500000Y-174500000D03*
D16*
X96500000Y-171960000D03*
%TD*%
D15*
%TO.C,J73*%
X29500000Y-149275000D03*
D16*
X29500000Y-146735000D03*
%TD*%
D15*
%TO.C,J78*%
X25000000Y-107745000D03*
D16*
X25000000Y-110285000D03*
%TD*%
D15*
%TO.C,J48*%
X151000000Y-169275000D03*
D16*
X151000000Y-166735000D03*
%TD*%
D15*
%TO.C,J128*%
X47514571Y-98239571D03*
D16*
X47514571Y-100779571D03*
%TD*%
D15*
%TO.C,J180*%
X104451937Y-107999397D03*
D16*
X104451937Y-110539397D03*
%TD*%
D15*
%TO.C,J188*%
X96500000Y-129460000D03*
D16*
X96500000Y-132000000D03*
%TD*%
D15*
%TO.C,J148*%
X55604571Y-98239571D03*
D16*
X55604571Y-100779571D03*
%TD*%
D15*
%TO.C,J7*%
X100500000Y-189775000D03*
D16*
X100500000Y-187235000D03*
%TD*%
D15*
%TO.C,J52*%
X92550000Y-162500000D03*
D16*
X92550000Y-159960000D03*
%TD*%
D15*
%TO.C,J186*%
X92500000Y-129460000D03*
D16*
X92500000Y-132000000D03*
%TD*%
D15*
%TO.C,J83*%
X147000000Y-180550000D03*
D16*
X147000000Y-178010000D03*
%TD*%
D15*
%TO.C,J90*%
X33000000Y-107745000D03*
D16*
X33000000Y-110285000D03*
%TD*%
D15*
%TO.C,J19*%
X38500000Y-189040000D03*
D16*
X38500000Y-186500000D03*
%TD*%
D15*
%TO.C,J187*%
X96500000Y-119000000D03*
D16*
X96500000Y-121540000D03*
%TD*%
M02*
