%TF.GenerationSoftware,KiCad,Pcbnew,9.0.7*%
%TF.CreationDate,2026-05-16T15:29:06-04:00*%
%TF.ProjectId,Turing Machine,54757269-6e67-4204-9d61-6368696e652e,rev?*%
%TF.SameCoordinates,Original*%
%TF.FileFunction,Drillmap*%
%TF.FilePolarity,Positive*%
%FSLAX45Y45*%
G04 Gerber Fmt 4.5, Leading zero omitted, Abs format (unit mm)*
G04 Created by KiCad (PCBNEW 9.0.7) date 2026-05-16 15:29:06*
%MOMM*%
%LPD*%
G01*
G04 APERTURE LIST*
%ADD10C,0.050000*%
%ADD11C,0.200000*%
%ADD12C,0.100000*%
%ADD13C,0.110000*%
G04 APERTURE END LIST*
D10*
X1000000Y-7100000D02*
X28700000Y-7100000D01*
X28700000Y-20200000D01*
X1000000Y-20200000D01*
X1000000Y-7100000D01*
D11*
D12*
X1385000Y-14035000D02*
X1415000Y-14065000D01*
X1415000Y-14035000D02*
X1385000Y-14065000D01*
X4135000Y-12585000D02*
X4165000Y-12615000D01*
X4165000Y-12585000D02*
X4135000Y-12615000D01*
X4285000Y-14485000D02*
X4315000Y-14515000D01*
X4315000Y-14485000D02*
X4285000Y-14515000D01*
X4385000Y-15385000D02*
X4415000Y-15415000D01*
X4415000Y-15385000D02*
X4385000Y-15415000D01*
X4685000Y-13585000D02*
X4715000Y-13615000D01*
X4715000Y-13585000D02*
X4685000Y-13615000D01*
X6435000Y-19535000D02*
X6465000Y-19565000D01*
X6465000Y-19535000D02*
X6435000Y-19565000D01*
X6885000Y-13585000D02*
X6915000Y-13615000D01*
X6915000Y-13585000D02*
X6885000Y-13615000D01*
X7185000Y-12585000D02*
X7215000Y-12615000D01*
X7215000Y-12585000D02*
X7185000Y-12615000D01*
X7485000Y-15435000D02*
X7515000Y-15465000D01*
X7515000Y-15435000D02*
X7485000Y-15465000D01*
X7535000Y-14485000D02*
X7565000Y-14515000D01*
X7565000Y-14485000D02*
X7535000Y-14515000D01*
X7585000Y-13585000D02*
X7615000Y-13615000D01*
X7615000Y-13585000D02*
X7585000Y-13615000D01*
X7785000Y-9585000D02*
X7815000Y-9615000D01*
X7815000Y-9585000D02*
X7785000Y-9615000D01*
X7785000Y-13785000D02*
X7815000Y-13815000D01*
X7815000Y-13785000D02*
X7785000Y-13815000D01*
X7935000Y-9504900D02*
X7965000Y-9534900D01*
X7965000Y-9504900D02*
X7935000Y-9534900D01*
X7985000Y-9285000D02*
X8015000Y-9315000D01*
X8015000Y-9285000D02*
X7985000Y-9315000D01*
X8285000Y-13785000D02*
X8315000Y-13815000D01*
X8315000Y-13785000D02*
X8285000Y-13815000D01*
X8385000Y-9185000D02*
X8415000Y-9215000D01*
X8415000Y-9185000D02*
X8385000Y-9215000D01*
X8385000Y-13685000D02*
X8415000Y-13715000D01*
X8415000Y-13685000D02*
X8385000Y-13715000D01*
X10485000Y-13585000D02*
X10515000Y-13615000D01*
X10515000Y-13585000D02*
X10485000Y-13615000D01*
X10485000Y-18585000D02*
X10515000Y-18615000D01*
X10515000Y-18585000D02*
X10485000Y-18615000D01*
X10485000Y-19185000D02*
X10515000Y-19215000D01*
X10515000Y-19185000D02*
X10485000Y-19215000D01*
X10505100Y-15385000D02*
X10535100Y-15415000D01*
X10535100Y-15385000D02*
X10505100Y-15415000D01*
X10560000Y-15985000D02*
X10590000Y-16015000D01*
X10590000Y-15985000D02*
X10560000Y-16015000D01*
X10885000Y-12535000D02*
X10915000Y-12565000D01*
X10915000Y-12535000D02*
X10885000Y-12565000D01*
X10985000Y-10835000D02*
X11015000Y-10865000D01*
X11015000Y-10835000D02*
X10985000Y-10865000D01*
X11085000Y-11185000D02*
X11115000Y-11215000D01*
X11115000Y-11185000D02*
X11085000Y-11215000D01*
X11085000Y-13285000D02*
X11115000Y-13315000D01*
X11115000Y-13285000D02*
X11085000Y-13315000D01*
X11085000Y-18985000D02*
X11115000Y-19015000D01*
X11115000Y-18985000D02*
X11085000Y-19015000D01*
X11185000Y-10885000D02*
X11215000Y-10915000D01*
X11215000Y-10885000D02*
X11185000Y-10915000D01*
X11185000Y-13685000D02*
X11215000Y-13715000D01*
X11215000Y-13685000D02*
X11185000Y-13715000D01*
X11285000Y-13685000D02*
X11315000Y-13715000D01*
X11315000Y-13685000D02*
X11285000Y-13715000D01*
X12085000Y-13885000D02*
X12115000Y-13915000D01*
X12115000Y-13885000D02*
X12085000Y-13915000D01*
X12285000Y-13185000D02*
X12315000Y-13215000D01*
X12315000Y-13185000D02*
X12285000Y-13215000D01*
X12385000Y-13885000D02*
X12415000Y-13915000D01*
X12415000Y-13885000D02*
X12385000Y-13915000D01*
X12585000Y-13585000D02*
X12615000Y-13615000D01*
X12615000Y-13585000D02*
X12585000Y-13615000D01*
X12685000Y-10685000D02*
X12715000Y-10715000D01*
X12715000Y-10685000D02*
X12685000Y-10715000D01*
X12785000Y-10585000D02*
X12815000Y-10615000D01*
X12815000Y-10585000D02*
X12785000Y-10615000D01*
X13085000Y-10485000D02*
X13115000Y-10515000D01*
X13115000Y-10485000D02*
X13085000Y-10515000D01*
X13085000Y-12485000D02*
X13115000Y-12515000D01*
X13115000Y-12485000D02*
X13085000Y-12515000D01*
X13285000Y-9585000D02*
X13315000Y-9615000D01*
X13315000Y-9585000D02*
X13285000Y-9615000D01*
X13405100Y-15285000D02*
X13435100Y-15315000D01*
X13435100Y-15285000D02*
X13405100Y-15315000D01*
X13585000Y-8385000D02*
X13615000Y-8415000D01*
X13615000Y-8385000D02*
X13585000Y-8415000D01*
X13585000Y-11885000D02*
X13615000Y-11915000D01*
X13615000Y-11885000D02*
X13585000Y-11915000D01*
X13735000Y-10504000D02*
X13765000Y-10534000D01*
X13765000Y-10504000D02*
X13735000Y-10534000D01*
X13735000Y-10631000D02*
X13765000Y-10661000D01*
X13765000Y-10631000D02*
X13735000Y-10661000D01*
X13785000Y-9985000D02*
X13815000Y-10015000D01*
X13815000Y-9985000D02*
X13785000Y-10015000D01*
X13785000Y-11685000D02*
X13815000Y-11715000D01*
X13815000Y-11685000D02*
X13785000Y-11715000D01*
X13985000Y-13685000D02*
X14015000Y-13715000D01*
X14015000Y-13685000D02*
X13985000Y-13715000D01*
X14185000Y-8485000D02*
X14215000Y-8515000D01*
X14215000Y-8485000D02*
X14185000Y-8515000D01*
X14185000Y-8685000D02*
X14215000Y-8715000D01*
X14215000Y-8685000D02*
X14185000Y-8715000D01*
X14185000Y-11885000D02*
X14215000Y-11915000D01*
X14215000Y-11885000D02*
X14185000Y-11915000D01*
X14285000Y-13285000D02*
X14315000Y-13315000D01*
X14315000Y-13285000D02*
X14285000Y-13315000D01*
X14285000Y-13385000D02*
X14315000Y-13415000D01*
X14315000Y-13385000D02*
X14285000Y-13415000D01*
X14485000Y-8685000D02*
X14515000Y-8715000D01*
X14515000Y-8685000D02*
X14485000Y-8715000D01*
X14485000Y-13485000D02*
X14515000Y-13515000D01*
X14515000Y-13485000D02*
X14485000Y-13515000D01*
X14485000Y-13885000D02*
X14515000Y-13915000D01*
X14515000Y-13885000D02*
X14485000Y-13915000D01*
X14785000Y-10885000D02*
X14815000Y-10915000D01*
X14815000Y-10885000D02*
X14785000Y-10915000D01*
X14785000Y-13385000D02*
X14815000Y-13415000D01*
X14815000Y-13385000D02*
X14785000Y-13415000D01*
X14785000Y-13785000D02*
X14815000Y-13815000D01*
X14815000Y-13785000D02*
X14785000Y-13815000D01*
X14885000Y-10885000D02*
X14915000Y-10915000D01*
X14915000Y-10885000D02*
X14885000Y-10915000D01*
X14985000Y-10885000D02*
X15015000Y-10915000D01*
X15015000Y-10885000D02*
X14985000Y-10915000D01*
X15085000Y-10885000D02*
X15115000Y-10915000D01*
X15115000Y-10885000D02*
X15085000Y-10915000D01*
X15085000Y-13785000D02*
X15115000Y-13815000D01*
X15115000Y-13785000D02*
X15085000Y-13815000D01*
X15185000Y-13785000D02*
X15215000Y-13815000D01*
X15215000Y-13785000D02*
X15185000Y-13815000D01*
X15285000Y-9785000D02*
X15315000Y-9815000D01*
X15315000Y-9785000D02*
X15285000Y-9815000D01*
X15285000Y-11185000D02*
X15315000Y-11215000D01*
X15315000Y-11185000D02*
X15285000Y-11215000D01*
X15285000Y-11385000D02*
X15315000Y-11415000D01*
X15315000Y-11385000D02*
X15285000Y-11415000D01*
X15285000Y-11485000D02*
X15315000Y-11515000D01*
X15315000Y-11485000D02*
X15285000Y-11515000D01*
X15385000Y-9185000D02*
X15415000Y-9215000D01*
X15415000Y-9185000D02*
X15385000Y-9215000D01*
X15385000Y-9485000D02*
X15415000Y-9515000D01*
X15415000Y-9485000D02*
X15385000Y-9515000D01*
X15485000Y-9485000D02*
X15515000Y-9515000D01*
X15515000Y-9485000D02*
X15485000Y-9515000D01*
X15485000Y-12385000D02*
X15515000Y-12415000D01*
X15515000Y-12385000D02*
X15485000Y-12415000D01*
X15485000Y-13860000D02*
X15515000Y-13890000D01*
X15515000Y-13860000D02*
X15485000Y-13890000D01*
X15585000Y-13785000D02*
X15615000Y-13815000D01*
X15615000Y-13785000D02*
X15585000Y-13815000D01*
X15685000Y-10885000D02*
X15715000Y-10915000D01*
X15715000Y-10885000D02*
X15685000Y-10915000D01*
X15685000Y-12585000D02*
X15715000Y-12615000D01*
X15715000Y-12585000D02*
X15685000Y-12615000D01*
X15685000Y-13285000D02*
X15715000Y-13315000D01*
X15715000Y-13285000D02*
X15685000Y-13315000D01*
X15935000Y-12074000D02*
X15965000Y-12104000D01*
X15965000Y-12074000D02*
X15935000Y-12104000D01*
X15945000Y-11566000D02*
X15975000Y-11596000D01*
X15975000Y-11566000D02*
X15945000Y-11596000D01*
X15985000Y-10085000D02*
X16015000Y-10115000D01*
X16015000Y-10085000D02*
X15985000Y-10115000D01*
X16075000Y-11241569D02*
X16105000Y-11271569D01*
X16105000Y-11241569D02*
X16075000Y-11271569D01*
X16135000Y-10985000D02*
X16165000Y-11015000D01*
X16165000Y-10985000D02*
X16135000Y-11015000D01*
X16135000Y-11185000D02*
X16165000Y-11215000D01*
X16165000Y-11185000D02*
X16135000Y-11215000D01*
X16185000Y-10785000D02*
X16215000Y-10815000D01*
X16215000Y-10785000D02*
X16185000Y-10815000D01*
X16185000Y-11685000D02*
X16215000Y-11715000D01*
X16215000Y-11685000D02*
X16185000Y-11715000D01*
X16235000Y-10985000D02*
X16265000Y-11015000D01*
X16265000Y-10985000D02*
X16235000Y-11015000D01*
X16235000Y-11185000D02*
X16265000Y-11215000D01*
X16265000Y-11185000D02*
X16235000Y-11215000D01*
X16385000Y-11035000D02*
X16415000Y-11065000D01*
X16415000Y-11035000D02*
X16385000Y-11065000D01*
X16385000Y-11285000D02*
X16415000Y-11315000D01*
X16415000Y-11285000D02*
X16385000Y-11315000D01*
X16385000Y-13785000D02*
X16415000Y-13815000D01*
X16415000Y-13785000D02*
X16385000Y-13815000D01*
X16385000Y-17485000D02*
X16415000Y-17515000D01*
X16415000Y-17485000D02*
X16385000Y-17515000D01*
X16435000Y-12135000D02*
X16465000Y-12165000D01*
X16465000Y-12135000D02*
X16435000Y-12165000D01*
X16585000Y-10185000D02*
X16615000Y-10215000D01*
X16615000Y-10185000D02*
X16585000Y-10215000D01*
X16585000Y-10985000D02*
X16615000Y-11015000D01*
X16615000Y-10985000D02*
X16585000Y-11015000D01*
X16585000Y-11604000D02*
X16615000Y-11634000D01*
X16615000Y-11604000D02*
X16585000Y-11634000D01*
X16585000Y-11858000D02*
X16615000Y-11888000D01*
X16615000Y-11858000D02*
X16585000Y-11888000D01*
X16585000Y-12385000D02*
X16615000Y-12415000D01*
X16615000Y-12385000D02*
X16585000Y-12415000D01*
X16685000Y-10285000D02*
X16715000Y-10315000D01*
X16715000Y-10285000D02*
X16685000Y-10315000D01*
X16785000Y-10385000D02*
X16815000Y-10415000D01*
X16815000Y-10385000D02*
X16785000Y-10415000D01*
X16885000Y-10475000D02*
X16915000Y-10505000D01*
X16915000Y-10475000D02*
X16885000Y-10505000D01*
X16935000Y-12885000D02*
X16965000Y-12915000D01*
X16965000Y-12885000D02*
X16935000Y-12915000D01*
X17035000Y-12985000D02*
X17065000Y-13015000D01*
X17065000Y-12985000D02*
X17035000Y-13015000D01*
X17085000Y-16285000D02*
X17115000Y-16315000D01*
X17115000Y-16285000D02*
X17085000Y-16315000D01*
X17135000Y-13085000D02*
X17165000Y-13115000D01*
X17165000Y-13085000D02*
X17135000Y-13115000D01*
X17285000Y-10985000D02*
X17315000Y-11015000D01*
X17315000Y-10985000D02*
X17285000Y-11015000D01*
X17285000Y-11385000D02*
X17315000Y-11415000D01*
X17315000Y-11385000D02*
X17285000Y-11415000D01*
X17285000Y-11485000D02*
X17315000Y-11515000D01*
X17315000Y-11485000D02*
X17285000Y-11515000D01*
X17285000Y-11585000D02*
X17315000Y-11615000D01*
X17315000Y-11585000D02*
X17285000Y-11615000D01*
X17385000Y-11730900D02*
X17415000Y-11760900D01*
X17415000Y-11730900D02*
X17385000Y-11760900D01*
X17385000Y-16285000D02*
X17415000Y-16315000D01*
X17415000Y-16285000D02*
X17385000Y-16315000D01*
X17485000Y-11785000D02*
X17515000Y-11815000D01*
X17515000Y-11785000D02*
X17485000Y-11815000D01*
X17585000Y-11785000D02*
X17615000Y-11815000D01*
X17615000Y-11785000D02*
X17585000Y-11815000D01*
X17635000Y-13235000D02*
X17665000Y-13265000D01*
X17665000Y-13235000D02*
X17635000Y-13265000D01*
X17678327Y-11285000D02*
X17708327Y-11315000D01*
X17708327Y-11285000D02*
X17678327Y-11315000D01*
X17712574Y-13772573D02*
X17742574Y-13802573D01*
X17742574Y-13772573D02*
X17712574Y-13802573D01*
X17738327Y-11638326D02*
X17768327Y-11668326D01*
X17768327Y-11638326D02*
X17738327Y-11668326D01*
X17785000Y-12685000D02*
X17815000Y-12715000D01*
X17815000Y-12685000D02*
X17785000Y-12715000D01*
X17985000Y-11585000D02*
X18015000Y-11615000D01*
X18015000Y-11585000D02*
X17985000Y-11615000D01*
X17985000Y-14585000D02*
X18015000Y-14615000D01*
X18015000Y-14585000D02*
X17985000Y-14615000D01*
X18035000Y-10685000D02*
X18065000Y-10715000D01*
X18065000Y-10685000D02*
X18035000Y-10715000D01*
X18085000Y-13385000D02*
X18115000Y-13415000D01*
X18115000Y-13385000D02*
X18085000Y-13415000D01*
X18385000Y-11785000D02*
X18415000Y-11815000D01*
X18415000Y-11785000D02*
X18385000Y-11815000D01*
X18487427Y-13775000D02*
X18517427Y-13805000D01*
X18517427Y-13775000D02*
X18487427Y-13805000D01*
X18585000Y-12535000D02*
X18615000Y-12565000D01*
X18615000Y-12535000D02*
X18585000Y-12565000D01*
X18585000Y-13175000D02*
X18615000Y-13205000D01*
X18615000Y-13175000D02*
X18585000Y-13205000D01*
X18685000Y-12185000D02*
X18715000Y-12215000D01*
X18715000Y-12185000D02*
X18685000Y-12215000D01*
X18685000Y-12975000D02*
X18715000Y-13005000D01*
X18715000Y-12975000D02*
X18685000Y-13005000D01*
X18875000Y-12595000D02*
X18905000Y-12625000D01*
X18905000Y-12595000D02*
X18875000Y-12625000D01*
X18885000Y-11685000D02*
X18915000Y-11715000D01*
X18915000Y-11685000D02*
X18885000Y-11715000D01*
X18885000Y-13685000D02*
X18915000Y-13715000D01*
X18915000Y-13685000D02*
X18885000Y-13715000D01*
X18912000Y-11208000D02*
X18942000Y-11238000D01*
X18942000Y-11208000D02*
X18912000Y-11238000D01*
X18935000Y-12385000D02*
X18965000Y-12415000D01*
X18965000Y-12385000D02*
X18935000Y-12415000D01*
X18995000Y-13612500D02*
X19025000Y-13642500D01*
X19025000Y-13612500D02*
X18995000Y-13642500D01*
X19035000Y-12385000D02*
X19065000Y-12415000D01*
X19065000Y-12385000D02*
X19035000Y-12415000D01*
X19137500Y-10827000D02*
X19167500Y-10857000D01*
X19167500Y-10827000D02*
X19137500Y-10857000D01*
X19185000Y-11935000D02*
X19215000Y-11965000D01*
X19215000Y-11935000D02*
X19185000Y-11965000D01*
X19185000Y-13385000D02*
X19215000Y-13415000D01*
X19215000Y-13385000D02*
X19185000Y-13415000D01*
X19185000Y-13585000D02*
X19215000Y-13615000D01*
X19215000Y-13585000D02*
X19185000Y-13615000D01*
X19190000Y-12427000D02*
X19220000Y-12457000D01*
X19220000Y-12427000D02*
X19190000Y-12457000D01*
X19190000Y-12935000D02*
X19220000Y-12965000D01*
X19220000Y-12935000D02*
X19190000Y-12965000D01*
X19335000Y-13035000D02*
X19365000Y-13065000D01*
X19365000Y-13035000D02*
X19335000Y-13065000D01*
X19385000Y-8585000D02*
X19415000Y-8615000D01*
X19415000Y-8585000D02*
X19385000Y-8615000D01*
X19385000Y-8885000D02*
X19415000Y-8915000D01*
X19415000Y-8885000D02*
X19385000Y-8915000D01*
X19435000Y-14085000D02*
X19465000Y-14115000D01*
X19465000Y-14085000D02*
X19435000Y-14115000D01*
X19485000Y-13285000D02*
X19515000Y-13315000D01*
X19515000Y-13285000D02*
X19485000Y-13315000D01*
X19581645Y-13725000D02*
X19611645Y-13755000D01*
X19611645Y-13725000D02*
X19581645Y-13755000D01*
X19585000Y-13935000D02*
X19615000Y-13965000D01*
X19615000Y-13935000D02*
X19585000Y-13965000D01*
X19632500Y-10954000D02*
X19662500Y-10984000D01*
X19662500Y-10954000D02*
X19632500Y-10984000D01*
X19685000Y-12173000D02*
X19715000Y-12203000D01*
X19715000Y-12173000D02*
X19685000Y-12203000D01*
X19685000Y-12935000D02*
X19715000Y-12965000D01*
X19715000Y-12935000D02*
X19685000Y-12965000D01*
X19685000Y-13285000D02*
X19715000Y-13315000D01*
X19715000Y-13285000D02*
X19685000Y-13315000D01*
X19785000Y-10585000D02*
X19815000Y-10615000D01*
X19815000Y-10585000D02*
X19785000Y-10615000D01*
X19785000Y-12395000D02*
X19815000Y-12425000D01*
X19815000Y-12395000D02*
X19785000Y-12425000D01*
X19885000Y-12685000D02*
X19915000Y-12715000D01*
X19915000Y-12685000D02*
X19885000Y-12715000D01*
X19885000Y-12835000D02*
X19915000Y-12865000D01*
X19915000Y-12835000D02*
X19885000Y-12865000D01*
X19885000Y-13775000D02*
X19915000Y-13805000D01*
X19915000Y-13775000D02*
X19885000Y-13805000D01*
X19985000Y-12985000D02*
X20015000Y-13015000D01*
X20015000Y-12985000D02*
X19985000Y-13015000D01*
X20185000Y-13185000D02*
X20215000Y-13215000D01*
X20215000Y-13185000D02*
X20185000Y-13215000D01*
X20185000Y-13385000D02*
X20215000Y-13415000D01*
X20215000Y-13385000D02*
X20185000Y-13415000D01*
X20285000Y-11485000D02*
X20315000Y-11515000D01*
X20315000Y-11485000D02*
X20285000Y-11515000D01*
X20385000Y-11235000D02*
X20415000Y-11265000D01*
X20415000Y-11235000D02*
X20385000Y-11265000D01*
X20385000Y-12735000D02*
X20415000Y-12765000D01*
X20415000Y-12735000D02*
X20385000Y-12765000D01*
X20485000Y-11685000D02*
X20515000Y-11715000D01*
X20515000Y-11685000D02*
X20485000Y-11715000D01*
X20585000Y-11685000D02*
X20615000Y-11715000D01*
X20615000Y-11685000D02*
X20585000Y-11715000D01*
X20585000Y-13385000D02*
X20615000Y-13415000D01*
X20615000Y-13385000D02*
X20585000Y-13415000D01*
X20585000Y-14685000D02*
X20615000Y-14715000D01*
X20615000Y-14685000D02*
X20585000Y-14715000D01*
X20590000Y-15013500D02*
X20620000Y-15043500D01*
X20620000Y-15013500D02*
X20590000Y-15043500D01*
X20590000Y-15394500D02*
X20620000Y-15424500D01*
X20620000Y-15394500D02*
X20590000Y-15424500D01*
X20645000Y-11235000D02*
X20675000Y-11265000D01*
X20675000Y-11235000D02*
X20645000Y-11265000D01*
X20685000Y-10585000D02*
X20715000Y-10615000D01*
X20715000Y-10585000D02*
X20685000Y-10615000D01*
X20685000Y-11485000D02*
X20715000Y-11515000D01*
X20715000Y-11485000D02*
X20685000Y-11515000D01*
X20785000Y-10585000D02*
X20815000Y-10615000D01*
X20815000Y-10585000D02*
X20785000Y-10615000D01*
X20885000Y-8985000D02*
X20915000Y-9015000D01*
X20915000Y-8985000D02*
X20885000Y-9015000D01*
X20885000Y-10585000D02*
X20915000Y-10615000D01*
X20915000Y-10585000D02*
X20885000Y-10615000D01*
X20985000Y-13185000D02*
X21015000Y-13215000D01*
X21015000Y-13185000D02*
X20985000Y-13215000D01*
X20985000Y-13785000D02*
X21015000Y-13815000D01*
X21015000Y-13785000D02*
X20985000Y-13815000D01*
X20985000Y-15185000D02*
X21015000Y-15215000D01*
X21015000Y-15185000D02*
X20985000Y-15215000D01*
X21012500Y-12835000D02*
X21042500Y-12865000D01*
X21042500Y-12835000D02*
X21012500Y-12865000D01*
X21035000Y-12035000D02*
X21065000Y-12065000D01*
X21065000Y-12035000D02*
X21035000Y-12065000D01*
X21035000Y-12135000D02*
X21065000Y-12165000D01*
X21065000Y-12135000D02*
X21035000Y-12165000D01*
X21125000Y-12385000D02*
X21155000Y-12415000D01*
X21155000Y-12385000D02*
X21125000Y-12415000D01*
X21285000Y-9085000D02*
X21315000Y-9115000D01*
X21315000Y-9085000D02*
X21285000Y-9115000D01*
X21285000Y-12235000D02*
X21315000Y-12265000D01*
X21315000Y-12235000D02*
X21285000Y-12265000D01*
X21285000Y-15985000D02*
X21315000Y-16015000D01*
X21315000Y-15985000D02*
X21285000Y-16015000D01*
X21335000Y-12035000D02*
X21365000Y-12065000D01*
X21365000Y-12035000D02*
X21335000Y-12065000D01*
X21385000Y-9085000D02*
X21415000Y-9115000D01*
X21415000Y-9085000D02*
X21385000Y-9115000D01*
X21435000Y-11404000D02*
X21465000Y-11434000D01*
X21465000Y-11404000D02*
X21435000Y-11434000D01*
X21435000Y-12135000D02*
X21465000Y-12165000D01*
X21465000Y-12135000D02*
X21435000Y-12165000D01*
X21585000Y-8385000D02*
X21615000Y-8415000D01*
X21615000Y-8385000D02*
X21585000Y-8415000D01*
X21585000Y-11085000D02*
X21615000Y-11115000D01*
X21615000Y-11085000D02*
X21585000Y-11115000D01*
X21685000Y-10675000D02*
X21715000Y-10705000D01*
X21715000Y-10675000D02*
X21685000Y-10705000D01*
X21685000Y-10935000D02*
X21715000Y-10965000D01*
X21715000Y-10935000D02*
X21685000Y-10965000D01*
X21735000Y-11975000D02*
X21765000Y-12005000D01*
X21765000Y-11975000D02*
X21735000Y-12005000D01*
X21785000Y-8885000D02*
X21815000Y-8915000D01*
X21815000Y-8885000D02*
X21785000Y-8915000D01*
X21785000Y-10735000D02*
X21815000Y-10765000D01*
X21815000Y-10735000D02*
X21785000Y-10765000D01*
X21785000Y-10935000D02*
X21815000Y-10965000D01*
X21815000Y-10935000D02*
X21785000Y-10965000D01*
X21825000Y-11495000D02*
X21855000Y-11525000D01*
X21855000Y-11495000D02*
X21825000Y-11525000D01*
X21845000Y-12975000D02*
X21875000Y-13005000D01*
X21875000Y-12975000D02*
X21845000Y-13005000D01*
X21885000Y-10485000D02*
X21915000Y-10515000D01*
X21915000Y-10485000D02*
X21885000Y-10515000D01*
X21957500Y-12585000D02*
X21987500Y-12615000D01*
X21987500Y-12585000D02*
X21957500Y-12615000D01*
X21985000Y-9685000D02*
X22015000Y-9715000D01*
X22015000Y-9685000D02*
X21985000Y-9715000D01*
X21985000Y-11785000D02*
X22015000Y-11815000D01*
X22015000Y-11785000D02*
X21985000Y-11815000D01*
X21985000Y-12885000D02*
X22015000Y-12915000D01*
X22015000Y-12885000D02*
X21985000Y-12915000D01*
X22035000Y-10485000D02*
X22065000Y-10515000D01*
X22065000Y-10485000D02*
X22035000Y-10515000D01*
X22085000Y-15585000D02*
X22115000Y-15615000D01*
X22115000Y-15585000D02*
X22085000Y-15615000D01*
X22135000Y-10485000D02*
X22165000Y-10515000D01*
X22165000Y-10485000D02*
X22135000Y-10515000D01*
X22185000Y-10895000D02*
X22215000Y-10925000D01*
X22215000Y-10895000D02*
X22185000Y-10925000D01*
X22185000Y-11280000D02*
X22215000Y-11310000D01*
X22215000Y-11280000D02*
X22185000Y-11310000D01*
X22185000Y-12775000D02*
X22215000Y-12805000D01*
X22215000Y-12775000D02*
X22185000Y-12805000D01*
X22285000Y-9235000D02*
X22315000Y-9265000D01*
X22315000Y-9235000D02*
X22285000Y-9265000D01*
X22285000Y-12885000D02*
X22315000Y-12915000D01*
X22315000Y-12885000D02*
X22285000Y-12915000D01*
X22285000Y-14085000D02*
X22315000Y-14115000D01*
X22315000Y-14085000D02*
X22285000Y-14115000D01*
X22285000Y-14685000D02*
X22315000Y-14715000D01*
X22315000Y-14685000D02*
X22285000Y-14715000D01*
X22385000Y-8485000D02*
X22415000Y-8515000D01*
X22415000Y-8485000D02*
X22385000Y-8515000D01*
X22385000Y-12685000D02*
X22415000Y-12715000D01*
X22415000Y-12685000D02*
X22385000Y-12715000D01*
X22485000Y-11400000D02*
X22515000Y-11430000D01*
X22515000Y-11400000D02*
X22485000Y-11430000D01*
X22485000Y-11585000D02*
X22515000Y-11615000D01*
X22515000Y-11585000D02*
X22485000Y-11615000D01*
X22525000Y-9335000D02*
X22555000Y-9365000D01*
X22555000Y-9335000D02*
X22525000Y-9365000D01*
X22685000Y-10485000D02*
X22715000Y-10515000D01*
X22715000Y-10485000D02*
X22685000Y-10515000D01*
X22685000Y-12375000D02*
X22715000Y-12405000D01*
X22715000Y-12375000D02*
X22685000Y-12405000D01*
X22735000Y-10185000D02*
X22765000Y-10215000D01*
X22765000Y-10185000D02*
X22735000Y-10215000D01*
X22785000Y-10485000D02*
X22815000Y-10515000D01*
X22815000Y-10485000D02*
X22785000Y-10515000D01*
X22785000Y-14885000D02*
X22815000Y-14915000D01*
X22815000Y-14885000D02*
X22785000Y-14915000D01*
X22835000Y-9685000D02*
X22865000Y-9715000D01*
X22865000Y-9685000D02*
X22835000Y-9715000D01*
X22846948Y-11531801D02*
X22876948Y-11561801D01*
X22876948Y-11531801D02*
X22846948Y-11561801D01*
X22885000Y-13935000D02*
X22915000Y-13965000D01*
X22915000Y-13935000D02*
X22885000Y-13965000D01*
X22887676Y-14582323D02*
X22917676Y-14612323D01*
X22917676Y-14582323D02*
X22887676Y-14612323D01*
X22985000Y-8185000D02*
X23015000Y-8215000D01*
X23015000Y-8185000D02*
X22985000Y-8215000D01*
X22985000Y-11185000D02*
X23015000Y-11215000D01*
X23015000Y-11185000D02*
X22985000Y-11215000D01*
X23085000Y-9335000D02*
X23115000Y-9365000D01*
X23115000Y-9335000D02*
X23085000Y-9365000D01*
X23135000Y-13935000D02*
X23165000Y-13965000D01*
X23165000Y-13935000D02*
X23135000Y-13965000D01*
X23535000Y-11835000D02*
X23565000Y-11865000D01*
X23565000Y-11835000D02*
X23535000Y-11865000D01*
X23585000Y-15485000D02*
X23615000Y-15515000D01*
X23615000Y-15485000D02*
X23585000Y-15515000D01*
X23735000Y-11485000D02*
X23765000Y-11515000D01*
X23765000Y-11485000D02*
X23735000Y-11515000D01*
X23757500Y-14791000D02*
X23787500Y-14821000D01*
X23787500Y-14791000D02*
X23757500Y-14821000D01*
X23835000Y-12885000D02*
X23865000Y-12915000D01*
X23865000Y-12885000D02*
X23835000Y-12915000D01*
X23835000Y-13135000D02*
X23865000Y-13165000D01*
X23865000Y-13135000D02*
X23835000Y-13165000D01*
X23885000Y-11335000D02*
X23915000Y-11365000D01*
X23915000Y-11335000D02*
X23885000Y-11365000D01*
X24135000Y-12485000D02*
X24165000Y-12515000D01*
X24165000Y-12485000D02*
X24135000Y-12515000D01*
X24175000Y-13208000D02*
X24205000Y-13238000D01*
X24205000Y-13208000D02*
X24175000Y-13238000D01*
X24235000Y-11735000D02*
X24265000Y-11765000D01*
X24265000Y-11735000D02*
X24235000Y-11765000D01*
X24252500Y-14525000D02*
X24282500Y-14555000D01*
X24282500Y-14525000D02*
X24252500Y-14555000D01*
X24335000Y-11935000D02*
X24365000Y-11965000D01*
X24365000Y-11935000D02*
X24335000Y-11965000D01*
X24335000Y-12089900D02*
X24365000Y-12119900D01*
X24365000Y-12089900D02*
X24335000Y-12119900D01*
X24385000Y-11085000D02*
X24415000Y-11115000D01*
X24415000Y-11085000D02*
X24385000Y-11115000D01*
X24385000Y-11785000D02*
X24415000Y-11815000D01*
X24415000Y-11785000D02*
X24385000Y-11815000D01*
X24448750Y-9530000D02*
X24478750Y-9560000D01*
X24478750Y-9530000D02*
X24448750Y-9560000D01*
X24485000Y-11785000D02*
X24515000Y-11815000D01*
X24515000Y-11785000D02*
X24485000Y-11815000D01*
X24485000Y-14435000D02*
X24515000Y-14465000D01*
X24515000Y-14435000D02*
X24485000Y-14465000D01*
X24585000Y-9285000D02*
X24615000Y-9315000D01*
X24615000Y-9285000D02*
X24585000Y-9315000D01*
X24585000Y-9685000D02*
X24615000Y-9715000D01*
X24615000Y-9685000D02*
X24585000Y-9715000D01*
X24585000Y-12585000D02*
X24615000Y-12615000D01*
X24615000Y-12585000D02*
X24585000Y-12615000D01*
X24585000Y-13685000D02*
X24615000Y-13715000D01*
X24615000Y-13685000D02*
X24585000Y-13715000D01*
X24585000Y-14985000D02*
X24615000Y-15015000D01*
X24615000Y-14985000D02*
X24585000Y-15015000D01*
X24685000Y-13335000D02*
X24715000Y-13365000D01*
X24715000Y-13335000D02*
X24685000Y-13365000D01*
X24685000Y-13985000D02*
X24715000Y-14015000D01*
X24715000Y-13985000D02*
X24685000Y-14015000D01*
X24785000Y-10785000D02*
X24815000Y-10815000D01*
X24815000Y-10785000D02*
X24785000Y-10815000D01*
X24785000Y-11385000D02*
X24815000Y-11415000D01*
X24815000Y-11385000D02*
X24785000Y-11415000D01*
X24785000Y-13782500D02*
X24815000Y-13812500D01*
X24815000Y-13782500D02*
X24785000Y-13812500D01*
X24785000Y-14385000D02*
X24815000Y-14415000D01*
X24815000Y-14385000D02*
X24785000Y-14415000D01*
X24875000Y-12785000D02*
X24905000Y-12815000D01*
X24905000Y-12785000D02*
X24875000Y-12815000D01*
X24885000Y-13685000D02*
X24915000Y-13715000D01*
X24915000Y-13685000D02*
X24885000Y-13715000D01*
X24885000Y-14385000D02*
X24915000Y-14415000D01*
X24915000Y-14385000D02*
X24885000Y-14415000D01*
X24885000Y-14785000D02*
X24915000Y-14815000D01*
X24915000Y-14785000D02*
X24885000Y-14815000D01*
X24985000Y-10485000D02*
X25015000Y-10515000D01*
X25015000Y-10485000D02*
X24985000Y-10515000D01*
X25035000Y-12335000D02*
X25065000Y-12365000D01*
X25065000Y-12335000D02*
X25035000Y-12365000D01*
X25085000Y-9485000D02*
X25115000Y-9515000D01*
X25115000Y-9485000D02*
X25085000Y-9515000D01*
X25085000Y-10285000D02*
X25115000Y-10315000D01*
X25115000Y-10285000D02*
X25085000Y-10315000D01*
X25095000Y-13685000D02*
X25125000Y-13715000D01*
X25125000Y-13685000D02*
X25095000Y-13715000D01*
X25135000Y-11685000D02*
X25165000Y-11715000D01*
X25165000Y-11685000D02*
X25135000Y-11715000D01*
X25135000Y-12485000D02*
X25165000Y-12515000D01*
X25165000Y-12485000D02*
X25135000Y-12515000D01*
X25185000Y-13085000D02*
X25215000Y-13115000D01*
X25215000Y-13085000D02*
X25185000Y-13115000D01*
X25235000Y-13590000D02*
X25265000Y-13620000D01*
X25265000Y-13590000D02*
X25235000Y-13620000D01*
X25385000Y-14185000D02*
X25415000Y-14215000D01*
X25415000Y-14185000D02*
X25385000Y-14215000D01*
X25485000Y-12585000D02*
X25515000Y-12615000D01*
X25515000Y-12585000D02*
X25485000Y-12615000D01*
X25585000Y-13085000D02*
X25615000Y-13115000D01*
X25615000Y-13085000D02*
X25585000Y-13115000D01*
X25785000Y-13685000D02*
X25815000Y-13715000D01*
X25815000Y-13685000D02*
X25785000Y-13715000D01*
X25885000Y-12585000D02*
X25915000Y-12615000D01*
X25915000Y-12585000D02*
X25885000Y-12615000D01*
X25950000Y-10285000D02*
X25980000Y-10315000D01*
X25980000Y-10285000D02*
X25950000Y-10315000D01*
X25950000Y-10485000D02*
X25980000Y-10515000D01*
X25980000Y-10485000D02*
X25950000Y-10515000D01*
X25950000Y-10785000D02*
X25980000Y-10815000D01*
X25980000Y-10785000D02*
X25950000Y-10815000D01*
X25950000Y-11085000D02*
X25980000Y-11115000D01*
X25980000Y-11085000D02*
X25950000Y-11115000D01*
X25985000Y-9485000D02*
X26015000Y-9515000D01*
X26015000Y-9485000D02*
X25985000Y-9515000D01*
X25985000Y-13085000D02*
X26015000Y-13115000D01*
X26015000Y-13085000D02*
X25985000Y-13115000D01*
X25985000Y-13335000D02*
X26015000Y-13365000D01*
X26015000Y-13335000D02*
X25985000Y-13365000D01*
X25985000Y-13985000D02*
X26015000Y-14015000D01*
X26015000Y-13985000D02*
X25985000Y-14015000D01*
X26135000Y-13235000D02*
X26165000Y-13265000D01*
X26165000Y-13235000D02*
X26135000Y-13265000D01*
X26185000Y-13985000D02*
X26215000Y-14015000D01*
X26215000Y-13985000D02*
X26185000Y-14015000D01*
X26335000Y-13335000D02*
X26365000Y-13365000D01*
X26365000Y-13335000D02*
X26335000Y-13365000D01*
X26385000Y-14075000D02*
X26415000Y-14105000D01*
X26415000Y-14075000D02*
X26385000Y-14105000D01*
X26535000Y-13735000D02*
X26565000Y-13765000D01*
X26565000Y-13735000D02*
X26535000Y-13765000D01*
X26885000Y-13785000D02*
X26915000Y-13815000D01*
X26915000Y-13785000D02*
X26885000Y-13815000D01*
X26985000Y-13385000D02*
X27015000Y-13415000D01*
X27015000Y-13385000D02*
X26985000Y-13415000D01*
X27135000Y-12935000D02*
X27165000Y-12965000D01*
X27165000Y-12935000D02*
X27135000Y-12965000D01*
X27185000Y-13235000D02*
X27215000Y-13265000D01*
X27215000Y-13235000D02*
X27185000Y-13265000D01*
X27262500Y-11007500D02*
X27292500Y-11037500D01*
X27292500Y-11007500D02*
X27262500Y-11037500D01*
X27285000Y-10285000D02*
X27315000Y-10315000D01*
X27315000Y-10285000D02*
X27285000Y-10315000D01*
X27385000Y-13085000D02*
X27415000Y-13115000D01*
X27415000Y-13085000D02*
X27385000Y-13115000D01*
X27885000Y-10885000D02*
X27915000Y-10915000D01*
X27915000Y-10885000D02*
X27885000Y-10915000D01*
X27584000Y-10470000D02*
G75*
G02*
X27544000Y-10470000I-20000J0D01*
G01*
X27544000Y-10470000D02*
G75*
G02*
X27584000Y-10470000I20000J0D01*
G01*
X27584000Y-10555000D02*
G75*
G02*
X27544000Y-10555000I-20000J0D01*
G01*
X27544000Y-10555000D02*
G75*
G02*
X27584000Y-10555000I20000J0D01*
G01*
X27584000Y-10640000D02*
G75*
G02*
X27544000Y-10640000I-20000J0D01*
G01*
X27544000Y-10640000D02*
G75*
G02*
X27584000Y-10640000I20000J0D01*
G01*
X27584000Y-10725000D02*
G75*
G02*
X27544000Y-10725000I-20000J0D01*
G01*
X27544000Y-10725000D02*
G75*
G02*
X27584000Y-10725000I20000J0D01*
G01*
X27584000Y-10810000D02*
G75*
G02*
X27544000Y-10810000I-20000J0D01*
G01*
X27544000Y-10810000D02*
G75*
G02*
X27584000Y-10810000I20000J0D01*
G01*
X27584000Y-10895000D02*
G75*
G02*
X27544000Y-10895000I-20000J0D01*
G01*
X27544000Y-10895000D02*
G75*
G02*
X27584000Y-10895000I20000J0D01*
G01*
X27584000Y-10980000D02*
G75*
G02*
X27544000Y-10980000I-20000J0D01*
G01*
X27544000Y-10980000D02*
G75*
G02*
X27584000Y-10980000I20000J0D01*
G01*
X27584000Y-11065000D02*
G75*
G02*
X27544000Y-11065000I-20000J0D01*
G01*
X27544000Y-11065000D02*
G75*
G02*
X27584000Y-11065000I20000J0D01*
G01*
X27719000Y-10470000D02*
G75*
G02*
X27679000Y-10470000I-20000J0D01*
G01*
X27679000Y-10470000D02*
G75*
G02*
X27719000Y-10470000I20000J0D01*
G01*
X27719000Y-10555000D02*
G75*
G02*
X27679000Y-10555000I-20000J0D01*
G01*
X27679000Y-10555000D02*
G75*
G02*
X27719000Y-10555000I20000J0D01*
G01*
X27719000Y-10640000D02*
G75*
G02*
X27679000Y-10640000I-20000J0D01*
G01*
X27679000Y-10640000D02*
G75*
G02*
X27719000Y-10640000I20000J0D01*
G01*
X27719000Y-10725000D02*
G75*
G02*
X27679000Y-10725000I-20000J0D01*
G01*
X27679000Y-10725000D02*
G75*
G02*
X27719000Y-10725000I20000J0D01*
G01*
X27719000Y-10810000D02*
G75*
G02*
X27679000Y-10810000I-20000J0D01*
G01*
X27679000Y-10810000D02*
G75*
G02*
X27719000Y-10810000I20000J0D01*
G01*
X27719000Y-10895000D02*
G75*
G02*
X27679000Y-10895000I-20000J0D01*
G01*
X27679000Y-10895000D02*
G75*
G02*
X27719000Y-10895000I20000J0D01*
G01*
X27719000Y-10980000D02*
G75*
G02*
X27679000Y-10980000I-20000J0D01*
G01*
X27679000Y-10980000D02*
G75*
G02*
X27719000Y-10980000I20000J0D01*
G01*
X27719000Y-11065000D02*
G75*
G02*
X27679000Y-11065000I-20000J0D01*
G01*
X27679000Y-11065000D02*
G75*
G02*
X27719000Y-11065000I20000J0D01*
G01*
X27662000Y-10305000D02*
X27662000Y-10365000D01*
X27632000Y-10335000D02*
X27692000Y-10335000D01*
X27587000Y-10365000D02*
X27737000Y-10365000D01*
X27737000Y-10305000D02*
G75*
G02*
X27737000Y-10365000I0J-30000D01*
G01*
X27737000Y-10305000D02*
X27587000Y-10305000D01*
X27587000Y-10305000D02*
G75*
G03*
X27587000Y-10365000I0J-30000D01*
G01*
X27662000Y-11170000D02*
X27662000Y-11230000D01*
X27632000Y-11200000D02*
X27692000Y-11200000D01*
X27587000Y-11230000D02*
X27737000Y-11230000D01*
X27737000Y-11170000D02*
G75*
G02*
X27737000Y-11230000I0J-30000D01*
G01*
X27737000Y-11170000D02*
X27587000Y-11170000D01*
X27587000Y-11170000D02*
G75*
G03*
X27587000Y-11230000I0J-30000D01*
G01*
X28000000Y-10305000D02*
X28000000Y-10365000D01*
X27970000Y-10335000D02*
X28030000Y-10335000D01*
X27960000Y-10365000D02*
X28040000Y-10365000D01*
X28040000Y-10305000D02*
G75*
G02*
X28040000Y-10365000I0J-30000D01*
G01*
X28040000Y-10305000D02*
X27960000Y-10305000D01*
X27960000Y-10305000D02*
G75*
G03*
X27960000Y-10365000I0J-30000D01*
G01*
X28000000Y-11170000D02*
X28000000Y-11230000D01*
X27970000Y-11200000D02*
X28030000Y-11200000D01*
X27960000Y-11230000D02*
X28040000Y-11230000D01*
X28040000Y-11170000D02*
G75*
G02*
X28040000Y-11230000I0J-30000D01*
G01*
X28040000Y-11170000D02*
X27960000Y-11170000D01*
X27960000Y-11170000D02*
G75*
G03*
X27960000Y-11230000I0J-30000D01*
G01*
X1735356Y-9737356D02*
X1735356Y-9666644D01*
X1664644Y-9666644D01*
X1664644Y-9737356D01*
X1735356Y-9737356D01*
X1735356Y-9991356D02*
X1735356Y-9920644D01*
X1664644Y-9920644D01*
X1664644Y-9991356D01*
X1735356Y-9991356D01*
X1735356Y-10809856D02*
X1735356Y-10739144D01*
X1664644Y-10739144D01*
X1664644Y-10809856D01*
X1735356Y-10809856D01*
X1735356Y-11063856D02*
X1735356Y-10993144D01*
X1664644Y-10993144D01*
X1664644Y-11063856D01*
X1735356Y-11063856D01*
X1735356Y-11909856D02*
X1735356Y-11839144D01*
X1664644Y-11839144D01*
X1664644Y-11909856D01*
X1735356Y-11909856D01*
X1735356Y-12163856D02*
X1735356Y-12093144D01*
X1664644Y-12093144D01*
X1664644Y-12163856D01*
X1735356Y-12163856D01*
X1735356Y-12983356D02*
X1735356Y-12912644D01*
X1664644Y-12912644D01*
X1664644Y-12983356D01*
X1735356Y-12983356D01*
X1735356Y-13237356D02*
X1735356Y-13166644D01*
X1664644Y-13166644D01*
X1664644Y-13237356D01*
X1735356Y-13237356D01*
X1785356Y-14708856D02*
X1785356Y-14638144D01*
X1714644Y-14638144D01*
X1714644Y-14708856D01*
X1785356Y-14708856D01*
X1785356Y-14962856D02*
X1785356Y-14892144D01*
X1714644Y-14892144D01*
X1714644Y-14962856D01*
X1785356Y-14962856D01*
X1835356Y-15982356D02*
X1835356Y-15911644D01*
X1764644Y-15911644D01*
X1764644Y-15982356D01*
X1835356Y-15982356D01*
X1835356Y-16236356D02*
X1835356Y-16165644D01*
X1764644Y-16165644D01*
X1764644Y-16236356D01*
X1835356Y-16236356D01*
X1885356Y-17235356D02*
X1885356Y-17164644D01*
X1814644Y-17164644D01*
X1814644Y-17235356D01*
X1885356Y-17235356D01*
X1885356Y-17489356D02*
X1885356Y-17418644D01*
X1814644Y-17418644D01*
X1814644Y-17489356D01*
X1885356Y-17489356D01*
X1885356Y-18685356D02*
X1885356Y-18614644D01*
X1814644Y-18614644D01*
X1814644Y-18685356D01*
X1885356Y-18685356D01*
X1885356Y-18939356D02*
X1885356Y-18868644D01*
X1814644Y-18868644D01*
X1814644Y-18939356D01*
X1885356Y-18939356D01*
X2135356Y-9737356D02*
X2135356Y-9666644D01*
X2064644Y-9666644D01*
X2064644Y-9737356D01*
X2135356Y-9737356D01*
X2135356Y-9991356D02*
X2135356Y-9920644D01*
X2064644Y-9920644D01*
X2064644Y-9991356D01*
X2135356Y-9991356D01*
X2135356Y-10809856D02*
X2135356Y-10739144D01*
X2064644Y-10739144D01*
X2064644Y-10809856D01*
X2135356Y-10809856D01*
X2135356Y-11063856D02*
X2135356Y-10993144D01*
X2064644Y-10993144D01*
X2064644Y-11063856D01*
X2135356Y-11063856D01*
X2135356Y-11909856D02*
X2135356Y-11839144D01*
X2064644Y-11839144D01*
X2064644Y-11909856D01*
X2135356Y-11909856D01*
X2135356Y-12163856D02*
X2135356Y-12093144D01*
X2064644Y-12093144D01*
X2064644Y-12163856D01*
X2135356Y-12163856D01*
X2135356Y-12983356D02*
X2135356Y-12912644D01*
X2064644Y-12912644D01*
X2064644Y-12983356D01*
X2135356Y-12983356D01*
X2135356Y-13237356D02*
X2135356Y-13166644D01*
X2064644Y-13166644D01*
X2064644Y-13237356D01*
X2135356Y-13237356D01*
X2185356Y-14708856D02*
X2185356Y-14638144D01*
X2114644Y-14638144D01*
X2114644Y-14708856D01*
X2185356Y-14708856D01*
X2185356Y-14962856D02*
X2185356Y-14892144D01*
X2114644Y-14892144D01*
X2114644Y-14962856D01*
X2185356Y-14962856D01*
X2235356Y-15982356D02*
X2235356Y-15911644D01*
X2164644Y-15911644D01*
X2164644Y-15982356D01*
X2235356Y-15982356D01*
X2235356Y-16236356D02*
X2235356Y-16165644D01*
X2164644Y-16165644D01*
X2164644Y-16236356D01*
X2235356Y-16236356D01*
X2285356Y-17235356D02*
X2285356Y-17164644D01*
X2214644Y-17164644D01*
X2214644Y-17235356D01*
X2285356Y-17235356D01*
X2285356Y-17489356D02*
X2285356Y-17418644D01*
X2214644Y-17418644D01*
X2214644Y-17489356D01*
X2285356Y-17489356D01*
X2285356Y-18685356D02*
X2285356Y-18614644D01*
X2214644Y-18614644D01*
X2214644Y-18685356D01*
X2285356Y-18685356D01*
X2285356Y-18939356D02*
X2285356Y-18868644D01*
X2214644Y-18868644D01*
X2214644Y-18939356D01*
X2285356Y-18939356D01*
X2535356Y-9737356D02*
X2535356Y-9666644D01*
X2464644Y-9666644D01*
X2464644Y-9737356D01*
X2535356Y-9737356D01*
X2535356Y-9991356D02*
X2535356Y-9920644D01*
X2464644Y-9920644D01*
X2464644Y-9991356D01*
X2535356Y-9991356D01*
X2535356Y-10809856D02*
X2535356Y-10739144D01*
X2464644Y-10739144D01*
X2464644Y-10809856D01*
X2535356Y-10809856D01*
X2535356Y-11063856D02*
X2535356Y-10993144D01*
X2464644Y-10993144D01*
X2464644Y-11063856D01*
X2535356Y-11063856D01*
X2535356Y-11909856D02*
X2535356Y-11839144D01*
X2464644Y-11839144D01*
X2464644Y-11909856D01*
X2535356Y-11909856D01*
X2535356Y-12163856D02*
X2535356Y-12093144D01*
X2464644Y-12093144D01*
X2464644Y-12163856D01*
X2535356Y-12163856D01*
X2535356Y-12983356D02*
X2535356Y-12912644D01*
X2464644Y-12912644D01*
X2464644Y-12983356D01*
X2535356Y-12983356D01*
X2535356Y-13237356D02*
X2535356Y-13166644D01*
X2464644Y-13166644D01*
X2464644Y-13237356D01*
X2535356Y-13237356D01*
X2585356Y-14708856D02*
X2585356Y-14638144D01*
X2514644Y-14638144D01*
X2514644Y-14708856D01*
X2585356Y-14708856D01*
X2585356Y-14962856D02*
X2585356Y-14892144D01*
X2514644Y-14892144D01*
X2514644Y-14962856D01*
X2585356Y-14962856D01*
X2635356Y-15982356D02*
X2635356Y-15911644D01*
X2564644Y-15911644D01*
X2564644Y-15982356D01*
X2635356Y-15982356D01*
X2635356Y-16236356D02*
X2635356Y-16165644D01*
X2564644Y-16165644D01*
X2564644Y-16236356D01*
X2635356Y-16236356D01*
X2685356Y-17239356D02*
X2685356Y-17168644D01*
X2614644Y-17168644D01*
X2614644Y-17239356D01*
X2685356Y-17239356D01*
X2685356Y-17493356D02*
X2685356Y-17422644D01*
X2614644Y-17422644D01*
X2614644Y-17493356D01*
X2685356Y-17493356D01*
X2685356Y-18685356D02*
X2685356Y-18614644D01*
X2614644Y-18614644D01*
X2614644Y-18685356D01*
X2685356Y-18685356D01*
X2685356Y-18939356D02*
X2685356Y-18868644D01*
X2614644Y-18868644D01*
X2614644Y-18939356D01*
X2685356Y-18939356D01*
X2935356Y-9737356D02*
X2935356Y-9666644D01*
X2864644Y-9666644D01*
X2864644Y-9737356D01*
X2935356Y-9737356D01*
X2935356Y-9991356D02*
X2935356Y-9920644D01*
X2864644Y-9920644D01*
X2864644Y-9991356D01*
X2935356Y-9991356D01*
X2935356Y-10809856D02*
X2935356Y-10739144D01*
X2864644Y-10739144D01*
X2864644Y-10809856D01*
X2935356Y-10809856D01*
X2935356Y-11063856D02*
X2935356Y-10993144D01*
X2864644Y-10993144D01*
X2864644Y-11063856D01*
X2935356Y-11063856D01*
X2935356Y-11909856D02*
X2935356Y-11839144D01*
X2864644Y-11839144D01*
X2864644Y-11909856D01*
X2935356Y-11909856D01*
X2935356Y-12163856D02*
X2935356Y-12093144D01*
X2864644Y-12093144D01*
X2864644Y-12163856D01*
X2935356Y-12163856D01*
X2935356Y-12983356D02*
X2935356Y-12912644D01*
X2864644Y-12912644D01*
X2864644Y-12983356D01*
X2935356Y-12983356D01*
X2935356Y-13237356D02*
X2935356Y-13166644D01*
X2864644Y-13166644D01*
X2864644Y-13237356D01*
X2935356Y-13237356D01*
X2985356Y-14708856D02*
X2985356Y-14638144D01*
X2914644Y-14638144D01*
X2914644Y-14708856D01*
X2985356Y-14708856D01*
X2985356Y-14962856D02*
X2985356Y-14892144D01*
X2914644Y-14892144D01*
X2914644Y-14962856D01*
X2985356Y-14962856D01*
X3035356Y-15982356D02*
X3035356Y-15911644D01*
X2964644Y-15911644D01*
X2964644Y-15982356D01*
X3035356Y-15982356D01*
X3035356Y-16236356D02*
X3035356Y-16165644D01*
X2964644Y-16165644D01*
X2964644Y-16236356D01*
X3035356Y-16236356D01*
X3085356Y-17239356D02*
X3085356Y-17168644D01*
X3014644Y-17168644D01*
X3014644Y-17239356D01*
X3085356Y-17239356D01*
X3085356Y-17493356D02*
X3085356Y-17422644D01*
X3014644Y-17422644D01*
X3014644Y-17493356D01*
X3085356Y-17493356D01*
X3085356Y-18685356D02*
X3085356Y-18614644D01*
X3014644Y-18614644D01*
X3014644Y-18685356D01*
X3085356Y-18685356D01*
X3085356Y-18939356D02*
X3085356Y-18868644D01*
X3014644Y-18868644D01*
X3014644Y-18939356D01*
X3085356Y-18939356D01*
X3335356Y-9737356D02*
X3335356Y-9666644D01*
X3264644Y-9666644D01*
X3264644Y-9737356D01*
X3335356Y-9737356D01*
X3335356Y-9991356D02*
X3335356Y-9920644D01*
X3264644Y-9920644D01*
X3264644Y-9991356D01*
X3335356Y-9991356D01*
X3335356Y-10809856D02*
X3335356Y-10739144D01*
X3264644Y-10739144D01*
X3264644Y-10809856D01*
X3335356Y-10809856D01*
X3335356Y-11063856D02*
X3335356Y-10993144D01*
X3264644Y-10993144D01*
X3264644Y-11063856D01*
X3335356Y-11063856D01*
X3335356Y-11909856D02*
X3335356Y-11839144D01*
X3264644Y-11839144D01*
X3264644Y-11909856D01*
X3335356Y-11909856D01*
X3335356Y-12163856D02*
X3335356Y-12093144D01*
X3264644Y-12093144D01*
X3264644Y-12163856D01*
X3335356Y-12163856D01*
X3335356Y-12983356D02*
X3335356Y-12912644D01*
X3264644Y-12912644D01*
X3264644Y-12983356D01*
X3335356Y-12983356D01*
X3335356Y-13237356D02*
X3335356Y-13166644D01*
X3264644Y-13166644D01*
X3264644Y-13237356D01*
X3335356Y-13237356D01*
X3385356Y-14708856D02*
X3385356Y-14638144D01*
X3314644Y-14638144D01*
X3314644Y-14708856D01*
X3385356Y-14708856D01*
X3385356Y-14962856D02*
X3385356Y-14892144D01*
X3314644Y-14892144D01*
X3314644Y-14962856D01*
X3385356Y-14962856D01*
X3435356Y-15982356D02*
X3435356Y-15911644D01*
X3364644Y-15911644D01*
X3364644Y-15982356D01*
X3435356Y-15982356D01*
X3435356Y-16236356D02*
X3435356Y-16165644D01*
X3364644Y-16165644D01*
X3364644Y-16236356D01*
X3435356Y-16236356D01*
X3485356Y-17235356D02*
X3485356Y-17164644D01*
X3414644Y-17164644D01*
X3414644Y-17235356D01*
X3485356Y-17235356D01*
X3485356Y-17489356D02*
X3485356Y-17418644D01*
X3414644Y-17418644D01*
X3414644Y-17489356D01*
X3485356Y-17489356D01*
X3485356Y-18685356D02*
X3485356Y-18614644D01*
X3414644Y-18614644D01*
X3414644Y-18685356D01*
X3485356Y-18685356D01*
X3485356Y-18939356D02*
X3485356Y-18868644D01*
X3414644Y-18868644D01*
X3414644Y-18939356D01*
X3485356Y-18939356D01*
X3735356Y-9737356D02*
X3735356Y-9666644D01*
X3664644Y-9666644D01*
X3664644Y-9737356D01*
X3735356Y-9737356D01*
X3735356Y-9991356D02*
X3735356Y-9920644D01*
X3664644Y-9920644D01*
X3664644Y-9991356D01*
X3735356Y-9991356D01*
X3735356Y-10810856D02*
X3735356Y-10740144D01*
X3664644Y-10740144D01*
X3664644Y-10810856D01*
X3735356Y-10810856D01*
X3735356Y-11064856D02*
X3735356Y-10994144D01*
X3664644Y-10994144D01*
X3664644Y-11064856D01*
X3735356Y-11064856D01*
X3735356Y-11909856D02*
X3735356Y-11839144D01*
X3664644Y-11839144D01*
X3664644Y-11909856D01*
X3735356Y-11909856D01*
X3735356Y-12163856D02*
X3735356Y-12093144D01*
X3664644Y-12093144D01*
X3664644Y-12163856D01*
X3735356Y-12163856D01*
X3735356Y-12983356D02*
X3735356Y-12912644D01*
X3664644Y-12912644D01*
X3664644Y-12983356D01*
X3735356Y-12983356D01*
X3735356Y-13237356D02*
X3735356Y-13166644D01*
X3664644Y-13166644D01*
X3664644Y-13237356D01*
X3735356Y-13237356D01*
X3785356Y-14708856D02*
X3785356Y-14638144D01*
X3714644Y-14638144D01*
X3714644Y-14708856D01*
X3785356Y-14708856D01*
X3785356Y-14962856D02*
X3785356Y-14892144D01*
X3714644Y-14892144D01*
X3714644Y-14962856D01*
X3785356Y-14962856D01*
X3835356Y-15982356D02*
X3835356Y-15911644D01*
X3764644Y-15911644D01*
X3764644Y-15982356D01*
X3835356Y-15982356D01*
X3835356Y-16236356D02*
X3835356Y-16165644D01*
X3764644Y-16165644D01*
X3764644Y-16236356D01*
X3835356Y-16236356D01*
X3885356Y-17235356D02*
X3885356Y-17164644D01*
X3814644Y-17164644D01*
X3814644Y-17235356D01*
X3885356Y-17235356D01*
X3885356Y-17489356D02*
X3885356Y-17418644D01*
X3814644Y-17418644D01*
X3814644Y-17489356D01*
X3885356Y-17489356D01*
X3885356Y-18685356D02*
X3885356Y-18614644D01*
X3814644Y-18614644D01*
X3814644Y-18685356D01*
X3885356Y-18685356D01*
X3885356Y-18939356D02*
X3885356Y-18868644D01*
X3814644Y-18868644D01*
X3814644Y-18939356D01*
X3885356Y-18939356D01*
X4786813Y-9859313D02*
X4786813Y-9788601D01*
X4716101Y-9788601D01*
X4716101Y-9859313D01*
X4786813Y-9859313D01*
X4786813Y-10113313D02*
X4786813Y-10042601D01*
X4716101Y-10042601D01*
X4716101Y-10113313D01*
X4786813Y-10113313D01*
X4786813Y-10859313D02*
X4786813Y-10788601D01*
X4716101Y-10788601D01*
X4716101Y-10859313D01*
X4786813Y-10859313D01*
X4786813Y-11113313D02*
X4786813Y-11042601D01*
X4716101Y-11042601D01*
X4716101Y-11113313D01*
X4786813Y-11113313D01*
X4836813Y-11859313D02*
X4836813Y-11788601D01*
X4766101Y-11788601D01*
X4766101Y-11859313D01*
X4836813Y-11859313D01*
X4836813Y-12113313D02*
X4836813Y-12042601D01*
X4766101Y-12042601D01*
X4766101Y-12113313D01*
X4836813Y-12113313D01*
X4836813Y-13040813D02*
X4836813Y-12970101D01*
X4766101Y-12970101D01*
X4766101Y-13040813D01*
X4836813Y-13040813D01*
X4836813Y-13294813D02*
X4836813Y-13224101D01*
X4766101Y-13224101D01*
X4766101Y-13294813D01*
X4836813Y-13294813D01*
X4885356Y-17317606D02*
X4885356Y-17246894D01*
X4814644Y-17246894D01*
X4814644Y-17317606D01*
X4885356Y-17317606D01*
X4885356Y-17571606D02*
X4885356Y-17500894D01*
X4814644Y-17500894D01*
X4814644Y-17571606D01*
X4885356Y-17571606D01*
X4908356Y-18795106D02*
X4908356Y-18724394D01*
X4837644Y-18724394D01*
X4837644Y-18795106D01*
X4908356Y-18795106D01*
X4908356Y-19049106D02*
X4908356Y-18978394D01*
X4837644Y-18978394D01*
X4837644Y-19049106D01*
X4908356Y-19049106D01*
X4935356Y-14767606D02*
X4935356Y-14696894D01*
X4864644Y-14696894D01*
X4864644Y-14767606D01*
X4935356Y-14767606D01*
X4935356Y-15021606D02*
X4935356Y-14950894D01*
X4864644Y-14950894D01*
X4864644Y-15021606D01*
X4935356Y-15021606D01*
X4939356Y-16068606D02*
X4939356Y-15997894D01*
X4868644Y-15997894D01*
X4868644Y-16068606D01*
X4939356Y-16068606D01*
X4939356Y-16322606D02*
X4939356Y-16251894D01*
X4868644Y-16251894D01*
X4868644Y-16322606D01*
X4939356Y-16322606D01*
X5186813Y-9859313D02*
X5186813Y-9788601D01*
X5116101Y-9788601D01*
X5116101Y-9859313D01*
X5186813Y-9859313D01*
X5186813Y-10113313D02*
X5186813Y-10042601D01*
X5116101Y-10042601D01*
X5116101Y-10113313D01*
X5186813Y-10113313D01*
X5186813Y-10859313D02*
X5186813Y-10788601D01*
X5116101Y-10788601D01*
X5116101Y-10859313D01*
X5186813Y-10859313D01*
X5186813Y-11113313D02*
X5186813Y-11042601D01*
X5116101Y-11042601D01*
X5116101Y-11113313D01*
X5186813Y-11113313D01*
X5233899Y-13040813D02*
X5233899Y-12970101D01*
X5163187Y-12970101D01*
X5163187Y-13040813D01*
X5233899Y-13040813D01*
X5233899Y-13294813D02*
X5233899Y-13224101D01*
X5163187Y-13224101D01*
X5163187Y-13294813D01*
X5233899Y-13294813D01*
X5236813Y-11859313D02*
X5236813Y-11788601D01*
X5166101Y-11788601D01*
X5166101Y-11859313D01*
X5236813Y-11859313D01*
X5236813Y-12113313D02*
X5236813Y-12042601D01*
X5166101Y-12042601D01*
X5166101Y-12113313D01*
X5236813Y-12113313D01*
X5285356Y-17317606D02*
X5285356Y-17246894D01*
X5214644Y-17246894D01*
X5214644Y-17317606D01*
X5285356Y-17317606D01*
X5285356Y-17571606D02*
X5285356Y-17500894D01*
X5214644Y-17500894D01*
X5214644Y-17571606D01*
X5285356Y-17571606D01*
X5321356Y-14765305D02*
X5321356Y-14694594D01*
X5250644Y-14694594D01*
X5250644Y-14765305D01*
X5321356Y-14765305D01*
X5321356Y-15019305D02*
X5321356Y-14948594D01*
X5250644Y-14948594D01*
X5250644Y-15019305D01*
X5321356Y-15019305D01*
X5335356Y-16068606D02*
X5335356Y-15997894D01*
X5264644Y-15997894D01*
X5264644Y-16068606D01*
X5335356Y-16068606D01*
X5335356Y-16322606D02*
X5335356Y-16251894D01*
X5264644Y-16251894D01*
X5264644Y-16322606D01*
X5335356Y-16322606D01*
X5335356Y-18795106D02*
X5335356Y-18724394D01*
X5264644Y-18724394D01*
X5264644Y-18795106D01*
X5335356Y-18795106D01*
X5335356Y-19049106D02*
X5335356Y-18978394D01*
X5264644Y-18978394D01*
X5264644Y-19049106D01*
X5335356Y-19049106D01*
X5586813Y-10859313D02*
X5586813Y-10788601D01*
X5516101Y-10788601D01*
X5516101Y-10859313D01*
X5586813Y-10859313D01*
X5586813Y-11113313D02*
X5586813Y-11042601D01*
X5516101Y-11042601D01*
X5516101Y-11113313D01*
X5586813Y-11113313D01*
X5595813Y-9859313D02*
X5595813Y-9788601D01*
X5525101Y-9788601D01*
X5525101Y-9859313D01*
X5595813Y-9859313D01*
X5595813Y-10113313D02*
X5595813Y-10042601D01*
X5525101Y-10042601D01*
X5525101Y-10113313D01*
X5595813Y-10113313D01*
X5633899Y-13040813D02*
X5633899Y-12970101D01*
X5563187Y-12970101D01*
X5563187Y-13040813D01*
X5633899Y-13040813D01*
X5633899Y-13294813D02*
X5633899Y-13224101D01*
X5563187Y-13224101D01*
X5563187Y-13294813D01*
X5633899Y-13294813D01*
X5636813Y-11859313D02*
X5636813Y-11788601D01*
X5566101Y-11788601D01*
X5566101Y-11859313D01*
X5636813Y-11859313D01*
X5636813Y-12113313D02*
X5636813Y-12042601D01*
X5566101Y-12042601D01*
X5566101Y-12113313D01*
X5636813Y-12113313D01*
X5685356Y-17317606D02*
X5685356Y-17246894D01*
X5614644Y-17246894D01*
X5614644Y-17317606D01*
X5685356Y-17317606D01*
X5685356Y-17571606D02*
X5685356Y-17500894D01*
X5614644Y-17500894D01*
X5614644Y-17571606D01*
X5685356Y-17571606D01*
X5735356Y-14765305D02*
X5735356Y-14694594D01*
X5664644Y-14694594D01*
X5664644Y-14765305D01*
X5735356Y-14765305D01*
X5735356Y-15019305D02*
X5735356Y-14948594D01*
X5664644Y-14948594D01*
X5664644Y-15019305D01*
X5735356Y-15019305D01*
X5739356Y-16068606D02*
X5739356Y-15997894D01*
X5668644Y-15997894D01*
X5668644Y-16068606D01*
X5739356Y-16068606D01*
X5739356Y-16322606D02*
X5739356Y-16251894D01*
X5668644Y-16251894D01*
X5668644Y-16322606D01*
X5739356Y-16322606D01*
X5826356Y-18795106D02*
X5826356Y-18724394D01*
X5755644Y-18724394D01*
X5755644Y-18795106D01*
X5826356Y-18795106D01*
X5826356Y-19049106D02*
X5826356Y-18978394D01*
X5755644Y-18978394D01*
X5755644Y-19049106D01*
X5826356Y-19049106D01*
X5986813Y-9859313D02*
X5986813Y-9788601D01*
X5916101Y-9788601D01*
X5916101Y-9859313D01*
X5986813Y-9859313D01*
X5986813Y-10113313D02*
X5986813Y-10042601D01*
X5916101Y-10042601D01*
X5916101Y-10113313D01*
X5986813Y-10113313D01*
X5986813Y-10859313D02*
X5986813Y-10788601D01*
X5916101Y-10788601D01*
X5916101Y-10859313D01*
X5986813Y-10859313D01*
X5986813Y-11113313D02*
X5986813Y-11042601D01*
X5916101Y-11042601D01*
X5916101Y-11113313D01*
X5986813Y-11113313D01*
X6025156Y-13040813D02*
X6025156Y-12970101D01*
X5954445Y-12970101D01*
X5954445Y-13040813D01*
X6025156Y-13040813D01*
X6025156Y-13294813D02*
X6025156Y-13224101D01*
X5954445Y-13224101D01*
X5954445Y-13294813D01*
X6025156Y-13294813D01*
X6036813Y-11859313D02*
X6036813Y-11788601D01*
X5966101Y-11788601D01*
X5966101Y-11859313D01*
X6036813Y-11859313D01*
X6036813Y-12113313D02*
X6036813Y-12042601D01*
X5966101Y-12042601D01*
X5966101Y-12113313D01*
X6036813Y-12113313D01*
X6085356Y-17317606D02*
X6085356Y-17246894D01*
X6014644Y-17246894D01*
X6014644Y-17317606D01*
X6085356Y-17317606D01*
X6085356Y-17571606D02*
X6085356Y-17500894D01*
X6014644Y-17500894D01*
X6014644Y-17571606D01*
X6085356Y-17571606D01*
X6135356Y-14767606D02*
X6135356Y-14696894D01*
X6064644Y-14696894D01*
X6064644Y-14767606D01*
X6135356Y-14767606D01*
X6135356Y-15021606D02*
X6135356Y-14950894D01*
X6064644Y-14950894D01*
X6064644Y-15021606D01*
X6135356Y-15021606D01*
X6135356Y-16067606D02*
X6135356Y-15996894D01*
X6064644Y-15996894D01*
X6064644Y-16067606D01*
X6135356Y-16067606D01*
X6135356Y-16321606D02*
X6135356Y-16250894D01*
X6064644Y-16250894D01*
X6064644Y-16321606D01*
X6135356Y-16321606D01*
X6235356Y-18795106D02*
X6235356Y-18724394D01*
X6164644Y-18724394D01*
X6164644Y-18795106D01*
X6235356Y-18795106D01*
X6235356Y-19049106D02*
X6235356Y-18978394D01*
X6164644Y-18978394D01*
X6164644Y-19049106D01*
X6235356Y-19049106D01*
X6386813Y-9855313D02*
X6386813Y-9784601D01*
X6316101Y-9784601D01*
X6316101Y-9855313D01*
X6386813Y-9855313D01*
X6386813Y-10109313D02*
X6386813Y-10038601D01*
X6316101Y-10038601D01*
X6316101Y-10109313D01*
X6386813Y-10109313D01*
X6386813Y-10859313D02*
X6386813Y-10788601D01*
X6316101Y-10788601D01*
X6316101Y-10859313D01*
X6386813Y-10859313D01*
X6386813Y-11113313D02*
X6386813Y-11042601D01*
X6316101Y-11042601D01*
X6316101Y-11113313D01*
X6386813Y-11113313D01*
X6427984Y-13040813D02*
X6427984Y-12970101D01*
X6357273Y-12970101D01*
X6357273Y-13040813D01*
X6427984Y-13040813D01*
X6427984Y-13294813D02*
X6427984Y-13224101D01*
X6357273Y-13224101D01*
X6357273Y-13294813D01*
X6427984Y-13294813D01*
X6436813Y-11859313D02*
X6436813Y-11788601D01*
X6366101Y-11788601D01*
X6366101Y-11859313D01*
X6436813Y-11859313D01*
X6436813Y-12113313D02*
X6436813Y-12042601D01*
X6366101Y-12042601D01*
X6366101Y-12113313D01*
X6436813Y-12113313D01*
X6485356Y-17295106D02*
X6485356Y-17224394D01*
X6414644Y-17224394D01*
X6414644Y-17295106D01*
X6485356Y-17295106D01*
X6485356Y-17549106D02*
X6485356Y-17478394D01*
X6414644Y-17478394D01*
X6414644Y-17549106D01*
X6485356Y-17549106D01*
X6535356Y-14765305D02*
X6535356Y-14694594D01*
X6464644Y-14694594D01*
X6464644Y-14765305D01*
X6535356Y-14765305D01*
X6535356Y-15019305D02*
X6535356Y-14948594D01*
X6464644Y-14948594D01*
X6464644Y-15019305D01*
X6535356Y-15019305D01*
X6535356Y-16068606D02*
X6535356Y-15997894D01*
X6464644Y-15997894D01*
X6464644Y-16068606D01*
X6535356Y-16068606D01*
X6535356Y-16322606D02*
X6535356Y-16251894D01*
X6464644Y-16251894D01*
X6464644Y-16322606D01*
X6535356Y-16322606D01*
X6635356Y-18795106D02*
X6635356Y-18724394D01*
X6564644Y-18724394D01*
X6564644Y-18795106D01*
X6635356Y-18795106D01*
X6635356Y-19049106D02*
X6635356Y-18978394D01*
X6564644Y-18978394D01*
X6564644Y-19049106D01*
X6635356Y-19049106D01*
X6786813Y-9859313D02*
X6786813Y-9788601D01*
X6716101Y-9788601D01*
X6716101Y-9859313D01*
X6786813Y-9859313D01*
X6786813Y-10113313D02*
X6786813Y-10042601D01*
X6716101Y-10042601D01*
X6716101Y-10113313D01*
X6786813Y-10113313D01*
X6786813Y-10859313D02*
X6786813Y-10788601D01*
X6716101Y-10788601D01*
X6716101Y-10859313D01*
X6786813Y-10859313D01*
X6786813Y-11113313D02*
X6786813Y-11042601D01*
X6716101Y-11042601D01*
X6716101Y-11113313D01*
X6786813Y-11113313D01*
X6826545Y-13040813D02*
X6826545Y-12970101D01*
X6755834Y-12970101D01*
X6755834Y-13040813D01*
X6826545Y-13040813D01*
X6826545Y-13294813D02*
X6826545Y-13224101D01*
X6755834Y-13224101D01*
X6755834Y-13294813D01*
X6826545Y-13294813D01*
X6836813Y-11859313D02*
X6836813Y-11788601D01*
X6766101Y-11788601D01*
X6766101Y-11859313D01*
X6836813Y-11859313D01*
X6836813Y-12113313D02*
X6836813Y-12042601D01*
X6766101Y-12042601D01*
X6766101Y-12113313D01*
X6836813Y-12113313D01*
X6882246Y-17316345D02*
X6882246Y-17245634D01*
X6811535Y-17245634D01*
X6811535Y-17316345D01*
X6882246Y-17316345D01*
X6882246Y-17570345D02*
X6882246Y-17499634D01*
X6811535Y-17499634D01*
X6811535Y-17570345D01*
X6882246Y-17570345D01*
X6935356Y-14745106D02*
X6935356Y-14674394D01*
X6864644Y-14674394D01*
X6864644Y-14745106D01*
X6935356Y-14745106D01*
X6935356Y-14999106D02*
X6935356Y-14928394D01*
X6864644Y-14928394D01*
X6864644Y-14999106D01*
X6935356Y-14999106D01*
X6935356Y-16067606D02*
X6935356Y-15996894D01*
X6864644Y-15996894D01*
X6864644Y-16067606D01*
X6935356Y-16067606D01*
X6935356Y-16321606D02*
X6935356Y-16250894D01*
X6864644Y-16250894D01*
X6864644Y-16321606D01*
X6935356Y-16321606D01*
X7035356Y-18795106D02*
X7035356Y-18724394D01*
X6964644Y-18724394D01*
X6964644Y-18795106D01*
X7035356Y-18795106D01*
X7035356Y-19049106D02*
X7035356Y-18978394D01*
X6964644Y-18978394D01*
X6964644Y-19049106D01*
X7035356Y-19049106D01*
X8076356Y-18758856D02*
X8076356Y-18688144D01*
X8005644Y-18688144D01*
X8005644Y-18758856D01*
X8076356Y-18758856D01*
X8076356Y-19012856D02*
X8076356Y-18942144D01*
X8005644Y-18942144D01*
X8005644Y-19012856D01*
X8076356Y-19012856D01*
X8085356Y-14758856D02*
X8085356Y-14688144D01*
X8014644Y-14688144D01*
X8014644Y-14758856D01*
X8085356Y-14758856D01*
X8085356Y-15012856D02*
X8085356Y-14942144D01*
X8014644Y-14942144D01*
X8014644Y-15012856D01*
X8085356Y-15012856D01*
X8085356Y-16031356D02*
X8085356Y-15960644D01*
X8014644Y-15960644D01*
X8014644Y-16031356D01*
X8085356Y-16031356D01*
X8085356Y-16285356D02*
X8085356Y-16214644D01*
X8014644Y-16214644D01*
X8014644Y-16285356D01*
X8085356Y-16285356D01*
X8085356Y-17231356D02*
X8085356Y-17160644D01*
X8014644Y-17160644D01*
X8014644Y-17231356D01*
X8085356Y-17231356D01*
X8085356Y-17485356D02*
X8085356Y-17414644D01*
X8014644Y-17414644D01*
X8014644Y-17485356D01*
X8085356Y-17485356D01*
X8485356Y-9781356D02*
X8485356Y-9710644D01*
X8414644Y-9710644D01*
X8414644Y-9781356D01*
X8485356Y-9781356D01*
X8485356Y-10035356D02*
X8485356Y-9964644D01*
X8414644Y-9964644D01*
X8414644Y-10035356D01*
X8485356Y-10035356D01*
X8485356Y-10835356D02*
X8485356Y-10764644D01*
X8414644Y-10764644D01*
X8414644Y-10835356D01*
X8485356Y-10835356D01*
X8485356Y-11089356D02*
X8485356Y-11018644D01*
X8414644Y-11018644D01*
X8414644Y-11089356D01*
X8485356Y-11089356D01*
X8485356Y-11931356D02*
X8485356Y-11860644D01*
X8414644Y-11860644D01*
X8414644Y-11931356D01*
X8485356Y-11931356D01*
X8485356Y-12185356D02*
X8485356Y-12114644D01*
X8414644Y-12114644D01*
X8414644Y-12185356D01*
X8485356Y-12185356D01*
X8485356Y-12981356D02*
X8485356Y-12910644D01*
X8414644Y-12910644D01*
X8414644Y-12981356D01*
X8485356Y-12981356D01*
X8485356Y-13235356D02*
X8485356Y-13164644D01*
X8414644Y-13164644D01*
X8414644Y-13235356D01*
X8485356Y-13235356D01*
X8485356Y-14758856D02*
X8485356Y-14688144D01*
X8414644Y-14688144D01*
X8414644Y-14758856D01*
X8485356Y-14758856D01*
X8485356Y-15012856D02*
X8485356Y-14942144D01*
X8414644Y-14942144D01*
X8414644Y-15012856D01*
X8485356Y-15012856D01*
X8485356Y-16031356D02*
X8485356Y-15960644D01*
X8414644Y-15960644D01*
X8414644Y-16031356D01*
X8485356Y-16031356D01*
X8485356Y-16285356D02*
X8485356Y-16214644D01*
X8414644Y-16214644D01*
X8414644Y-16285356D01*
X8485356Y-16285356D01*
X8485356Y-17231356D02*
X8485356Y-17160644D01*
X8414644Y-17160644D01*
X8414644Y-17231356D01*
X8485356Y-17231356D01*
X8485356Y-17485356D02*
X8485356Y-17414644D01*
X8414644Y-17414644D01*
X8414644Y-17485356D01*
X8485356Y-17485356D01*
X8485356Y-18758856D02*
X8485356Y-18688144D01*
X8414644Y-18688144D01*
X8414644Y-18758856D01*
X8485356Y-18758856D01*
X8485356Y-19012856D02*
X8485356Y-18942144D01*
X8414644Y-18942144D01*
X8414644Y-19012856D01*
X8485356Y-19012856D01*
X8885356Y-9781356D02*
X8885356Y-9710644D01*
X8814644Y-9710644D01*
X8814644Y-9781356D01*
X8885356Y-9781356D01*
X8885356Y-10035356D02*
X8885356Y-9964644D01*
X8814644Y-9964644D01*
X8814644Y-10035356D01*
X8885356Y-10035356D01*
X8885356Y-10835356D02*
X8885356Y-10764644D01*
X8814644Y-10764644D01*
X8814644Y-10835356D01*
X8885356Y-10835356D01*
X8885356Y-11089356D02*
X8885356Y-11018644D01*
X8814644Y-11018644D01*
X8814644Y-11089356D01*
X8885356Y-11089356D01*
X8885356Y-11931356D02*
X8885356Y-11860644D01*
X8814644Y-11860644D01*
X8814644Y-11931356D01*
X8885356Y-11931356D01*
X8885356Y-12185356D02*
X8885356Y-12114644D01*
X8814644Y-12114644D01*
X8814644Y-12185356D01*
X8885356Y-12185356D01*
X8885356Y-12981356D02*
X8885356Y-12910644D01*
X8814644Y-12910644D01*
X8814644Y-12981356D01*
X8885356Y-12981356D01*
X8885356Y-13235356D02*
X8885356Y-13164644D01*
X8814644Y-13164644D01*
X8814644Y-13235356D01*
X8885356Y-13235356D01*
X8885356Y-14758856D02*
X8885356Y-14688144D01*
X8814644Y-14688144D01*
X8814644Y-14758856D01*
X8885356Y-14758856D01*
X8885356Y-15012856D02*
X8885356Y-14942144D01*
X8814644Y-14942144D01*
X8814644Y-15012856D01*
X8885356Y-15012856D01*
X8885356Y-16031356D02*
X8885356Y-15960644D01*
X8814644Y-15960644D01*
X8814644Y-16031356D01*
X8885356Y-16031356D01*
X8885356Y-16285356D02*
X8885356Y-16214644D01*
X8814644Y-16214644D01*
X8814644Y-16285356D01*
X8885356Y-16285356D01*
X8885356Y-17231356D02*
X8885356Y-17160644D01*
X8814644Y-17160644D01*
X8814644Y-17231356D01*
X8885356Y-17231356D01*
X8885356Y-17485356D02*
X8885356Y-17414644D01*
X8814644Y-17414644D01*
X8814644Y-17485356D01*
X8885356Y-17485356D01*
X8885356Y-18758856D02*
X8885356Y-18688144D01*
X8814644Y-18688144D01*
X8814644Y-18758856D01*
X8885356Y-18758856D01*
X8885356Y-19012856D02*
X8885356Y-18942144D01*
X8814644Y-18942144D01*
X8814644Y-19012856D01*
X8885356Y-19012856D01*
X9285356Y-9781356D02*
X9285356Y-9710644D01*
X9214644Y-9710644D01*
X9214644Y-9781356D01*
X9285356Y-9781356D01*
X9285356Y-10035356D02*
X9285356Y-9964644D01*
X9214644Y-9964644D01*
X9214644Y-10035356D01*
X9285356Y-10035356D01*
X9285356Y-10835356D02*
X9285356Y-10764644D01*
X9214644Y-10764644D01*
X9214644Y-10835356D01*
X9285356Y-10835356D01*
X9285356Y-11089356D02*
X9285356Y-11018644D01*
X9214644Y-11018644D01*
X9214644Y-11089356D01*
X9285356Y-11089356D01*
X9285356Y-11931356D02*
X9285356Y-11860644D01*
X9214644Y-11860644D01*
X9214644Y-11931356D01*
X9285356Y-11931356D01*
X9285356Y-12185356D02*
X9285356Y-12114644D01*
X9214644Y-12114644D01*
X9214644Y-12185356D01*
X9285356Y-12185356D01*
X9285356Y-12981356D02*
X9285356Y-12910644D01*
X9214644Y-12910644D01*
X9214644Y-12981356D01*
X9285356Y-12981356D01*
X9285356Y-13235356D02*
X9285356Y-13164644D01*
X9214644Y-13164644D01*
X9214644Y-13235356D01*
X9285356Y-13235356D01*
X9285356Y-14758856D02*
X9285356Y-14688144D01*
X9214644Y-14688144D01*
X9214644Y-14758856D01*
X9285356Y-14758856D01*
X9285356Y-15012856D02*
X9285356Y-14942144D01*
X9214644Y-14942144D01*
X9214644Y-15012856D01*
X9285356Y-15012856D01*
X9285356Y-17231356D02*
X9285356Y-17160644D01*
X9214644Y-17160644D01*
X9214644Y-17231356D01*
X9285356Y-17231356D01*
X9285356Y-17485356D02*
X9285356Y-17414644D01*
X9214644Y-17414644D01*
X9214644Y-17485356D01*
X9285356Y-17485356D01*
X9285356Y-18758856D02*
X9285356Y-18688144D01*
X9214644Y-18688144D01*
X9214644Y-18758856D01*
X9285356Y-18758856D01*
X9285356Y-19012856D02*
X9285356Y-18942144D01*
X9214644Y-18942144D01*
X9214644Y-19012856D01*
X9285356Y-19012856D01*
X9290356Y-16031356D02*
X9290356Y-15960644D01*
X9219644Y-15960644D01*
X9219644Y-16031356D01*
X9290356Y-16031356D01*
X9290356Y-16285356D02*
X9290356Y-16214644D01*
X9219644Y-16214644D01*
X9219644Y-16285356D01*
X9290356Y-16285356D01*
X9685356Y-9781356D02*
X9685356Y-9710644D01*
X9614644Y-9710644D01*
X9614644Y-9781356D01*
X9685356Y-9781356D01*
X9685356Y-10035356D02*
X9685356Y-9964644D01*
X9614644Y-9964644D01*
X9614644Y-10035356D01*
X9685356Y-10035356D01*
X9685356Y-10835356D02*
X9685356Y-10764644D01*
X9614644Y-10764644D01*
X9614644Y-10835356D01*
X9685356Y-10835356D01*
X9685356Y-11089356D02*
X9685356Y-11018644D01*
X9614644Y-11018644D01*
X9614644Y-11089356D01*
X9685356Y-11089356D01*
X9685356Y-11935356D02*
X9685356Y-11864644D01*
X9614644Y-11864644D01*
X9614644Y-11935356D01*
X9685356Y-11935356D01*
X9685356Y-12189356D02*
X9685356Y-12118644D01*
X9614644Y-12118644D01*
X9614644Y-12189356D01*
X9685356Y-12189356D01*
X9685356Y-12981356D02*
X9685356Y-12910644D01*
X9614644Y-12910644D01*
X9614644Y-12981356D01*
X9685356Y-12981356D01*
X9685356Y-13235356D02*
X9685356Y-13164644D01*
X9614644Y-13164644D01*
X9614644Y-13235356D01*
X9685356Y-13235356D01*
X9685356Y-14758856D02*
X9685356Y-14688144D01*
X9614644Y-14688144D01*
X9614644Y-14758856D01*
X9685356Y-14758856D01*
X9685356Y-15012856D02*
X9685356Y-14942144D01*
X9614644Y-14942144D01*
X9614644Y-15012856D01*
X9685356Y-15012856D01*
X9685356Y-16031356D02*
X9685356Y-15960644D01*
X9614644Y-15960644D01*
X9614644Y-16031356D01*
X9685356Y-16031356D01*
X9685356Y-16285356D02*
X9685356Y-16214644D01*
X9614644Y-16214644D01*
X9614644Y-16285356D01*
X9685356Y-16285356D01*
X9685356Y-17231356D02*
X9685356Y-17160644D01*
X9614644Y-17160644D01*
X9614644Y-17231356D01*
X9685356Y-17231356D01*
X9685356Y-17485356D02*
X9685356Y-17414644D01*
X9614644Y-17414644D01*
X9614644Y-17485356D01*
X9685356Y-17485356D01*
X9685356Y-18758856D02*
X9685356Y-18688144D01*
X9614644Y-18688144D01*
X9614644Y-18758856D01*
X9685356Y-18758856D01*
X9685356Y-19012856D02*
X9685356Y-18942144D01*
X9614644Y-18942144D01*
X9614644Y-19012856D01*
X9685356Y-19012856D01*
X10085356Y-9781356D02*
X10085356Y-9710644D01*
X10014644Y-9710644D01*
X10014644Y-9781356D01*
X10085356Y-9781356D01*
X10085356Y-10035356D02*
X10085356Y-9964644D01*
X10014644Y-9964644D01*
X10014644Y-10035356D01*
X10085356Y-10035356D01*
X10085356Y-10835356D02*
X10085356Y-10764644D01*
X10014644Y-10764644D01*
X10014644Y-10835356D01*
X10085356Y-10835356D01*
X10085356Y-11089356D02*
X10085356Y-11018644D01*
X10014644Y-11018644D01*
X10014644Y-11089356D01*
X10085356Y-11089356D01*
X10085356Y-11935356D02*
X10085356Y-11864644D01*
X10014644Y-11864644D01*
X10014644Y-11935356D01*
X10085356Y-11935356D01*
X10085356Y-12189356D02*
X10085356Y-12118644D01*
X10014644Y-12118644D01*
X10014644Y-12189356D01*
X10085356Y-12189356D01*
X10085356Y-12981356D02*
X10085356Y-12910644D01*
X10014644Y-12910644D01*
X10014644Y-12981356D01*
X10085356Y-12981356D01*
X10085356Y-13235356D02*
X10085356Y-13164644D01*
X10014644Y-13164644D01*
X10014644Y-13235356D01*
X10085356Y-13235356D01*
X10085356Y-14758856D02*
X10085356Y-14688144D01*
X10014644Y-14688144D01*
X10014644Y-14758856D01*
X10085356Y-14758856D01*
X10085356Y-15012856D02*
X10085356Y-14942144D01*
X10014644Y-14942144D01*
X10014644Y-15012856D01*
X10085356Y-15012856D01*
X10085356Y-16031356D02*
X10085356Y-15960644D01*
X10014644Y-15960644D01*
X10014644Y-16031356D01*
X10085356Y-16031356D01*
X10085356Y-16285356D02*
X10085356Y-16214644D01*
X10014644Y-16214644D01*
X10014644Y-16285356D01*
X10085356Y-16285356D01*
X10085356Y-18758856D02*
X10085356Y-18688144D01*
X10014644Y-18688144D01*
X10014644Y-18758856D01*
X10085356Y-18758856D01*
X10085356Y-19012856D02*
X10085356Y-18942144D01*
X10014644Y-18942144D01*
X10014644Y-19012856D01*
X10085356Y-19012856D01*
X10103356Y-17230356D02*
X10103356Y-17159644D01*
X10032644Y-17159644D01*
X10032644Y-17230356D01*
X10103356Y-17230356D01*
X10103356Y-17484356D02*
X10103356Y-17413644D01*
X10032644Y-17413644D01*
X10032644Y-17484356D01*
X10103356Y-17484356D01*
X10480549Y-10835295D02*
X10480549Y-10764584D01*
X10409838Y-10764584D01*
X10409838Y-10835295D01*
X10480549Y-10835295D01*
X10480549Y-11089295D02*
X10480549Y-11018584D01*
X10409838Y-11018584D01*
X10409838Y-11089295D01*
X10480549Y-11089295D01*
X10485356Y-9781356D02*
X10485356Y-9710644D01*
X10414644Y-9710644D01*
X10414644Y-9781356D01*
X10485356Y-9781356D01*
X10485356Y-10035356D02*
X10485356Y-9964644D01*
X10414644Y-9964644D01*
X10414644Y-10035356D01*
X10485356Y-10035356D01*
X10485356Y-11935356D02*
X10485356Y-11864644D01*
X10414644Y-11864644D01*
X10414644Y-11935356D01*
X10485356Y-11935356D01*
X10485356Y-12189356D02*
X10485356Y-12118644D01*
X10414644Y-12118644D01*
X10414644Y-12189356D01*
X10485356Y-12189356D01*
X10485356Y-12981356D02*
X10485356Y-12910644D01*
X10414644Y-12910644D01*
X10414644Y-12981356D01*
X10485356Y-12981356D01*
X10485356Y-13235356D02*
X10485356Y-13164644D01*
X10414644Y-13164644D01*
X10414644Y-13235356D01*
X10485356Y-13235356D01*
X10967356Y-14753856D02*
X10967356Y-14683144D01*
X10896644Y-14683144D01*
X10896644Y-14753856D01*
X10967356Y-14753856D01*
X10967356Y-15007856D02*
X10967356Y-14937144D01*
X10896644Y-14937144D01*
X10896644Y-15007856D01*
X10967356Y-15007856D01*
X10985356Y-15731356D02*
X10985356Y-15660644D01*
X10914644Y-15660644D01*
X10914644Y-15731356D01*
X10985356Y-15731356D01*
X10985356Y-15985356D02*
X10985356Y-15914644D01*
X10914644Y-15914644D01*
X10914644Y-15985356D01*
X10985356Y-15985356D01*
X10985356Y-16781356D02*
X10985356Y-16710644D01*
X10914644Y-16710644D01*
X10914644Y-16781356D01*
X10985356Y-16781356D01*
X10985356Y-17035356D02*
X10985356Y-16964644D01*
X10914644Y-16964644D01*
X10914644Y-17035356D01*
X10985356Y-17035356D01*
X10985356Y-17981356D02*
X10985356Y-17910644D01*
X10914644Y-17910644D01*
X10914644Y-17981356D01*
X10985356Y-17981356D01*
X10985356Y-18235356D02*
X10985356Y-18164644D01*
X10914644Y-18164644D01*
X10914644Y-18235356D01*
X10985356Y-18235356D01*
X11385356Y-14753856D02*
X11385356Y-14683144D01*
X11314644Y-14683144D01*
X11314644Y-14753856D01*
X11385356Y-14753856D01*
X11385356Y-15007856D02*
X11385356Y-14937144D01*
X11314644Y-14937144D01*
X11314644Y-15007856D01*
X11385356Y-15007856D01*
X11385356Y-15731356D02*
X11385356Y-15660644D01*
X11314644Y-15660644D01*
X11314644Y-15731356D01*
X11385356Y-15731356D01*
X11385356Y-15985356D02*
X11385356Y-15914644D01*
X11314644Y-15914644D01*
X11314644Y-15985356D01*
X11385356Y-15985356D01*
X11385356Y-16781356D02*
X11385356Y-16710644D01*
X11314644Y-16710644D01*
X11314644Y-16781356D01*
X11385356Y-16781356D01*
X11385356Y-17035356D02*
X11385356Y-16964644D01*
X11314644Y-16964644D01*
X11314644Y-17035356D01*
X11385356Y-17035356D01*
X11385356Y-17981356D02*
X11385356Y-17910644D01*
X11314644Y-17910644D01*
X11314644Y-17981356D01*
X11385356Y-17981356D01*
X11385356Y-18235356D02*
X11385356Y-18164644D01*
X11314644Y-18164644D01*
X11314644Y-18235356D01*
X11385356Y-18235356D01*
X11785356Y-14753856D02*
X11785356Y-14683144D01*
X11714644Y-14683144D01*
X11714644Y-14753856D01*
X11785356Y-14753856D01*
X11785356Y-15007856D02*
X11785356Y-14937144D01*
X11714644Y-14937144D01*
X11714644Y-15007856D01*
X11785356Y-15007856D01*
X11785356Y-15731356D02*
X11785356Y-15660644D01*
X11714644Y-15660644D01*
X11714644Y-15731356D01*
X11785356Y-15731356D01*
X11785356Y-15985356D02*
X11785356Y-15914644D01*
X11714644Y-15914644D01*
X11714644Y-15985356D01*
X11785356Y-15985356D01*
X11785356Y-16781356D02*
X11785356Y-16710644D01*
X11714644Y-16710644D01*
X11714644Y-16781356D01*
X11785356Y-16781356D01*
X11785356Y-17035356D02*
X11785356Y-16964644D01*
X11714644Y-16964644D01*
X11714644Y-17035356D01*
X11785356Y-17035356D01*
X11785356Y-17981356D02*
X11785356Y-17910644D01*
X11714644Y-17910644D01*
X11714644Y-17981356D01*
X11785356Y-17981356D01*
X11785356Y-18235356D02*
X11785356Y-18164644D01*
X11714644Y-18164644D01*
X11714644Y-18235356D01*
X11785356Y-18235356D01*
X12185356Y-14753856D02*
X12185356Y-14683144D01*
X12114644Y-14683144D01*
X12114644Y-14753856D01*
X12185356Y-14753856D01*
X12185356Y-15007856D02*
X12185356Y-14937144D01*
X12114644Y-14937144D01*
X12114644Y-15007856D01*
X12185356Y-15007856D01*
X12185356Y-15731356D02*
X12185356Y-15660644D01*
X12114644Y-15660644D01*
X12114644Y-15731356D01*
X12185356Y-15731356D01*
X12185356Y-15985356D02*
X12185356Y-15914644D01*
X12114644Y-15914644D01*
X12114644Y-15985356D01*
X12185356Y-15985356D01*
X12185356Y-16781356D02*
X12185356Y-16710644D01*
X12114644Y-16710644D01*
X12114644Y-16781356D01*
X12185356Y-16781356D01*
X12185356Y-17035356D02*
X12185356Y-16964644D01*
X12114644Y-16964644D01*
X12114644Y-17035356D01*
X12185356Y-17035356D01*
X12185356Y-17981356D02*
X12185356Y-17910644D01*
X12114644Y-17910644D01*
X12114644Y-17981356D01*
X12185356Y-17981356D01*
X12185356Y-18235356D02*
X12185356Y-18164644D01*
X12114644Y-18164644D01*
X12114644Y-18235356D01*
X12185356Y-18235356D01*
X12585356Y-14753856D02*
X12585356Y-14683144D01*
X12514644Y-14683144D01*
X12514644Y-14753856D01*
X12585356Y-14753856D01*
X12585356Y-15007856D02*
X12585356Y-14937144D01*
X12514644Y-14937144D01*
X12514644Y-15007856D01*
X12585356Y-15007856D01*
X12585356Y-15731356D02*
X12585356Y-15660644D01*
X12514644Y-15660644D01*
X12514644Y-15731356D01*
X12585356Y-15731356D01*
X12585356Y-15985356D02*
X12585356Y-15914644D01*
X12514644Y-15914644D01*
X12514644Y-15985356D01*
X12585356Y-15985356D01*
X12585356Y-16781356D02*
X12585356Y-16710644D01*
X12514644Y-16710644D01*
X12514644Y-16781356D01*
X12585356Y-16781356D01*
X12585356Y-17035356D02*
X12585356Y-16964644D01*
X12514644Y-16964644D01*
X12514644Y-17035356D01*
X12585356Y-17035356D01*
X12585356Y-17981356D02*
X12585356Y-17910644D01*
X12514644Y-17910644D01*
X12514644Y-17981356D01*
X12585356Y-17981356D01*
X12585356Y-18235356D02*
X12585356Y-18164644D01*
X12514644Y-18164644D01*
X12514644Y-18235356D01*
X12585356Y-18235356D01*
X12985356Y-14753856D02*
X12985356Y-14683144D01*
X12914644Y-14683144D01*
X12914644Y-14753856D01*
X12985356Y-14753856D01*
X12985356Y-15007856D02*
X12985356Y-14937144D01*
X12914644Y-14937144D01*
X12914644Y-15007856D01*
X12985356Y-15007856D01*
X12985356Y-15731356D02*
X12985356Y-15660644D01*
X12914644Y-15660644D01*
X12914644Y-15731356D01*
X12985356Y-15731356D01*
X12985356Y-15985356D02*
X12985356Y-15914644D01*
X12914644Y-15914644D01*
X12914644Y-15985356D01*
X12985356Y-15985356D01*
X12985356Y-16781356D02*
X12985356Y-16710644D01*
X12914644Y-16710644D01*
X12914644Y-16781356D01*
X12985356Y-16781356D01*
X12985356Y-17035356D02*
X12985356Y-16964644D01*
X12914644Y-16964644D01*
X12914644Y-17035356D01*
X12985356Y-17035356D01*
X12985356Y-17981356D02*
X12985356Y-17910644D01*
X12914644Y-17910644D01*
X12914644Y-17981356D01*
X12985356Y-17981356D01*
X12985356Y-18235356D02*
X12985356Y-18164644D01*
X12914644Y-18164644D01*
X12914644Y-18235356D01*
X12985356Y-18235356D01*
X13935356Y-14786356D02*
X13935356Y-14715644D01*
X13864644Y-14715644D01*
X13864644Y-14786356D01*
X13935356Y-14786356D01*
X13935356Y-15040356D02*
X13935356Y-14969644D01*
X13864644Y-14969644D01*
X13864644Y-15040356D01*
X13935356Y-15040356D01*
X13935356Y-15736356D02*
X13935356Y-15665644D01*
X13864644Y-15665644D01*
X13864644Y-15736356D01*
X13935356Y-15736356D01*
X13935356Y-15990356D02*
X13935356Y-15919644D01*
X13864644Y-15919644D01*
X13864644Y-15990356D01*
X13935356Y-15990356D01*
X13935356Y-16708856D02*
X13935356Y-16638144D01*
X13864644Y-16638144D01*
X13864644Y-16708856D01*
X13935356Y-16708856D01*
X13935356Y-16962856D02*
X13935356Y-16892144D01*
X13864644Y-16892144D01*
X13864644Y-16962856D01*
X13935356Y-16962856D01*
X13935356Y-17836356D02*
X13935356Y-17765644D01*
X13864644Y-17765644D01*
X13864644Y-17836356D01*
X13935356Y-17836356D01*
X13935356Y-18090356D02*
X13935356Y-18019644D01*
X13864644Y-18019644D01*
X13864644Y-18090356D01*
X13935356Y-18090356D01*
X14335356Y-14786356D02*
X14335356Y-14715644D01*
X14264644Y-14715644D01*
X14264644Y-14786356D01*
X14335356Y-14786356D01*
X14335356Y-15040356D02*
X14335356Y-14969644D01*
X14264644Y-14969644D01*
X14264644Y-15040356D01*
X14335356Y-15040356D01*
X14335356Y-15736356D02*
X14335356Y-15665644D01*
X14264644Y-15665644D01*
X14264644Y-15736356D01*
X14335356Y-15736356D01*
X14335356Y-15990356D02*
X14335356Y-15919644D01*
X14264644Y-15919644D01*
X14264644Y-15990356D01*
X14335356Y-15990356D01*
X14335356Y-16708856D02*
X14335356Y-16638144D01*
X14264644Y-16638144D01*
X14264644Y-16708856D01*
X14335356Y-16708856D01*
X14335356Y-16962856D02*
X14335356Y-16892144D01*
X14264644Y-16892144D01*
X14264644Y-16962856D01*
X14335356Y-16962856D01*
X14335356Y-17836356D02*
X14335356Y-17765644D01*
X14264644Y-17765644D01*
X14264644Y-17836356D01*
X14335356Y-17836356D01*
X14335356Y-18090356D02*
X14335356Y-18019644D01*
X14264644Y-18019644D01*
X14264644Y-18090356D01*
X14335356Y-18090356D01*
X14735356Y-14786356D02*
X14735356Y-14715644D01*
X14664644Y-14715644D01*
X14664644Y-14786356D01*
X14735356Y-14786356D01*
X14735356Y-15040356D02*
X14735356Y-14969644D01*
X14664644Y-14969644D01*
X14664644Y-15040356D01*
X14735356Y-15040356D01*
X14735356Y-15736356D02*
X14735356Y-15665644D01*
X14664644Y-15665644D01*
X14664644Y-15736356D01*
X14735356Y-15736356D01*
X14735356Y-15990356D02*
X14735356Y-15919644D01*
X14664644Y-15919644D01*
X14664644Y-15990356D01*
X14735356Y-15990356D01*
X14735356Y-16708856D02*
X14735356Y-16638144D01*
X14664644Y-16638144D01*
X14664644Y-16708856D01*
X14735356Y-16708856D01*
X14735356Y-16962856D02*
X14735356Y-16892144D01*
X14664644Y-16892144D01*
X14664644Y-16962856D01*
X14735356Y-16962856D01*
X14735356Y-17836356D02*
X14735356Y-17765644D01*
X14664644Y-17765644D01*
X14664644Y-17836356D01*
X14735356Y-17836356D01*
X14735356Y-18090356D02*
X14735356Y-18019644D01*
X14664644Y-18019644D01*
X14664644Y-18090356D01*
X14735356Y-18090356D01*
X15135356Y-14786356D02*
X15135356Y-14715644D01*
X15064644Y-14715644D01*
X15064644Y-14786356D01*
X15135356Y-14786356D01*
X15135356Y-15040356D02*
X15135356Y-14969644D01*
X15064644Y-14969644D01*
X15064644Y-15040356D01*
X15135356Y-15040356D01*
X15135356Y-15736356D02*
X15135356Y-15665644D01*
X15064644Y-15665644D01*
X15064644Y-15736356D01*
X15135356Y-15736356D01*
X15135356Y-15990356D02*
X15135356Y-15919644D01*
X15064644Y-15919644D01*
X15064644Y-15990356D01*
X15135356Y-15990356D01*
X15135356Y-16708856D02*
X15135356Y-16638144D01*
X15064644Y-16638144D01*
X15064644Y-16708856D01*
X15135356Y-16708856D01*
X15135356Y-16962856D02*
X15135356Y-16892144D01*
X15064644Y-16892144D01*
X15064644Y-16962856D01*
X15135356Y-16962856D01*
X15135356Y-17836356D02*
X15135356Y-17765644D01*
X15064644Y-17765644D01*
X15064644Y-17836356D01*
X15135356Y-17836356D01*
X15135356Y-18090356D02*
X15135356Y-18019644D01*
X15064644Y-18019644D01*
X15064644Y-18090356D01*
X15135356Y-18090356D01*
X15535356Y-14786356D02*
X15535356Y-14715644D01*
X15464644Y-14715644D01*
X15464644Y-14786356D01*
X15535356Y-14786356D01*
X15535356Y-15040356D02*
X15535356Y-14969644D01*
X15464644Y-14969644D01*
X15464644Y-15040356D01*
X15535356Y-15040356D01*
X15535356Y-15736356D02*
X15535356Y-15665644D01*
X15464644Y-15665644D01*
X15464644Y-15736356D01*
X15535356Y-15736356D01*
X15535356Y-15990356D02*
X15535356Y-15919644D01*
X15464644Y-15919644D01*
X15464644Y-15990356D01*
X15535356Y-15990356D01*
X15535356Y-16708856D02*
X15535356Y-16638144D01*
X15464644Y-16638144D01*
X15464644Y-16708856D01*
X15535356Y-16708856D01*
X15535356Y-16962856D02*
X15535356Y-16892144D01*
X15464644Y-16892144D01*
X15464644Y-16962856D01*
X15535356Y-16962856D01*
X15535356Y-17836356D02*
X15535356Y-17765644D01*
X15464644Y-17765644D01*
X15464644Y-17836356D01*
X15535356Y-17836356D01*
X15535356Y-18090356D02*
X15535356Y-18019644D01*
X15464644Y-18019644D01*
X15464644Y-18090356D01*
X15535356Y-18090356D01*
X15935356Y-14786356D02*
X15935356Y-14715644D01*
X15864644Y-14715644D01*
X15864644Y-14786356D01*
X15935356Y-14786356D01*
X15935356Y-15040356D02*
X15935356Y-14969644D01*
X15864644Y-14969644D01*
X15864644Y-15040356D01*
X15935356Y-15040356D01*
X15935356Y-15736356D02*
X15935356Y-15665644D01*
X15864644Y-15665644D01*
X15864644Y-15736356D01*
X15935356Y-15736356D01*
X15935356Y-15990356D02*
X15935356Y-15919644D01*
X15864644Y-15919644D01*
X15864644Y-15990356D01*
X15935356Y-15990356D01*
X15935356Y-16708856D02*
X15935356Y-16638144D01*
X15864644Y-16638144D01*
X15864644Y-16708856D01*
X15935356Y-16708856D01*
X15935356Y-16962856D02*
X15935356Y-16892144D01*
X15864644Y-16892144D01*
X15864644Y-16962856D01*
X15935356Y-16962856D01*
X15935356Y-17836356D02*
X15935356Y-17765644D01*
X15864644Y-17765644D01*
X15864644Y-17836356D01*
X15935356Y-17836356D01*
X15935356Y-18090356D02*
X15935356Y-18019644D01*
X15864644Y-18019644D01*
X15864644Y-18090356D01*
X15935356Y-18090356D01*
D13*
X26284000Y-9755000D02*
X26339000Y-9700000D01*
X26284000Y-9645000D01*
X26229000Y-9700000D01*
X26284000Y-9755000D01*
X27300000Y-9755000D02*
X27355000Y-9700000D01*
X27300000Y-9645000D01*
X27245000Y-9700000D01*
X27300000Y-9755000D01*
D11*
X1258277Y-20513984D02*
X1258277Y-20313984D01*
X1258277Y-20313984D02*
X1305896Y-20313984D01*
X1305896Y-20313984D02*
X1334467Y-20323508D01*
X1334467Y-20323508D02*
X1353515Y-20342555D01*
X1353515Y-20342555D02*
X1363039Y-20361603D01*
X1363039Y-20361603D02*
X1372563Y-20399698D01*
X1372563Y-20399698D02*
X1372563Y-20428270D01*
X1372563Y-20428270D02*
X1363039Y-20466365D01*
X1363039Y-20466365D02*
X1353515Y-20485412D01*
X1353515Y-20485412D02*
X1334467Y-20504460D01*
X1334467Y-20504460D02*
X1305896Y-20513984D01*
X1305896Y-20513984D02*
X1258277Y-20513984D01*
X1458277Y-20513984D02*
X1458277Y-20380650D01*
X1458277Y-20418746D02*
X1467801Y-20399698D01*
X1467801Y-20399698D02*
X1477324Y-20390174D01*
X1477324Y-20390174D02*
X1496372Y-20380650D01*
X1496372Y-20380650D02*
X1515420Y-20380650D01*
X1582086Y-20513984D02*
X1582086Y-20380650D01*
X1582086Y-20313984D02*
X1572562Y-20323508D01*
X1572562Y-20323508D02*
X1582086Y-20333031D01*
X1582086Y-20333031D02*
X1591610Y-20323508D01*
X1591610Y-20323508D02*
X1582086Y-20313984D01*
X1582086Y-20313984D02*
X1582086Y-20333031D01*
X1705896Y-20513984D02*
X1686848Y-20504460D01*
X1686848Y-20504460D02*
X1677324Y-20485412D01*
X1677324Y-20485412D02*
X1677324Y-20313984D01*
X1810658Y-20513984D02*
X1791610Y-20504460D01*
X1791610Y-20504460D02*
X1782086Y-20485412D01*
X1782086Y-20485412D02*
X1782086Y-20313984D01*
X2039229Y-20513984D02*
X2039229Y-20313984D01*
X2039229Y-20313984D02*
X2105896Y-20456841D01*
X2105896Y-20456841D02*
X2172563Y-20313984D01*
X2172563Y-20313984D02*
X2172563Y-20513984D01*
X2353515Y-20513984D02*
X2353515Y-20409222D01*
X2353515Y-20409222D02*
X2343991Y-20390174D01*
X2343991Y-20390174D02*
X2324944Y-20380650D01*
X2324944Y-20380650D02*
X2286848Y-20380650D01*
X2286848Y-20380650D02*
X2267801Y-20390174D01*
X2353515Y-20504460D02*
X2334467Y-20513984D01*
X2334467Y-20513984D02*
X2286848Y-20513984D01*
X2286848Y-20513984D02*
X2267801Y-20504460D01*
X2267801Y-20504460D02*
X2258277Y-20485412D01*
X2258277Y-20485412D02*
X2258277Y-20466365D01*
X2258277Y-20466365D02*
X2267801Y-20447317D01*
X2267801Y-20447317D02*
X2286848Y-20437793D01*
X2286848Y-20437793D02*
X2334467Y-20437793D01*
X2334467Y-20437793D02*
X2353515Y-20428270D01*
X2448753Y-20380650D02*
X2448753Y-20580650D01*
X2448753Y-20390174D02*
X2467801Y-20380650D01*
X2467801Y-20380650D02*
X2505896Y-20380650D01*
X2505896Y-20380650D02*
X2524944Y-20390174D01*
X2524944Y-20390174D02*
X2534467Y-20399698D01*
X2534467Y-20399698D02*
X2543991Y-20418746D01*
X2543991Y-20418746D02*
X2543991Y-20475889D01*
X2543991Y-20475889D02*
X2534467Y-20494936D01*
X2534467Y-20494936D02*
X2524944Y-20504460D01*
X2524944Y-20504460D02*
X2505896Y-20513984D01*
X2505896Y-20513984D02*
X2467801Y-20513984D01*
X2467801Y-20513984D02*
X2448753Y-20504460D01*
X2629705Y-20494936D02*
X2639229Y-20504460D01*
X2639229Y-20504460D02*
X2629705Y-20513984D01*
X2629705Y-20513984D02*
X2620182Y-20504460D01*
X2620182Y-20504460D02*
X2629705Y-20494936D01*
X2629705Y-20494936D02*
X2629705Y-20513984D01*
X2629705Y-20390174D02*
X2639229Y-20399698D01*
X2639229Y-20399698D02*
X2629705Y-20409222D01*
X2629705Y-20409222D02*
X2620182Y-20399698D01*
X2620182Y-20399698D02*
X2629705Y-20390174D01*
X2629705Y-20390174D02*
X2629705Y-20409222D01*
D12*
X967500Y-20827500D02*
X997500Y-20857500D01*
X997500Y-20827500D02*
X967500Y-20857500D01*
D11*
X1296372Y-20733984D02*
X1315420Y-20733984D01*
X1315420Y-20733984D02*
X1334467Y-20743508D01*
X1334467Y-20743508D02*
X1343991Y-20753031D01*
X1343991Y-20753031D02*
X1353515Y-20772079D01*
X1353515Y-20772079D02*
X1363039Y-20810174D01*
X1363039Y-20810174D02*
X1363039Y-20857793D01*
X1363039Y-20857793D02*
X1353515Y-20895889D01*
X1353515Y-20895889D02*
X1343991Y-20914936D01*
X1343991Y-20914936D02*
X1334467Y-20924460D01*
X1334467Y-20924460D02*
X1315420Y-20933984D01*
X1315420Y-20933984D02*
X1296372Y-20933984D01*
X1296372Y-20933984D02*
X1277324Y-20924460D01*
X1277324Y-20924460D02*
X1267801Y-20914936D01*
X1267801Y-20914936D02*
X1258277Y-20895889D01*
X1258277Y-20895889D02*
X1248753Y-20857793D01*
X1248753Y-20857793D02*
X1248753Y-20810174D01*
X1248753Y-20810174D02*
X1258277Y-20772079D01*
X1258277Y-20772079D02*
X1267801Y-20753031D01*
X1267801Y-20753031D02*
X1277324Y-20743508D01*
X1277324Y-20743508D02*
X1296372Y-20733984D01*
X1448753Y-20914936D02*
X1458277Y-20924460D01*
X1458277Y-20924460D02*
X1448753Y-20933984D01*
X1448753Y-20933984D02*
X1439229Y-20924460D01*
X1439229Y-20924460D02*
X1448753Y-20914936D01*
X1448753Y-20914936D02*
X1448753Y-20933984D01*
X1524943Y-20733984D02*
X1648753Y-20733984D01*
X1648753Y-20733984D02*
X1582086Y-20810174D01*
X1582086Y-20810174D02*
X1610658Y-20810174D01*
X1610658Y-20810174D02*
X1629705Y-20819698D01*
X1629705Y-20819698D02*
X1639229Y-20829222D01*
X1639229Y-20829222D02*
X1648753Y-20848270D01*
X1648753Y-20848270D02*
X1648753Y-20895889D01*
X1648753Y-20895889D02*
X1639229Y-20914936D01*
X1639229Y-20914936D02*
X1629705Y-20924460D01*
X1629705Y-20924460D02*
X1610658Y-20933984D01*
X1610658Y-20933984D02*
X1553515Y-20933984D01*
X1553515Y-20933984D02*
X1534467Y-20924460D01*
X1534467Y-20924460D02*
X1524943Y-20914936D01*
X1772562Y-20733984D02*
X1791610Y-20733984D01*
X1791610Y-20733984D02*
X1810658Y-20743508D01*
X1810658Y-20743508D02*
X1820182Y-20753031D01*
X1820182Y-20753031D02*
X1829705Y-20772079D01*
X1829705Y-20772079D02*
X1839229Y-20810174D01*
X1839229Y-20810174D02*
X1839229Y-20857793D01*
X1839229Y-20857793D02*
X1829705Y-20895889D01*
X1829705Y-20895889D02*
X1820182Y-20914936D01*
X1820182Y-20914936D02*
X1810658Y-20924460D01*
X1810658Y-20924460D02*
X1791610Y-20933984D01*
X1791610Y-20933984D02*
X1772562Y-20933984D01*
X1772562Y-20933984D02*
X1753515Y-20924460D01*
X1753515Y-20924460D02*
X1743991Y-20914936D01*
X1743991Y-20914936D02*
X1734467Y-20895889D01*
X1734467Y-20895889D02*
X1724943Y-20857793D01*
X1724943Y-20857793D02*
X1724943Y-20810174D01*
X1724943Y-20810174D02*
X1734467Y-20772079D01*
X1734467Y-20772079D02*
X1743991Y-20753031D01*
X1743991Y-20753031D02*
X1753515Y-20743508D01*
X1753515Y-20743508D02*
X1772562Y-20733984D01*
X1963039Y-20733984D02*
X1982086Y-20733984D01*
X1982086Y-20733984D02*
X2001134Y-20743508D01*
X2001134Y-20743508D02*
X2010658Y-20753031D01*
X2010658Y-20753031D02*
X2020182Y-20772079D01*
X2020182Y-20772079D02*
X2029705Y-20810174D01*
X2029705Y-20810174D02*
X2029705Y-20857793D01*
X2029705Y-20857793D02*
X2020182Y-20895889D01*
X2020182Y-20895889D02*
X2010658Y-20914936D01*
X2010658Y-20914936D02*
X2001134Y-20924460D01*
X2001134Y-20924460D02*
X1982086Y-20933984D01*
X1982086Y-20933984D02*
X1963039Y-20933984D01*
X1963039Y-20933984D02*
X1943991Y-20924460D01*
X1943991Y-20924460D02*
X1934467Y-20914936D01*
X1934467Y-20914936D02*
X1924943Y-20895889D01*
X1924943Y-20895889D02*
X1915420Y-20857793D01*
X1915420Y-20857793D02*
X1915420Y-20810174D01*
X1915420Y-20810174D02*
X1924943Y-20772079D01*
X1924943Y-20772079D02*
X1934467Y-20753031D01*
X1934467Y-20753031D02*
X1943991Y-20743508D01*
X1943991Y-20743508D02*
X1963039Y-20733984D01*
X2115420Y-20933984D02*
X2115420Y-20800650D01*
X2115420Y-20819698D02*
X2124944Y-20810174D01*
X2124944Y-20810174D02*
X2143991Y-20800650D01*
X2143991Y-20800650D02*
X2172563Y-20800650D01*
X2172563Y-20800650D02*
X2191610Y-20810174D01*
X2191610Y-20810174D02*
X2201134Y-20829222D01*
X2201134Y-20829222D02*
X2201134Y-20933984D01*
X2201134Y-20829222D02*
X2210658Y-20810174D01*
X2210658Y-20810174D02*
X2229705Y-20800650D01*
X2229705Y-20800650D02*
X2258277Y-20800650D01*
X2258277Y-20800650D02*
X2277325Y-20810174D01*
X2277325Y-20810174D02*
X2286848Y-20829222D01*
X2286848Y-20829222D02*
X2286848Y-20933984D01*
X2382086Y-20933984D02*
X2382086Y-20800650D01*
X2382086Y-20819698D02*
X2391610Y-20810174D01*
X2391610Y-20810174D02*
X2410658Y-20800650D01*
X2410658Y-20800650D02*
X2439229Y-20800650D01*
X2439229Y-20800650D02*
X2458277Y-20810174D01*
X2458277Y-20810174D02*
X2467801Y-20829222D01*
X2467801Y-20829222D02*
X2467801Y-20933984D01*
X2467801Y-20829222D02*
X2477325Y-20810174D01*
X2477325Y-20810174D02*
X2496372Y-20800650D01*
X2496372Y-20800650D02*
X2524944Y-20800650D01*
X2524944Y-20800650D02*
X2543991Y-20810174D01*
X2543991Y-20810174D02*
X2553515Y-20829222D01*
X2553515Y-20829222D02*
X2553515Y-20933984D01*
X2943991Y-20724460D02*
X2772563Y-20981603D01*
X3201134Y-20733984D02*
X3220182Y-20733984D01*
X3220182Y-20733984D02*
X3239229Y-20743508D01*
X3239229Y-20743508D02*
X3248753Y-20753031D01*
X3248753Y-20753031D02*
X3258277Y-20772079D01*
X3258277Y-20772079D02*
X3267801Y-20810174D01*
X3267801Y-20810174D02*
X3267801Y-20857793D01*
X3267801Y-20857793D02*
X3258277Y-20895889D01*
X3258277Y-20895889D02*
X3248753Y-20914936D01*
X3248753Y-20914936D02*
X3239229Y-20924460D01*
X3239229Y-20924460D02*
X3220182Y-20933984D01*
X3220182Y-20933984D02*
X3201134Y-20933984D01*
X3201134Y-20933984D02*
X3182086Y-20924460D01*
X3182086Y-20924460D02*
X3172563Y-20914936D01*
X3172563Y-20914936D02*
X3163039Y-20895889D01*
X3163039Y-20895889D02*
X3153515Y-20857793D01*
X3153515Y-20857793D02*
X3153515Y-20810174D01*
X3153515Y-20810174D02*
X3163039Y-20772079D01*
X3163039Y-20772079D02*
X3172563Y-20753031D01*
X3172563Y-20753031D02*
X3182086Y-20743508D01*
X3182086Y-20743508D02*
X3201134Y-20733984D01*
X3353515Y-20914936D02*
X3363039Y-20924460D01*
X3363039Y-20924460D02*
X3353515Y-20933984D01*
X3353515Y-20933984D02*
X3343991Y-20924460D01*
X3343991Y-20924460D02*
X3353515Y-20914936D01*
X3353515Y-20914936D02*
X3353515Y-20933984D01*
X3486848Y-20733984D02*
X3505896Y-20733984D01*
X3505896Y-20733984D02*
X3524944Y-20743508D01*
X3524944Y-20743508D02*
X3534467Y-20753031D01*
X3534467Y-20753031D02*
X3543991Y-20772079D01*
X3543991Y-20772079D02*
X3553515Y-20810174D01*
X3553515Y-20810174D02*
X3553515Y-20857793D01*
X3553515Y-20857793D02*
X3543991Y-20895889D01*
X3543991Y-20895889D02*
X3534467Y-20914936D01*
X3534467Y-20914936D02*
X3524944Y-20924460D01*
X3524944Y-20924460D02*
X3505896Y-20933984D01*
X3505896Y-20933984D02*
X3486848Y-20933984D01*
X3486848Y-20933984D02*
X3467801Y-20924460D01*
X3467801Y-20924460D02*
X3458277Y-20914936D01*
X3458277Y-20914936D02*
X3448753Y-20895889D01*
X3448753Y-20895889D02*
X3439229Y-20857793D01*
X3439229Y-20857793D02*
X3439229Y-20810174D01*
X3439229Y-20810174D02*
X3448753Y-20772079D01*
X3448753Y-20772079D02*
X3458277Y-20753031D01*
X3458277Y-20753031D02*
X3467801Y-20743508D01*
X3467801Y-20743508D02*
X3486848Y-20733984D01*
X3743991Y-20933984D02*
X3629706Y-20933984D01*
X3686848Y-20933984D02*
X3686848Y-20733984D01*
X3686848Y-20733984D02*
X3667801Y-20762555D01*
X3667801Y-20762555D02*
X3648753Y-20781603D01*
X3648753Y-20781603D02*
X3629706Y-20791127D01*
X3934467Y-20933984D02*
X3820182Y-20933984D01*
X3877325Y-20933984D02*
X3877325Y-20733984D01*
X3877325Y-20733984D02*
X3858277Y-20762555D01*
X3858277Y-20762555D02*
X3839229Y-20781603D01*
X3839229Y-20781603D02*
X3820182Y-20791127D01*
X4048753Y-20819698D02*
X4029706Y-20810174D01*
X4029706Y-20810174D02*
X4020182Y-20800650D01*
X4020182Y-20800650D02*
X4010658Y-20781603D01*
X4010658Y-20781603D02*
X4010658Y-20772079D01*
X4010658Y-20772079D02*
X4020182Y-20753031D01*
X4020182Y-20753031D02*
X4029706Y-20743508D01*
X4029706Y-20743508D02*
X4048753Y-20733984D01*
X4048753Y-20733984D02*
X4086848Y-20733984D01*
X4086848Y-20733984D02*
X4105896Y-20743508D01*
X4105896Y-20743508D02*
X4115420Y-20753031D01*
X4115420Y-20753031D02*
X4124944Y-20772079D01*
X4124944Y-20772079D02*
X4124944Y-20781603D01*
X4124944Y-20781603D02*
X4115420Y-20800650D01*
X4115420Y-20800650D02*
X4105896Y-20810174D01*
X4105896Y-20810174D02*
X4086848Y-20819698D01*
X4086848Y-20819698D02*
X4048753Y-20819698D01*
X4048753Y-20819698D02*
X4029706Y-20829222D01*
X4029706Y-20829222D02*
X4020182Y-20838746D01*
X4020182Y-20838746D02*
X4010658Y-20857793D01*
X4010658Y-20857793D02*
X4010658Y-20895889D01*
X4010658Y-20895889D02*
X4020182Y-20914936D01*
X4020182Y-20914936D02*
X4029706Y-20924460D01*
X4029706Y-20924460D02*
X4048753Y-20933984D01*
X4048753Y-20933984D02*
X4086848Y-20933984D01*
X4086848Y-20933984D02*
X4105896Y-20924460D01*
X4105896Y-20924460D02*
X4115420Y-20914936D01*
X4115420Y-20914936D02*
X4124944Y-20895889D01*
X4124944Y-20895889D02*
X4124944Y-20857793D01*
X4124944Y-20857793D02*
X4115420Y-20838746D01*
X4115420Y-20838746D02*
X4105896Y-20829222D01*
X4105896Y-20829222D02*
X4086848Y-20819698D01*
X4201134Y-20733984D02*
X4201134Y-20772079D01*
X4277325Y-20733984D02*
X4277325Y-20772079D01*
X4572563Y-21010174D02*
X4563039Y-21000650D01*
X4563039Y-21000650D02*
X4543991Y-20972079D01*
X4543991Y-20972079D02*
X4534468Y-20953031D01*
X4534468Y-20953031D02*
X4524944Y-20924460D01*
X4524944Y-20924460D02*
X4515420Y-20876841D01*
X4515420Y-20876841D02*
X4515420Y-20838746D01*
X4515420Y-20838746D02*
X4524944Y-20791127D01*
X4524944Y-20791127D02*
X4534468Y-20762555D01*
X4534468Y-20762555D02*
X4543991Y-20743508D01*
X4543991Y-20743508D02*
X4563039Y-20714936D01*
X4563039Y-20714936D02*
X4572563Y-20705412D01*
X4639230Y-20753031D02*
X4648753Y-20743508D01*
X4648753Y-20743508D02*
X4667801Y-20733984D01*
X4667801Y-20733984D02*
X4715420Y-20733984D01*
X4715420Y-20733984D02*
X4734468Y-20743508D01*
X4734468Y-20743508D02*
X4743991Y-20753031D01*
X4743991Y-20753031D02*
X4753515Y-20772079D01*
X4753515Y-20772079D02*
X4753515Y-20791127D01*
X4753515Y-20791127D02*
X4743991Y-20819698D01*
X4743991Y-20819698D02*
X4629706Y-20933984D01*
X4629706Y-20933984D02*
X4753515Y-20933984D01*
X4848753Y-20933984D02*
X4886849Y-20933984D01*
X4886849Y-20933984D02*
X4905896Y-20924460D01*
X4905896Y-20924460D02*
X4915420Y-20914936D01*
X4915420Y-20914936D02*
X4934468Y-20886365D01*
X4934468Y-20886365D02*
X4943991Y-20848270D01*
X4943991Y-20848270D02*
X4943991Y-20772079D01*
X4943991Y-20772079D02*
X4934468Y-20753031D01*
X4934468Y-20753031D02*
X4924944Y-20743508D01*
X4924944Y-20743508D02*
X4905896Y-20733984D01*
X4905896Y-20733984D02*
X4867801Y-20733984D01*
X4867801Y-20733984D02*
X4848753Y-20743508D01*
X4848753Y-20743508D02*
X4839230Y-20753031D01*
X4839230Y-20753031D02*
X4829706Y-20772079D01*
X4829706Y-20772079D02*
X4829706Y-20819698D01*
X4829706Y-20819698D02*
X4839230Y-20838746D01*
X4839230Y-20838746D02*
X4848753Y-20848270D01*
X4848753Y-20848270D02*
X4867801Y-20857793D01*
X4867801Y-20857793D02*
X4905896Y-20857793D01*
X4905896Y-20857793D02*
X4924944Y-20848270D01*
X4924944Y-20848270D02*
X4934468Y-20838746D01*
X4934468Y-20838746D02*
X4943991Y-20819698D01*
X5039230Y-20933984D02*
X5077325Y-20933984D01*
X5077325Y-20933984D02*
X5096372Y-20924460D01*
X5096372Y-20924460D02*
X5105896Y-20914936D01*
X5105896Y-20914936D02*
X5124944Y-20886365D01*
X5124944Y-20886365D02*
X5134468Y-20848270D01*
X5134468Y-20848270D02*
X5134468Y-20772079D01*
X5134468Y-20772079D02*
X5124944Y-20753031D01*
X5124944Y-20753031D02*
X5115420Y-20743508D01*
X5115420Y-20743508D02*
X5096372Y-20733984D01*
X5096372Y-20733984D02*
X5058277Y-20733984D01*
X5058277Y-20733984D02*
X5039230Y-20743508D01*
X5039230Y-20743508D02*
X5029706Y-20753031D01*
X5029706Y-20753031D02*
X5020182Y-20772079D01*
X5020182Y-20772079D02*
X5020182Y-20819698D01*
X5020182Y-20819698D02*
X5029706Y-20838746D01*
X5029706Y-20838746D02*
X5039230Y-20848270D01*
X5039230Y-20848270D02*
X5058277Y-20857793D01*
X5058277Y-20857793D02*
X5096372Y-20857793D01*
X5096372Y-20857793D02*
X5115420Y-20848270D01*
X5115420Y-20848270D02*
X5124944Y-20838746D01*
X5124944Y-20838746D02*
X5134468Y-20819698D01*
X5372563Y-20933984D02*
X5372563Y-20733984D01*
X5458277Y-20933984D02*
X5458277Y-20829222D01*
X5458277Y-20829222D02*
X5448753Y-20810174D01*
X5448753Y-20810174D02*
X5429706Y-20800650D01*
X5429706Y-20800650D02*
X5401134Y-20800650D01*
X5401134Y-20800650D02*
X5382087Y-20810174D01*
X5382087Y-20810174D02*
X5372563Y-20819698D01*
X5582087Y-20933984D02*
X5563039Y-20924460D01*
X5563039Y-20924460D02*
X5553515Y-20914936D01*
X5553515Y-20914936D02*
X5543992Y-20895889D01*
X5543992Y-20895889D02*
X5543992Y-20838746D01*
X5543992Y-20838746D02*
X5553515Y-20819698D01*
X5553515Y-20819698D02*
X5563039Y-20810174D01*
X5563039Y-20810174D02*
X5582087Y-20800650D01*
X5582087Y-20800650D02*
X5610658Y-20800650D01*
X5610658Y-20800650D02*
X5629706Y-20810174D01*
X5629706Y-20810174D02*
X5639230Y-20819698D01*
X5639230Y-20819698D02*
X5648753Y-20838746D01*
X5648753Y-20838746D02*
X5648753Y-20895889D01*
X5648753Y-20895889D02*
X5639230Y-20914936D01*
X5639230Y-20914936D02*
X5629706Y-20924460D01*
X5629706Y-20924460D02*
X5610658Y-20933984D01*
X5610658Y-20933984D02*
X5582087Y-20933984D01*
X5763039Y-20933984D02*
X5743991Y-20924460D01*
X5743991Y-20924460D02*
X5734468Y-20905412D01*
X5734468Y-20905412D02*
X5734468Y-20733984D01*
X5915420Y-20924460D02*
X5896372Y-20933984D01*
X5896372Y-20933984D02*
X5858277Y-20933984D01*
X5858277Y-20933984D02*
X5839230Y-20924460D01*
X5839230Y-20924460D02*
X5829706Y-20905412D01*
X5829706Y-20905412D02*
X5829706Y-20829222D01*
X5829706Y-20829222D02*
X5839230Y-20810174D01*
X5839230Y-20810174D02*
X5858277Y-20800650D01*
X5858277Y-20800650D02*
X5896372Y-20800650D01*
X5896372Y-20800650D02*
X5915420Y-20810174D01*
X5915420Y-20810174D02*
X5924944Y-20829222D01*
X5924944Y-20829222D02*
X5924944Y-20848270D01*
X5924944Y-20848270D02*
X5829706Y-20867317D01*
X6001134Y-20924460D02*
X6020182Y-20933984D01*
X6020182Y-20933984D02*
X6058277Y-20933984D01*
X6058277Y-20933984D02*
X6077325Y-20924460D01*
X6077325Y-20924460D02*
X6086849Y-20905412D01*
X6086849Y-20905412D02*
X6086849Y-20895889D01*
X6086849Y-20895889D02*
X6077325Y-20876841D01*
X6077325Y-20876841D02*
X6058277Y-20867317D01*
X6058277Y-20867317D02*
X6029706Y-20867317D01*
X6029706Y-20867317D02*
X6010658Y-20857793D01*
X6010658Y-20857793D02*
X6001134Y-20838746D01*
X6001134Y-20838746D02*
X6001134Y-20829222D01*
X6001134Y-20829222D02*
X6010658Y-20810174D01*
X6010658Y-20810174D02*
X6029706Y-20800650D01*
X6029706Y-20800650D02*
X6058277Y-20800650D01*
X6058277Y-20800650D02*
X6077325Y-20810174D01*
X6153515Y-21010174D02*
X6163039Y-21000650D01*
X6163039Y-21000650D02*
X6182087Y-20972079D01*
X6182087Y-20972079D02*
X6191611Y-20953031D01*
X6191611Y-20953031D02*
X6201134Y-20924460D01*
X6201134Y-20924460D02*
X6210658Y-20876841D01*
X6210658Y-20876841D02*
X6210658Y-20838746D01*
X6210658Y-20838746D02*
X6201134Y-20791127D01*
X6201134Y-20791127D02*
X6191611Y-20762555D01*
X6191611Y-20762555D02*
X6182087Y-20743508D01*
X6182087Y-20743508D02*
X6163039Y-20714936D01*
X6163039Y-20714936D02*
X6153515Y-20705412D01*
D12*
X997500Y-21106500D02*
G75*
G02*
X957500Y-21106500I-20000J0D01*
G01*
X957500Y-21106500D02*
G75*
G02*
X997500Y-21106500I20000J0D01*
G01*
D11*
X1296372Y-20997984D02*
X1315420Y-20997984D01*
X1315420Y-20997984D02*
X1334467Y-21007508D01*
X1334467Y-21007508D02*
X1343991Y-21017031D01*
X1343991Y-21017031D02*
X1353515Y-21036079D01*
X1353515Y-21036079D02*
X1363039Y-21074174D01*
X1363039Y-21074174D02*
X1363039Y-21121793D01*
X1363039Y-21121793D02*
X1353515Y-21159889D01*
X1353515Y-21159889D02*
X1343991Y-21178936D01*
X1343991Y-21178936D02*
X1334467Y-21188460D01*
X1334467Y-21188460D02*
X1315420Y-21197984D01*
X1315420Y-21197984D02*
X1296372Y-21197984D01*
X1296372Y-21197984D02*
X1277324Y-21188460D01*
X1277324Y-21188460D02*
X1267801Y-21178936D01*
X1267801Y-21178936D02*
X1258277Y-21159889D01*
X1258277Y-21159889D02*
X1248753Y-21121793D01*
X1248753Y-21121793D02*
X1248753Y-21074174D01*
X1248753Y-21074174D02*
X1258277Y-21036079D01*
X1258277Y-21036079D02*
X1267801Y-21017031D01*
X1267801Y-21017031D02*
X1277324Y-21007508D01*
X1277324Y-21007508D02*
X1296372Y-20997984D01*
X1448753Y-21178936D02*
X1458277Y-21188460D01*
X1458277Y-21188460D02*
X1448753Y-21197984D01*
X1448753Y-21197984D02*
X1439229Y-21188460D01*
X1439229Y-21188460D02*
X1448753Y-21178936D01*
X1448753Y-21178936D02*
X1448753Y-21197984D01*
X1629705Y-21064650D02*
X1629705Y-21197984D01*
X1582086Y-20988460D02*
X1534467Y-21131317D01*
X1534467Y-21131317D02*
X1658277Y-21131317D01*
X1772562Y-20997984D02*
X1791610Y-20997984D01*
X1791610Y-20997984D02*
X1810658Y-21007508D01*
X1810658Y-21007508D02*
X1820182Y-21017031D01*
X1820182Y-21017031D02*
X1829705Y-21036079D01*
X1829705Y-21036079D02*
X1839229Y-21074174D01*
X1839229Y-21074174D02*
X1839229Y-21121793D01*
X1839229Y-21121793D02*
X1829705Y-21159889D01*
X1829705Y-21159889D02*
X1820182Y-21178936D01*
X1820182Y-21178936D02*
X1810658Y-21188460D01*
X1810658Y-21188460D02*
X1791610Y-21197984D01*
X1791610Y-21197984D02*
X1772562Y-21197984D01*
X1772562Y-21197984D02*
X1753515Y-21188460D01*
X1753515Y-21188460D02*
X1743991Y-21178936D01*
X1743991Y-21178936D02*
X1734467Y-21159889D01*
X1734467Y-21159889D02*
X1724943Y-21121793D01*
X1724943Y-21121793D02*
X1724943Y-21074174D01*
X1724943Y-21074174D02*
X1734467Y-21036079D01*
X1734467Y-21036079D02*
X1743991Y-21017031D01*
X1743991Y-21017031D02*
X1753515Y-21007508D01*
X1753515Y-21007508D02*
X1772562Y-20997984D01*
X1963039Y-20997984D02*
X1982086Y-20997984D01*
X1982086Y-20997984D02*
X2001134Y-21007508D01*
X2001134Y-21007508D02*
X2010658Y-21017031D01*
X2010658Y-21017031D02*
X2020182Y-21036079D01*
X2020182Y-21036079D02*
X2029705Y-21074174D01*
X2029705Y-21074174D02*
X2029705Y-21121793D01*
X2029705Y-21121793D02*
X2020182Y-21159889D01*
X2020182Y-21159889D02*
X2010658Y-21178936D01*
X2010658Y-21178936D02*
X2001134Y-21188460D01*
X2001134Y-21188460D02*
X1982086Y-21197984D01*
X1982086Y-21197984D02*
X1963039Y-21197984D01*
X1963039Y-21197984D02*
X1943991Y-21188460D01*
X1943991Y-21188460D02*
X1934467Y-21178936D01*
X1934467Y-21178936D02*
X1924943Y-21159889D01*
X1924943Y-21159889D02*
X1915420Y-21121793D01*
X1915420Y-21121793D02*
X1915420Y-21074174D01*
X1915420Y-21074174D02*
X1924943Y-21036079D01*
X1924943Y-21036079D02*
X1934467Y-21017031D01*
X1934467Y-21017031D02*
X1943991Y-21007508D01*
X1943991Y-21007508D02*
X1963039Y-20997984D01*
X2115420Y-21197984D02*
X2115420Y-21064650D01*
X2115420Y-21083698D02*
X2124944Y-21074174D01*
X2124944Y-21074174D02*
X2143991Y-21064650D01*
X2143991Y-21064650D02*
X2172563Y-21064650D01*
X2172563Y-21064650D02*
X2191610Y-21074174D01*
X2191610Y-21074174D02*
X2201134Y-21093222D01*
X2201134Y-21093222D02*
X2201134Y-21197984D01*
X2201134Y-21093222D02*
X2210658Y-21074174D01*
X2210658Y-21074174D02*
X2229705Y-21064650D01*
X2229705Y-21064650D02*
X2258277Y-21064650D01*
X2258277Y-21064650D02*
X2277325Y-21074174D01*
X2277325Y-21074174D02*
X2286848Y-21093222D01*
X2286848Y-21093222D02*
X2286848Y-21197984D01*
X2382086Y-21197984D02*
X2382086Y-21064650D01*
X2382086Y-21083698D02*
X2391610Y-21074174D01*
X2391610Y-21074174D02*
X2410658Y-21064650D01*
X2410658Y-21064650D02*
X2439229Y-21064650D01*
X2439229Y-21064650D02*
X2458277Y-21074174D01*
X2458277Y-21074174D02*
X2467801Y-21093222D01*
X2467801Y-21093222D02*
X2467801Y-21197984D01*
X2467801Y-21093222D02*
X2477325Y-21074174D01*
X2477325Y-21074174D02*
X2496372Y-21064650D01*
X2496372Y-21064650D02*
X2524944Y-21064650D01*
X2524944Y-21064650D02*
X2543991Y-21074174D01*
X2543991Y-21074174D02*
X2553515Y-21093222D01*
X2553515Y-21093222D02*
X2553515Y-21197984D01*
X2943991Y-20988460D02*
X2772563Y-21245603D01*
X3201134Y-20997984D02*
X3220182Y-20997984D01*
X3220182Y-20997984D02*
X3239229Y-21007508D01*
X3239229Y-21007508D02*
X3248753Y-21017031D01*
X3248753Y-21017031D02*
X3258277Y-21036079D01*
X3258277Y-21036079D02*
X3267801Y-21074174D01*
X3267801Y-21074174D02*
X3267801Y-21121793D01*
X3267801Y-21121793D02*
X3258277Y-21159889D01*
X3258277Y-21159889D02*
X3248753Y-21178936D01*
X3248753Y-21178936D02*
X3239229Y-21188460D01*
X3239229Y-21188460D02*
X3220182Y-21197984D01*
X3220182Y-21197984D02*
X3201134Y-21197984D01*
X3201134Y-21197984D02*
X3182086Y-21188460D01*
X3182086Y-21188460D02*
X3172563Y-21178936D01*
X3172563Y-21178936D02*
X3163039Y-21159889D01*
X3163039Y-21159889D02*
X3153515Y-21121793D01*
X3153515Y-21121793D02*
X3153515Y-21074174D01*
X3153515Y-21074174D02*
X3163039Y-21036079D01*
X3163039Y-21036079D02*
X3172563Y-21017031D01*
X3172563Y-21017031D02*
X3182086Y-21007508D01*
X3182086Y-21007508D02*
X3201134Y-20997984D01*
X3353515Y-21178936D02*
X3363039Y-21188460D01*
X3363039Y-21188460D02*
X3353515Y-21197984D01*
X3353515Y-21197984D02*
X3343991Y-21188460D01*
X3343991Y-21188460D02*
X3353515Y-21178936D01*
X3353515Y-21178936D02*
X3353515Y-21197984D01*
X3486848Y-20997984D02*
X3505896Y-20997984D01*
X3505896Y-20997984D02*
X3524944Y-21007508D01*
X3524944Y-21007508D02*
X3534467Y-21017031D01*
X3534467Y-21017031D02*
X3543991Y-21036079D01*
X3543991Y-21036079D02*
X3553515Y-21074174D01*
X3553515Y-21074174D02*
X3553515Y-21121793D01*
X3553515Y-21121793D02*
X3543991Y-21159889D01*
X3543991Y-21159889D02*
X3534467Y-21178936D01*
X3534467Y-21178936D02*
X3524944Y-21188460D01*
X3524944Y-21188460D02*
X3505896Y-21197984D01*
X3505896Y-21197984D02*
X3486848Y-21197984D01*
X3486848Y-21197984D02*
X3467801Y-21188460D01*
X3467801Y-21188460D02*
X3458277Y-21178936D01*
X3458277Y-21178936D02*
X3448753Y-21159889D01*
X3448753Y-21159889D02*
X3439229Y-21121793D01*
X3439229Y-21121793D02*
X3439229Y-21074174D01*
X3439229Y-21074174D02*
X3448753Y-21036079D01*
X3448753Y-21036079D02*
X3458277Y-21017031D01*
X3458277Y-21017031D02*
X3467801Y-21007508D01*
X3467801Y-21007508D02*
X3486848Y-20997984D01*
X3743991Y-21197984D02*
X3629706Y-21197984D01*
X3686848Y-21197984D02*
X3686848Y-20997984D01*
X3686848Y-20997984D02*
X3667801Y-21026555D01*
X3667801Y-21026555D02*
X3648753Y-21045603D01*
X3648753Y-21045603D02*
X3629706Y-21055127D01*
X3924944Y-20997984D02*
X3829706Y-20997984D01*
X3829706Y-20997984D02*
X3820182Y-21093222D01*
X3820182Y-21093222D02*
X3829706Y-21083698D01*
X3829706Y-21083698D02*
X3848753Y-21074174D01*
X3848753Y-21074174D02*
X3896372Y-21074174D01*
X3896372Y-21074174D02*
X3915420Y-21083698D01*
X3915420Y-21083698D02*
X3924944Y-21093222D01*
X3924944Y-21093222D02*
X3934467Y-21112270D01*
X3934467Y-21112270D02*
X3934467Y-21159889D01*
X3934467Y-21159889D02*
X3924944Y-21178936D01*
X3924944Y-21178936D02*
X3915420Y-21188460D01*
X3915420Y-21188460D02*
X3896372Y-21197984D01*
X3896372Y-21197984D02*
X3848753Y-21197984D01*
X3848753Y-21197984D02*
X3829706Y-21188460D01*
X3829706Y-21188460D02*
X3820182Y-21178936D01*
X4001134Y-20997984D02*
X4134467Y-20997984D01*
X4134467Y-20997984D02*
X4048753Y-21197984D01*
X4201134Y-20997984D02*
X4201134Y-21036079D01*
X4277325Y-20997984D02*
X4277325Y-21036079D01*
X4572563Y-21274174D02*
X4563039Y-21264650D01*
X4563039Y-21264650D02*
X4543991Y-21236079D01*
X4543991Y-21236079D02*
X4534468Y-21217031D01*
X4534468Y-21217031D02*
X4524944Y-21188460D01*
X4524944Y-21188460D02*
X4515420Y-21140841D01*
X4515420Y-21140841D02*
X4515420Y-21102746D01*
X4515420Y-21102746D02*
X4524944Y-21055127D01*
X4524944Y-21055127D02*
X4534468Y-21026555D01*
X4534468Y-21026555D02*
X4543991Y-21007508D01*
X4543991Y-21007508D02*
X4563039Y-20978936D01*
X4563039Y-20978936D02*
X4572563Y-20969412D01*
X4753515Y-21197984D02*
X4639230Y-21197984D01*
X4696372Y-21197984D02*
X4696372Y-20997984D01*
X4696372Y-20997984D02*
X4677325Y-21026555D01*
X4677325Y-21026555D02*
X4658277Y-21045603D01*
X4658277Y-21045603D02*
X4639230Y-21055127D01*
X4924944Y-20997984D02*
X4886849Y-20997984D01*
X4886849Y-20997984D02*
X4867801Y-21007508D01*
X4867801Y-21007508D02*
X4858277Y-21017031D01*
X4858277Y-21017031D02*
X4839230Y-21045603D01*
X4839230Y-21045603D02*
X4829706Y-21083698D01*
X4829706Y-21083698D02*
X4829706Y-21159889D01*
X4829706Y-21159889D02*
X4839230Y-21178936D01*
X4839230Y-21178936D02*
X4848753Y-21188460D01*
X4848753Y-21188460D02*
X4867801Y-21197984D01*
X4867801Y-21197984D02*
X4905896Y-21197984D01*
X4905896Y-21197984D02*
X4924944Y-21188460D01*
X4924944Y-21188460D02*
X4934468Y-21178936D01*
X4934468Y-21178936D02*
X4943991Y-21159889D01*
X4943991Y-21159889D02*
X4943991Y-21112270D01*
X4943991Y-21112270D02*
X4934468Y-21093222D01*
X4934468Y-21093222D02*
X4924944Y-21083698D01*
X4924944Y-21083698D02*
X4905896Y-21074174D01*
X4905896Y-21074174D02*
X4867801Y-21074174D01*
X4867801Y-21074174D02*
X4848753Y-21083698D01*
X4848753Y-21083698D02*
X4839230Y-21093222D01*
X4839230Y-21093222D02*
X4829706Y-21112270D01*
X5182087Y-21197984D02*
X5182087Y-20997984D01*
X5267801Y-21197984D02*
X5267801Y-21093222D01*
X5267801Y-21093222D02*
X5258277Y-21074174D01*
X5258277Y-21074174D02*
X5239230Y-21064650D01*
X5239230Y-21064650D02*
X5210658Y-21064650D01*
X5210658Y-21064650D02*
X5191611Y-21074174D01*
X5191611Y-21074174D02*
X5182087Y-21083698D01*
X5391611Y-21197984D02*
X5372563Y-21188460D01*
X5372563Y-21188460D02*
X5363039Y-21178936D01*
X5363039Y-21178936D02*
X5353515Y-21159889D01*
X5353515Y-21159889D02*
X5353515Y-21102746D01*
X5353515Y-21102746D02*
X5363039Y-21083698D01*
X5363039Y-21083698D02*
X5372563Y-21074174D01*
X5372563Y-21074174D02*
X5391611Y-21064650D01*
X5391611Y-21064650D02*
X5420182Y-21064650D01*
X5420182Y-21064650D02*
X5439230Y-21074174D01*
X5439230Y-21074174D02*
X5448753Y-21083698D01*
X5448753Y-21083698D02*
X5458277Y-21102746D01*
X5458277Y-21102746D02*
X5458277Y-21159889D01*
X5458277Y-21159889D02*
X5448753Y-21178936D01*
X5448753Y-21178936D02*
X5439230Y-21188460D01*
X5439230Y-21188460D02*
X5420182Y-21197984D01*
X5420182Y-21197984D02*
X5391611Y-21197984D01*
X5572563Y-21197984D02*
X5553515Y-21188460D01*
X5553515Y-21188460D02*
X5543992Y-21169412D01*
X5543992Y-21169412D02*
X5543992Y-20997984D01*
X5724944Y-21188460D02*
X5705896Y-21197984D01*
X5705896Y-21197984D02*
X5667801Y-21197984D01*
X5667801Y-21197984D02*
X5648753Y-21188460D01*
X5648753Y-21188460D02*
X5639230Y-21169412D01*
X5639230Y-21169412D02*
X5639230Y-21093222D01*
X5639230Y-21093222D02*
X5648753Y-21074174D01*
X5648753Y-21074174D02*
X5667801Y-21064650D01*
X5667801Y-21064650D02*
X5705896Y-21064650D01*
X5705896Y-21064650D02*
X5724944Y-21074174D01*
X5724944Y-21074174D02*
X5734468Y-21093222D01*
X5734468Y-21093222D02*
X5734468Y-21112270D01*
X5734468Y-21112270D02*
X5639230Y-21131317D01*
X5810658Y-21188460D02*
X5829706Y-21197984D01*
X5829706Y-21197984D02*
X5867801Y-21197984D01*
X5867801Y-21197984D02*
X5886849Y-21188460D01*
X5886849Y-21188460D02*
X5896372Y-21169412D01*
X5896372Y-21169412D02*
X5896372Y-21159889D01*
X5896372Y-21159889D02*
X5886849Y-21140841D01*
X5886849Y-21140841D02*
X5867801Y-21131317D01*
X5867801Y-21131317D02*
X5839230Y-21131317D01*
X5839230Y-21131317D02*
X5820182Y-21121793D01*
X5820182Y-21121793D02*
X5810658Y-21102746D01*
X5810658Y-21102746D02*
X5810658Y-21093222D01*
X5810658Y-21093222D02*
X5820182Y-21074174D01*
X5820182Y-21074174D02*
X5839230Y-21064650D01*
X5839230Y-21064650D02*
X5867801Y-21064650D01*
X5867801Y-21064650D02*
X5886849Y-21074174D01*
X5963039Y-21274174D02*
X5972563Y-21264650D01*
X5972563Y-21264650D02*
X5991611Y-21236079D01*
X5991611Y-21236079D02*
X6001134Y-21217031D01*
X6001134Y-21217031D02*
X6010658Y-21188460D01*
X6010658Y-21188460D02*
X6020182Y-21140841D01*
X6020182Y-21140841D02*
X6020182Y-21102746D01*
X6020182Y-21102746D02*
X6010658Y-21055127D01*
X6010658Y-21055127D02*
X6001134Y-21026555D01*
X6001134Y-21026555D02*
X5991611Y-21007508D01*
X5991611Y-21007508D02*
X5972563Y-20978936D01*
X5972563Y-20978936D02*
X5963039Y-20969412D01*
D12*
X967500Y-21340500D02*
X967500Y-21400500D01*
X937500Y-21370500D02*
X997500Y-21370500D01*
D11*
X1296372Y-21261984D02*
X1315420Y-21261984D01*
X1315420Y-21261984D02*
X1334467Y-21271508D01*
X1334467Y-21271508D02*
X1343991Y-21281031D01*
X1343991Y-21281031D02*
X1353515Y-21300079D01*
X1353515Y-21300079D02*
X1363039Y-21338174D01*
X1363039Y-21338174D02*
X1363039Y-21385793D01*
X1363039Y-21385793D02*
X1353515Y-21423889D01*
X1353515Y-21423889D02*
X1343991Y-21442936D01*
X1343991Y-21442936D02*
X1334467Y-21452460D01*
X1334467Y-21452460D02*
X1315420Y-21461984D01*
X1315420Y-21461984D02*
X1296372Y-21461984D01*
X1296372Y-21461984D02*
X1277324Y-21452460D01*
X1277324Y-21452460D02*
X1267801Y-21442936D01*
X1267801Y-21442936D02*
X1258277Y-21423889D01*
X1258277Y-21423889D02*
X1248753Y-21385793D01*
X1248753Y-21385793D02*
X1248753Y-21338174D01*
X1248753Y-21338174D02*
X1258277Y-21300079D01*
X1258277Y-21300079D02*
X1267801Y-21281031D01*
X1267801Y-21281031D02*
X1277324Y-21271508D01*
X1277324Y-21271508D02*
X1296372Y-21261984D01*
X1448753Y-21442936D02*
X1458277Y-21452460D01*
X1458277Y-21452460D02*
X1448753Y-21461984D01*
X1448753Y-21461984D02*
X1439229Y-21452460D01*
X1439229Y-21452460D02*
X1448753Y-21442936D01*
X1448753Y-21442936D02*
X1448753Y-21461984D01*
X1629705Y-21261984D02*
X1591610Y-21261984D01*
X1591610Y-21261984D02*
X1572562Y-21271508D01*
X1572562Y-21271508D02*
X1563039Y-21281031D01*
X1563039Y-21281031D02*
X1543991Y-21309603D01*
X1543991Y-21309603D02*
X1534467Y-21347698D01*
X1534467Y-21347698D02*
X1534467Y-21423889D01*
X1534467Y-21423889D02*
X1543991Y-21442936D01*
X1543991Y-21442936D02*
X1553515Y-21452460D01*
X1553515Y-21452460D02*
X1572562Y-21461984D01*
X1572562Y-21461984D02*
X1610658Y-21461984D01*
X1610658Y-21461984D02*
X1629705Y-21452460D01*
X1629705Y-21452460D02*
X1639229Y-21442936D01*
X1639229Y-21442936D02*
X1648753Y-21423889D01*
X1648753Y-21423889D02*
X1648753Y-21376270D01*
X1648753Y-21376270D02*
X1639229Y-21357222D01*
X1639229Y-21357222D02*
X1629705Y-21347698D01*
X1629705Y-21347698D02*
X1610658Y-21338174D01*
X1610658Y-21338174D02*
X1572562Y-21338174D01*
X1572562Y-21338174D02*
X1553515Y-21347698D01*
X1553515Y-21347698D02*
X1543991Y-21357222D01*
X1543991Y-21357222D02*
X1534467Y-21376270D01*
X1772562Y-21261984D02*
X1791610Y-21261984D01*
X1791610Y-21261984D02*
X1810658Y-21271508D01*
X1810658Y-21271508D02*
X1820182Y-21281031D01*
X1820182Y-21281031D02*
X1829705Y-21300079D01*
X1829705Y-21300079D02*
X1839229Y-21338174D01*
X1839229Y-21338174D02*
X1839229Y-21385793D01*
X1839229Y-21385793D02*
X1829705Y-21423889D01*
X1829705Y-21423889D02*
X1820182Y-21442936D01*
X1820182Y-21442936D02*
X1810658Y-21452460D01*
X1810658Y-21452460D02*
X1791610Y-21461984D01*
X1791610Y-21461984D02*
X1772562Y-21461984D01*
X1772562Y-21461984D02*
X1753515Y-21452460D01*
X1753515Y-21452460D02*
X1743991Y-21442936D01*
X1743991Y-21442936D02*
X1734467Y-21423889D01*
X1734467Y-21423889D02*
X1724943Y-21385793D01*
X1724943Y-21385793D02*
X1724943Y-21338174D01*
X1724943Y-21338174D02*
X1734467Y-21300079D01*
X1734467Y-21300079D02*
X1743991Y-21281031D01*
X1743991Y-21281031D02*
X1753515Y-21271508D01*
X1753515Y-21271508D02*
X1772562Y-21261984D01*
X1963039Y-21261984D02*
X1982086Y-21261984D01*
X1982086Y-21261984D02*
X2001134Y-21271508D01*
X2001134Y-21271508D02*
X2010658Y-21281031D01*
X2010658Y-21281031D02*
X2020182Y-21300079D01*
X2020182Y-21300079D02*
X2029705Y-21338174D01*
X2029705Y-21338174D02*
X2029705Y-21385793D01*
X2029705Y-21385793D02*
X2020182Y-21423889D01*
X2020182Y-21423889D02*
X2010658Y-21442936D01*
X2010658Y-21442936D02*
X2001134Y-21452460D01*
X2001134Y-21452460D02*
X1982086Y-21461984D01*
X1982086Y-21461984D02*
X1963039Y-21461984D01*
X1963039Y-21461984D02*
X1943991Y-21452460D01*
X1943991Y-21452460D02*
X1934467Y-21442936D01*
X1934467Y-21442936D02*
X1924943Y-21423889D01*
X1924943Y-21423889D02*
X1915420Y-21385793D01*
X1915420Y-21385793D02*
X1915420Y-21338174D01*
X1915420Y-21338174D02*
X1924943Y-21300079D01*
X1924943Y-21300079D02*
X1934467Y-21281031D01*
X1934467Y-21281031D02*
X1943991Y-21271508D01*
X1943991Y-21271508D02*
X1963039Y-21261984D01*
X2115420Y-21461984D02*
X2115420Y-21328650D01*
X2115420Y-21347698D02*
X2124944Y-21338174D01*
X2124944Y-21338174D02*
X2143991Y-21328650D01*
X2143991Y-21328650D02*
X2172563Y-21328650D01*
X2172563Y-21328650D02*
X2191610Y-21338174D01*
X2191610Y-21338174D02*
X2201134Y-21357222D01*
X2201134Y-21357222D02*
X2201134Y-21461984D01*
X2201134Y-21357222D02*
X2210658Y-21338174D01*
X2210658Y-21338174D02*
X2229705Y-21328650D01*
X2229705Y-21328650D02*
X2258277Y-21328650D01*
X2258277Y-21328650D02*
X2277325Y-21338174D01*
X2277325Y-21338174D02*
X2286848Y-21357222D01*
X2286848Y-21357222D02*
X2286848Y-21461984D01*
X2382086Y-21461984D02*
X2382086Y-21328650D01*
X2382086Y-21347698D02*
X2391610Y-21338174D01*
X2391610Y-21338174D02*
X2410658Y-21328650D01*
X2410658Y-21328650D02*
X2439229Y-21328650D01*
X2439229Y-21328650D02*
X2458277Y-21338174D01*
X2458277Y-21338174D02*
X2467801Y-21357222D01*
X2467801Y-21357222D02*
X2467801Y-21461984D01*
X2467801Y-21357222D02*
X2477325Y-21338174D01*
X2477325Y-21338174D02*
X2496372Y-21328650D01*
X2496372Y-21328650D02*
X2524944Y-21328650D01*
X2524944Y-21328650D02*
X2543991Y-21338174D01*
X2543991Y-21338174D02*
X2553515Y-21357222D01*
X2553515Y-21357222D02*
X2553515Y-21461984D01*
X2943991Y-21252460D02*
X2772563Y-21509603D01*
X3201134Y-21261984D02*
X3220182Y-21261984D01*
X3220182Y-21261984D02*
X3239229Y-21271508D01*
X3239229Y-21271508D02*
X3248753Y-21281031D01*
X3248753Y-21281031D02*
X3258277Y-21300079D01*
X3258277Y-21300079D02*
X3267801Y-21338174D01*
X3267801Y-21338174D02*
X3267801Y-21385793D01*
X3267801Y-21385793D02*
X3258277Y-21423889D01*
X3258277Y-21423889D02*
X3248753Y-21442936D01*
X3248753Y-21442936D02*
X3239229Y-21452460D01*
X3239229Y-21452460D02*
X3220182Y-21461984D01*
X3220182Y-21461984D02*
X3201134Y-21461984D01*
X3201134Y-21461984D02*
X3182086Y-21452460D01*
X3182086Y-21452460D02*
X3172563Y-21442936D01*
X3172563Y-21442936D02*
X3163039Y-21423889D01*
X3163039Y-21423889D02*
X3153515Y-21385793D01*
X3153515Y-21385793D02*
X3153515Y-21338174D01*
X3153515Y-21338174D02*
X3163039Y-21300079D01*
X3163039Y-21300079D02*
X3172563Y-21281031D01*
X3172563Y-21281031D02*
X3182086Y-21271508D01*
X3182086Y-21271508D02*
X3201134Y-21261984D01*
X3353515Y-21442936D02*
X3363039Y-21452460D01*
X3363039Y-21452460D02*
X3353515Y-21461984D01*
X3353515Y-21461984D02*
X3343991Y-21452460D01*
X3343991Y-21452460D02*
X3353515Y-21442936D01*
X3353515Y-21442936D02*
X3353515Y-21461984D01*
X3486848Y-21261984D02*
X3505896Y-21261984D01*
X3505896Y-21261984D02*
X3524944Y-21271508D01*
X3524944Y-21271508D02*
X3534467Y-21281031D01*
X3534467Y-21281031D02*
X3543991Y-21300079D01*
X3543991Y-21300079D02*
X3553515Y-21338174D01*
X3553515Y-21338174D02*
X3553515Y-21385793D01*
X3553515Y-21385793D02*
X3543991Y-21423889D01*
X3543991Y-21423889D02*
X3534467Y-21442936D01*
X3534467Y-21442936D02*
X3524944Y-21452460D01*
X3524944Y-21452460D02*
X3505896Y-21461984D01*
X3505896Y-21461984D02*
X3486848Y-21461984D01*
X3486848Y-21461984D02*
X3467801Y-21452460D01*
X3467801Y-21452460D02*
X3458277Y-21442936D01*
X3458277Y-21442936D02*
X3448753Y-21423889D01*
X3448753Y-21423889D02*
X3439229Y-21385793D01*
X3439229Y-21385793D02*
X3439229Y-21338174D01*
X3439229Y-21338174D02*
X3448753Y-21300079D01*
X3448753Y-21300079D02*
X3458277Y-21281031D01*
X3458277Y-21281031D02*
X3467801Y-21271508D01*
X3467801Y-21271508D02*
X3486848Y-21261984D01*
X3629706Y-21281031D02*
X3639229Y-21271508D01*
X3639229Y-21271508D02*
X3658277Y-21261984D01*
X3658277Y-21261984D02*
X3705896Y-21261984D01*
X3705896Y-21261984D02*
X3724944Y-21271508D01*
X3724944Y-21271508D02*
X3734467Y-21281031D01*
X3734467Y-21281031D02*
X3743991Y-21300079D01*
X3743991Y-21300079D02*
X3743991Y-21319127D01*
X3743991Y-21319127D02*
X3734467Y-21347698D01*
X3734467Y-21347698D02*
X3620182Y-21461984D01*
X3620182Y-21461984D02*
X3743991Y-21461984D01*
X3810658Y-21261984D02*
X3934467Y-21261984D01*
X3934467Y-21261984D02*
X3867801Y-21338174D01*
X3867801Y-21338174D02*
X3896372Y-21338174D01*
X3896372Y-21338174D02*
X3915420Y-21347698D01*
X3915420Y-21347698D02*
X3924944Y-21357222D01*
X3924944Y-21357222D02*
X3934467Y-21376270D01*
X3934467Y-21376270D02*
X3934467Y-21423889D01*
X3934467Y-21423889D02*
X3924944Y-21442936D01*
X3924944Y-21442936D02*
X3915420Y-21452460D01*
X3915420Y-21452460D02*
X3896372Y-21461984D01*
X3896372Y-21461984D02*
X3839229Y-21461984D01*
X3839229Y-21461984D02*
X3820182Y-21452460D01*
X3820182Y-21452460D02*
X3810658Y-21442936D01*
X4105896Y-21261984D02*
X4067801Y-21261984D01*
X4067801Y-21261984D02*
X4048753Y-21271508D01*
X4048753Y-21271508D02*
X4039229Y-21281031D01*
X4039229Y-21281031D02*
X4020182Y-21309603D01*
X4020182Y-21309603D02*
X4010658Y-21347698D01*
X4010658Y-21347698D02*
X4010658Y-21423889D01*
X4010658Y-21423889D02*
X4020182Y-21442936D01*
X4020182Y-21442936D02*
X4029706Y-21452460D01*
X4029706Y-21452460D02*
X4048753Y-21461984D01*
X4048753Y-21461984D02*
X4086848Y-21461984D01*
X4086848Y-21461984D02*
X4105896Y-21452460D01*
X4105896Y-21452460D02*
X4115420Y-21442936D01*
X4115420Y-21442936D02*
X4124944Y-21423889D01*
X4124944Y-21423889D02*
X4124944Y-21376270D01*
X4124944Y-21376270D02*
X4115420Y-21357222D01*
X4115420Y-21357222D02*
X4105896Y-21347698D01*
X4105896Y-21347698D02*
X4086848Y-21338174D01*
X4086848Y-21338174D02*
X4048753Y-21338174D01*
X4048753Y-21338174D02*
X4029706Y-21347698D01*
X4029706Y-21347698D02*
X4020182Y-21357222D01*
X4020182Y-21357222D02*
X4010658Y-21376270D01*
X4201134Y-21261984D02*
X4201134Y-21300079D01*
X4277325Y-21261984D02*
X4277325Y-21300079D01*
X4572563Y-21538174D02*
X4563039Y-21528650D01*
X4563039Y-21528650D02*
X4543991Y-21500079D01*
X4543991Y-21500079D02*
X4534468Y-21481031D01*
X4534468Y-21481031D02*
X4524944Y-21452460D01*
X4524944Y-21452460D02*
X4515420Y-21404841D01*
X4515420Y-21404841D02*
X4515420Y-21366746D01*
X4515420Y-21366746D02*
X4524944Y-21319127D01*
X4524944Y-21319127D02*
X4534468Y-21290555D01*
X4534468Y-21290555D02*
X4543991Y-21271508D01*
X4543991Y-21271508D02*
X4563039Y-21242936D01*
X4563039Y-21242936D02*
X4572563Y-21233412D01*
X4686849Y-21261984D02*
X4705896Y-21261984D01*
X4705896Y-21261984D02*
X4724944Y-21271508D01*
X4724944Y-21271508D02*
X4734468Y-21281031D01*
X4734468Y-21281031D02*
X4743991Y-21300079D01*
X4743991Y-21300079D02*
X4753515Y-21338174D01*
X4753515Y-21338174D02*
X4753515Y-21385793D01*
X4753515Y-21385793D02*
X4743991Y-21423889D01*
X4743991Y-21423889D02*
X4734468Y-21442936D01*
X4734468Y-21442936D02*
X4724944Y-21452460D01*
X4724944Y-21452460D02*
X4705896Y-21461984D01*
X4705896Y-21461984D02*
X4686849Y-21461984D01*
X4686849Y-21461984D02*
X4667801Y-21452460D01*
X4667801Y-21452460D02*
X4658277Y-21442936D01*
X4658277Y-21442936D02*
X4648753Y-21423889D01*
X4648753Y-21423889D02*
X4639230Y-21385793D01*
X4639230Y-21385793D02*
X4639230Y-21338174D01*
X4639230Y-21338174D02*
X4648753Y-21300079D01*
X4648753Y-21300079D02*
X4658277Y-21281031D01*
X4658277Y-21281031D02*
X4667801Y-21271508D01*
X4667801Y-21271508D02*
X4686849Y-21261984D01*
X4991611Y-21461984D02*
X4991611Y-21261984D01*
X5077325Y-21461984D02*
X5077325Y-21357222D01*
X5077325Y-21357222D02*
X5067801Y-21338174D01*
X5067801Y-21338174D02*
X5048753Y-21328650D01*
X5048753Y-21328650D02*
X5020182Y-21328650D01*
X5020182Y-21328650D02*
X5001134Y-21338174D01*
X5001134Y-21338174D02*
X4991611Y-21347698D01*
X5201134Y-21461984D02*
X5182087Y-21452460D01*
X5182087Y-21452460D02*
X5172563Y-21442936D01*
X5172563Y-21442936D02*
X5163039Y-21423889D01*
X5163039Y-21423889D02*
X5163039Y-21366746D01*
X5163039Y-21366746D02*
X5172563Y-21347698D01*
X5172563Y-21347698D02*
X5182087Y-21338174D01*
X5182087Y-21338174D02*
X5201134Y-21328650D01*
X5201134Y-21328650D02*
X5229706Y-21328650D01*
X5229706Y-21328650D02*
X5248753Y-21338174D01*
X5248753Y-21338174D02*
X5258277Y-21347698D01*
X5258277Y-21347698D02*
X5267801Y-21366746D01*
X5267801Y-21366746D02*
X5267801Y-21423889D01*
X5267801Y-21423889D02*
X5258277Y-21442936D01*
X5258277Y-21442936D02*
X5248753Y-21452460D01*
X5248753Y-21452460D02*
X5229706Y-21461984D01*
X5229706Y-21461984D02*
X5201134Y-21461984D01*
X5382087Y-21461984D02*
X5363039Y-21452460D01*
X5363039Y-21452460D02*
X5353515Y-21433412D01*
X5353515Y-21433412D02*
X5353515Y-21261984D01*
X5534468Y-21452460D02*
X5515420Y-21461984D01*
X5515420Y-21461984D02*
X5477325Y-21461984D01*
X5477325Y-21461984D02*
X5458277Y-21452460D01*
X5458277Y-21452460D02*
X5448753Y-21433412D01*
X5448753Y-21433412D02*
X5448753Y-21357222D01*
X5448753Y-21357222D02*
X5458277Y-21338174D01*
X5458277Y-21338174D02*
X5477325Y-21328650D01*
X5477325Y-21328650D02*
X5515420Y-21328650D01*
X5515420Y-21328650D02*
X5534468Y-21338174D01*
X5534468Y-21338174D02*
X5543992Y-21357222D01*
X5543992Y-21357222D02*
X5543992Y-21376270D01*
X5543992Y-21376270D02*
X5448753Y-21395317D01*
X5620182Y-21452460D02*
X5639230Y-21461984D01*
X5639230Y-21461984D02*
X5677325Y-21461984D01*
X5677325Y-21461984D02*
X5696372Y-21452460D01*
X5696372Y-21452460D02*
X5705896Y-21433412D01*
X5705896Y-21433412D02*
X5705896Y-21423889D01*
X5705896Y-21423889D02*
X5696372Y-21404841D01*
X5696372Y-21404841D02*
X5677325Y-21395317D01*
X5677325Y-21395317D02*
X5648753Y-21395317D01*
X5648753Y-21395317D02*
X5629706Y-21385793D01*
X5629706Y-21385793D02*
X5620182Y-21366746D01*
X5620182Y-21366746D02*
X5620182Y-21357222D01*
X5620182Y-21357222D02*
X5629706Y-21338174D01*
X5629706Y-21338174D02*
X5648753Y-21328650D01*
X5648753Y-21328650D02*
X5677325Y-21328650D01*
X5677325Y-21328650D02*
X5696372Y-21338174D01*
X5943992Y-21385793D02*
X6096373Y-21385793D01*
X6020182Y-21461984D02*
X6020182Y-21309603D01*
X6429706Y-21328650D02*
X6429706Y-21461984D01*
X6382087Y-21252460D02*
X6334468Y-21395317D01*
X6334468Y-21395317D02*
X6458277Y-21395317D01*
X6677325Y-21452460D02*
X6696373Y-21461984D01*
X6696373Y-21461984D02*
X6734468Y-21461984D01*
X6734468Y-21461984D02*
X6753515Y-21452460D01*
X6753515Y-21452460D02*
X6763039Y-21433412D01*
X6763039Y-21433412D02*
X6763039Y-21423889D01*
X6763039Y-21423889D02*
X6753515Y-21404841D01*
X6753515Y-21404841D02*
X6734468Y-21395317D01*
X6734468Y-21395317D02*
X6705896Y-21395317D01*
X6705896Y-21395317D02*
X6686849Y-21385793D01*
X6686849Y-21385793D02*
X6677325Y-21366746D01*
X6677325Y-21366746D02*
X6677325Y-21357222D01*
X6677325Y-21357222D02*
X6686849Y-21338174D01*
X6686849Y-21338174D02*
X6705896Y-21328650D01*
X6705896Y-21328650D02*
X6734468Y-21328650D01*
X6734468Y-21328650D02*
X6753515Y-21338174D01*
X6877325Y-21461984D02*
X6858277Y-21452460D01*
X6858277Y-21452460D02*
X6848754Y-21433412D01*
X6848754Y-21433412D02*
X6848754Y-21261984D01*
X6982087Y-21461984D02*
X6963039Y-21452460D01*
X6963039Y-21452460D02*
X6953515Y-21442936D01*
X6953515Y-21442936D02*
X6943992Y-21423889D01*
X6943992Y-21423889D02*
X6943992Y-21366746D01*
X6943992Y-21366746D02*
X6953515Y-21347698D01*
X6953515Y-21347698D02*
X6963039Y-21338174D01*
X6963039Y-21338174D02*
X6982087Y-21328650D01*
X6982087Y-21328650D02*
X7010658Y-21328650D01*
X7010658Y-21328650D02*
X7029706Y-21338174D01*
X7029706Y-21338174D02*
X7039230Y-21347698D01*
X7039230Y-21347698D02*
X7048754Y-21366746D01*
X7048754Y-21366746D02*
X7048754Y-21423889D01*
X7048754Y-21423889D02*
X7039230Y-21442936D01*
X7039230Y-21442936D02*
X7029706Y-21452460D01*
X7029706Y-21452460D02*
X7010658Y-21461984D01*
X7010658Y-21461984D02*
X6982087Y-21461984D01*
X7105896Y-21328650D02*
X7182087Y-21328650D01*
X7134468Y-21261984D02*
X7134468Y-21433412D01*
X7134468Y-21433412D02*
X7143992Y-21452460D01*
X7143992Y-21452460D02*
X7163039Y-21461984D01*
X7163039Y-21461984D02*
X7182087Y-21461984D01*
X7239230Y-21452460D02*
X7258277Y-21461984D01*
X7258277Y-21461984D02*
X7296373Y-21461984D01*
X7296373Y-21461984D02*
X7315420Y-21452460D01*
X7315420Y-21452460D02*
X7324944Y-21433412D01*
X7324944Y-21433412D02*
X7324944Y-21423889D01*
X7324944Y-21423889D02*
X7315420Y-21404841D01*
X7315420Y-21404841D02*
X7296373Y-21395317D01*
X7296373Y-21395317D02*
X7267801Y-21395317D01*
X7267801Y-21395317D02*
X7248754Y-21385793D01*
X7248754Y-21385793D02*
X7239230Y-21366746D01*
X7239230Y-21366746D02*
X7239230Y-21357222D01*
X7239230Y-21357222D02*
X7248754Y-21338174D01*
X7248754Y-21338174D02*
X7267801Y-21328650D01*
X7267801Y-21328650D02*
X7296373Y-21328650D01*
X7296373Y-21328650D02*
X7315420Y-21338174D01*
X7391611Y-21538174D02*
X7401135Y-21528650D01*
X7401135Y-21528650D02*
X7420182Y-21500079D01*
X7420182Y-21500079D02*
X7429706Y-21481031D01*
X7429706Y-21481031D02*
X7439230Y-21452460D01*
X7439230Y-21452460D02*
X7448754Y-21404841D01*
X7448754Y-21404841D02*
X7448754Y-21366746D01*
X7448754Y-21366746D02*
X7439230Y-21319127D01*
X7439230Y-21319127D02*
X7429706Y-21290555D01*
X7429706Y-21290555D02*
X7420182Y-21271508D01*
X7420182Y-21271508D02*
X7401135Y-21242936D01*
X7401135Y-21242936D02*
X7391611Y-21233412D01*
D12*
X982856Y-21669856D02*
X982856Y-21599144D01*
X912144Y-21599144D01*
X912144Y-21669856D01*
X982856Y-21669856D01*
D11*
X1363039Y-21725984D02*
X1248753Y-21725984D01*
X1305896Y-21725984D02*
X1305896Y-21525984D01*
X1305896Y-21525984D02*
X1286848Y-21554555D01*
X1286848Y-21554555D02*
X1267801Y-21573603D01*
X1267801Y-21573603D02*
X1248753Y-21583127D01*
X1448753Y-21706936D02*
X1458277Y-21716460D01*
X1458277Y-21716460D02*
X1448753Y-21725984D01*
X1448753Y-21725984D02*
X1439229Y-21716460D01*
X1439229Y-21716460D02*
X1448753Y-21706936D01*
X1448753Y-21706936D02*
X1448753Y-21725984D01*
X1582086Y-21525984D02*
X1601134Y-21525984D01*
X1601134Y-21525984D02*
X1620182Y-21535508D01*
X1620182Y-21535508D02*
X1629705Y-21545031D01*
X1629705Y-21545031D02*
X1639229Y-21564079D01*
X1639229Y-21564079D02*
X1648753Y-21602174D01*
X1648753Y-21602174D02*
X1648753Y-21649793D01*
X1648753Y-21649793D02*
X1639229Y-21687889D01*
X1639229Y-21687889D02*
X1629705Y-21706936D01*
X1629705Y-21706936D02*
X1620182Y-21716460D01*
X1620182Y-21716460D02*
X1601134Y-21725984D01*
X1601134Y-21725984D02*
X1582086Y-21725984D01*
X1582086Y-21725984D02*
X1563039Y-21716460D01*
X1563039Y-21716460D02*
X1553515Y-21706936D01*
X1553515Y-21706936D02*
X1543991Y-21687889D01*
X1543991Y-21687889D02*
X1534467Y-21649793D01*
X1534467Y-21649793D02*
X1534467Y-21602174D01*
X1534467Y-21602174D02*
X1543991Y-21564079D01*
X1543991Y-21564079D02*
X1553515Y-21545031D01*
X1553515Y-21545031D02*
X1563039Y-21535508D01*
X1563039Y-21535508D02*
X1582086Y-21525984D01*
X1772562Y-21525984D02*
X1791610Y-21525984D01*
X1791610Y-21525984D02*
X1810658Y-21535508D01*
X1810658Y-21535508D02*
X1820182Y-21545031D01*
X1820182Y-21545031D02*
X1829705Y-21564079D01*
X1829705Y-21564079D02*
X1839229Y-21602174D01*
X1839229Y-21602174D02*
X1839229Y-21649793D01*
X1839229Y-21649793D02*
X1829705Y-21687889D01*
X1829705Y-21687889D02*
X1820182Y-21706936D01*
X1820182Y-21706936D02*
X1810658Y-21716460D01*
X1810658Y-21716460D02*
X1791610Y-21725984D01*
X1791610Y-21725984D02*
X1772562Y-21725984D01*
X1772562Y-21725984D02*
X1753515Y-21716460D01*
X1753515Y-21716460D02*
X1743991Y-21706936D01*
X1743991Y-21706936D02*
X1734467Y-21687889D01*
X1734467Y-21687889D02*
X1724943Y-21649793D01*
X1724943Y-21649793D02*
X1724943Y-21602174D01*
X1724943Y-21602174D02*
X1734467Y-21564079D01*
X1734467Y-21564079D02*
X1743991Y-21545031D01*
X1743991Y-21545031D02*
X1753515Y-21535508D01*
X1753515Y-21535508D02*
X1772562Y-21525984D01*
X1963039Y-21525984D02*
X1982086Y-21525984D01*
X1982086Y-21525984D02*
X2001134Y-21535508D01*
X2001134Y-21535508D02*
X2010658Y-21545031D01*
X2010658Y-21545031D02*
X2020182Y-21564079D01*
X2020182Y-21564079D02*
X2029705Y-21602174D01*
X2029705Y-21602174D02*
X2029705Y-21649793D01*
X2029705Y-21649793D02*
X2020182Y-21687889D01*
X2020182Y-21687889D02*
X2010658Y-21706936D01*
X2010658Y-21706936D02*
X2001134Y-21716460D01*
X2001134Y-21716460D02*
X1982086Y-21725984D01*
X1982086Y-21725984D02*
X1963039Y-21725984D01*
X1963039Y-21725984D02*
X1943991Y-21716460D01*
X1943991Y-21716460D02*
X1934467Y-21706936D01*
X1934467Y-21706936D02*
X1924943Y-21687889D01*
X1924943Y-21687889D02*
X1915420Y-21649793D01*
X1915420Y-21649793D02*
X1915420Y-21602174D01*
X1915420Y-21602174D02*
X1924943Y-21564079D01*
X1924943Y-21564079D02*
X1934467Y-21545031D01*
X1934467Y-21545031D02*
X1943991Y-21535508D01*
X1943991Y-21535508D02*
X1963039Y-21525984D01*
X2115420Y-21725984D02*
X2115420Y-21592650D01*
X2115420Y-21611698D02*
X2124944Y-21602174D01*
X2124944Y-21602174D02*
X2143991Y-21592650D01*
X2143991Y-21592650D02*
X2172563Y-21592650D01*
X2172563Y-21592650D02*
X2191610Y-21602174D01*
X2191610Y-21602174D02*
X2201134Y-21621222D01*
X2201134Y-21621222D02*
X2201134Y-21725984D01*
X2201134Y-21621222D02*
X2210658Y-21602174D01*
X2210658Y-21602174D02*
X2229705Y-21592650D01*
X2229705Y-21592650D02*
X2258277Y-21592650D01*
X2258277Y-21592650D02*
X2277325Y-21602174D01*
X2277325Y-21602174D02*
X2286848Y-21621222D01*
X2286848Y-21621222D02*
X2286848Y-21725984D01*
X2382086Y-21725984D02*
X2382086Y-21592650D01*
X2382086Y-21611698D02*
X2391610Y-21602174D01*
X2391610Y-21602174D02*
X2410658Y-21592650D01*
X2410658Y-21592650D02*
X2439229Y-21592650D01*
X2439229Y-21592650D02*
X2458277Y-21602174D01*
X2458277Y-21602174D02*
X2467801Y-21621222D01*
X2467801Y-21621222D02*
X2467801Y-21725984D01*
X2467801Y-21621222D02*
X2477325Y-21602174D01*
X2477325Y-21602174D02*
X2496372Y-21592650D01*
X2496372Y-21592650D02*
X2524944Y-21592650D01*
X2524944Y-21592650D02*
X2543991Y-21602174D01*
X2543991Y-21602174D02*
X2553515Y-21621222D01*
X2553515Y-21621222D02*
X2553515Y-21725984D01*
X2943991Y-21516460D02*
X2772563Y-21773603D01*
X3201134Y-21525984D02*
X3220182Y-21525984D01*
X3220182Y-21525984D02*
X3239229Y-21535508D01*
X3239229Y-21535508D02*
X3248753Y-21545031D01*
X3248753Y-21545031D02*
X3258277Y-21564079D01*
X3258277Y-21564079D02*
X3267801Y-21602174D01*
X3267801Y-21602174D02*
X3267801Y-21649793D01*
X3267801Y-21649793D02*
X3258277Y-21687889D01*
X3258277Y-21687889D02*
X3248753Y-21706936D01*
X3248753Y-21706936D02*
X3239229Y-21716460D01*
X3239229Y-21716460D02*
X3220182Y-21725984D01*
X3220182Y-21725984D02*
X3201134Y-21725984D01*
X3201134Y-21725984D02*
X3182086Y-21716460D01*
X3182086Y-21716460D02*
X3172563Y-21706936D01*
X3172563Y-21706936D02*
X3163039Y-21687889D01*
X3163039Y-21687889D02*
X3153515Y-21649793D01*
X3153515Y-21649793D02*
X3153515Y-21602174D01*
X3153515Y-21602174D02*
X3163039Y-21564079D01*
X3163039Y-21564079D02*
X3172563Y-21545031D01*
X3172563Y-21545031D02*
X3182086Y-21535508D01*
X3182086Y-21535508D02*
X3201134Y-21525984D01*
X3353515Y-21706936D02*
X3363039Y-21716460D01*
X3363039Y-21716460D02*
X3353515Y-21725984D01*
X3353515Y-21725984D02*
X3343991Y-21716460D01*
X3343991Y-21716460D02*
X3353515Y-21706936D01*
X3353515Y-21706936D02*
X3353515Y-21725984D01*
X3486848Y-21525984D02*
X3505896Y-21525984D01*
X3505896Y-21525984D02*
X3524944Y-21535508D01*
X3524944Y-21535508D02*
X3534467Y-21545031D01*
X3534467Y-21545031D02*
X3543991Y-21564079D01*
X3543991Y-21564079D02*
X3553515Y-21602174D01*
X3553515Y-21602174D02*
X3553515Y-21649793D01*
X3553515Y-21649793D02*
X3543991Y-21687889D01*
X3543991Y-21687889D02*
X3534467Y-21706936D01*
X3534467Y-21706936D02*
X3524944Y-21716460D01*
X3524944Y-21716460D02*
X3505896Y-21725984D01*
X3505896Y-21725984D02*
X3486848Y-21725984D01*
X3486848Y-21725984D02*
X3467801Y-21716460D01*
X3467801Y-21716460D02*
X3458277Y-21706936D01*
X3458277Y-21706936D02*
X3448753Y-21687889D01*
X3448753Y-21687889D02*
X3439229Y-21649793D01*
X3439229Y-21649793D02*
X3439229Y-21602174D01*
X3439229Y-21602174D02*
X3448753Y-21564079D01*
X3448753Y-21564079D02*
X3458277Y-21545031D01*
X3458277Y-21545031D02*
X3467801Y-21535508D01*
X3467801Y-21535508D02*
X3486848Y-21525984D01*
X3620182Y-21525984D02*
X3743991Y-21525984D01*
X3743991Y-21525984D02*
X3677325Y-21602174D01*
X3677325Y-21602174D02*
X3705896Y-21602174D01*
X3705896Y-21602174D02*
X3724944Y-21611698D01*
X3724944Y-21611698D02*
X3734467Y-21621222D01*
X3734467Y-21621222D02*
X3743991Y-21640270D01*
X3743991Y-21640270D02*
X3743991Y-21687889D01*
X3743991Y-21687889D02*
X3734467Y-21706936D01*
X3734467Y-21706936D02*
X3724944Y-21716460D01*
X3724944Y-21716460D02*
X3705896Y-21725984D01*
X3705896Y-21725984D02*
X3648753Y-21725984D01*
X3648753Y-21725984D02*
X3629706Y-21716460D01*
X3629706Y-21716460D02*
X3620182Y-21706936D01*
X3839229Y-21725984D02*
X3877325Y-21725984D01*
X3877325Y-21725984D02*
X3896372Y-21716460D01*
X3896372Y-21716460D02*
X3905896Y-21706936D01*
X3905896Y-21706936D02*
X3924944Y-21678365D01*
X3924944Y-21678365D02*
X3934467Y-21640270D01*
X3934467Y-21640270D02*
X3934467Y-21564079D01*
X3934467Y-21564079D02*
X3924944Y-21545031D01*
X3924944Y-21545031D02*
X3915420Y-21535508D01*
X3915420Y-21535508D02*
X3896372Y-21525984D01*
X3896372Y-21525984D02*
X3858277Y-21525984D01*
X3858277Y-21525984D02*
X3839229Y-21535508D01*
X3839229Y-21535508D02*
X3829706Y-21545031D01*
X3829706Y-21545031D02*
X3820182Y-21564079D01*
X3820182Y-21564079D02*
X3820182Y-21611698D01*
X3820182Y-21611698D02*
X3829706Y-21630746D01*
X3829706Y-21630746D02*
X3839229Y-21640270D01*
X3839229Y-21640270D02*
X3858277Y-21649793D01*
X3858277Y-21649793D02*
X3896372Y-21649793D01*
X3896372Y-21649793D02*
X3915420Y-21640270D01*
X3915420Y-21640270D02*
X3924944Y-21630746D01*
X3924944Y-21630746D02*
X3934467Y-21611698D01*
X4105896Y-21592650D02*
X4105896Y-21725984D01*
X4058277Y-21516460D02*
X4010658Y-21659317D01*
X4010658Y-21659317D02*
X4134467Y-21659317D01*
X4201134Y-21525984D02*
X4201134Y-21564079D01*
X4277325Y-21525984D02*
X4277325Y-21564079D01*
X4572563Y-21802174D02*
X4563039Y-21792650D01*
X4563039Y-21792650D02*
X4543991Y-21764079D01*
X4543991Y-21764079D02*
X4534468Y-21745031D01*
X4534468Y-21745031D02*
X4524944Y-21716460D01*
X4524944Y-21716460D02*
X4515420Y-21668841D01*
X4515420Y-21668841D02*
X4515420Y-21630746D01*
X4515420Y-21630746D02*
X4524944Y-21583127D01*
X4524944Y-21583127D02*
X4534468Y-21554555D01*
X4534468Y-21554555D02*
X4543991Y-21535508D01*
X4543991Y-21535508D02*
X4563039Y-21506936D01*
X4563039Y-21506936D02*
X4572563Y-21497412D01*
X4629706Y-21525984D02*
X4753515Y-21525984D01*
X4753515Y-21525984D02*
X4686849Y-21602174D01*
X4686849Y-21602174D02*
X4715420Y-21602174D01*
X4715420Y-21602174D02*
X4734468Y-21611698D01*
X4734468Y-21611698D02*
X4743991Y-21621222D01*
X4743991Y-21621222D02*
X4753515Y-21640270D01*
X4753515Y-21640270D02*
X4753515Y-21687889D01*
X4753515Y-21687889D02*
X4743991Y-21706936D01*
X4743991Y-21706936D02*
X4734468Y-21716460D01*
X4734468Y-21716460D02*
X4715420Y-21725984D01*
X4715420Y-21725984D02*
X4658277Y-21725984D01*
X4658277Y-21725984D02*
X4639230Y-21716460D01*
X4639230Y-21716460D02*
X4629706Y-21706936D01*
X4867801Y-21611698D02*
X4848753Y-21602174D01*
X4848753Y-21602174D02*
X4839230Y-21592650D01*
X4839230Y-21592650D02*
X4829706Y-21573603D01*
X4829706Y-21573603D02*
X4829706Y-21564079D01*
X4829706Y-21564079D02*
X4839230Y-21545031D01*
X4839230Y-21545031D02*
X4848753Y-21535508D01*
X4848753Y-21535508D02*
X4867801Y-21525984D01*
X4867801Y-21525984D02*
X4905896Y-21525984D01*
X4905896Y-21525984D02*
X4924944Y-21535508D01*
X4924944Y-21535508D02*
X4934468Y-21545031D01*
X4934468Y-21545031D02*
X4943991Y-21564079D01*
X4943991Y-21564079D02*
X4943991Y-21573603D01*
X4943991Y-21573603D02*
X4934468Y-21592650D01*
X4934468Y-21592650D02*
X4924944Y-21602174D01*
X4924944Y-21602174D02*
X4905896Y-21611698D01*
X4905896Y-21611698D02*
X4867801Y-21611698D01*
X4867801Y-21611698D02*
X4848753Y-21621222D01*
X4848753Y-21621222D02*
X4839230Y-21630746D01*
X4839230Y-21630746D02*
X4829706Y-21649793D01*
X4829706Y-21649793D02*
X4829706Y-21687889D01*
X4829706Y-21687889D02*
X4839230Y-21706936D01*
X4839230Y-21706936D02*
X4848753Y-21716460D01*
X4848753Y-21716460D02*
X4867801Y-21725984D01*
X4867801Y-21725984D02*
X4905896Y-21725984D01*
X4905896Y-21725984D02*
X4924944Y-21716460D01*
X4924944Y-21716460D02*
X4934468Y-21706936D01*
X4934468Y-21706936D02*
X4943991Y-21687889D01*
X4943991Y-21687889D02*
X4943991Y-21649793D01*
X4943991Y-21649793D02*
X4934468Y-21630746D01*
X4934468Y-21630746D02*
X4924944Y-21621222D01*
X4924944Y-21621222D02*
X4905896Y-21611698D01*
X5115420Y-21592650D02*
X5115420Y-21725984D01*
X5067801Y-21516460D02*
X5020182Y-21659317D01*
X5020182Y-21659317D02*
X5143991Y-21659317D01*
X5372563Y-21725984D02*
X5372563Y-21525984D01*
X5458277Y-21725984D02*
X5458277Y-21621222D01*
X5458277Y-21621222D02*
X5448753Y-21602174D01*
X5448753Y-21602174D02*
X5429706Y-21592650D01*
X5429706Y-21592650D02*
X5401134Y-21592650D01*
X5401134Y-21592650D02*
X5382087Y-21602174D01*
X5382087Y-21602174D02*
X5372563Y-21611698D01*
X5582087Y-21725984D02*
X5563039Y-21716460D01*
X5563039Y-21716460D02*
X5553515Y-21706936D01*
X5553515Y-21706936D02*
X5543992Y-21687889D01*
X5543992Y-21687889D02*
X5543992Y-21630746D01*
X5543992Y-21630746D02*
X5553515Y-21611698D01*
X5553515Y-21611698D02*
X5563039Y-21602174D01*
X5563039Y-21602174D02*
X5582087Y-21592650D01*
X5582087Y-21592650D02*
X5610658Y-21592650D01*
X5610658Y-21592650D02*
X5629706Y-21602174D01*
X5629706Y-21602174D02*
X5639230Y-21611698D01*
X5639230Y-21611698D02*
X5648753Y-21630746D01*
X5648753Y-21630746D02*
X5648753Y-21687889D01*
X5648753Y-21687889D02*
X5639230Y-21706936D01*
X5639230Y-21706936D02*
X5629706Y-21716460D01*
X5629706Y-21716460D02*
X5610658Y-21725984D01*
X5610658Y-21725984D02*
X5582087Y-21725984D01*
X5763039Y-21725984D02*
X5743991Y-21716460D01*
X5743991Y-21716460D02*
X5734468Y-21697412D01*
X5734468Y-21697412D02*
X5734468Y-21525984D01*
X5915420Y-21716460D02*
X5896372Y-21725984D01*
X5896372Y-21725984D02*
X5858277Y-21725984D01*
X5858277Y-21725984D02*
X5839230Y-21716460D01*
X5839230Y-21716460D02*
X5829706Y-21697412D01*
X5829706Y-21697412D02*
X5829706Y-21621222D01*
X5829706Y-21621222D02*
X5839230Y-21602174D01*
X5839230Y-21602174D02*
X5858277Y-21592650D01*
X5858277Y-21592650D02*
X5896372Y-21592650D01*
X5896372Y-21592650D02*
X5915420Y-21602174D01*
X5915420Y-21602174D02*
X5924944Y-21621222D01*
X5924944Y-21621222D02*
X5924944Y-21640270D01*
X5924944Y-21640270D02*
X5829706Y-21659317D01*
X6001134Y-21716460D02*
X6020182Y-21725984D01*
X6020182Y-21725984D02*
X6058277Y-21725984D01*
X6058277Y-21725984D02*
X6077325Y-21716460D01*
X6077325Y-21716460D02*
X6086849Y-21697412D01*
X6086849Y-21697412D02*
X6086849Y-21687889D01*
X6086849Y-21687889D02*
X6077325Y-21668841D01*
X6077325Y-21668841D02*
X6058277Y-21659317D01*
X6058277Y-21659317D02*
X6029706Y-21659317D01*
X6029706Y-21659317D02*
X6010658Y-21649793D01*
X6010658Y-21649793D02*
X6001134Y-21630746D01*
X6001134Y-21630746D02*
X6001134Y-21621222D01*
X6001134Y-21621222D02*
X6010658Y-21602174D01*
X6010658Y-21602174D02*
X6029706Y-21592650D01*
X6029706Y-21592650D02*
X6058277Y-21592650D01*
X6058277Y-21592650D02*
X6077325Y-21602174D01*
X6153515Y-21802174D02*
X6163039Y-21792650D01*
X6163039Y-21792650D02*
X6182087Y-21764079D01*
X6182087Y-21764079D02*
X6191611Y-21745031D01*
X6191611Y-21745031D02*
X6201134Y-21716460D01*
X6201134Y-21716460D02*
X6210658Y-21668841D01*
X6210658Y-21668841D02*
X6210658Y-21630746D01*
X6210658Y-21630746D02*
X6201134Y-21583127D01*
X6201134Y-21583127D02*
X6191611Y-21554555D01*
X6191611Y-21554555D02*
X6182087Y-21535508D01*
X6182087Y-21535508D02*
X6163039Y-21506936D01*
X6163039Y-21506936D02*
X6153515Y-21497412D01*
D13*
X942500Y-21953500D02*
X997500Y-21898500D01*
X942500Y-21843500D01*
X887500Y-21898500D01*
X942500Y-21953500D01*
D11*
X1363039Y-21989984D02*
X1248753Y-21989984D01*
X1305896Y-21989984D02*
X1305896Y-21789984D01*
X1305896Y-21789984D02*
X1286848Y-21818555D01*
X1286848Y-21818555D02*
X1267801Y-21837603D01*
X1267801Y-21837603D02*
X1248753Y-21847127D01*
X1448753Y-21970936D02*
X1458277Y-21980460D01*
X1458277Y-21980460D02*
X1448753Y-21989984D01*
X1448753Y-21989984D02*
X1439229Y-21980460D01*
X1439229Y-21980460D02*
X1448753Y-21970936D01*
X1448753Y-21970936D02*
X1448753Y-21989984D01*
X1648753Y-21989984D02*
X1534467Y-21989984D01*
X1591610Y-21989984D02*
X1591610Y-21789984D01*
X1591610Y-21789984D02*
X1572562Y-21818555D01*
X1572562Y-21818555D02*
X1553515Y-21837603D01*
X1553515Y-21837603D02*
X1534467Y-21847127D01*
X1772562Y-21789984D02*
X1791610Y-21789984D01*
X1791610Y-21789984D02*
X1810658Y-21799508D01*
X1810658Y-21799508D02*
X1820182Y-21809031D01*
X1820182Y-21809031D02*
X1829705Y-21828079D01*
X1829705Y-21828079D02*
X1839229Y-21866174D01*
X1839229Y-21866174D02*
X1839229Y-21913793D01*
X1839229Y-21913793D02*
X1829705Y-21951889D01*
X1829705Y-21951889D02*
X1820182Y-21970936D01*
X1820182Y-21970936D02*
X1810658Y-21980460D01*
X1810658Y-21980460D02*
X1791610Y-21989984D01*
X1791610Y-21989984D02*
X1772562Y-21989984D01*
X1772562Y-21989984D02*
X1753515Y-21980460D01*
X1753515Y-21980460D02*
X1743991Y-21970936D01*
X1743991Y-21970936D02*
X1734467Y-21951889D01*
X1734467Y-21951889D02*
X1724943Y-21913793D01*
X1724943Y-21913793D02*
X1724943Y-21866174D01*
X1724943Y-21866174D02*
X1734467Y-21828079D01*
X1734467Y-21828079D02*
X1743991Y-21809031D01*
X1743991Y-21809031D02*
X1753515Y-21799508D01*
X1753515Y-21799508D02*
X1772562Y-21789984D01*
X1963039Y-21789984D02*
X1982086Y-21789984D01*
X1982086Y-21789984D02*
X2001134Y-21799508D01*
X2001134Y-21799508D02*
X2010658Y-21809031D01*
X2010658Y-21809031D02*
X2020182Y-21828079D01*
X2020182Y-21828079D02*
X2029705Y-21866174D01*
X2029705Y-21866174D02*
X2029705Y-21913793D01*
X2029705Y-21913793D02*
X2020182Y-21951889D01*
X2020182Y-21951889D02*
X2010658Y-21970936D01*
X2010658Y-21970936D02*
X2001134Y-21980460D01*
X2001134Y-21980460D02*
X1982086Y-21989984D01*
X1982086Y-21989984D02*
X1963039Y-21989984D01*
X1963039Y-21989984D02*
X1943991Y-21980460D01*
X1943991Y-21980460D02*
X1934467Y-21970936D01*
X1934467Y-21970936D02*
X1924943Y-21951889D01*
X1924943Y-21951889D02*
X1915420Y-21913793D01*
X1915420Y-21913793D02*
X1915420Y-21866174D01*
X1915420Y-21866174D02*
X1924943Y-21828079D01*
X1924943Y-21828079D02*
X1934467Y-21809031D01*
X1934467Y-21809031D02*
X1943991Y-21799508D01*
X1943991Y-21799508D02*
X1963039Y-21789984D01*
X2115420Y-21989984D02*
X2115420Y-21856650D01*
X2115420Y-21875698D02*
X2124944Y-21866174D01*
X2124944Y-21866174D02*
X2143991Y-21856650D01*
X2143991Y-21856650D02*
X2172563Y-21856650D01*
X2172563Y-21856650D02*
X2191610Y-21866174D01*
X2191610Y-21866174D02*
X2201134Y-21885222D01*
X2201134Y-21885222D02*
X2201134Y-21989984D01*
X2201134Y-21885222D02*
X2210658Y-21866174D01*
X2210658Y-21866174D02*
X2229705Y-21856650D01*
X2229705Y-21856650D02*
X2258277Y-21856650D01*
X2258277Y-21856650D02*
X2277325Y-21866174D01*
X2277325Y-21866174D02*
X2286848Y-21885222D01*
X2286848Y-21885222D02*
X2286848Y-21989984D01*
X2382086Y-21989984D02*
X2382086Y-21856650D01*
X2382086Y-21875698D02*
X2391610Y-21866174D01*
X2391610Y-21866174D02*
X2410658Y-21856650D01*
X2410658Y-21856650D02*
X2439229Y-21856650D01*
X2439229Y-21856650D02*
X2458277Y-21866174D01*
X2458277Y-21866174D02*
X2467801Y-21885222D01*
X2467801Y-21885222D02*
X2467801Y-21989984D01*
X2467801Y-21885222D02*
X2477325Y-21866174D01*
X2477325Y-21866174D02*
X2496372Y-21856650D01*
X2496372Y-21856650D02*
X2524944Y-21856650D01*
X2524944Y-21856650D02*
X2543991Y-21866174D01*
X2543991Y-21866174D02*
X2553515Y-21885222D01*
X2553515Y-21885222D02*
X2553515Y-21989984D01*
X2943991Y-21780460D02*
X2772563Y-22037603D01*
X3201134Y-21789984D02*
X3220182Y-21789984D01*
X3220182Y-21789984D02*
X3239229Y-21799508D01*
X3239229Y-21799508D02*
X3248753Y-21809031D01*
X3248753Y-21809031D02*
X3258277Y-21828079D01*
X3258277Y-21828079D02*
X3267801Y-21866174D01*
X3267801Y-21866174D02*
X3267801Y-21913793D01*
X3267801Y-21913793D02*
X3258277Y-21951889D01*
X3258277Y-21951889D02*
X3248753Y-21970936D01*
X3248753Y-21970936D02*
X3239229Y-21980460D01*
X3239229Y-21980460D02*
X3220182Y-21989984D01*
X3220182Y-21989984D02*
X3201134Y-21989984D01*
X3201134Y-21989984D02*
X3182086Y-21980460D01*
X3182086Y-21980460D02*
X3172563Y-21970936D01*
X3172563Y-21970936D02*
X3163039Y-21951889D01*
X3163039Y-21951889D02*
X3153515Y-21913793D01*
X3153515Y-21913793D02*
X3153515Y-21866174D01*
X3153515Y-21866174D02*
X3163039Y-21828079D01*
X3163039Y-21828079D02*
X3172563Y-21809031D01*
X3172563Y-21809031D02*
X3182086Y-21799508D01*
X3182086Y-21799508D02*
X3201134Y-21789984D01*
X3353515Y-21970936D02*
X3363039Y-21980460D01*
X3363039Y-21980460D02*
X3353515Y-21989984D01*
X3353515Y-21989984D02*
X3343991Y-21980460D01*
X3343991Y-21980460D02*
X3353515Y-21970936D01*
X3353515Y-21970936D02*
X3353515Y-21989984D01*
X3486848Y-21789984D02*
X3505896Y-21789984D01*
X3505896Y-21789984D02*
X3524944Y-21799508D01*
X3524944Y-21799508D02*
X3534467Y-21809031D01*
X3534467Y-21809031D02*
X3543991Y-21828079D01*
X3543991Y-21828079D02*
X3553515Y-21866174D01*
X3553515Y-21866174D02*
X3553515Y-21913793D01*
X3553515Y-21913793D02*
X3543991Y-21951889D01*
X3543991Y-21951889D02*
X3534467Y-21970936D01*
X3534467Y-21970936D02*
X3524944Y-21980460D01*
X3524944Y-21980460D02*
X3505896Y-21989984D01*
X3505896Y-21989984D02*
X3486848Y-21989984D01*
X3486848Y-21989984D02*
X3467801Y-21980460D01*
X3467801Y-21980460D02*
X3458277Y-21970936D01*
X3458277Y-21970936D02*
X3448753Y-21951889D01*
X3448753Y-21951889D02*
X3439229Y-21913793D01*
X3439229Y-21913793D02*
X3439229Y-21866174D01*
X3439229Y-21866174D02*
X3448753Y-21828079D01*
X3448753Y-21828079D02*
X3458277Y-21809031D01*
X3458277Y-21809031D02*
X3467801Y-21799508D01*
X3467801Y-21799508D02*
X3486848Y-21789984D01*
X3724944Y-21856650D02*
X3724944Y-21989984D01*
X3677325Y-21780460D02*
X3629706Y-21923317D01*
X3629706Y-21923317D02*
X3753515Y-21923317D01*
X3810658Y-21789984D02*
X3934467Y-21789984D01*
X3934467Y-21789984D02*
X3867801Y-21866174D01*
X3867801Y-21866174D02*
X3896372Y-21866174D01*
X3896372Y-21866174D02*
X3915420Y-21875698D01*
X3915420Y-21875698D02*
X3924944Y-21885222D01*
X3924944Y-21885222D02*
X3934467Y-21904270D01*
X3934467Y-21904270D02*
X3934467Y-21951889D01*
X3934467Y-21951889D02*
X3924944Y-21970936D01*
X3924944Y-21970936D02*
X3915420Y-21980460D01*
X3915420Y-21980460D02*
X3896372Y-21989984D01*
X3896372Y-21989984D02*
X3839229Y-21989984D01*
X3839229Y-21989984D02*
X3820182Y-21980460D01*
X3820182Y-21980460D02*
X3810658Y-21970936D01*
X4001134Y-21789984D02*
X4124944Y-21789984D01*
X4124944Y-21789984D02*
X4058277Y-21866174D01*
X4058277Y-21866174D02*
X4086848Y-21866174D01*
X4086848Y-21866174D02*
X4105896Y-21875698D01*
X4105896Y-21875698D02*
X4115420Y-21885222D01*
X4115420Y-21885222D02*
X4124944Y-21904270D01*
X4124944Y-21904270D02*
X4124944Y-21951889D01*
X4124944Y-21951889D02*
X4115420Y-21970936D01*
X4115420Y-21970936D02*
X4105896Y-21980460D01*
X4105896Y-21980460D02*
X4086848Y-21989984D01*
X4086848Y-21989984D02*
X4029706Y-21989984D01*
X4029706Y-21989984D02*
X4010658Y-21980460D01*
X4010658Y-21980460D02*
X4001134Y-21970936D01*
X4201134Y-21789984D02*
X4201134Y-21828079D01*
X4277325Y-21789984D02*
X4277325Y-21828079D01*
X4572563Y-22066174D02*
X4563039Y-22056650D01*
X4563039Y-22056650D02*
X4543991Y-22028079D01*
X4543991Y-22028079D02*
X4534468Y-22009031D01*
X4534468Y-22009031D02*
X4524944Y-21980460D01*
X4524944Y-21980460D02*
X4515420Y-21932841D01*
X4515420Y-21932841D02*
X4515420Y-21894746D01*
X4515420Y-21894746D02*
X4524944Y-21847127D01*
X4524944Y-21847127D02*
X4534468Y-21818555D01*
X4534468Y-21818555D02*
X4543991Y-21799508D01*
X4543991Y-21799508D02*
X4563039Y-21770936D01*
X4563039Y-21770936D02*
X4572563Y-21761412D01*
X4639230Y-21809031D02*
X4648753Y-21799508D01*
X4648753Y-21799508D02*
X4667801Y-21789984D01*
X4667801Y-21789984D02*
X4715420Y-21789984D01*
X4715420Y-21789984D02*
X4734468Y-21799508D01*
X4734468Y-21799508D02*
X4743991Y-21809031D01*
X4743991Y-21809031D02*
X4753515Y-21828079D01*
X4753515Y-21828079D02*
X4753515Y-21847127D01*
X4753515Y-21847127D02*
X4743991Y-21875698D01*
X4743991Y-21875698D02*
X4629706Y-21989984D01*
X4629706Y-21989984D02*
X4753515Y-21989984D01*
X4991611Y-21989984D02*
X4991611Y-21789984D01*
X5077325Y-21989984D02*
X5077325Y-21885222D01*
X5077325Y-21885222D02*
X5067801Y-21866174D01*
X5067801Y-21866174D02*
X5048753Y-21856650D01*
X5048753Y-21856650D02*
X5020182Y-21856650D01*
X5020182Y-21856650D02*
X5001134Y-21866174D01*
X5001134Y-21866174D02*
X4991611Y-21875698D01*
X5201134Y-21989984D02*
X5182087Y-21980460D01*
X5182087Y-21980460D02*
X5172563Y-21970936D01*
X5172563Y-21970936D02*
X5163039Y-21951889D01*
X5163039Y-21951889D02*
X5163039Y-21894746D01*
X5163039Y-21894746D02*
X5172563Y-21875698D01*
X5172563Y-21875698D02*
X5182087Y-21866174D01*
X5182087Y-21866174D02*
X5201134Y-21856650D01*
X5201134Y-21856650D02*
X5229706Y-21856650D01*
X5229706Y-21856650D02*
X5248753Y-21866174D01*
X5248753Y-21866174D02*
X5258277Y-21875698D01*
X5258277Y-21875698D02*
X5267801Y-21894746D01*
X5267801Y-21894746D02*
X5267801Y-21951889D01*
X5267801Y-21951889D02*
X5258277Y-21970936D01*
X5258277Y-21970936D02*
X5248753Y-21980460D01*
X5248753Y-21980460D02*
X5229706Y-21989984D01*
X5229706Y-21989984D02*
X5201134Y-21989984D01*
X5382087Y-21989984D02*
X5363039Y-21980460D01*
X5363039Y-21980460D02*
X5353515Y-21961412D01*
X5353515Y-21961412D02*
X5353515Y-21789984D01*
X5534468Y-21980460D02*
X5515420Y-21989984D01*
X5515420Y-21989984D02*
X5477325Y-21989984D01*
X5477325Y-21989984D02*
X5458277Y-21980460D01*
X5458277Y-21980460D02*
X5448753Y-21961412D01*
X5448753Y-21961412D02*
X5448753Y-21885222D01*
X5448753Y-21885222D02*
X5458277Y-21866174D01*
X5458277Y-21866174D02*
X5477325Y-21856650D01*
X5477325Y-21856650D02*
X5515420Y-21856650D01*
X5515420Y-21856650D02*
X5534468Y-21866174D01*
X5534468Y-21866174D02*
X5543992Y-21885222D01*
X5543992Y-21885222D02*
X5543992Y-21904270D01*
X5543992Y-21904270D02*
X5448753Y-21923317D01*
X5620182Y-21980460D02*
X5639230Y-21989984D01*
X5639230Y-21989984D02*
X5677325Y-21989984D01*
X5677325Y-21989984D02*
X5696372Y-21980460D01*
X5696372Y-21980460D02*
X5705896Y-21961412D01*
X5705896Y-21961412D02*
X5705896Y-21951889D01*
X5705896Y-21951889D02*
X5696372Y-21932841D01*
X5696372Y-21932841D02*
X5677325Y-21923317D01*
X5677325Y-21923317D02*
X5648753Y-21923317D01*
X5648753Y-21923317D02*
X5629706Y-21913793D01*
X5629706Y-21913793D02*
X5620182Y-21894746D01*
X5620182Y-21894746D02*
X5620182Y-21885222D01*
X5620182Y-21885222D02*
X5629706Y-21866174D01*
X5629706Y-21866174D02*
X5648753Y-21856650D01*
X5648753Y-21856650D02*
X5677325Y-21856650D01*
X5677325Y-21856650D02*
X5696372Y-21866174D01*
X5772563Y-22066174D02*
X5782087Y-22056650D01*
X5782087Y-22056650D02*
X5801134Y-22028079D01*
X5801134Y-22028079D02*
X5810658Y-22009031D01*
X5810658Y-22009031D02*
X5820182Y-21980460D01*
X5820182Y-21980460D02*
X5829706Y-21932841D01*
X5829706Y-21932841D02*
X5829706Y-21894746D01*
X5829706Y-21894746D02*
X5820182Y-21847127D01*
X5820182Y-21847127D02*
X5810658Y-21818555D01*
X5810658Y-21818555D02*
X5801134Y-21799508D01*
X5801134Y-21799508D02*
X5782087Y-21770936D01*
X5782087Y-21770936D02*
X5772563Y-21761412D01*
M02*
